  0
SECTION
  2
BLOCKS
  0
ENDSEC
  0
SECTION
  2
ENTITIES
  0
LINE
  8
0
 10
185.051
 20
-9.48828
 11
223.43
 21
-7.90332
  0
LINE
  8
0
 10
223.43
 20
-7.90332
 11
261.952
 21
-3.83887
  0
LINE
  8
0
 10
261.952
 20
-3.83887
 11
299.9
 21
3.59668
  0
LINE
  8
0
 10
299.9
 20
3.59668
 11
321.894
 21
9.77344
  0
LINE
  8
0
 10
321.894
 20
9.77344
 11
342.534
 21
16.9248
  0
LINE
  8
0
 10
342.534
 20
16.9248
 11
361.112
 21
24.7344
  0
LINE
  8
0
 10
361.112
 20
24.7344
 11
376.896
 21
32.8525
  0
LINE
  8
0
 10
376.896
 20
32.8525
 11
389.106
 21
40.8408
  0
LINE
  8
0
 10
389.106
 20
40.8408
 11
397.633
 21
48.3994
  0
LINE
  8
0
 10
397.633
 20
48.3994
 11
403.29
 21
55.5039
  0
LINE
  8
0
 10
403.29
 20
55.5039
 11
406.917
 21
62.2627
  0
LINE
  8
0
 10
406.917
 20
62.2627
 11
408.911
 21
68.7031
  0
LINE
  8
0
 10
408.911
 20
68.7031
 11
409.575
 21
76.2002
  0
LINE
  8
0
 10
409.575
 20
76.2002
 11
408.911
 21
83.6973
  0
LINE
  8
0
 10
408.911
 20
83.6973
 11
406.917
 21
90.1377
  0
LINE
  8
0
 10
406.917
 20
90.1377
 11
403.29
 21
96.8965
  0
LINE
  8
0
 10
403.29
 20
96.8965
 11
397.633
 21
104.001
  0
LINE
  8
0
 10
397.633
 20
104.001
 11
389.106
 21
111.56
  0
LINE
  8
0
 10
389.106
 20
111.56
 11
376.896
 21
119.547
  0
LINE
  8
0
 10
376.896
 20
119.547
 11
361.112
 21
127.665
  0
LINE
  8
0
 10
361.112
 20
127.665
 11
342.534
 21
135.476
  0
LINE
  8
0
 10
342.534
 20
135.476
 11
321.894
 21
142.627
  0
LINE
  8
0
 10
321.894
 20
142.627
 11
299.9
 21
148.804
  0
LINE
  8
0
 10
299.9
 20
148.804
 11
261.952
 21
156.238
  0
LINE
  8
0
 10
261.952
 20
156.238
 11
223.43
 21
160.304
  0
LINE
  8
0
 10
223.43
 20
160.304
 11
185.051
 21
161.888
  0
LINE
  8
0
 10
185.051
 20
161.888
 11
147.54
 21
161.911
  0
LINE
  8
0
 10
147.54
 20
161.911
 11
111.328
 21
161.115
  0
LINE
  8
0
 10
111.328
 20
161.115
 11
75.2949
 21
159.543
  0
LINE
  8
0
 10
75.2949
 20
159.543
 11
37.4678
 21
157.042
  0
LINE
  8
0
 10
37.4678
 20
157.042
 11
-3.32129
 21
153.522
  0
LINE
  8
0
 10
-3.32129
 20
153.522
 11
-46.585
 21
149.258
  0
LINE
  8
0
 10
-46.585
 20
149.258
 11
-90.2314
 21
144.818
  0
LINE
  8
0
 10
-90.2314
 20
144.818
 11
-132.146
 21
140.78
  0
LINE
  8
0
 10
-132.146
 20
140.78
 11
-161.899
 21
138.272
  0
LINE
  8
0
 10
-161.899
 20
138.272
 11
-190.919
 21
135.78
  0
LINE
  8
0
 10
-190.919
 20
135.78
 11
-218.463
 21
132.187
  0
LINE
  8
0
 10
-218.463
 20
132.187
 11
-231.403
 21
129.27
  0
LINE
  8
0
 10
-231.403
 20
129.27
 11
-242.794
 21
124.947
  0
LINE
  8
0
 10
-242.794
 20
124.947
 11
-250.913
 21
118.564
  0
LINE
  8
0
 10
-250.913
 20
118.564
 11
-254.705
 21
110.757
  0
LINE
  8
0
 10
-254.705
 20
110.757
 11
-256.552
 21
100.116
  0
LINE
  8
0
 10
-256.552
 20
100.116
 11
-257.175
 21
81.1055
  0
LINE
  8
0
 10
-257.175
 20
81.1055
 11
-257.175
 21
71.2949
  0
LINE
  8
0
 10
-257.175
 20
71.2949
 11
-256.552
 21
52.2842
  0
LINE
  8
0
 10
-256.552
 20
52.2842
 11
-254.705
 21
41.6436
  0
LINE
  8
0
 10
-254.705
 20
41.6436
 11
-250.913
 21
33.835
  0
LINE
  8
0
 10
-250.913
 20
33.835
 11
-242.794
 21
27.4521
  0
LINE
  8
0
 10
-242.794
 20
27.4521
 11
-231.403
 21
23.1309
  0
LINE
  8
0
 10
-231.403
 20
23.1309
 11
-218.463
 21
20.2129
  0
LINE
  8
0
 10
-218.463
 20
20.2129
 11
-190.919
 21
16.6191
  0
LINE
  8
0
 10
-190.919
 20
16.6191
 11
-161.899
 21
14.1279
  0
LINE
  8
0
 10
-161.899
 20
14.1279
 11
-132.146
 21
11.6201
  0
LINE
  8
0
 10
-132.146
 20
11.6201
 11
-90.2314
 21
7.58203
  0
LINE
  8
0
 10
-90.2314
 20
7.58203
 11
-46.585
 21
3.1416
  0
LINE
  8
0
 10
-46.585
 20
3.1416
 11
-19.7154
 21
0.492981
  0
LINE
  8
0
 10
-19.7154
 20
0.492981
 11
-9.99998
 21
17.3205
  0
LINE
  8
0
 10
-9.99998
 20
17.3205
 11
10
 21
17.3205
  0
LINE
  8
0
 10
10
 20
17.3205
 11
20
 21
0
  0
LINE
  8
0
 10
20
 20
0
 11
18.2757
 21
-2.98657
  0
LINE
  8
0
 10
18.2757
 20
-2.98657
 11
37.4678
 21
-4.64258
  0
LINE
  8
0
 10
37.4678
 20
-4.64258
 11
75.2949
 21
-7.14258
  0
LINE
  8
0
 10
75.2949
 20
-7.14258
 11
111.328
 21
-8.71582
  0
LINE
  8
0
 10
111.328
 20
-8.71582
 11
147.54
 21
-9.51074
  0
LINE
  8
0
 10
147.54
 20
-9.51074
 11
185.051
 21
-9.48828
  0
LINE
  8
0
 10
-159.617
 20
46.0371
 11
-159.617
 21
106.362
  0
LINE
  8
0
 10
-159.617
 20
106.362
 11
-77.0674
 21
106.362
  0
LINE
  8
0
 10
-77.0674
 20
106.362
 11
-77.0674
 21
46.0371
  0
LINE
  8
0
 10
-77.0674
 20
46.0371
 11
-159.617
 21
46.0371
  0
LINE
  8
0
 10
283.483
 20
46.0371
 11
283.483
 21
106.362
  0
LINE
  8
0
 10
283.483
 20
106.362
 11
366.034
 21
106.362
  0
LINE
  8
0
 10
366.034
 20
106.362
 11
366.034
 21
46.0371
  0
LINE
  8
0
 10
366.034
 20
46.0371
 11
283.483
 21
46.0371
  0
ENDSEC
  0
SECTION
  2
OBJECTS
  0
DICTIONARY
  0
ENDSEC
  0
EOF
