  0
SECTION
  2
BLOCKS
  0
ENDSEC
  0
SECTION
  2
ENTITIES
  0
LINE
  8
0
 10
47.1219
 20
-2999.63
 11
94.2323
 21
-2998.52
  0
LINE
  8
0
 10
94.2323
 20
-2998.52
 11
141.319
 21
-2996.67
  0
LINE
  8
0
 10
141.319
 20
-2996.67
 11
188.372
 21
-2994.08
  0
LINE
  8
0
 10
188.372
 20
-2994.08
 11
235.377
 21
-2990.75
  0
LINE
  8
0
 10
235.377
 20
-2990.75
 11
282.325
 21
-2986.69
  0
LINE
  8
0
 10
282.325
 20
-2986.69
 11
329.203
 21
-2981.88
  0
LINE
  8
0
 10
329.203
 20
-2981.88
 11
376
 21
-2976.34
  0
LINE
  8
0
 10
376
 20
-2976.34
 11
422.704
 21
-2970.07
  0
LINE
  8
0
 10
422.704
 20
-2970.07
 11
469.303
 21
-2963.07
  0
LINE
  8
0
 10
469.303
 20
-2963.07
 11
515.787
 21
-2955.33
  0
LINE
  8
0
 10
515.787
 20
-2955.33
 11
562.144
 21
-2946.86
  0
LINE
  8
0
 10
562.144
 20
-2946.86
 11
608.362
 21
-2937.67
  0
LINE
  8
0
 10
608.362
 20
-2937.67
 11
654.43
 21
-2927.75
  0
LINE
  8
0
 10
654.43
 20
-2927.75
 11
700.336
 21
-2917.11
  0
LINE
  8
0
 10
700.336
 20
-2917.11
 11
746.07
 21
-2905.75
  0
LINE
  8
0
 10
746.07
 20
-2905.75
 11
791.619
 21
-2893.67
  0
LINE
  8
0
 10
791.619
 20
-2893.67
 11
836.973
 21
-2880.88
  0
LINE
  8
0
 10
836.973
 20
-2880.88
 11
882.121
 21
-2867.38
  0
LINE
  8
0
 10
882.121
 20
-2867.38
 11
927.051
 21
-2853.17
  0
LINE
  8
0
 10
927.051
 20
-2853.17
 11
971.752
 21
-2838.26
  0
LINE
  8
0
 10
971.752
 20
-2838.26
 11
1016.21
 21
-2822.64
  0
LINE
  8
0
 10
1016.21
 20
-2822.64
 11
1060.42
 21
-2806.33
  0
LINE
  8
0
 10
1060.42
 20
-2806.33
 11
1104.37
 21
-2789.33
  0
LINE
  8
0
 10
1104.37
 20
-2789.33
 11
1148.05
 21
-2771.64
  0
LINE
  8
0
 10
1148.05
 20
-2771.64
 11
1191.44
 21
-2753.26
  0
LINE
  8
0
 10
1191.44
 20
-2753.26
 11
1234.54
 21
-2734.21
  0
LINE
  8
0
 10
1234.54
 20
-2734.21
 11
1277.34
 21
-2714.48
  0
LINE
  8
0
 10
1277.34
 20
-2714.48
 11
1319.82
 21
-2694.08
  0
LINE
  8
0
 10
1319.82
 20
-2694.08
 11
1361.97
 21
-2673.02
  0
LINE
  8
0
 10
1361.97
 20
-2673.02
 11
1403.79
 21
-2651.3
  0
LINE
  8
0
 10
1403.79
 20
-2651.3
 11
1445.26
 21
-2628.92
  0
LINE
  8
0
 10
1445.26
 20
-2628.92
 11
1486.38
 21
-2605.89
  0
LINE
  8
0
 10
1486.38
 20
-2605.89
 11
1527.12
 21
-2582.23
  0
LINE
  8
0
 10
1527.12
 20
-2582.23
 11
1567.5
 21
-2557.92
  0
LINE
  8
0
 10
1567.5
 20
-2557.92
 11
1607.48
 21
-2532.98
  0
LINE
  8
0
 10
1607.48
 20
-2532.98
 11
1647.07
 21
-2507.42
  0
LINE
  8
0
 10
1647.07
 20
-2507.42
 11
1686.25
 21
-2481.24
  0
LINE
  8
0
 10
1686.25
 20
-2481.24
 11
1725.02
 21
-2454.45
  0
LINE
  8
0
 10
1725.02
 20
-2454.45
 11
1763.36
 21
-2427.05
  0
LINE
  8
0
 10
1763.36
 20
-2427.05
 11
1801.26
 21
-2399.05
  0
LINE
  8
0
 10
1801.26
 20
-2399.05
 11
1838.72
 21
-2370.47
  0
LINE
  8
0
 10
1838.72
 20
-2370.47
 11
1875.73
 21
-2341.29
  0
LINE
  8
0
 10
1875.73
 20
-2341.29
 11
1912.27
 21
-2311.54
  0
LINE
  8
0
 10
1912.27
 20
-2311.54
 11
1948.34
 21
-2281.22
  0
LINE
  8
0
 10
1948.34
 20
-2281.22
 11
1983.94
 21
-2250.33
  0
LINE
  8
0
 10
1983.94
 20
-2250.33
 11
2019.04
 21
-2218.89
  0
LINE
  8
0
 10
2019.04
 20
-2218.89
 11
2053.64
 21
-2186.91
  0
LINE
  8
0
 10
2053.64
 20
-2186.91
 11
2087.74
 21
-2154.38
  0
LINE
  8
0
 10
2087.74
 20
-2154.38
 11
2121.32
 21
-2121.32
  0
LINE
  8
0
 10
2121.32
 20
-2121.32
 11
2154.38
 21
-2087.74
  0
LINE
  8
0
 10
2154.38
 20
-2087.74
 11
2186.91
 21
-2053.64
  0
LINE
  8
0
 10
2186.91
 20
-2053.64
 11
2218.89
 21
-2019.04
  0
LINE
  8
0
 10
2218.89
 20
-2019.04
 11
2250.33
 21
-1983.94
  0
LINE
  8
0
 10
2250.33
 20
-1983.94
 11
2281.22
 21
-1948.34
  0
LINE
  8
0
 10
2281.22
 20
-1948.34
 11
2311.54
 21
-1912.27
  0
LINE
  8
0
 10
2311.54
 20
-1912.27
 11
2341.29
 21
-1875.73
  0
LINE
  8
0
 10
2341.29
 20
-1875.73
 11
2370.47
 21
-1838.72
  0
LINE
  8
0
 10
2370.47
 20
-1838.72
 11
2399.05
 21
-1801.26
  0
LINE
  8
0
 10
2399.05
 20
-1801.26
 11
2427.05
 21
-1763.36
  0
LINE
  8
0
 10
2427.05
 20
-1763.36
 11
2454.45
 21
-1725.02
  0
LINE
  8
0
 10
2454.45
 20
-1725.02
 11
2481.24
 21
-1686.25
  0
LINE
  8
0
 10
2481.24
 20
-1686.25
 11
2507.42
 21
-1647.07
  0
LINE
  8
0
 10
2507.42
 20
-1647.07
 11
2532.98
 21
-1607.48
  0
LINE
  8
0
 10
2532.98
 20
-1607.48
 11
2557.92
 21
-1567.5
  0
LINE
  8
0
 10
2557.92
 20
-1567.5
 11
2582.23
 21
-1527.12
  0
LINE
  8
0
 10
2582.23
 20
-1527.12
 11
2605.89
 21
-1486.38
  0
LINE
  8
0
 10
2605.89
 20
-1486.38
 11
2628.92
 21
-1445.26
  0
LINE
  8
0
 10
2628.92
 20
-1445.26
 11
2651.3
 21
-1403.79
  0
LINE
  8
0
 10
2651.3
 20
-1403.79
 11
2673.02
 21
-1361.97
  0
LINE
  8
0
 10
2673.02
 20
-1361.97
 11
2694.08
 21
-1319.82
  0
LINE
  8
0
 10
2694.08
 20
-1319.82
 11
2714.48
 21
-1277.34
  0
LINE
  8
0
 10
2714.48
 20
-1277.34
 11
2734.21
 21
-1234.54
  0
LINE
  8
0
 10
2734.21
 20
-1234.54
 11
2753.26
 21
-1191.44
  0
LINE
  8
0
 10
2753.26
 20
-1191.44
 11
2771.64
 21
-1148.05
  0
LINE
  8
0
 10
2771.64
 20
-1148.05
 11
2789.33
 21
-1104.37
  0
LINE
  8
0
 10
2789.33
 20
-1104.37
 11
2806.33
 21
-1060.42
  0
LINE
  8
0
 10
2806.33
 20
-1060.42
 11
2822.64
 21
-1016.21
  0
LINE
  8
0
 10
2822.64
 20
-1016.21
 11
2838.26
 21
-971.752
  0
LINE
  8
0
 10
2838.26
 20
-971.752
 11
2853.17
 21
-927.051
  0
LINE
  8
0
 10
2853.17
 20
-927.051
 11
2867.38
 21
-882.121
  0
LINE
  8
0
 10
2867.38
 20
-882.121
 11
2880.88
 21
-836.973
  0
LINE
  8
0
 10
2880.88
 20
-836.973
 11
2893.67
 21
-791.619
  0
LINE
  8
0
 10
2893.67
 20
-791.619
 11
2905.75
 21
-746.07
  0
LINE
  8
0
 10
2905.75
 20
-746.07
 11
2917.11
 21
-700.336
  0
LINE
  8
0
 10
2917.11
 20
-700.336
 11
2927.75
 21
-654.43
  0
LINE
  8
0
 10
2927.75
 20
-654.43
 11
2937.67
 21
-608.362
  0
LINE
  8
0
 10
2937.67
 20
-608.362
 11
2946.86
 21
-562.144
  0
LINE
  8
0
 10
2946.86
 20
-562.144
 11
2955.33
 21
-515.787
  0
LINE
  8
0
 10
2955.33
 20
-515.787
 11
2963.07
 21
-469.303
  0
LINE
  8
0
 10
2963.07
 20
-469.303
 11
2970.07
 21
-422.704
  0
LINE
  8
0
 10
2970.07
 20
-422.704
 11
2976.34
 21
-376
  0
LINE
  8
0
 10
2976.34
 20
-376
 11
2981.88
 21
-329.203
  0
LINE
  8
0
 10
2981.88
 20
-329.203
 11
2986.69
 21
-282.325
  0
LINE
  8
0
 10
2986.69
 20
-282.325
 11
2990.75
 21
-235.377
  0
LINE
  8
0
 10
2990.75
 20
-235.377
 11
2994.08
 21
-188.372
  0
LINE
  8
0
 10
2994.08
 20
-188.372
 11
2996.67
 21
-141.319
  0
LINE
  8
0
 10
2996.67
 20
-141.319
 11
2998.52
 21
-94.2323
  0
LINE
  8
0
 10
2998.52
 20
-94.2323
 11
2999.63
 21
-47.1219
  0
LINE
  8
0
 10
2999.63
 20
-47.1219
 11
3000
 21
0
  0
LINE
  8
0
 10
3000
 20
0
 11
2999.63
 21
47.1219
  0
LINE
  8
0
 10
2999.63
 20
47.1219
 11
2998.52
 21
94.2323
  0
LINE
  8
0
 10
2998.52
 20
94.2323
 11
2996.67
 21
141.319
  0
LINE
  8
0
 10
2996.67
 20
141.319
 11
2994.08
 21
188.372
  0
LINE
  8
0
 10
2994.08
 20
188.372
 11
2990.75
 21
235.377
  0
LINE
  8
0
 10
2990.75
 20
235.377
 11
2986.69
 21
282.325
  0
LINE
  8
0
 10
2986.69
 20
282.325
 11
2981.88
 21
329.203
  0
LINE
  8
0
 10
2981.88
 20
329.203
 11
2976.34
 21
376
  0
LINE
  8
0
 10
2976.34
 20
376
 11
2970.07
 21
422.704
  0
LINE
  8
0
 10
2970.07
 20
422.704
 11
2963.07
 21
469.303
  0
LINE
  8
0
 10
2963.07
 20
469.303
 11
2955.33
 21
515.787
  0
LINE
  8
0
 10
2955.33
 20
515.787
 11
2946.86
 21
562.144
  0
LINE
  8
0
 10
2946.86
 20
562.144
 11
2937.67
 21
608.362
  0
LINE
  8
0
 10
2937.67
 20
608.362
 11
2927.75
 21
654.43
  0
LINE
  8
0
 10
2927.75
 20
654.43
 11
2917.11
 21
700.336
  0
LINE
  8
0
 10
2917.11
 20
700.336
 11
2905.75
 21
746.07
  0
LINE
  8
0
 10
2905.75
 20
746.07
 11
2893.67
 21
791.619
  0
LINE
  8
0
 10
2893.67
 20
791.619
 11
2880.88
 21
836.973
  0
LINE
  8
0
 10
2880.88
 20
836.973
 11
2867.38
 21
882.121
  0
LINE
  8
0
 10
2867.38
 20
882.121
 11
2853.17
 21
927.051
  0
LINE
  8
0
 10
2853.17
 20
927.051
 11
2838.26
 21
971.752
  0
LINE
  8
0
 10
2838.26
 20
971.752
 11
2822.64
 21
1016.21
  0
LINE
  8
0
 10
2822.64
 20
1016.21
 11
2806.33
 21
1060.42
  0
LINE
  8
0
 10
2806.33
 20
1060.42
 11
2789.33
 21
1104.37
  0
LINE
  8
0
 10
2789.33
 20
1104.37
 11
2771.64
 21
1148.05
  0
LINE
  8
0
 10
2771.64
 20
1148.05
 11
2753.26
 21
1191.44
  0
LINE
  8
0
 10
2753.26
 20
1191.44
 11
2734.21
 21
1234.54
  0
LINE
  8
0
 10
2734.21
 20
1234.54
 11
2714.48
 21
1277.34
  0
LINE
  8
0
 10
2714.48
 20
1277.34
 11
2694.08
 21
1319.82
  0
LINE
  8
0
 10
2694.08
 20
1319.82
 11
2673.02
 21
1361.97
  0
LINE
  8
0
 10
2673.02
 20
1361.97
 11
2651.3
 21
1403.79
  0
LINE
  8
0
 10
2651.3
 20
1403.79
 11
2628.92
 21
1445.26
  0
LINE
  8
0
 10
2628.92
 20
1445.26
 11
2605.89
 21
1486.38
  0
LINE
  8
0
 10
2605.89
 20
1486.38
 11
2582.23
 21
1527.12
  0
LINE
  8
0
 10
2582.23
 20
1527.12
 11
2557.92
 21
1567.5
  0
LINE
  8
0
 10
2557.92
 20
1567.5
 11
2532.98
 21
1607.48
  0
LINE
  8
0
 10
2532.98
 20
1607.48
 11
2507.42
 21
1647.07
  0
LINE
  8
0
 10
2507.42
 20
1647.07
 11
2481.24
 21
1686.25
  0
LINE
  8
0
 10
2481.24
 20
1686.25
 11
2454.45
 21
1725.02
  0
LINE
  8
0
 10
2454.45
 20
1725.02
 11
2427.05
 21
1763.36
  0
LINE
  8
0
 10
2427.05
 20
1763.36
 11
2399.05
 21
1801.26
  0
LINE
  8
0
 10
2399.05
 20
1801.26
 11
2370.47
 21
1838.72
  0
LINE
  8
0
 10
2370.47
 20
1838.72
 11
2341.29
 21
1875.73
  0
LINE
  8
0
 10
2341.29
 20
1875.73
 11
2311.54
 21
1912.27
  0
LINE
  8
0
 10
2311.54
 20
1912.27
 11
2281.22
 21
1948.34
  0
LINE
  8
0
 10
2281.22
 20
1948.34
 11
2250.33
 21
1983.94
  0
LINE
  8
0
 10
2250.33
 20
1983.94
 11
2218.89
 21
2019.04
  0
LINE
  8
0
 10
2218.89
 20
2019.04
 11
2186.91
 21
2053.64
  0
LINE
  8
0
 10
2186.91
 20
2053.64
 11
2154.38
 21
2087.74
  0
LINE
  8
0
 10
2154.38
 20
2087.74
 11
2121.32
 21
2121.32
  0
LINE
  8
0
 10
2121.32
 20
2121.32
 11
2087.74
 21
2154.38
  0
LINE
  8
0
 10
2087.74
 20
2154.38
 11
2053.64
 21
2186.91
  0
LINE
  8
0
 10
2053.64
 20
2186.91
 11
2019.04
 21
2218.89
  0
LINE
  8
0
 10
2019.04
 20
2218.89
 11
1983.94
 21
2250.33
  0
LINE
  8
0
 10
1983.94
 20
2250.33
 11
1948.34
 21
2281.22
  0
LINE
  8
0
 10
1948.34
 20
2281.22
 11
1912.27
 21
2311.54
  0
LINE
  8
0
 10
1912.27
 20
2311.54
 11
1875.73
 21
2341.29
  0
LINE
  8
0
 10
1875.73
 20
2341.29
 11
1838.72
 21
2370.47
  0
LINE
  8
0
 10
1838.72
 20
2370.47
 11
1801.26
 21
2399.05
  0
LINE
  8
0
 10
1801.26
 20
2399.05
 11
1763.36
 21
2427.05
  0
LINE
  8
0
 10
1763.36
 20
2427.05
 11
1725.02
 21
2454.45
  0
LINE
  8
0
 10
1725.02
 20
2454.45
 11
1686.25
 21
2481.24
  0
LINE
  8
0
 10
1686.25
 20
2481.24
 11
1647.07
 21
2507.42
  0
LINE
  8
0
 10
1647.07
 20
2507.42
 11
1607.48
 21
2532.98
  0
LINE
  8
0
 10
1607.48
 20
2532.98
 11
1567.5
 21
2557.92
  0
LINE
  8
0
 10
1567.5
 20
2557.92
 11
1527.12
 21
2582.23
  0
LINE
  8
0
 10
1527.12
 20
2582.23
 11
1486.38
 21
2605.89
  0
LINE
  8
0
 10
1486.38
 20
2605.89
 11
1445.26
 21
2628.92
  0
LINE
  8
0
 10
1445.26
 20
2628.92
 11
1403.79
 21
2651.3
  0
LINE
  8
0
 10
1403.79
 20
2651.3
 11
1361.97
 21
2673.02
  0
LINE
  8
0
 10
1361.97
 20
2673.02
 11
1319.82
 21
2694.08
  0
LINE
  8
0
 10
1319.82
 20
2694.08
 11
1277.34
 21
2714.48
  0
LINE
  8
0
 10
1277.34
 20
2714.48
 11
1234.54
 21
2734.21
  0
LINE
  8
0
 10
1234.54
 20
2734.21
 11
1191.44
 21
2753.26
  0
LINE
  8
0
 10
1191.44
 20
2753.26
 11
1148.05
 21
2771.64
  0
LINE
  8
0
 10
1148.05
 20
2771.64
 11
1104.37
 21
2789.33
  0
LINE
  8
0
 10
1104.37
 20
2789.33
 11
1060.42
 21
2806.33
  0
LINE
  8
0
 10
1060.42
 20
2806.33
 11
1016.21
 21
2822.64
  0
LINE
  8
0
 10
1016.21
 20
2822.64
 11
971.752
 21
2838.26
  0
LINE
  8
0
 10
971.752
 20
2838.26
 11
927.051
 21
2853.17
  0
LINE
  8
0
 10
927.051
 20
2853.17
 11
882.121
 21
2867.38
  0
LINE
  8
0
 10
882.121
 20
2867.38
 11
836.973
 21
2880.88
  0
LINE
  8
0
 10
836.973
 20
2880.88
 11
791.619
 21
2893.67
  0
LINE
  8
0
 10
791.619
 20
2893.67
 11
746.07
 21
2905.75
  0
LINE
  8
0
 10
746.07
 20
2905.75
 11
700.336
 21
2917.11
  0
LINE
  8
0
 10
700.336
 20
2917.11
 11
654.43
 21
2927.75
  0
LINE
  8
0
 10
654.43
 20
2927.75
 11
608.362
 21
2937.67
  0
LINE
  8
0
 10
608.362
 20
2937.67
 11
562.144
 21
2946.86
  0
LINE
  8
0
 10
562.144
 20
2946.86
 11
515.787
 21
2955.33
  0
LINE
  8
0
 10
515.787
 20
2955.33
 11
469.303
 21
2963.07
  0
LINE
  8
0
 10
469.303
 20
2963.07
 11
422.704
 21
2970.07
  0
LINE
  8
0
 10
422.704
 20
2970.07
 11
376
 21
2976.34
  0
LINE
  8
0
 10
376
 20
2976.34
 11
329.203
 21
2981.88
  0
LINE
  8
0
 10
329.203
 20
2981.88
 11
282.325
 21
2986.69
  0
LINE
  8
0
 10
282.325
 20
2986.69
 11
235.377
 21
2990.75
  0
LINE
  8
0
 10
235.377
 20
2990.75
 11
188.372
 21
2994.08
  0
LINE
  8
0
 10
188.372
 20
2994.08
 11
141.319
 21
2996.67
  0
LINE
  8
0
 10
141.319
 20
2996.67
 11
94.2323
 21
2998.52
  0
LINE
  8
0
 10
94.2323
 20
2998.52
 11
47.1219
 21
2999.63
  0
LINE
  8
0
 10
47.1219
 20
2999.63
 11
0
 21
3000
  0
LINE
  8
0
 10
0
 20
3000
 11
-47.1219
 21
2999.63
  0
LINE
  8
0
 10
-47.1219
 20
2999.63
 11
-94.2323
 21
2998.52
  0
LINE
  8
0
 10
-94.2323
 20
2998.52
 11
-141.319
 21
2996.67
  0
LINE
  8
0
 10
-141.319
 20
2996.67
 11
-188.372
 21
2994.08
  0
LINE
  8
0
 10
-188.372
 20
2994.08
 11
-235.377
 21
2990.75
  0
LINE
  8
0
 10
-235.377
 20
2990.75
 11
-282.325
 21
2986.69
  0
LINE
  8
0
 10
-282.325
 20
2986.69
 11
-329.203
 21
2981.88
  0
LINE
  8
0
 10
-329.203
 20
2981.88
 11
-376
 21
2976.34
  0
LINE
  8
0
 10
-376
 20
2976.34
 11
-422.704
 21
2970.07
  0
LINE
  8
0
 10
-422.704
 20
2970.07
 11
-469.303
 21
2963.07
  0
LINE
  8
0
 10
-469.303
 20
2963.07
 11
-515.787
 21
2955.33
  0
LINE
  8
0
 10
-515.787
 20
2955.33
 11
-562.144
 21
2946.86
  0
LINE
  8
0
 10
-562.144
 20
2946.86
 11
-608.362
 21
2937.67
  0
LINE
  8
0
 10
-608.362
 20
2937.67
 11
-654.43
 21
2927.75
  0
LINE
  8
0
 10
-654.43
 20
2927.75
 11
-700.336
 21
2917.11
  0
LINE
  8
0
 10
-700.336
 20
2917.11
 11
-746.07
 21
2905.75
  0
LINE
  8
0
 10
-746.07
 20
2905.75
 11
-791.619
 21
2893.67
  0
LINE
  8
0
 10
-791.619
 20
2893.67
 11
-836.973
 21
2880.88
  0
LINE
  8
0
 10
-836.973
 20
2880.88
 11
-882.121
 21
2867.38
  0
LINE
  8
0
 10
-882.121
 20
2867.38
 11
-927.051
 21
2853.17
  0
LINE
  8
0
 10
-927.051
 20
2853.17
 11
-971.752
 21
2838.26
  0
LINE
  8
0
 10
-971.752
 20
2838.26
 11
-1016.21
 21
2822.64
  0
LINE
  8
0
 10
-1016.21
 20
2822.64
 11
-1060.42
 21
2806.33
  0
LINE
  8
0
 10
-1060.42
 20
2806.33
 11
-1104.37
 21
2789.33
  0
LINE
  8
0
 10
-1104.37
 20
2789.33
 11
-1148.05
 21
2771.64
  0
LINE
  8
0
 10
-1148.05
 20
2771.64
 11
-1191.44
 21
2753.26
  0
LINE
  8
0
 10
-1191.44
 20
2753.26
 11
-1234.54
 21
2734.21
  0
LINE
  8
0
 10
-1234.54
 20
2734.21
 11
-1277.34
 21
2714.48
  0
LINE
  8
0
 10
-1277.34
 20
2714.48
 11
-1319.82
 21
2694.08
  0
LINE
  8
0
 10
-1319.82
 20
2694.08
 11
-1361.97
 21
2673.02
  0
LINE
  8
0
 10
-1361.97
 20
2673.02
 11
-1403.79
 21
2651.3
  0
LINE
  8
0
 10
-1403.79
 20
2651.3
 11
-1445.26
 21
2628.92
  0
LINE
  8
0
 10
-1445.26
 20
2628.92
 11
-1486.38
 21
2605.89
  0
LINE
  8
0
 10
-1486.38
 20
2605.89
 11
-1527.12
 21
2582.23
  0
LINE
  8
0
 10
-1527.12
 20
2582.23
 11
-1567.5
 21
2557.92
  0
LINE
  8
0
 10
-1567.5
 20
2557.92
 11
-1607.48
 21
2532.98
  0
LINE
  8
0
 10
-1607.48
 20
2532.98
 11
-1647.07
 21
2507.42
  0
LINE
  8
0
 10
-1647.07
 20
2507.42
 11
-1686.25
 21
2481.24
  0
LINE
  8
0
 10
-1686.25
 20
2481.24
 11
-1725.02
 21
2454.45
  0
LINE
  8
0
 10
-1725.02
 20
2454.45
 11
-1763.36
 21
2427.05
  0
LINE
  8
0
 10
-1763.36
 20
2427.05
 11
-1801.26
 21
2399.05
  0
LINE
  8
0
 10
-1801.26
 20
2399.05
 11
-1838.72
 21
2370.47
  0
LINE
  8
0
 10
-1838.72
 20
2370.47
 11
-1875.73
 21
2341.29
  0
LINE
  8
0
 10
-1875.73
 20
2341.29
 11
-1912.27
 21
2311.54
  0
LINE
  8
0
 10
-1912.27
 20
2311.54
 11
-1948.34
 21
2281.22
  0
LINE
  8
0
 10
-1948.34
 20
2281.22
 11
-1983.94
 21
2250.33
  0
LINE
  8
0
 10
-1983.94
 20
2250.33
 11
-2019.04
 21
2218.89
  0
LINE
  8
0
 10
-2019.04
 20
2218.89
 11
-2053.64
 21
2186.91
  0
LINE
  8
0
 10
-2053.64
 20
2186.91
 11
-2087.74
 21
2154.38
  0
LINE
  8
0
 10
-2087.74
 20
2154.38
 11
-2121.32
 21
2121.32
  0
LINE
  8
0
 10
-2121.32
 20
2121.32
 11
-2154.38
 21
2087.74
  0
LINE
  8
0
 10
-2154.38
 20
2087.74
 11
-2186.91
 21
2053.64
  0
LINE
  8
0
 10
-2186.91
 20
2053.64
 11
-2218.89
 21
2019.04
  0
LINE
  8
0
 10
-2218.89
 20
2019.04
 11
-2250.33
 21
1983.94
  0
LINE
  8
0
 10
-2250.33
 20
1983.94
 11
-2281.22
 21
1948.34
  0
LINE
  8
0
 10
-2281.22
 20
1948.34
 11
-2311.54
 21
1912.27
  0
LINE
  8
0
 10
-2311.54
 20
1912.27
 11
-2341.29
 21
1875.73
  0
LINE
  8
0
 10
-2341.29
 20
1875.73
 11
-2370.47
 21
1838.72
  0
LINE
  8
0
 10
-2370.47
 20
1838.72
 11
-2399.05
 21
1801.26
  0
LINE
  8
0
 10
-2399.05
 20
1801.26
 11
-2427.05
 21
1763.36
  0
LINE
  8
0
 10
-2427.05
 20
1763.36
 11
-2454.45
 21
1725.02
  0
LINE
  8
0
 10
-2454.45
 20
1725.02
 11
-2481.24
 21
1686.25
  0
LINE
  8
0
 10
-2481.24
 20
1686.25
 11
-2507.42
 21
1647.07
  0
LINE
  8
0
 10
-2507.42
 20
1647.07
 11
-2532.98
 21
1607.48
  0
LINE
  8
0
 10
-2532.98
 20
1607.48
 11
-2557.92
 21
1567.5
  0
LINE
  8
0
 10
-2557.92
 20
1567.5
 11
-2582.23
 21
1527.12
  0
LINE
  8
0
 10
-2582.23
 20
1527.12
 11
-2605.89
 21
1486.38
  0
LINE
  8
0
 10
-2605.89
 20
1486.38
 11
-2628.92
 21
1445.26
  0
LINE
  8
0
 10
-2628.92
 20
1445.26
 11
-2651.3
 21
1403.79
  0
LINE
  8
0
 10
-2651.3
 20
1403.79
 11
-2673.02
 21
1361.97
  0
LINE
  8
0
 10
-2673.02
 20
1361.97
 11
-2694.08
 21
1319.82
  0
LINE
  8
0
 10
-2694.08
 20
1319.82
 11
-2714.48
 21
1277.34
  0
LINE
  8
0
 10
-2714.48
 20
1277.34
 11
-2734.21
 21
1234.54
  0
LINE
  8
0
 10
-2734.21
 20
1234.54
 11
-2753.26
 21
1191.44
  0
LINE
  8
0
 10
-2753.26
 20
1191.44
 11
-2771.64
 21
1148.05
  0
LINE
  8
0
 10
-2771.64
 20
1148.05
 11
-2789.33
 21
1104.37
  0
LINE
  8
0
 10
-2789.33
 20
1104.37
 11
-2806.33
 21
1060.42
  0
LINE
  8
0
 10
-2806.33
 20
1060.42
 11
-2822.64
 21
1016.21
  0
LINE
  8
0
 10
-2822.64
 20
1016.21
 11
-2838.26
 21
971.752
  0
LINE
  8
0
 10
-2838.26
 20
971.752
 11
-2853.17
 21
927.051
  0
LINE
  8
0
 10
-2853.17
 20
927.051
 11
-2867.38
 21
882.121
  0
LINE
  8
0
 10
-2867.38
 20
882.121
 11
-2880.88
 21
836.973
  0
LINE
  8
0
 10
-2880.88
 20
836.973
 11
-2893.67
 21
791.619
  0
LINE
  8
0
 10
-2893.67
 20
791.619
 11
-2905.75
 21
746.07
  0
LINE
  8
0
 10
-2905.75
 20
746.07
 11
-2917.11
 21
700.336
  0
LINE
  8
0
 10
-2917.11
 20
700.336
 11
-2927.75
 21
654.43
  0
LINE
  8
0
 10
-2927.75
 20
654.43
 11
-2937.67
 21
608.362
  0
LINE
  8
0
 10
-2937.67
 20
608.362
 11
-2946.86
 21
562.144
  0
LINE
  8
0
 10
-2946.86
 20
562.144
 11
-2955.33
 21
515.787
  0
LINE
  8
0
 10
-2955.33
 20
515.787
 11
-2963.07
 21
469.303
  0
LINE
  8
0
 10
-2963.07
 20
469.303
 11
-2970.07
 21
422.704
  0
LINE
  8
0
 10
-2970.07
 20
422.704
 11
-2976.34
 21
376
  0
LINE
  8
0
 10
-2976.34
 20
376
 11
-2981.88
 21
329.203
  0
LINE
  8
0
 10
-2981.88
 20
329.203
 11
-2986.69
 21
282.325
  0
LINE
  8
0
 10
-2986.69
 20
282.325
 11
-2990.75
 21
235.377
  0
LINE
  8
0
 10
-2990.75
 20
235.377
 11
-2994.08
 21
188.372
  0
LINE
  8
0
 10
-2994.08
 20
188.372
 11
-2996.67
 21
141.319
  0
LINE
  8
0
 10
-2996.67
 20
141.319
 11
-2998.52
 21
94.2323
  0
LINE
  8
0
 10
-2998.52
 20
94.2323
 11
-2999.63
 21
47.1219
  0
LINE
  8
0
 10
-2999.63
 20
47.1219
 11
-3000
 21
0
  0
LINE
  8
0
 10
-3000
 20
0
 11
-2999.63
 21
-47.1219
  0
LINE
  8
0
 10
-2999.63
 20
-47.1219
 11
-2998.52
 21
-94.2323
  0
LINE
  8
0
 10
-2998.52
 20
-94.2323
 11
-2996.67
 21
-141.319
  0
LINE
  8
0
 10
-2996.67
 20
-141.319
 11
-2994.08
 21
-188.372
  0
LINE
  8
0
 10
-2994.08
 20
-188.372
 11
-2990.75
 21
-235.377
  0
LINE
  8
0
 10
-2990.75
 20
-235.377
 11
-2986.69
 21
-282.325
  0
LINE
  8
0
 10
-2986.69
 20
-282.325
 11
-2981.88
 21
-329.203
  0
LINE
  8
0
 10
-2981.88
 20
-329.203
 11
-2976.34
 21
-376
  0
LINE
  8
0
 10
-2976.34
 20
-376
 11
-2970.07
 21
-422.704
  0
LINE
  8
0
 10
-2970.07
 20
-422.704
 11
-2963.07
 21
-469.303
  0
LINE
  8
0
 10
-2963.07
 20
-469.303
 11
-2955.33
 21
-515.787
  0
LINE
  8
0
 10
-2955.33
 20
-515.787
 11
-2946.86
 21
-562.144
  0
LINE
  8
0
 10
-2946.86
 20
-562.144
 11
-2937.67
 21
-608.362
  0
LINE
  8
0
 10
-2937.67
 20
-608.362
 11
-2927.75
 21
-654.43
  0
LINE
  8
0
 10
-2927.75
 20
-654.43
 11
-2917.11
 21
-700.336
  0
LINE
  8
0
 10
-2917.11
 20
-700.336
 11
-2905.75
 21
-746.07
  0
LINE
  8
0
 10
-2905.75
 20
-746.07
 11
-2893.67
 21
-791.619
  0
LINE
  8
0
 10
-2893.67
 20
-791.619
 11
-2880.88
 21
-836.973
  0
LINE
  8
0
 10
-2880.88
 20
-836.973
 11
-2867.38
 21
-882.121
  0
LINE
  8
0
 10
-2867.38
 20
-882.121
 11
-2853.17
 21
-927.051
  0
LINE
  8
0
 10
-2853.17
 20
-927.051
 11
-2838.26
 21
-971.752
  0
LINE
  8
0
 10
-2838.26
 20
-971.752
 11
-2822.64
 21
-1016.21
  0
LINE
  8
0
 10
-2822.64
 20
-1016.21
 11
-2806.33
 21
-1060.42
  0
LINE
  8
0
 10
-2806.33
 20
-1060.42
 11
-2789.33
 21
-1104.37
  0
LINE
  8
0
 10
-2789.33
 20
-1104.37
 11
-2771.64
 21
-1148.05
  0
LINE
  8
0
 10
-2771.64
 20
-1148.05
 11
-2753.26
 21
-1191.44
  0
LINE
  8
0
 10
-2753.26
 20
-1191.44
 11
-2734.21
 21
-1234.54
  0
LINE
  8
0
 10
-2734.21
 20
-1234.54
 11
-2714.48
 21
-1277.34
  0
LINE
  8
0
 10
-2714.48
 20
-1277.34
 11
-2694.08
 21
-1319.82
  0
LINE
  8
0
 10
-2694.08
 20
-1319.82
 11
-2673.02
 21
-1361.97
  0
LINE
  8
0
 10
-2673.02
 20
-1361.97
 11
-2651.3
 21
-1403.79
  0
LINE
  8
0
 10
-2651.3
 20
-1403.79
 11
-2628.92
 21
-1445.26
  0
LINE
  8
0
 10
-2628.92
 20
-1445.26
 11
-2605.89
 21
-1486.38
  0
LINE
  8
0
 10
-2605.89
 20
-1486.38
 11
-2582.23
 21
-1527.12
  0
LINE
  8
0
 10
-2582.23
 20
-1527.12
 11
-2557.92
 21
-1567.5
  0
LINE
  8
0
 10
-2557.92
 20
-1567.5
 11
-2532.98
 21
-1607.48
  0
LINE
  8
0
 10
-2532.98
 20
-1607.48
 11
-2507.42
 21
-1647.07
  0
LINE
  8
0
 10
-2507.42
 20
-1647.07
 11
-2481.24
 21
-1686.25
  0
LINE
  8
0
 10
-2481.24
 20
-1686.25
 11
-2454.45
 21
-1725.02
  0
LINE
  8
0
 10
-2454.45
 20
-1725.02
 11
-2427.05
 21
-1763.36
  0
LINE
  8
0
 10
-2427.05
 20
-1763.36
 11
-2399.05
 21
-1801.26
  0
LINE
  8
0
 10
-2399.05
 20
-1801.26
 11
-2370.47
 21
-1838.72
  0
LINE
  8
0
 10
-2370.47
 20
-1838.72
 11
-2341.29
 21
-1875.73
  0
LINE
  8
0
 10
-2341.29
 20
-1875.73
 11
-2311.54
 21
-1912.27
  0
LINE
  8
0
 10
-2311.54
 20
-1912.27
 11
-2281.22
 21
-1948.34
  0
LINE
  8
0
 10
-2281.22
 20
-1948.34
 11
-2250.33
 21
-1983.94
  0
LINE
  8
0
 10
-2250.33
 20
-1983.94
 11
-2218.89
 21
-2019.04
  0
LINE
  8
0
 10
-2218.89
 20
-2019.04
 11
-2186.91
 21
-2053.64
  0
LINE
  8
0
 10
-2186.91
 20
-2053.64
 11
-2154.38
 21
-2087.74
  0
LINE
  8
0
 10
-2154.38
 20
-2087.74
 11
-2121.32
 21
-2121.32
  0
LINE
  8
0
 10
-2121.32
 20
-2121.32
 11
-2087.74
 21
-2154.38
  0
LINE
  8
0
 10
-2087.74
 20
-2154.38
 11
-2053.64
 21
-2186.91
  0
LINE
  8
0
 10
-2053.64
 20
-2186.91
 11
-2019.04
 21
-2218.89
  0
LINE
  8
0
 10
-2019.04
 20
-2218.89
 11
-1983.94
 21
-2250.33
  0
LINE
  8
0
 10
-1983.94
 20
-2250.33
 11
-1948.34
 21
-2281.22
  0
LINE
  8
0
 10
-1948.34
 20
-2281.22
 11
-1912.27
 21
-2311.54
  0
LINE
  8
0
 10
-1912.27
 20
-2311.54
 11
-1875.73
 21
-2341.29
  0
LINE
  8
0
 10
-1875.73
 20
-2341.29
 11
-1838.72
 21
-2370.47
  0
LINE
  8
0
 10
-1838.72
 20
-2370.47
 11
-1801.26
 21
-2399.05
  0
LINE
  8
0
 10
-1801.26
 20
-2399.05
 11
-1763.36
 21
-2427.05
  0
LINE
  8
0
 10
-1763.36
 20
-2427.05
 11
-1725.02
 21
-2454.45
  0
LINE
  8
0
 10
-1725.02
 20
-2454.45
 11
-1686.25
 21
-2481.24
  0
LINE
  8
0
 10
-1686.25
 20
-2481.24
 11
-1647.07
 21
-2507.42
  0
LINE
  8
0
 10
-1647.07
 20
-2507.42
 11
-1607.48
 21
-2532.98
  0
LINE
  8
0
 10
-1607.48
 20
-2532.98
 11
-1567.5
 21
-2557.92
  0
LINE
  8
0
 10
-1567.5
 20
-2557.92
 11
-1527.12
 21
-2582.23
  0
LINE
  8
0
 10
-1527.12
 20
-2582.23
 11
-1486.38
 21
-2605.89
  0
LINE
  8
0
 10
-1486.38
 20
-2605.89
 11
-1445.26
 21
-2628.92
  0
LINE
  8
0
 10
-1445.26
 20
-2628.92
 11
-1403.79
 21
-2651.3
  0
LINE
  8
0
 10
-1403.79
 20
-2651.3
 11
-1361.97
 21
-2673.02
  0
LINE
  8
0
 10
-1361.97
 20
-2673.02
 11
-1319.82
 21
-2694.08
  0
LINE
  8
0
 10
-1319.82
 20
-2694.08
 11
-1277.34
 21
-2714.48
  0
LINE
  8
0
 10
-1277.34
 20
-2714.48
 11
-1234.54
 21
-2734.21
  0
LINE
  8
0
 10
-1234.54
 20
-2734.21
 11
-1191.44
 21
-2753.26
  0
LINE
  8
0
 10
-1191.44
 20
-2753.26
 11
-1148.05
 21
-2771.64
  0
LINE
  8
0
 10
-1148.05
 20
-2771.64
 11
-1104.37
 21
-2789.33
  0
LINE
  8
0
 10
-1104.37
 20
-2789.33
 11
-1060.42
 21
-2806.33
  0
LINE
  8
0
 10
-1060.42
 20
-2806.33
 11
-1016.21
 21
-2822.64
  0
LINE
  8
0
 10
-1016.21
 20
-2822.64
 11
-971.752
 21
-2838.26
  0
LINE
  8
0
 10
-971.752
 20
-2838.26
 11
-927.051
 21
-2853.17
  0
LINE
  8
0
 10
-927.051
 20
-2853.17
 11
-882.121
 21
-2867.38
  0
LINE
  8
0
 10
-882.121
 20
-2867.38
 11
-836.973
 21
-2880.88
  0
LINE
  8
0
 10
-836.973
 20
-2880.88
 11
-791.619
 21
-2893.67
  0
LINE
  8
0
 10
-791.619
 20
-2893.67
 11
-746.07
 21
-2905.75
  0
LINE
  8
0
 10
-746.07
 20
-2905.75
 11
-700.336
 21
-2917.11
  0
LINE
  8
0
 10
-700.336
 20
-2917.11
 11
-654.43
 21
-2927.75
  0
LINE
  8
0
 10
-654.43
 20
-2927.75
 11
-608.362
 21
-2937.67
  0
LINE
  8
0
 10
-608.362
 20
-2937.67
 11
-562.144
 21
-2946.86
  0
LINE
  8
0
 10
-562.144
 20
-2946.86
 11
-515.787
 21
-2955.33
  0
LINE
  8
0
 10
-515.787
 20
-2955.33
 11
-469.303
 21
-2963.07
  0
LINE
  8
0
 10
-469.303
 20
-2963.07
 11
-422.704
 21
-2970.07
  0
LINE
  8
0
 10
-422.704
 20
-2970.07
 11
-376
 21
-2976.34
  0
LINE
  8
0
 10
-376
 20
-2976.34
 11
-329.203
 21
-2981.88
  0
LINE
  8
0
 10
-329.203
 20
-2981.88
 11
-282.325
 21
-2986.69
  0
LINE
  8
0
 10
-282.325
 20
-2986.69
 11
-235.377
 21
-2990.75
  0
LINE
  8
0
 10
-235.377
 20
-2990.75
 11
-188.372
 21
-2994.08
  0
LINE
  8
0
 10
-188.372
 20
-2994.08
 11
-141.319
 21
-2996.67
  0
LINE
  8
0
 10
-141.319
 20
-2996.67
 11
-94.2323
 21
-2998.52
  0
LINE
  8
0
 10
-94.2323
 20
-2998.52
 11
-47.1219
 21
-2999.63
  0
LINE
  8
0
 10
-47.1219
 20
-2999.63
 11
0
 21
-3000
  0
LINE
  8
0
 10
0
 20
-3000
 11
47.1219
 21
-2999.63
  0
LINE
  8
0
 10
-10
 20
-17.3205
 11
-20
 21
0
  0
LINE
  8
0
 10
-20
 20
0
 11
-9.99998
 21
17.3205
  0
LINE
  8
0
 10
-9.99998
 20
17.3205
 11
10
 21
17.3205
  0
LINE
  8
0
 10
10
 20
17.3205
 11
20
 21
0
  0
LINE
  8
0
 10
20
 20
0
 11
10
 21
-17.3205
  0
LINE
  8
0
 10
10
 20
-17.3205
 11
-10
 21
-17.3205
  0
ENDSEC
  0
SECTION
  2
OBJECTS
  0
DICTIONARY
  0
ENDSEC
  0
EOF
