  0
SECTION
  2
HEADER
  9
$ACADVER
  1
AC1009
  9
$LUNITS
 70
2
  9
$LUPREC
 70
4
  9
$LTSCALE
 40
1.0
  9
$EXTMIN
 10
-257.1753
 20
-9.5112
 30
0
  9
$EXTMAX
 10
409.5753
 20
161.9112
 30
0
  0
ENDSEC
  0
SECTION
  2
TABLES
  0
TABLE
  2
LTYPE
 70
256
  0
ENDTAB
  0
TABLE
  2
LAYER
 70
1
  0
LAYER
  2
LAYER_1
 70
64
 62
7
  6
CONTINUOUS
  0
ENDTAB
  0
TABLE
  2
STYLE
 70
6
  0
STYLE
  2
STANDARD
 70
0
 40
0
 50
0
 71
0
 41
0
 42
0
  3
TXT
  4
BIGFONT
  0
ENDTAB
  0
ENDSEC
  0
SECTION
  2
BLOCKS
  0
BLOCK
  8
LAYER_1
  2
AIGNBL01010002
 70
64
 10
0
 20
0
 30
0
  3
AIGNBL01010002
  0
LINE
  8
LAYER_1
 10
-132.1461
 20
140.7802
 11
-161.8997
 21
138.2722
  0
LINE
  8
LAYER_1
 10
-161.8997
 20
138.2722
 11
-190.9189
 21
135.7805
  0
LINE
  8
LAYER_1
 10
-190.9189
 20
135.7805
 11
-218.4628
 21
132.1869
  0
LINE
  8
LAYER_1
 10
-218.4628
 20
132.1869
 11
-231.4034
 21
129.2696
  0
LINE
  8
LAYER_1
 10
-231.4034
 20
129.2696
 11
-242.794
 21
124.9472
  0
LINE
  8
LAYER_1
 10
-242.794
 20
124.9472
 11
-250.9135
 21
118.5649
  0
LINE
  8
LAYER_1
 10
-250.9135
 20
118.5649
 11
-254.7054
 21
110.7565
  0
LINE
  8
LAYER_1
 10
-254.7054
 20
110.7565
 11
-256.552
 21
100.116
  0
LINE
  8
LAYER_1
 10
-256.552
 20
100.116
 11
-257.1747
 21
81.1053
  0
ENDBLK
  0
BLOCK
  8
LAYER_1
  2
AIGNBL01010003
 70
64
 10
0
 20
0
 30
0
  3
AIGNBL01010003
  0
LINE
  8
LAYER_1
 10
409.5753
 20
76.2
 11
408.9115
 21
83.697
  0
LINE
  8
LAYER_1
 10
408.9115
 20
83.697
 11
406.9171
 21
90.1373
  0
LINE
  8
LAYER_1
 10
406.9171
 20
90.1373
 11
403.2898
 21
96.8964
  0
LINE
  8
LAYER_1
 10
403.2898
 20
96.8964
 11
397.6333
 21
104.0011
  0
LINE
  8
LAYER_1
 10
397.6333
 20
104.0011
 11
389.1063
 21
111.5594
  0
LINE
  8
LAYER_1
 10
389.1063
 20
111.5594
 11
376.8952
 21
119.5472
  0
LINE
  8
LAYER_1
 10
376.8952
 20
119.5472
 11
361.1125
 21
127.6652
  0
LINE
  8
LAYER_1
 10
361.1125
 20
127.6652
 11
342.5338
 21
135.4755
  0
LINE
  8
LAYER_1
 10
342.5338
 20
135.4755
 11
321.8935
 21
142.6266
  0
LINE
  8
LAYER_1
 10
321.8935
 20
142.6266
 11
299.9007
 21
148.8037
  0
LINE
  8
LAYER_1
 10
299.9007
 20
148.8037
 11
261.9523
 21
156.2384
  0
LINE
  8
LAYER_1
 10
261.9523
 20
156.2384
 11
223.4296
 21
160.3037
  0
LINE
  8
LAYER_1
 10
223.4296
 20
160.3037
 11
185.0509
 21
161.888
  0
LINE
  8
LAYER_1
 10
185.0509
 20
161.888
 11
147.5403
 21
161.9112
  0
LINE
  8
LAYER_1
 10
147.5403
 20
161.9112
 11
111.3283
 21
161.1156
  0
LINE
  8
LAYER_1
 10
111.3283
 20
161.1156
 11
75.2945
 21
159.5425
  0
LINE
  8
LAYER_1
 10
75.2945
 20
159.5425
 11
37.4675
 21
157.0421
  0
LINE
  8
LAYER_1
 10
37.4675
 20
157.0421
 11
-3.3214
 21
153.5229
  0
LINE
  8
LAYER_1
 10
-3.3214
 20
153.5229
 11
-46.5851
 21
149.2582
  0
LINE
  8
LAYER_1
 10
-46.5851
 20
149.2582
 11
-90.2312
 21
144.818
  0
LINE
  8
LAYER_1
 10
-90.2312
 20
144.818
 11
-132.1459
 21
140.78
  0
ENDBLK
  0
BLOCK
  8
LAYER_1
  2
AIGNBL01010004
 70
64
 10
0
 20
0
 30
0
  3
AIGNBL01010004
  0
LINE
  8
LAYER_1
 10
409.5753
 20
76.2
 11
408.9115
 21
68.7031
  0
LINE
  8
LAYER_1
 10
408.9115
 20
68.7031
 11
406.9171
 21
62.2629
  0
LINE
  8
LAYER_1
 10
406.9171
 20
62.2629
 11
403.2898
 21
55.5036
  0
LINE
  8
LAYER_1
 10
403.2898
 20
55.5036
 11
397.6333
 21
48.3991
  0
LINE
  8
LAYER_1
 10
397.6333
 20
48.3991
 11
389.1063
 21
40.8406
  0
LINE
  8
LAYER_1
 10
389.1063
 20
40.8406
 11
376.8952
 21
32.8528
  0
LINE
  8
LAYER_1
 10
376.8952
 20
32.8528
 11
361.1125
 21
24.7348
  0
LINE
  8
LAYER_1
 10
361.1125
 20
24.7348
 11
342.5338
 21
16.9247
  0
LINE
  8
LAYER_1
 10
342.5338
 20
16.9247
 11
321.8935
 21
9.7734
  0
LINE
  8
LAYER_1
 10
321.8935
 20
9.7734
 11
299.9007
 21
3.5963
  0
LINE
  8
LAYER_1
 10
299.9007
 20
3.5963
 11
261.9523
 21
-3.8385
  0
LINE
  8
LAYER_1
 10
261.9523
 20
-3.8385
 11
223.4296
 21
-7.9037
  0
LINE
  8
LAYER_1
 10
223.4296
 20
-7.9037
 11
185.0509
 21
-9.4878
  0
LINE
  8
LAYER_1
 10
185.0509
 20
-9.4878
 11
147.5403
 21
-9.5112
  0
LINE
  8
LAYER_1
 10
147.5403
 20
-9.5112
 11
111.3283
 21
-8.7154
  0
LINE
  8
LAYER_1
 10
111.3283
 20
-8.7154
 11
75.2945
 21
-7.1424
  0
LINE
  8
LAYER_1
 10
75.2945
 20
-7.1424
 11
37.4675
 21
-4.6423
  0
LINE
  8
LAYER_1
 10
37.4675
 20
-4.6423
 11
-3.3214
 21
-1.1231
  0
LINE
  8
LAYER_1
 10
-3.3214
 20
-1.1231
 11
-46.5851
 21
3.1416
  0
LINE
  8
LAYER_1
 10
-46.5851
 20
3.1416
 11
-90.2312
 21
7.582
  0
LINE
  8
LAYER_1
 10
-90.2312
 20
7.582
 11
-132.1459
 21
11.62
  0
ENDBLK
  0
BLOCK
  8
LAYER_1
  2
AIGNBL01010005
 70
64
 10
0
 20
0
 30
0
  3
AIGNBL01010005
  0
LINE
  8
LAYER_1
 10
-132.1461
 20
11.62
 11
-161.8997
 21
14.1276
  0
LINE
  8
LAYER_1
 10
-161.8997
 20
14.1276
 11
-190.9189
 21
16.6195
  0
LINE
  8
LAYER_1
 10
-190.9189
 20
16.6195
 11
-218.4628
 21
20.2131
  0
LINE
  8
LAYER_1
 10
-218.4628
 20
20.2131
 11
-231.4034
 21
23.1304
  0
LINE
  8
LAYER_1
 10
-231.4034
 20
23.1304
 11
-242.794
 21
27.4526
  0
LINE
  8
LAYER_1
 10
-242.794
 20
27.4526
 11
-250.9135
 21
33.8353
  0
LINE
  8
LAYER_1
 10
-250.9135
 20
33.8353
 11
-254.7054
 21
41.6436
  0
LINE
  8
LAYER_1
 10
-254.7054
 20
41.6436
 11
-256.552
 21
52.2841
  0
LINE
  8
LAYER_1
 10
-256.552
 20
52.2841
 11
-257.1747
 21
71.2949
  0
ENDBLK
  0
BLOCK
  8
LAYER_1
  2
AIGNBL01010006
 70
64
 10
0
 20
0
 30
0
  3
AIGNBL01010006
  0
LINE
  8
LAYER_1
 10
-159.6175
 20
106.3625
 11
-77.0675
 21
106.3625
  0
ENDBLK
  0
BLOCK
  8
LAYER_1
  2
AIGNBL01010007
 70
64
 10
0
 20
0
 30
0
  3
AIGNBL01010007
  0
LINE
  8
LAYER_1
 10
-159.6175
 20
46.0375
 11
-77.0675
 21
46.0375
  0
ENDBLK
  0
BLOCK
  8
LAYER_1
  2
AIGNBL01010008
 70
64
 10
0
 20
0
 30
0
  3
AIGNBL01010008
  0
LINE
  8
LAYER_1
 10
-159.6175
 20
106.3625
 11
-159.6175
 21
46.0375
  0
ENDBLK
  0
BLOCK
  8
LAYER_1
  2
AIGNBL01010009
 70
64
 10
0
 20
0
 30
0
  3
AIGNBL01010009
  0
LINE
  8
LAYER_1
 10
-77.0675
 20
106.3625
 11
-77.0675
 21
46.0375
  0
ENDBLK
  0
BLOCK
  8
LAYER_1
  2
AIGNBL0101000A
 70
64
 10
0
 20
0
 30
0
  3
AIGNBL0101000A
  0
LINE
  8
LAYER_1
 10
366.0338
 20
106.3625
 11
283.4838
 21
106.3625
  0
ENDBLK
  0
BLOCK
  8
LAYER_1
  2
AIGNBL0101000B
 70
64
 10
0
 20
0
 30
0
  3
AIGNBL0101000B
  0
LINE
  8
LAYER_1
 10
366.0338
 20
46.0375
 11
283.4838
 21
46.0375
  0
ENDBLK
  0
BLOCK
  8
LAYER_1
  2
AIGNBL0101000C
 70
64
 10
0
 20
0
 30
0
  3
AIGNBL0101000C
  0
LINE
  8
LAYER_1
 10
366.0338
 20
106.3625
 11
366.0338
 21
46.0375
  0
ENDBLK
  0
BLOCK
  8
LAYER_1
  2
AIGNBL0101000D
 70
64
 10
0
 20
0
 30
0
  3
AIGNBL0101000D
  0
LINE
  8
LAYER_1
 10
283.4838
 20
106.3625
 11
283.4838
 21
46.0375
  0
ENDBLK
  0
BLOCK
  8
LAYER_1
  2
AIGNBL0101000E
 70
64
 10
0
 20
0
 30
0
  3
AIGNBL0101000E
  0
LINE
  8
LAYER_1
 10
-257.1747
 20
76.2
 11
-257.1753
 21
78.9612
  0
LINE
  8
LAYER_1
 10
-257.1753
 20
78.9612
 11
-257.1747
 21
81.1053
  0
ENDBLK
  0
BLOCK
  8
LAYER_1
  2
AIGNBL0101000F
 70
64
 10
0
 20
0
 30
0
  3
AIGNBL0101000F
  0
LINE
  8
LAYER_1
 10
-257.1747
 20
71.2949
 11
-257.1752
 21
74.0275
  0
LINE
  8
LAYER_1
 10
-257.1752
 20
74.0275
 11
-257.1747
 21
76.2
  0
ENDBLK
  0
ENDSEC
  0
SECTION
  2
ENTITIES
  0
INSERT
  8
LAYER_1
  2
AIGNBL01010002
 10
0
 20
0
 30
0
  0
INSERT
  8
LAYER_1
  2
AIGNBL01010003
 10
0
 20
0
 30
0
  0
INSERT
  8
LAYER_1
  2
AIGNBL01010004
 10
0
 20
0
 30
0
  0
INSERT
  8
LAYER_1
  2
AIGNBL01010005
 10
0
 20
0
 30
0
  0
INSERT
  8
LAYER_1
  2
AIGNBL01010006
 10
0
 20
0
 30
0
  0
INSERT
  8
LAYER_1
  2
AIGNBL01010007
 10
0
 20
0
 30
0
  0
INSERT
  8
LAYER_1
  2
AIGNBL01010008
 10
0
 20
0
 30
0
  0
INSERT
  8
LAYER_1
  2
AIGNBL01010009
 10
0
 20
0
 30
0
  0
INSERT
  8
LAYER_1
  2
AIGNBL0101000A
 10
0
 20
0
 30
0
  0
INSERT
  8
LAYER_1
  2
AIGNBL0101000B
 10
0
 20
0
 30
0
  0
INSERT
  8
LAYER_1
  2
AIGNBL0101000C
 10
0
 20
0
 30
0
  0
INSERT
  8
LAYER_1
  2
AIGNBL0101000D
 10
0
 20
0
 30
0
  0
INSERT
  8
LAYER_1
  2
AIGNBL0101000E
 10
0
 20
0
 30
0
  0
INSERT
  8
LAYER_1
  2
AIGNBL0101000F
 10
0
 20
0
 30
0
  0
ENDSEC
  0
EOF
