  0
SECTION
  2
HEADER
  9
$ACADVER
  1
AC1009
  9
$LUNITS
 70
2
  9
$LUPREC
 70
4
  9
$LTSCALE
 40
1.0
  9
$EXTMIN
 10
-270.8606
 20
-85.7112
 30
0
  9
$EXTMAX
 10
270.8606
 20
85.7112
 30
0
  0
ENDSEC
  0
SECTION
  2
TABLES
  0
TABLE
  2
LTYPE
 70
256
  0
ENDTAB
  0
TABLE
  2
LAYER
 70
1
  0
LAYER
  2
LAYER_1
 70
64
 62
7
  6
CONTINUOUS
  0
ENDTAB
  0
TABLE
  2
STYLE
 70
6
  0
STYLE
  2
STANDARD
 70
0
 40
0
 50
0
 71
0
 41
0
 42
0
  3
TXT
  4
BIGFONT
  0
ENDTAB
  0
ENDSEC
  0
SECTION
  2
BLOCKS
  0
BLOCK
  8
LAYER_1
  2
AIGNBL01010002
 70
64
 10
0
 20
0
 30
0
  3
AIGNBL01010002
  0
LINE
  8
LAYER_1
 10
270.8606
 20
0
 11
270.1968
 21
7.4969
  0
LINE
  8
LAYER_1
 10
270.1968
 20
7.4969
 11
268.2024
 21
13.9371
  0
LINE
  8
LAYER_1
 10
268.2024
 20
13.9371
 11
264.5751
 21
20.6964
  0
LINE
  8
LAYER_1
 10
264.5751
 20
20.6964
 11
258.9186
 21
27.8009
  0
LINE
  8
LAYER_1
 10
258.9186
 20
27.8009
 11
250.3916
 21
35.3594
  0
LINE
  8
LAYER_1
 10
250.3916
 20
35.3594
 11
238.1805
 21
43.3472
  0
LINE
  8
LAYER_1
 10
238.1805
 20
43.3472
 11
222.3978
 21
51.4652
  0
LINE
  8
LAYER_1
 10
222.3978
 20
51.4652
 11
203.8191
 21
59.2753
  0
LINE
  8
LAYER_1
 10
203.8191
 20
59.2753
 11
183.1788
 21
66.4266
  0
LINE
  8
LAYER_1
 10
183.1788
 20
66.4266
 11
161.186
 21
72.6037
  0
LINE
  8
LAYER_1
 10
161.186
 20
72.6037
 11
123.2376
 21
80.0384
  0
LINE
  8
LAYER_1
 10
123.2376
 20
80.0384
 11
84.7149
 21
84.1037
  0
LINE
  8
LAYER_1
 10
84.7149
 20
84.1037
 11
46.3362
 21
85.688
  0
LINE
  8
LAYER_1
 10
46.3362
 20
85.688
 11
8.8255
 21
85.7112
  0
LINE
  8
LAYER_1
 10
8.8255
 20
85.7112
 11
-27.3866
 21
84.9156
  0
LINE
  8
LAYER_1
 10
-27.3866
 20
84.9156
 11
-63.4201
 21
83.3425
  0
LINE
  8
LAYER_1
 10
-63.4201
 20
83.3425
 11
-101.2472
 21
80.8421
  0
LINE
  8
LAYER_1
 10
-101.2472
 20
80.8421
 11
-142.0361
 21
77.3229
  0
LINE
  8
LAYER_1
 10
-142.0361
 20
77.3229
 11
-185.2998
 21
73.0584
  0
LINE
  8
LAYER_1
 10
-185.2998
 20
73.0584
 11
-228.9459
 21
68.618
  0
LINE
  8
LAYER_1
 10
-228.9459
 20
68.618
 11
-270.8606
 21
64.58
  0
ENDBLK
  0
BLOCK
  8
LAYER_1
  2
AIGNBL01010003
 70
64
 10
0
 20
0
 30
0
  3
AIGNBL01010003
  0
LINE
  8
LAYER_1
 10
270.8606
 20
0
 11
270.1968
 21
-7.4969
  0
LINE
  8
LAYER_1
 10
270.1968
 20
-7.4969
 11
268.2024
 21
-13.9371
  0
LINE
  8
LAYER_1
 10
268.2024
 20
-13.9371
 11
264.5751
 21
-20.6964
  0
LINE
  8
LAYER_1
 10
264.5751
 20
-20.6964
 11
258.9186
 21
-27.8009
  0
LINE
  8
LAYER_1
 10
258.9186
 20
-27.8009
 11
250.3916
 21
-35.3594
  0
LINE
  8
LAYER_1
 10
250.3916
 20
-35.3594
 11
238.1805
 21
-43.3472
  0
LINE
  8
LAYER_1
 10
238.1805
 20
-43.3472
 11
222.3978
 21
-51.4652
  0
LINE
  8
LAYER_1
 10
222.3978
 20
-51.4652
 11
203.8191
 21
-59.2753
  0
LINE
  8
LAYER_1
 10
203.8191
 20
-59.2753
 11
183.1788
 21
-66.4266
  0
LINE
  8
LAYER_1
 10
183.1788
 20
-66.4266
 11
161.186
 21
-72.6037
  0
LINE
  8
LAYER_1
 10
161.186
 20
-72.6037
 11
123.2376
 21
-80.0385
  0
LINE
  8
LAYER_1
 10
123.2376
 20
-80.0385
 11
84.7149
 21
-84.1037
  0
LINE
  8
LAYER_1
 10
84.7149
 20
-84.1037
 11
46.3362
 21
-85.6878
  0
LINE
  8
LAYER_1
 10
46.3362
 20
-85.6878
 11
8.8255
 21
-85.7112
  0
LINE
  8
LAYER_1
 10
8.8255
 20
-85.7112
 11
-27.3866
 21
-84.9154
  0
LINE
  8
LAYER_1
 10
-27.3866
 20
-84.9154
 11
-63.4201
 21
-83.3424
  0
LINE
  8
LAYER_1
 10
-63.4201
 20
-83.3424
 11
-101.2472
 21
-80.8423
  0
LINE
  8
LAYER_1
 10
-101.2472
 20
-80.8423
 11
-142.0361
 21
-77.3231
  0
LINE
  8
LAYER_1
 10
-142.0361
 20
-77.3231
 11
-185.2998
 21
-73.0584
  0
LINE
  8
LAYER_1
 10
-185.2998
 20
-73.0584
 11
-228.9459
 21
-68.618
  0
LINE
  8
LAYER_1
 10
-228.9459
 20
-68.618
 11
-270.8606
 21
-64.58
  0
ENDBLK
  0
BLOCK
  8
LAYER_1
  2
AIGNBL01010004
 70
64
 10
0
 20
0
 30
0
  3
AIGNBL01010004
  0
LINE
  8
LAYER_1
 10
-270.8606
 20
30.1625
 11
-215.7822
 21
30.1625
  0
ENDBLK
  0
BLOCK
  8
LAYER_1
  2
AIGNBL01010005
 70
64
 10
0
 20
0
 30
0
  3
AIGNBL01010005
  0
LINE
  8
LAYER_1
 10
-270.8606
 20
-30.1625
 11
-215.7822
 21
-30.1625
  0
ENDBLK
  0
BLOCK
  8
LAYER_1
  2
AIGNBL01010006
 70
64
 10
0
 20
0
 30
0
  3
AIGNBL01010006
  0
LINE
  8
LAYER_1
 10
-215.7822
 20
30.1625
 11
-215.7822
 21
-30.1625
  0
ENDBLK
  0
BLOCK
  8
LAYER_1
  2
AIGNBL01010007
 70
64
 10
0
 20
0
 30
0
  3
AIGNBL01010007
  0
LINE
  8
LAYER_1
 10
227.3191
 20
30.1625
 11
144.7691
 21
30.1625
  0
ENDBLK
  0
BLOCK
  8
LAYER_1
  2
AIGNBL01010008
 70
64
 10
0
 20
0
 30
0
  3
AIGNBL01010008
  0
LINE
  8
LAYER_1
 10
227.3191
 20
-30.1625
 11
144.7691
 21
-30.1625
  0
ENDBLK
  0
BLOCK
  8
LAYER_1
  2
AIGNBL01010009
 70
64
 10
0
 20
0
 30
0
  3
AIGNBL01010009
  0
LINE
  8
LAYER_1
 10
227.3191
 20
30.1625
 11
227.3191
 21
-30.1625
  0
ENDBLK
  0
BLOCK
  8
LAYER_1
  2
AIGNBL0101000A
 70
64
 10
0
 20
0
 30
0
  3
AIGNBL0101000A
  0
LINE
  8
LAYER_1
 10
144.7691
 20
30.1625
 11
144.7691
 21
-30.1625
  0
ENDBLK
  0
BLOCK
  8
LAYER_1
  2
AIGNBL0101000B
 70
64
 10
0
 20
0
 30
0
  3
AIGNBL0101000B
  0
LINE
  8
LAYER_1
 10
-270.8606
 20
64.58
 11
-270.8606
 21
30.1625
  0
ENDBLK
  0
BLOCK
  8
LAYER_1
  2
AIGNBL0101000C
 70
64
 10
0
 20
0
 30
0
  3
AIGNBL0101000C
  0
LINE
  8
LAYER_1
 10
-270.8606
 20
-64.58
 11
-270.8606
 21
-30.1625
  0
ENDBLK
  0
ENDSEC
  0
SECTION
  2
ENTITIES
  0
INSERT
  8
LAYER_1
  2
AIGNBL01010002
 10
0
 20
0
 30
0
  0
INSERT
  8
LAYER_1
  2
AIGNBL01010003
 10
0
 20
0
 30
0
  0
INSERT
  8
LAYER_1
  2
AIGNBL01010004
 10
0
 20
0
 30
0
  0
INSERT
  8
LAYER_1
  2
AIGNBL01010005
 10
0
 20
0
 30
0
  0
INSERT
  8
LAYER_1
  2
AIGNBL01010006
 10
0
 20
0
 30
0
  0
INSERT
  8
LAYER_1
  2
AIGNBL01010007
 10
0
 20
0
 30
0
  0
INSERT
  8
LAYER_1
  2
AIGNBL01010008
 10
0
 20
0
 30
0
  0
INSERT
  8
LAYER_1
  2
AIGNBL01010009
 10
0
 20
0
 30
0
  0
INSERT
  8
LAYER_1
  2
AIGNBL0101000A
 10
0
 20
0
 30
0
  0
INSERT
  8
LAYER_1
  2
AIGNBL0101000B
 10
0
 20
0
 30
0
  0
INSERT
  8
LAYER_1
  2
AIGNBL0101000C
 10
0
 20
0
 30
0
  0
ENDSEC
  0
EOF
