  0
SECTION
  2
HEADER
  9
$ACADVER
  1
AC1009
  9
$DWGCODEPAGE
  3
ansi_1252
  9
$INSBASE
 10
0.0
 20
0.0
 30
0.0
  9
$EXTMIN
 10
1.000000000000000E+20
 20
1.000000000000000E+20
 30
1.000000000000000E+20
  9
$EXTMAX
 10
-1.000000000000000E+20
 20
-1.000000000000000E+20
 30
-1.000000000000000E+20
  9
$LIMMIN
 10
0.0
 20
0.0
  9
$LIMMAX
 10
12.0
 20
9.0
  9
$ORTHOMODE
 70
     0
  9
$REGENMODE
 70
     1
  9
$FILLMODE
 70
     1
  9
$QTEXTMODE
 70
     0
  9
$MIRRTEXT
 70
     1
  9
$DRAGMODE
 70
     2
  9
$LTSCALE
 40
1.0
  9
$OSMODE
 70
    37
  9
$ATTMODE
 70
     1
  9
$TEXTSIZE
 40
0.2
  9
$TRACEWID
 40
0.05
  9
$TEXTSTYLE
  7
STANDARD
  9
$CLAYER
  8
0
  9
$CELTYPE
  6
BYLAYER
  9
$CECOLOR
 62
   256
  9
$DIMSCALE
 40
1.0
  9
$DIMASZ
 40
0.18
  9
$DIMEXO
 40
0.0625
  9
$DIMDLI
 40
0.38
  9
$DIMRND
 40
0.0
  9
$DIMDLE
 40
0.0
  9
$DIMEXE
 40
0.18
  9
$DIMTP
 40
0.0
  9
$DIMTM
 40
0.0
  9
$DIMTXT
 40
0.18
  9
$DIMCEN
 40
0.09
  9
$DIMTSZ
 40
0.0
  9
$DIMTOL
 70
     0
  9
$DIMLIM
 70
     0
  9
$DIMTIH
 70
     1
  9
$DIMTOH
 70
     1
  9
$DIMSE1
 70
     0
  9
$DIMSE2
 70
     0
  9
$DIMTAD
 70
     0
  9
$DIMZIN
 70
     0
  9
$DIMBLK
  1

  9
$DIMASO
 70
     1
  9
$DIMSHO
 70
     1
  9
$DIMPOST
  1

  9
$DIMAPOST
  1

  9
$DIMALT
 70
     0
  9
$DIMALTD
 70
     2
  9
$DIMALTF
 40
25.4
  9
$DIMLFAC
 40
1.0
  9
$DIMTOFL
 70
     0
  9
$DIMTVP
 40
0.0
  9
$DIMTIX
 70
     0
  9
$DIMSOXD
 70
     0
  9
$DIMSAH
 70
     0
  9
$DIMBLK1
  1

  9
$DIMBLK2
  1

  9
$DIMSTYLE
  2
STANDARD
  9
$DIMCLRD
 70
     0
  9
$DIMCLRE
 70
     0
  9
$DIMCLRT
 70
     0
  9
$DIMTFAC
 40
1.0
  9
$DIMGAP
 40
0.09
  9
$LUNITS
 70
     2
  9
$LUPREC
 70
     4
  9
$SKETCHINC
 40
0.1
  9
$FILLETRAD
 40
0.5
  9
$AUNITS
 70
     0
  9
$AUPREC
 70
     0
  9
$MENU
  1
.
  9
$ELEVATION
 40
0.0
  9
$PELEVATION
 40
0.0
  9
$THICKNESS
 40
0.0
  9
$LIMCHECK
 70
     0
  9
$CHAMFERA
 40
0.0
  9
$CHAMFERB
 40
0.0
  9
$SKPOLY
 70
     0
  9
$TDCREATE
 40
2457738.654768519
  9
$TDUPDATE
 40
2457738.654768519
  9
$TDINDWG
 40
0.0000000116
  9
$TDUSRTIMER
 40
0.0000000116
  9
$USRTIMER
 70
     1
  9
$ANGBASE
 50
0.0
  9
$ANGDIR
 70
     0
  9
$PDMODE
 70
     0
  9
$PDSIZE
 40
0.0
  9
$PLINEWID
 40
0.0
  9
$COORDS
 70
     1
  9
$SPLFRAME
 70
     0
  9
$SPLINETYPE
 70
     6
  9
$SPLINESEGS
 70
     8
  9
$ATTDIA
 70
     0
  9
$ATTREQ
 70
     1
  9
$HANDLING
 70
     1
  9
$HANDSEED
  5
100000C3
  9
$SURFTAB1
 70
     6
  9
$SURFTAB2
 70
     6
  9
$SURFTYPE
 70
     6
  9
$SURFU
 70
     6
  9
$SURFV
 70
     6
  9
$UCSNAME
  2

  9
$UCSORG
 10
0.0
 20
0.0
 30
0.0
  9
$UCSXDIR
 10
1.0
 20
0.0
 30
0.0
  9
$UCSYDIR
 10
0.0
 20
1.0
 30
0.0
  9
$PUCSNAME
  2

  9
$PUCSORG
 10
0.0
 20
0.0
 30
0.0
  9
$PUCSXDIR
 10
1.0
 20
0.0
 30
0.0
  9
$PUCSYDIR
 10
0.0
 20
1.0
 30
0.0
  9
$USERI1
 70
     0
  9
$USERI2
 70
     0
  9
$USERI3
 70
     0
  9
$USERI4
 70
     0
  9
$USERI5
 70
     0
  9
$USERR1
 40
0.0
  9
$USERR2
 40
0.0
  9
$USERR3
 40
0.0
  9
$USERR4
 40
0.0
  9
$USERR5
 40
0.0
  9
$WORLDVIEW
 70
     1
  9
$SHADEDGE
 70
     3
  9
$SHADEDIF
 70
    70
  9
$TILEMODE
 70
     1
  9
$MAXACTVP
 70
    64
  9
$PLIMCHECK
 70
     0
  9
$PEXTMIN
 10
1.000000000000000E+20
 20
1.000000000000000E+20
 30
1.000000000000000E+20
  9
$PEXTMAX
 10
-1.000000000000000E+20
 20
-1.000000000000000E+20
 30
-1.000000000000000E+20
  9
$PLIMMIN
 10
0.0
 20
0.0
  9
$PLIMMAX
 10
12.0
 20
9.0
  9
$UNITMODE
 70
     0
  9
$VISRETAIN
 70
     1
  9
$PLINEGEN
 70
     0
  9
$PSLTSCALE
 70
     1
  0
ENDSEC
  0
SECTION
  2
TABLES
  0
TABLE
  2
VPORT
 70
     1
  0
VPORT
  2
*ACTIVE
 70
     0
 10
0.0
 20
0.0
 11
1.0
 21
1.0
 12
10.42990654205607
 22
4.5
 13
0.0
 23
0.0
 14
0.5
 24
0.5
 15
0.5
 25
0.5
 16
0.0
 26
0.0
 36
1.0
 17
0.0
 27
0.0
 37
0.0
 40
9.0
 41
1.972972972850329
 42
50.0
 43
0.0
 44
0.0
 50
0.0
 51
0.0
 71
     0
 72
   100
 73
     1
 74
     3
 75
     0
 76
     0
 77
     0
 78
     0
  0
ENDTAB
  0
TABLE
  2
LTYPE
 70
     6
  0
LTYPE
  2
CONTINUOUS
 70
     0
  3
Solid line
 72
    65
 73
     0
 40
0.0
  0
LTYPE
  2
ONS_PHANTOM
 70
     0
  3
Onshape Phantom line ______ __ __ ______
 72
    65
 73
     6
 40
1.275
 49
0.75
 49
-0.075
 49
0.15
 49
-0.075
 49
0.15
 49
-0.075
  0
LTYPE
  2
CENTER
 70
     0
  3
Center line ____ _ ____ _ ____ _
 72
    65
 73
     4
 40
0.7199999999999999
 49
0.45
 49
-0.09
 49
0.09
 49
-0.09
  0
LTYPE
  2
DASHED
 70
     0
  3
Dashed line __ __ __ __ __
 72
    65
 73
     2
 40
0.75
 49
0.5
 49
-0.25
  0
LTYPE
  2
ONS_DASHDOT
 70
     0
  3
Onshape Dashed with Dot _ . ____ . ____
 72
    65
 73
     4
 40
0.71
 49
0.5
 49
-0.1
 49
0.01
 49
-0.1
  0
LTYPE
  2
HIDDEN
 70
     0
  3
Hidden line ____ ____ ____ ____ 
 72
    65
 73
     2
 40
0.375
 49
0.25
 49
-0.125
  0
ENDTAB
  0
TABLE
  2
LAYER
 70
    25
  0
LAYER
  2
0
 70
     0
 62
     7
  6
CONTINUOUS
  0
LAYER
  2
SECTION_CUTTING_LINE
 70
     0
 62
     7
  6
ONS_PHANTOM
  0
LAYER
  2
DETAIL_VIEW_BORDER
 70
     0
 62
     7
  6
CONTINUOUS
  0
LAYER
  2
DETAIL_VIEW_PARENT_BORDER
 70
     0
 62
     7
  6
ONS_PHANTOM
  0
LAYER
  2
TEXT
 70
     0
 62
     7
  6
CONTINUOUS
  0
LAYER
  2
SKETCHED_GEOMETRY
 70
     0
 62
     7
  6
CONTINUOUS
  0
LAYER
  2
CENTERLINES
 70
     0
 62
     7
  6
CENTER
  0
LAYER
  2
CENTERMARKS
 70
     0
 62
     7
  6
CONTINUOUS
  0
LAYER
  2
TABLES
 70
     0
 62
     7
  6
CONTINUOUS
  0
LAYER
  2
IMAGES
 70
     0
 62
     7
  6
CONTINUOUS
  0
LAYER
  2
ANNOTATIONS
 70
     0
 62
     7
  6
CONTINUOUS
  0
LAYER
  2
SIDE_THREAD_SYMBOLS_SOLID
 70
     0
 62
     7
  6
CONTINUOUS
  0
LAYER
  2
SIDE_THREAD_SYMBOLS_DASHED
 70
     0
 62
     7
  6
CONTINUOUS
  0
LAYER
  2
TOP_THREAD_SYMBOLS
 70
     0
 62
     7
  6
CONTINUOUS
  0
LAYER
  2
EXPLODE_LINES
 70
     0
 62
     7
  6
CONTINUOUS
  0
LAYER
  2
BREAK_LINES
 70
     0
 62
     7
  6
CONTINUOUS
  0
LAYER
  2
SHEETMETAL_BEND_LINES
 70
     0
 62
     7
  6
CONTINUOUS
  0
LAYER
  2
SHEETMETAL_CUT_LINES
 70
     0
 62
     7
  6
CONTINUOUS
  0
LAYER
  2
HIDDEN
 70
     0
 62
    -7
  6
HIDDEN
  0
LAYER
  2
VISIBLE
 70
     0
 62
     7
  6
CONTINUOUS
  0
LAYER
  2
TANGENT_LINES
 70
     0
 62
     7
  6
CONTINUOUS
  0
LAYER
  2
TANGENT_HIDDEN
 70
     0
 62
    -7
  6
HIDDEN
  0
LAYER
  2
INVISIBLE_LINES
 70
     0
 62
    -7
  6
CONTINUOUS
  0
LAYER
  2
VIEW_HATCHES
 70
     0
 62
     7
  6
CONTINUOUS
  0
LAYER
  2
SECTION_JOG_LINES
 70
     0
 62
    -7
  6
CONTINUOUS
  0
ENDTAB
  0
TABLE
  2
STYLE
 70
     2
  0
STYLE
  2
STANDARD
 70
     0
 40
0.0
 41
1.0
 50
0.0
 71
     0
 42
0.2
  3
txt
  4

  0
STYLE
  2
TTFSTYLE
 70
     0
 40
0.0
 41
1.0
 50
0.0
 71
     0
 42
0.2
  3
Verdana.ttf
  4

  0
ENDTAB
  0
TABLE
  2
VIEW
 70
     0
  0
ENDTAB
  0
TABLE
  2
UCS
 70
     0
  0
ENDTAB
  0
TABLE
  2
APPID
 70
     1
  0
APPID
  2
ACAD
 70
     0
  0
ENDTAB
  0
TABLE
  2
DIMSTYLE
 70
     1
  0
DIMSTYLE
  2
STANDARD
 70
     0
  3

  4

  5

  6

  7

 40
1.0
 41
0.18
 42
0.0625
 43
0.38
 44
0.18
 45
0.0
 46
0.0
 47
0.0
 48
0.0
140
0.18
141
0.09
142
0.0
143
25.4
144
1.0
145
0.0
146
1.0
147
0.09
 71
     0
 72
     0
 73
     1
 74
     1
 75
     0
 76
     0
 77
     0
 78
     0
170
     0
171
     2
172
     0
173
     0
174
     0
175
     0
176
     0
177
     0
178
     0
  0
ENDTAB
  0
ENDSEC
  0
SECTION
  2
BLOCKS
  0
BLOCK
  8
0
  2
$MODEL_SPACE
 70
     0
 10
0.0
 20
0.0
 30
0.0
  3
$MODEL_SPACE
  1

  0
ENDBLK
  5
21
  8
0
  0
BLOCK
 67
     1
  8
0
  2
$PAPER_SPACE
 70
     0
 10
0.0
 20
0.0
 30
0.0
  3
$PAPER_SPACE
  1

  0
ENDBLK
  5
1D
 67
     1
  8
0
  0
ENDSEC
  0
SECTION
  2
ENTITIES
  0
POLYLINE
  5
F43A5
  8
VISIBLE
 10
0.0
 20
0.0
 30
0.0
 66
     1
 70
     8
  0
VERTEX
  5
10000041
  8
VISIBLE
 10
-8.20261501155232
 20
2.542527541086149
 30
0.0
 70
    32
  0
VERTEX
  5
10000042
  8
VISIBLE
 10
-9.374020071275163
 20
2.443786960195796
 30
0.0
 70
    32
  0
VERTEX
  5
10000043
  8
VISIBLE
 10
-10.51651155311423
 20
2.345691777362197
 30
0.0
 70
    32
  0
VERTEX
  5
10000044
  8
VISIBLE
 10
-11.60090963333296
 20
2.204207241236627
 30
0.0
 70
    32
  0
VERTEX
  5
10000045
  8
VISIBLE
 10
-12.11038500072532
 20
2.089355153730803
 30
0.0
 70
    32
  0
VERTEX
  5
10000046
  8
VISIBLE
 10
-12.55883274096074
 20
1.91918551060009
 30
0.0
 70
    32
  0
VERTEX
  5
10000047
  8
VISIBLE
 10
-12.87850484964758
 20
1.667907008034099
 30
0.0
 70
    32
  0
VERTEX
  5
10000048
  8
VISIBLE
 10
-13.02778442612706
 20
1.360493467963409
 30
0.0
 70
    32
  0
VERTEX
  5
10000049
  8
VISIBLE
 10
-13.10048629913017
 20
0.9415735136497045
 30
0.0
 70
    32
  0
VERTEX
  5
1000004A
  8
VISIBLE
 10
-13.12500025070414
 20
0.1931193219183006
 30
0.0
 70
    32
  0
SEQEND
  5
1000004D
  8
VISIBLE
  0
POLYLINE
  5
F43A6
  8
VISIBLE
 10
0.0
 20
0.0
 30
0.0
 66
     1
 70
     8
  0
VERTEX
  5
1000004E
  8
VISIBLE
 10
13.125
 20
-0.0000000000000001
 30
0.0
 70
    32
  0
VERTEX
  5
1000004F
  8
VISIBLE
 10
13.09885516056656
 20
0.2951577153475123
 30
0.0
 70
    32
  0
VERTEX
  5
10000050
  8
VISIBLE
 10
13.02034235906766
 20
0.5487104011283247
 30
0.0
 70
    32
  0
VERTEX
  5
10000051
  8
VISIBLE
 10
12.87753827128315
 20
0.8148214328191525
 30
0.0
 70
    32
  0
VERTEX
  5
10000052
  8
VISIBLE
 10
12.65483532681654
 20
1.094528167849548
 30
0.0
 70
    32
  0
VERTEX
  5
10000053
  8
VISIBLE
 10
12.31913640438318
 20
1.392105103519961
 30
0.0
 70
    32
  0
VERTEX
  5
10000054
  8
VISIBLE
 10
11.83838222085195
 20
1.706585765581969
 30
0.0
 70
    32
  0
VERTEX
  5
10000055
  8
VISIBLE
 10
11.21701087522517
 20
2.026193973760889
 30
0.0
 70
    32
  0
VERTEX
  5
10000056
  8
VISIBLE
 10
10.4855703464335
 20
2.333676901770719
 30
0.0
 70
    32
  0
VERTEX
  5
10000057
  8
VISIBLE
 10
9.67296232004949
 20
2.615221796399005
 30
0.0
 70
    32
  0
VERTEX
  5
10000058
  8
VISIBLE
 10
8.807095868874569
 20
2.858413906873466
 30
0.0
 70
    32
  0
VERTEX
  5
10000059
  8
VISIBLE
 10
7.313064024561505
 20
3.15111696626671
 30
0.0
 70
    32
  0
VERTEX
  5
1000005A
  8
VISIBLE
 10
5.796420430085385
 20
3.311172202645519
 30
0.0
 70
    32
  0
VERTEX
  5
1000005B
  8
VISIBLE
 10
4.285450550923194
 20
3.373541517198288
 30
0.0
 70
    32
  0
VERTEX
  5
1000005C
  8
VISIBLE
 10
2.808654196668168
 20
3.374457066300304
 30
0.0
 70
    32
  0
VERTEX
  5
1000005D
  8
VISIBLE
 10
1.382982057708898
 20
3.343130523327303
 30
0.0
 70
    32
  0
VERTEX
  5
1000005E
  8
VISIBLE
 10
-0.0356637383663296
 20
3.281201678929366
 30
0.0
 70
    32
  0
VERTEX
  5
1000005F
  8
VISIBLE
 10
-1.52491808165325
 20
3.182759777210346
 30
0.0
 70
    32
  0
VERTEX
  5
10000060
  8
VISIBLE
 10
-3.130780824850526
 20
3.044211865686874
 30
0.0
 70
    32
  0
VERTEX
  5
10000061
  8
VISIBLE
 10
-4.83407704766676
 20
2.876310256167715
 30
0.0
 70
    32
  0
VERTEX
  5
10000062
  8
VISIBLE
 10
-6.552424508852611
 20
2.701497072671863
 30
0.0
 70
    32
  0
VERTEX
  5
10000063
  8
VISIBLE
 10
-8.20261456154021
 20
2.542522557913919
 30
0.0
 70
    32
  0
SEQEND
  5
10000066
  8
VISIBLE
  0
POLYLINE
  5
F43A7
  8
VISIBLE
 10
0.0
 20
0.0
 30
0.0
 66
     1
 70
     8
  0
VERTEX
  5
10000067
  8
VISIBLE
 10
13.125
 20
0.0000000000000001
 30
0.0
 70
    32
  0
VERTEX
  5
10000068
  8
VISIBLE
 10
13.09885516056656
 20
-0.2951577153475123
 30
0.0
 70
    32
  0
VERTEX
  5
10000069
  8
VISIBLE
 10
13.02034235906766
 20
-0.5487104011283247
 30
0.0
 70
    32
  0
VERTEX
  5
1000006A
  8
VISIBLE
 10
12.87753827128315
 20
-0.8148214328191525
 30
0.0
 70
    32
  0
VERTEX
  5
1000006B
  8
VISIBLE
 10
12.65483532681654
 20
-1.094528167849548
 30
0.0
 70
    32
  0
VERTEX
  5
1000006C
  8
VISIBLE
 10
12.31913640438318
 20
-1.392105103519961
 30
0.0
 70
    32
  0
VERTEX
  5
1000006D
  8
VISIBLE
 10
11.83838222085195
 20
-1.706585765581969
 30
0.0
 70
    32
  0
VERTEX
  5
1000006E
  8
VISIBLE
 10
11.21701087522517
 20
-2.026193973760889
 30
0.0
 70
    32
  0
VERTEX
  5
1000006F
  8
VISIBLE
 10
10.4855703464335
 20
-2.333676901770719
 30
0.0
 70
    32
  0
VERTEX
  5
10000070
  8
VISIBLE
 10
9.67296232004949
 20
-2.615221796399005
 30
0.0
 70
    32
  0
VERTEX
  5
10000071
  8
VISIBLE
 10
8.807095868874569
 20
-2.858413906873466
 30
0.0
 70
    32
  0
VERTEX
  5
10000072
  8
VISIBLE
 10
7.313064024561505
 20
-3.15111696626671
 30
0.0
 70
    32
  0
VERTEX
  5
10000073
  8
VISIBLE
 10
5.796420430085385
 20
-3.311172202645519
 30
0.0
 70
    32
  0
VERTEX
  5
10000074
  8
VISIBLE
 10
4.285450550923194
 20
-3.373541517198288
 30
0.0
 70
    32
  0
VERTEX
  5
10000075
  8
VISIBLE
 10
2.808654196668168
 20
-3.374457066300304
 30
0.0
 70
    32
  0
VERTEX
  5
10000076
  8
VISIBLE
 10
1.382982057708898
 20
-3.343130523327303
 30
0.0
 70
    32
  0
VERTEX
  5
10000077
  8
VISIBLE
 10
-0.0356637383663303
 20
-3.281201678929366
 30
0.0
 70
    32
  0
VERTEX
  5
10000078
  8
VISIBLE
 10
-1.524918081653252
 20
-3.182759777210346
 30
0.0
 70
    32
  0
VERTEX
  5
10000079
  8
VISIBLE
 10
-3.13078082485053
 20
-3.044211865686874
 30
0.0
 70
    32
  0
VERTEX
  5
1000007A
  8
VISIBLE
 10
-4.834077047666768
 20
-2.876310256167715
 30
0.0
 70
    32
  0
VERTEX
  5
1000007B
  8
VISIBLE
 10
-6.552424508852621
 20
-2.701497072671863
 30
0.0
 70
    32
  0
VERTEX
  5
1000007C
  8
VISIBLE
 10
-8.202614561540207
 20
-2.54252255791392
 30
0.0
 70
    32
  0
SEQEND
  5
1000007F
  8
VISIBLE
  0
POLYLINE
  5
F43A8
  8
VISIBLE
 10
0.0
 20
0.0
 30
0.0
 66
     1
 70
     8
  0
VERTEX
  5
10000080
  8
VISIBLE
 10
-8.202615011552318
 20
-2.542527541086149
 30
0.0
 70
    32
  0
VERTEX
  5
10000081
  8
VISIBLE
 10
-9.374020071275167
 20
-2.443786960195798
 30
0.0
 70
    32
  0
VERTEX
  5
10000082
  8
VISIBLE
 10
-10.51651155311424
 20
-2.345691777362198
 30
0.0
 70
    32
  0
VERTEX
  5
10000083
  8
VISIBLE
 10
-11.60090963333297
 20
-2.204207241236632
 30
0.0
 70
    32
  0
VERTEX
  5
10000084
  8
VISIBLE
 10
-12.11038500072534
 20
-2.089355153730796
 30
0.0
 70
    32
  0
VERTEX
  5
10000085
  8
VISIBLE
 10
-12.55883274096074
 20
-1.919185510600081
 30
0.0
 70
    32
  0
VERTEX
  5
10000086
  8
VISIBLE
 10
-12.87850484964759
 20
-1.667907008034085
 30
0.0
 70
    32
  0
VERTEX
  5
10000087
  8
VISIBLE
 10
-13.02778442612705
 20
-1.360493467963418
 30
0.0
 70
    32
  0
VERTEX
  5
10000088
  8
VISIBLE
 10
-13.10048629913017
 20
-0.9415735136496992
 30
0.0
 70
    32
  0
VERTEX
  5
10000089
  8
VISIBLE
 10
-13.12500025070414
 20
-0.1931193219182916
 30
0.0
 70
    32
  0
SEQEND
  5
1000008C
  8
VISIBLE
  0
LINE
  5
F43A9
  8
VISIBLE
 10
-9.284168388568466
 20
1.1875
 30
0.0
 11
-6.034168388568444
 21
1.1875
 31
0.0
  0
LINE
  5
F43AA
  8
VISIBLE
 10
-9.284168388568466
 20
-1.187500000000002
 30
0.0
 11
-6.034168388568444
 21
-1.187500000000002
 31
0.0
  0
LINE
  5
F43AB
  8
VISIBLE
 10
-9.284168388568466
 20
1.1875
 30
0.0
 11
-9.284168388568466
 21
-1.187500000000002
 31
0.0
  0
LINE
  5
F43AC
  8
VISIBLE
 10
-6.034168388568444
 20
1.1875
 30
0.0
 11
-6.034168388568444
 21
-1.187500000000002
 31
0.0
  0
LINE
  5
F43AD
  8
VISIBLE
 10
11.41076302156093
 20
1.1875
 30
0.0
 11
8.160763021561069
 21
1.1875
 31
0.0
  0
LINE
  5
F43AE
  8
VISIBLE
 10
11.41076302156093
 20
-1.187499999999977
 30
0.0
 11
8.160763021561069
 21
-1.187499999999977
 31
0.0
  0
LINE
  5
F43AF
  8
VISIBLE
 10
11.41076302156093
 20
1.1875
 30
0.0
 11
11.41076302156093
 21
-1.187499999999977
 31
0.0
  0
LINE
  5
F43B0
  8
VISIBLE
 10
8.160763021561069
 20
1.1875
 30
0.0
 11
8.160763021561069
 21
-1.187499999999977
 31
0.0
  0
POLYLINE
  5
F43B1
  8
VISIBLE
 10
0.0
 20
0.0
 30
0.0
 66
     1
 70
     8
  0
VERTEX
  5
100000AC
  8
VISIBLE
 10
-13.125
 20
0.0
 30
0.0
 70
    32
  0
VERTEX
  5
100000AD
  8
VISIBLE
 10
-13.12503058163052
 20
0.1087120096293163
 30
0.0
 70
    32
  0
VERTEX
  5
100000AE
  8
VISIBLE
 10
-13.12500025070414
 20
0.1931193219183079
 30
0.0
 70
    32
  0
SEQEND
  5
100000B1
  8
VISIBLE
  0
POLYLINE
  5
F43B2
  8
VISIBLE
 10
0.0
 20
0.0
 30
0.0
 66
     1
 70
     8
  0
VERTEX
  5
100000B2
  8
VISIBLE
 10
-13.12500025070414
 20
-0.193119321918286
 30
0.0
 70
    32
  0
VERTEX
  5
100000B3
  8
VISIBLE
 10
-13.1250240151868
 20
-0.0855321103983752
 30
0.0
 70
    32
  0
VERTEX
  5
100000B4
  8
VISIBLE
 10
-13.125
 20
0.0
 30
0.0
 70
    32
  0
SEQEND
  5
100000B7
  8
VISIBLE
  0
ENDSEC
  0
EOF
