  0
SECTION
  2
BLOCKS
  0
ENDSEC
  0
SECTION
  2
ENTITIES
  0
LINE
  8
0
 10
109.014
 20
-95.2109
 11
147.888
 21
-93.6064
  0
LINE
  8
0
 10
147.888
 20
-93.6064
 11
187.131
 21
-89.4629
  0
LINE
  8
0
 10
187.131
 20
-89.4629
 11
226.003
 21
-81.8467
  0
LINE
  8
0
 10
226.003
 20
-81.8467
 11
248.541
 21
-75.5156
  0
LINE
  8
0
 10
248.541
 20
-75.5156
 11
269.732
 21
-68.1738
  0
LINE
  8
0
 10
269.732
 20
-68.1738
 11
288.92
 21
-60.1064
  0
LINE
  8
0
 10
288.92
 20
-60.1064
 11
305.449
 21
-51.6016
  0
LINE
  8
0
 10
305.449
 20
-51.6016
 11
318.666
 21
-42.9453
  0
LINE
  8
0
 10
318.666
 20
-42.9453
 11
330.276
 21
-32.2266
  0
LINE
  8
0
 10
330.276
 20
-32.2266
 11
337.52
 21
-21.7578
  0
LINE
  8
0
 10
337.52
 20
-21.7578
 11
341.58
 21
-11.4648
  0
LINE
  8
0
 10
341.58
 20
-11.4648
 11
342.9
 21
0
  0
LINE
  8
0
 10
342.9
 20
0
 11
341.58
 21
11.4648
  0
LINE
  8
0
 10
341.58
 20
11.4648
 11
337.52
 21
21.7578
  0
LINE
  8
0
 10
337.52
 20
21.7578
 11
330.276
 21
32.2266
  0
LINE
  8
0
 10
330.276
 20
32.2266
 11
318.666
 21
42.9453
  0
LINE
  8
0
 10
318.666
 20
42.9453
 11
305.449
 21
51.6016
  0
LINE
  8
0
 10
305.449
 20
51.6016
 11
288.92
 21
60.1064
  0
LINE
  8
0
 10
288.92
 20
60.1064
 11
269.732
 21
68.1738
  0
LINE
  8
0
 10
269.732
 20
68.1738
 11
248.541
 21
75.5156
  0
LINE
  8
0
 10
248.541
 20
75.5156
 11
226.003
 21
81.8467
  0
LINE
  8
0
 10
226.003
 20
81.8467
 11
187.131
 21
89.4629
  0
LINE
  8
0
 10
187.131
 20
89.4629
 11
147.888
 21
93.6064
  0
LINE
  8
0
 10
147.888
 20
93.6064
 11
109.014
 21
95.2119
  0
LINE
  8
0
 10
109.014
 20
95.2119
 11
71.2246
 21
95.2354
  0
LINE
  8
0
 10
71.2246
 20
95.2354
 11
34.8193
 21
94.4355
  0
LINE
  8
0
 10
34.8193
 20
94.4355
 11
-1.42773
 21
92.8535
  0
LINE
  8
0
 10
-1.42773
 20
92.8535
 11
-39.4609
 21
90.3389
  0
LINE
  8
0
 10
-39.4609
 20
90.3389
 11
-80.4131
 21
86.8057
  0
LINE
  8
0
 10
-80.4131
 20
86.8057
 11
-123.747
 21
82.5342
  0
LINE
  8
0
 10
-123.747
 20
82.5342
 11
-167.384
 21
78.0957
  0
LINE
  8
0
 10
-167.384
 20
78.0957
 11
-209.203
 21
74.0664
  0
LINE
  8
0
 10
-209.203
 20
74.0664
 11
-238.863
 21
71.5664
  0
LINE
  8
0
 10
-238.863
 20
71.5664
 11
-268.049
 21
69.0596
  0
LINE
  8
0
 10
-268.049
 20
69.0596
 11
-296.354
 21
65.3604
  0
LINE
  8
0
 10
-296.354
 20
65.3604
 11
-306.775
 21
63.1455
  0
LINE
  8
0
 10
-306.775
 20
63.1455
 11
-316.918
 21
60.0508
  0
LINE
  8
0
 10
-316.918
 20
60.0508
 11
-326.509
 21
55.4062
  0
LINE
  8
0
 10
-326.509
 20
55.4062
 11
-334.591
 21
48.2656
  0
LINE
  8
0
 10
-334.591
 20
48.2656
 11
-339.663
 21
38.4863
  0
LINE
  8
0
 10
-339.663
 20
38.4863
 11
-341.946
 21
27.5039
  0
LINE
  8
0
 10
-341.946
 20
27.5039
 11
-342.749
 21
16.2227
  0
LINE
  8
0
 10
-342.749
 20
16.2227
 11
-342.899
 21
4.91602
  0
LINE
  8
0
 10
-342.899
 20
4.91602
 11
-342.899
 21
-4.91602
  0
LINE
  8
0
 10
-342.899
 20
-4.91602
 11
-342.749
 21
-16.2227
  0
LINE
  8
0
 10
-342.749
 20
-16.2227
 11
-341.946
 21
-27.5039
  0
LINE
  8
0
 10
-341.946
 20
-27.5039
 11
-339.663
 21
-38.4863
  0
LINE
  8
0
 10
-339.663
 20
-38.4863
 11
-334.591
 21
-48.2656
  0
LINE
  8
0
 10
-334.591
 20
-48.2656
 11
-326.509
 21
-55.4062
  0
LINE
  8
0
 10
-326.509
 20
-55.4062
 11
-316.918
 21
-60.0508
  0
LINE
  8
0
 10
-316.918
 20
-60.0508
 11
-306.775
 21
-63.1455
  0
LINE
  8
0
 10
-306.775
 20
-63.1455
 11
-296.354
 21
-65.3604
  0
LINE
  8
0
 10
-296.354
 20
-65.3604
 11
-268.049
 21
-69.0596
  0
LINE
  8
0
 10
-268.049
 20
-69.0596
 11
-238.863
 21
-71.5664
  0
LINE
  8
0
 10
-238.863
 20
-71.5664
 11
-209.203
 21
-74.0664
  0
LINE
  8
0
 10
-209.203
 20
-74.0664
 11
-167.384
 21
-78.0947
  0
LINE
  8
0
 10
-167.384
 20
-78.0947
 11
-123.747
 21
-82.5342
  0
LINE
  8
0
 10
-123.747
 20
-82.5342
 11
-80.4131
 21
-86.8057
  0
LINE
  8
0
 10
-80.4131
 20
-86.8057
 11
-39.4609
 21
-90.3389
  0
LINE
  8
0
 10
-39.4609
 20
-90.3389
 11
-1.42773
 21
-92.8535
  0
LINE
  8
0
 10
-1.42773
 20
-92.8535
 11
34.8193
 21
-94.4355
  0
LINE
  8
0
 10
34.8193
 20
-94.4355
 11
71.2246
 21
-95.2354
  0
LINE
  8
0
 10
71.2246
 20
-95.2354
 11
109.014
 21
-95.2109
  0
LINE
  8
0
 10
72.1013
 20
71.8691
 11
67.6834
 21
79.521
  0
LINE
  8
0
 10
67.6834
 20
79.521
 11
71.2561
 21
85.7091
  0
LINE
  8
0
 10
71.2561
 20
85.7091
 11
71.3398
 21
85.7109
  0
LINE
  8
0
 10
71.3398
 20
85.7109
 11
81.7846
 21
85.7047
  0
LINE
  8
0
 10
81.7846
 20
85.7047
 11
85.3548
 21
79.521
  0
LINE
  8
0
 10
85.3548
 20
79.521
 11
80.9369
 21
71.8691
  0
LINE
  8
0
 10
80.9369
 20
71.8691
 11
72.1013
 21
71.8691
  0
LINE
  8
0
 10
87.4051
 20
80.7047
 11
84.5193
 21
85.703
  0
LINE
  8
0
 10
84.5193
 20
85.703
 11
99.1215
 21
85.6943
  0
LINE
  8
0
 10
99.1215
 20
85.6943
 11
96.2408
 21
80.7047
  0
LINE
  8
0
 10
96.2408
 20
80.7047
 11
87.4051
 21
80.7047
  0
LINE
  8
0
 10
102.709
 20
71.8691
 11
98.2911
 21
79.521
  0
LINE
  8
0
 10
98.2911
 20
79.521
 11
101.854
 21
85.6927
  0
LINE
  8
0
 10
101.854
 20
85.6927
 11
108.851
 21
85.6885
  0
LINE
  8
0
 10
108.851
 20
85.6885
 11
112.488
 21
85.5382
  0
LINE
  8
0
 10
112.488
 20
85.5382
 11
115.962
 21
79.521
  0
LINE
  8
0
 10
115.962
 20
79.521
 11
111.545
 21
71.8691
  0
LINE
  8
0
 10
111.545
 20
71.8691
 11
102.709
 21
71.8691
  0
LINE
  8
0
 10
56.7974
 20
80.7047
 11
54.1253
 21
85.333
  0
LINE
  8
0
 10
54.1253
 20
85.333
 11
68.4873
 21
85.6483
  0
LINE
  8
0
 10
68.4873
 20
85.6483
 11
65.6331
 21
80.7047
  0
LINE
  8
0
 10
65.6331
 20
80.7047
 11
56.7974
 21
80.7047
  0
LINE
  8
0
 10
118.013
 20
80.7047
 11
115.289
 21
85.4226
  0
LINE
  8
0
 10
115.289
 20
85.4226
 11
129.24
 21
84.8465
  0
LINE
  8
0
 10
129.24
 20
84.8465
 11
126.848
 21
80.7047
  0
LINE
  8
0
 10
126.848
 20
80.7047
 11
118.013
 21
80.7047
  0
LINE
  8
0
 10
41.4936
 20
71.8691
 11
37.0758
 21
79.521
  0
LINE
  8
0
 10
37.0758
 20
79.521
 11
40.2556
 21
85.0286
  0
LINE
  8
0
 10
40.2556
 20
85.0286
 11
51.4257
 21
85.2738
  0
LINE
  8
0
 10
51.4257
 20
85.2738
 11
54.7471
 21
79.521
  0
LINE
  8
0
 10
54.7471
 20
79.521
 11
50.3293
 21
71.8691
  0
LINE
  8
0
 10
50.3293
 20
71.8691
 11
41.4936
 21
71.8691
  0
LINE
  8
0
 10
26.1898
 20
80.7047
 11
24.038
 21
84.4318
  0
LINE
  8
0
 10
24.038
 20
84.4318
 11
35.1279
 21
84.916
  0
LINE
  8
0
 10
35.1279
 20
84.916
 11
37.4867
 21
84.9678
  0
LINE
  8
0
 10
37.4867
 20
84.9678
 11
35.0255
 21
80.7047
  0
LINE
  8
0
 10
35.0255
 20
80.7047
 11
26.1898
 21
80.7047
  0
LINE
  8
0
 10
133.317
 20
71.8691
 11
128.899
 21
79.521
  0
LINE
  8
0
 10
128.899
 20
79.521
 11
131.91
 21
84.7362
  0
LINE
  8
0
 10
131.91
 20
84.7362
 11
143.844
 21
84.2433
  0
LINE
  8
0
 10
143.844
 20
84.2433
 11
146.57
 21
79.521
  0
LINE
  8
0
 10
146.57
 20
79.521
 11
142.152
 21
71.8691
  0
LINE
  8
0
 10
142.152
 20
71.8691
 11
133.317
 21
71.8691
  0
LINE
  8
0
 10
10.886
 20
71.8691
 11
6.46815
 21
79.521
  0
LINE
  8
0
 10
6.46815
 20
79.521
 11
8.92239
 21
83.7719
  0
LINE
  8
0
 10
8.92239
 20
83.7719
 11
21.3714
 21
84.3154
  0
LINE
  8
0
 10
21.3714
 20
84.3154
 11
24.1395
 21
79.521
  0
LINE
  8
0
 10
24.1395
 20
79.521
 11
19.7216
 21
71.8691
  0
LINE
  8
0
 10
19.7216
 20
71.8691
 11
10.886
 21
71.8691
  0
LINE
  8
0
 10
148.62
 20
80.7047
 11
146.644
 21
84.1277
  0
LINE
  8
0
 10
146.644
 20
84.1277
 11
147.229
 21
84.1035
  0
LINE
  8
0
 10
147.229
 20
84.1035
 11
158.718
 21
82.8911
  0
LINE
  8
0
 10
158.718
 20
82.8911
 11
157.456
 21
80.7047
  0
LINE
  8
0
 10
157.456
 20
80.7047
 11
148.62
 21
80.7047
  0
LINE
  8
0
 10
-19.7216
 20
71.8691
 11
-24.1395
 21
79.521
  0
LINE
  8
0
 10
-24.1395
 20
79.521
 11
-22.7675
 21
81.8973
  0
LINE
  8
0
 10
-22.7675
 20
81.8973
 11
-0.905273
 21
83.3428
  0
LINE
  8
0
 10
-0.905273
 20
83.3428
 11
6.11794
 21
83.6494
  0
LINE
  8
0
 10
6.11794
 20
83.6494
 11
4.41783
 21
80.7047
  0
LINE
  8
0
 10
4.41783
 20
80.7047
 11
-4.41783
 21
80.7047
  0
LINE
  8
0
 10
-4.41783
 20
80.7047
 11
-5.75575
 21
83.0221
  0
LINE
  8
0
 10
-5.75575
 20
83.0221
 11
-8.38899
 21
82.848
  0
LINE
  8
0
 10
-8.38899
 20
82.848
 11
-6.46815
 21
79.521
  0
LINE
  8
0
 10
-6.46815
 20
79.521
 11
-10.886
 21
71.8691
  0
LINE
  8
0
 10
-10.886
 20
71.8691
 11
-19.7216
 21
71.8691
  0
LINE
  8
0
 10
163.924
 20
71.8691
 11
159.506
 21
79.521
  0
LINE
  8
0
 10
159.506
 20
79.521
 11
161.295
 21
82.6191
  0
LINE
  8
0
 10
161.295
 20
82.6191
 11
176.303
 21
81.0352
  0
LINE
  8
0
 10
176.303
 20
81.0352
 11
177.178
 21
79.521
  0
LINE
  8
0
 10
177.178
 20
79.521
 11
172.76
 21
71.8691
  0
LINE
  8
0
 10
172.76
 20
71.8691
 11
163.924
 21
71.8691
  0
LINE
  8
0
 10
-35.0255
 20
80.7047
 11
-35.238
 21
81.0728
  0
LINE
  8
0
 10
-35.238
 20
81.0728
 11
-25.6098
 21
81.7094
  0
LINE
  8
0
 10
-25.6098
 20
81.7094
 11
-26.1898
 21
80.7047
  0
LINE
  8
0
 10
-26.1898
 20
80.7047
 11
-35.0255
 21
80.7047
  0
LINE
  8
0
 10
-80.9369
 20
71.8691
 11
-83.8401
 21
76.8975
  0
LINE
  8
0
 10
-83.8401
 20
76.8975
 11
-79.5215
 21
77.3232
  0
LINE
  8
0
 10
-79.5215
 20
77.3232
 11
-38.7324
 21
80.8418
  0
LINE
  8
0
 10
-38.7324
 20
80.8418
 11
-37.8712
 21
80.8987
  0
LINE
  8
0
 10
-37.8712
 20
80.8987
 11
-37.0758
 21
79.521
  0
LINE
  8
0
 10
-37.0758
 20
79.521
 11
-41.4936
 21
71.8691
  0
LINE
  8
0
 10
-41.4936
 20
71.8691
 11
-50.3293
 21
71.8691
  0
LINE
  8
0
 10
-50.3293
 20
71.8691
 11
-54.7138
 21
79.4632
  0
LINE
  8
0
 10
-54.7138
 20
79.4632
 11
-68.3983
 21
78.2827
  0
LINE
  8
0
 10
-68.3983
 20
78.2827
 11
-72.1013
 21
71.8691
  0
LINE
  8
0
 10
-72.1013
 20
71.8691
 11
-80.9369
 21
71.8691
  0
LINE
  8
0
 10
179.228
 20
80.7047
 11
179.215
 21
80.728
  0
LINE
  8
0
 10
179.215
 20
80.728
 11
179.435
 21
80.7047
  0
LINE
  8
0
 10
179.435
 20
80.7047
 11
179.228
 21
80.7047
  0
LINE
  8
0
 10
194.532
 20
71.8691
 11
190.334
 21
79.1405
  0
LINE
  8
0
 10
190.334
 20
79.1405
 11
205.815
 21
76.1076
  0
LINE
  8
0
 10
205.815
 20
76.1076
 11
203.368
 21
71.8691
  0
LINE
  8
0
 10
203.368
 20
71.8691
 11
194.532
 21
71.8691
  0
LINE
  8
0
 10
26.1898
 20
63.0334
 11
21.772
 21
70.6853
  0
LINE
  8
0
 10
21.772
 20
70.6853
 11
26.1898
 21
78.3372
  0
LINE
  8
0
 10
26.1898
 20
78.3372
 11
35.0255
 21
78.3372
  0
LINE
  8
0
 10
35.0255
 20
78.3372
 11
39.4433
 21
70.6853
  0
LINE
  8
0
 10
39.4433
 20
70.6853
 11
35.0255
 21
63.0334
  0
LINE
  8
0
 10
35.0255
 20
63.0334
 11
26.1898
 21
63.0334
  0
LINE
  8
0
 10
-4.41783
 20
63.0334
 11
-8.83566
 21
70.6853
  0
LINE
  8
0
 10
-8.83566
 20
70.6853
 11
-4.41783
 21
78.3372
  0
LINE
  8
0
 10
-4.41783
 20
78.3372
 11
4.41783
 21
78.3372
  0
LINE
  8
0
 10
4.41783
 20
78.3372
 11
8.83566
 21
70.6853
  0
LINE
  8
0
 10
8.83566
 20
70.6853
 11
4.41783
 21
63.0334
  0
LINE
  8
0
 10
4.41783
 20
63.0334
 11
-4.41783
 21
63.0334
  0
LINE
  8
0
 10
118.013
 20
63.0334
 11
113.595
 21
70.6853
  0
LINE
  8
0
 10
113.595
 20
70.6853
 11
118.013
 21
78.3372
  0
LINE
  8
0
 10
118.013
 20
78.3372
 11
126.848
 21
78.3372
  0
LINE
  8
0
 10
126.848
 20
78.3372
 11
131.266
 21
70.6853
  0
LINE
  8
0
 10
131.266
 20
70.6853
 11
126.848
 21
63.0334
  0
LINE
  8
0
 10
126.848
 20
63.0334
 11
118.013
 21
63.0334
  0
LINE
  8
0
 10
179.228
 20
63.0334
 11
174.81
 21
70.6853
  0
LINE
  8
0
 10
174.81
 20
70.6853
 11
179.228
 21
78.3372
  0
LINE
  8
0
 10
179.228
 20
78.3372
 11
188.064
 21
78.3372
  0
LINE
  8
0
 10
188.064
 20
78.3372
 11
192.482
 21
70.6853
  0
LINE
  8
0
 10
192.482
 20
70.6853
 11
188.064
 21
63.0334
  0
LINE
  8
0
 10
188.064
 20
63.0334
 11
179.228
 21
63.0334
  0
LINE
  8
0
 10
56.7974
 20
63.0334
 11
52.3796
 21
70.6853
  0
LINE
  8
0
 10
52.3796
 20
70.6853
 11
56.7974
 21
78.3372
  0
LINE
  8
0
 10
56.7974
 20
78.3372
 11
65.6331
 21
78.3372
  0
LINE
  8
0
 10
65.6331
 20
78.3372
 11
70.0509
 21
70.6853
  0
LINE
  8
0
 10
70.0509
 20
70.6853
 11
65.6331
 21
63.0334
  0
LINE
  8
0
 10
65.6331
 20
63.0334
 11
56.7974
 21
63.0334
  0
LINE
  8
0
 10
148.62
 20
63.0334
 11
144.203
 21
70.6853
  0
LINE
  8
0
 10
144.203
 20
70.6853
 11
148.62
 21
78.3372
  0
LINE
  8
0
 10
148.62
 20
78.3372
 11
157.456
 21
78.3372
  0
LINE
  8
0
 10
157.456
 20
78.3372
 11
161.874
 21
70.6853
  0
LINE
  8
0
 10
161.874
 20
70.6853
 11
157.456
 21
63.0334
  0
LINE
  8
0
 10
157.456
 20
63.0334
 11
148.62
 21
63.0334
  0
LINE
  8
0
 10
87.4051
 20
63.0334
 11
82.9873
 21
70.6853
  0
LINE
  8
0
 10
82.9873
 20
70.6853
 11
87.4051
 21
78.3372
  0
LINE
  8
0
 10
87.4051
 20
78.3372
 11
96.2408
 21
78.3372
  0
LINE
  8
0
 10
96.2408
 20
78.3372
 11
100.659
 21
70.6853
  0
LINE
  8
0
 10
100.659
 20
70.6853
 11
96.2408
 21
63.0334
  0
LINE
  8
0
 10
96.2408
 20
63.0334
 11
87.4051
 21
63.0334
  0
LINE
  8
0
 10
-65.6331
 20
63.0334
 11
-70.0509
 21
70.6853
  0
LINE
  8
0
 10
-70.0509
 20
70.6853
 11
-65.6331
 21
78.3372
  0
LINE
  8
0
 10
-65.6331
 20
78.3372
 11
-56.7974
 21
78.3372
  0
LINE
  8
0
 10
-56.7974
 20
78.3372
 11
-52.3796
 21
70.6853
  0
LINE
  8
0
 10
-52.3796
 20
70.6853
 11
-56.7974
 21
63.0334
  0
LINE
  8
0
 10
-56.7974
 20
63.0334
 11
-65.6331
 21
63.0334
  0
LINE
  8
0
 10
-35.0255
 20
63.0334
 11
-39.4433
 21
70.6853
  0
LINE
  8
0
 10
-39.4433
 20
70.6853
 11
-35.0255
 21
78.3372
  0
LINE
  8
0
 10
-35.0255
 20
78.3372
 11
-26.1898
 21
78.3372
  0
LINE
  8
0
 10
-26.1898
 20
78.3372
 11
-21.772
 21
70.6853
  0
LINE
  8
0
 10
-21.772
 20
70.6853
 11
-26.1898
 21
63.0334
  0
LINE
  8
0
 10
-26.1898
 20
63.0334
 11
-35.0255
 21
63.0334
  0
LINE
  8
0
 10
-96.2408
 20
63.0334
 11
-100.659
 21
70.6853
  0
LINE
  8
0
 10
-100.659
 20
70.6853
 11
-97.8704
 21
75.5145
  0
LINE
  8
0
 10
-97.8704
 20
75.5145
 11
-86.4267
 21
76.6426
  0
LINE
  8
0
 10
-86.4267
 20
76.6426
 11
-82.9873
 21
70.6853
  0
LINE
  8
0
 10
-82.9873
 20
70.6853
 11
-87.4051
 21
63.0334
  0
LINE
  8
0
 10
-87.4051
 20
63.0334
 11
-96.2408
 21
63.0334
  0
LINE
  8
0
 10
209.836
 20
63.0334
 11
205.418
 21
70.6853
  0
LINE
  8
0
 10
205.418
 20
70.6853
 11
208.271
 21
75.6265
  0
LINE
  8
0
 10
208.271
 20
75.6265
 11
221.762
 21
72.9833
  0
LINE
  8
0
 10
221.762
 20
72.9833
 11
223.089
 21
70.6853
  0
LINE
  8
0
 10
223.089
 20
70.6853
 11
218.671
 21
63.0334
  0
LINE
  8
0
 10
218.671
 20
63.0334
 11
209.836
 21
63.0334
  0
LINE
  8
0
 10
-111.545
 20
71.8691
 11
-112.8
 21
74.0429
  0
LINE
  8
0
 10
-112.8
 20
74.0429
 11
-100.769
 21
75.2288
  0
LINE
  8
0
 10
-100.769
 20
75.2288
 11
-102.709
 21
71.8691
  0
LINE
  8
0
 10
-102.709
 20
71.8691
 11
-111.545
 21
71.8691
  0
LINE
  8
0
 10
-126.848
 20
63.0334
 11
-131.266
 21
70.6853
  0
LINE
  8
0
 10
-131.266
 20
70.6853
 11
-130.34
 21
72.29
  0
LINE
  8
0
 10
-130.34
 20
72.29
 11
-133.244
 21
71.9945
  0
LINE
  8
0
 10
-133.244
 20
71.9945
 11
-133.317
 21
71.8691
  0
LINE
  8
0
 10
-133.317
 20
71.8691
 11
-134.477
 21
71.8691
  0
LINE
  8
0
 10
-134.477
 20
71.8691
 11
-122.785
 21
73.0586
  0
LINE
  8
0
 10
-122.785
 20
73.0586
 11
-115.386
 21
73.7879
  0
LINE
  8
0
 10
-115.386
 20
73.7879
 11
-113.595
 21
70.6853
  0
LINE
  8
0
 10
-113.595
 20
70.6853
 11
-118.013
 21
63.0334
  0
LINE
  8
0
 10
-118.013
 20
63.0334
 11
-126.848
 21
63.0334
  0
LINE
  8
0
 10
225.139
 20
71.8691
 11
224.912
 21
72.2635
  0
LINE
  8
0
 10
224.912
 20
72.2635
 11
226.316
 21
71.8691
  0
LINE
  8
0
 10
226.316
 20
71.8691
 11
225.139
 21
71.8691
  0
LINE
  8
0
 10
-157.456
 20
63.0334
 11
-160.999
 21
69.1708
  0
LINE
  8
0
 10
-160.999
 20
69.1708
 11
-144.309
 21
70.8689
  0
LINE
  8
0
 10
-144.309
 20
70.8689
 11
-144.203
 21
70.6853
  0
LINE
  8
0
 10
-144.203
 20
70.6853
 11
-148.62
 21
63.0334
  0
LINE
  8
0
 10
-148.62
 20
63.0334
 11
-157.456
 21
63.0334
  0
LINE
  8
0
 10
163.924
 20
54.1977
 11
159.506
 21
61.8497
  0
LINE
  8
0
 10
159.506
 20
61.8497
 11
163.924
 21
69.5016
  0
LINE
  8
0
 10
163.924
 20
69.5016
 11
172.76
 21
69.5016
  0
LINE
  8
0
 10
172.76
 20
69.5016
 11
177.178
 21
61.8497
  0
LINE
  8
0
 10
177.178
 20
61.8497
 11
172.76
 21
54.1977
  0
LINE
  8
0
 10
172.76
 20
54.1977
 11
163.924
 21
54.1977
  0
LINE
  8
0
 10
-111.545
 20
54.1977
 11
-115.962
 21
61.8497
  0
LINE
  8
0
 10
-115.962
 20
61.8497
 11
-111.545
 21
69.5016
  0
LINE
  8
0
 10
-111.545
 20
69.5016
 11
-102.709
 21
69.5016
  0
LINE
  8
0
 10
-102.709
 20
69.5016
 11
-98.2911
 21
61.8497
  0
LINE
  8
0
 10
-98.2911
 20
61.8497
 11
-102.709
 21
54.1977
  0
LINE
  8
0
 10
-102.709
 20
54.1977
 11
-111.545
 21
54.1977
  0
LINE
  8
0
 10
72.1013
 20
54.1977
 11
67.6834
 21
61.8497
  0
LINE
  8
0
 10
67.6834
 20
61.8497
 11
72.1013
 21
69.5016
  0
LINE
  8
0
 10
72.1013
 20
69.5016
 11
80.9369
 21
69.5016
  0
LINE
  8
0
 10
80.9369
 20
69.5016
 11
85.3548
 21
61.8497
  0
LINE
  8
0
 10
85.3548
 20
61.8497
 11
80.9369
 21
54.1977
  0
LINE
  8
0
 10
80.9369
 20
54.1977
 11
72.1013
 21
54.1977
  0
LINE
  8
0
 10
10.886
 20
54.1977
 11
6.46815
 21
61.8497
  0
LINE
  8
0
 10
6.46815
 20
61.8497
 11
10.886
 21
69.5016
  0
LINE
  8
0
 10
10.886
 20
69.5016
 11
19.7216
 21
69.5016
  0
LINE
  8
0
 10
19.7216
 20
69.5016
 11
24.1395
 21
61.8497
  0
LINE
  8
0
 10
24.1395
 20
61.8497
 11
19.7216
 21
54.1977
  0
LINE
  8
0
 10
19.7216
 20
54.1977
 11
10.886
 21
54.1977
  0
LINE
  8
0
 10
225.139
 20
54.1977
 11
220.722
 21
61.8497
  0
LINE
  8
0
 10
220.722
 20
61.8497
 11
225.139
 21
69.5016
  0
LINE
  8
0
 10
225.139
 20
69.5016
 11
233.975
 21
69.5016
  0
LINE
  8
0
 10
233.975
 20
69.5016
 11
238.393
 21
61.8497
  0
LINE
  8
0
 10
238.393
 20
61.8497
 11
233.975
 21
54.1977
  0
LINE
  8
0
 10
233.975
 20
54.1977
 11
225.139
 21
54.1977
  0
LINE
  8
0
 10
-142.152
 20
54.1977
 11
-146.57
 21
61.8497
  0
LINE
  8
0
 10
-146.57
 20
61.8497
 11
-142.152
 21
69.5016
  0
LINE
  8
0
 10
-142.152
 20
69.5016
 11
-133.317
 21
69.5016
  0
LINE
  8
0
 10
-133.317
 20
69.5016
 11
-128.899
 21
61.8497
  0
LINE
  8
0
 10
-128.899
 20
61.8497
 11
-133.317
 21
54.1977
  0
LINE
  8
0
 10
-133.317
 20
54.1977
 11
-142.152
 21
54.1977
  0
LINE
  8
0
 10
-19.7216
 20
54.1977
 11
-24.1395
 21
61.8497
  0
LINE
  8
0
 10
-24.1395
 20
61.8497
 11
-19.7216
 21
69.5016
  0
LINE
  8
0
 10
-19.7216
 20
69.5016
 11
-10.886
 21
69.5016
  0
LINE
  8
0
 10
-10.886
 20
69.5016
 11
-6.46815
 21
61.8497
  0
LINE
  8
0
 10
-6.46815
 20
61.8497
 11
-10.886
 21
54.1977
  0
LINE
  8
0
 10
-10.886
 20
54.1977
 11
-19.7216
 21
54.1977
  0
LINE
  8
0
 10
133.317
 20
54.1977
 11
128.899
 21
61.8497
  0
LINE
  8
0
 10
128.899
 20
61.8497
 11
133.317
 21
69.5016
  0
LINE
  8
0
 10
133.317
 20
69.5016
 11
142.152
 21
69.5016
  0
LINE
  8
0
 10
142.152
 20
69.5016
 11
146.57
 21
61.8497
  0
LINE
  8
0
 10
146.57
 20
61.8497
 11
142.152
 21
54.1977
  0
LINE
  8
0
 10
142.152
 20
54.1977
 11
133.317
 21
54.1977
  0
LINE
  8
0
 10
102.709
 20
54.1977
 11
98.2911
 21
61.8497
  0
LINE
  8
0
 10
98.2911
 20
61.8497
 11
102.709
 21
69.5016
  0
LINE
  8
0
 10
102.709
 20
69.5016
 11
111.545
 21
69.5016
  0
LINE
  8
0
 10
111.545
 20
69.5016
 11
115.962
 21
61.8497
  0
LINE
  8
0
 10
115.962
 20
61.8497
 11
111.545
 21
54.1977
  0
LINE
  8
0
 10
111.545
 20
54.1977
 11
102.709
 21
54.1977
  0
LINE
  8
0
 10
-80.9369
 20
54.1977
 11
-85.3548
 21
61.8497
  0
LINE
  8
0
 10
-85.3548
 20
61.8497
 11
-80.9369
 21
69.5016
  0
LINE
  8
0
 10
-80.9369
 20
69.5016
 11
-72.1013
 21
69.5016
  0
LINE
  8
0
 10
-72.1013
 20
69.5016
 11
-67.6834
 21
61.8497
  0
LINE
  8
0
 10
-67.6834
 20
61.8497
 11
-72.1013
 21
54.1977
  0
LINE
  8
0
 10
-72.1013
 20
54.1977
 11
-80.9369
 21
54.1977
  0
LINE
  8
0
 10
-50.3293
 20
54.1977
 11
-54.7471
 21
61.8497
  0
LINE
  8
0
 10
-54.7471
 20
61.8497
 11
-50.3293
 21
69.5016
  0
LINE
  8
0
 10
-50.3293
 20
69.5016
 11
-41.4936
 21
69.5016
  0
LINE
  8
0
 10
-41.4936
 20
69.5016
 11
-37.0758
 21
61.8497
  0
LINE
  8
0
 10
-37.0758
 20
61.8497
 11
-41.4936
 21
54.1977
  0
LINE
  8
0
 10
-41.4936
 20
54.1977
 11
-50.3293
 21
54.1977
  0
LINE
  8
0
 10
194.532
 20
54.1977
 11
190.114
 21
61.8497
  0
LINE
  8
0
 10
190.114
 20
61.8497
 11
194.532
 21
69.5016
  0
LINE
  8
0
 10
194.532
 20
69.5016
 11
203.368
 21
69.5016
  0
LINE
  8
0
 10
203.368
 20
69.5016
 11
207.785
 21
61.8497
  0
LINE
  8
0
 10
207.785
 20
61.8497
 11
203.368
 21
54.1977
  0
LINE
  8
0
 10
203.368
 20
54.1977
 11
194.532
 21
54.1977
  0
LINE
  8
0
 10
41.4936
 20
54.1977
 11
37.0758
 21
61.8497
  0
LINE
  8
0
 10
37.0758
 20
61.8497
 11
41.4936
 21
69.5016
  0
LINE
  8
0
 10
41.4936
 20
69.5016
 11
50.3293
 21
69.5016
  0
LINE
  8
0
 10
50.3293
 20
69.5016
 11
54.7471
 21
61.8497
  0
LINE
  8
0
 10
54.7471
 20
61.8497
 11
50.3293
 21
54.1977
  0
LINE
  8
0
 10
50.3293
 20
54.1977
 11
41.4936
 21
54.1977
  0
LINE
  8
0
 10
-172.76
 20
54.1977
 11
-177.178
 21
61.8497
  0
LINE
  8
0
 10
-177.178
 20
61.8497
 11
-173.673
 21
67.9205
  0
LINE
  8
0
 10
-173.673
 20
67.9205
 11
-166.432
 21
68.6182
  0
LINE
  8
0
 10
-166.432
 20
68.6182
 11
-163.582
 21
68.9081
  0
LINE
  8
0
 10
-163.582
 20
68.9081
 11
-159.506
 21
61.8497
  0
LINE
  8
0
 10
-159.506
 20
61.8497
 11
-163.924
 21
54.1977
  0
LINE
  8
0
 10
-163.924
 20
54.1977
 11
-172.76
 21
54.1977
  0
LINE
  8
0
 10
240.443
 20
63.0334
 11
237.089
 21
68.8434
  0
LINE
  8
0
 10
237.089
 20
68.8434
 11
245.693
 21
66.4268
  0
LINE
  8
0
 10
245.693
 20
66.4268
 11
250.314
 21
64.8259
  0
LINE
  8
0
 10
250.314
 20
64.8259
 11
249.279
 21
63.0334
  0
LINE
  8
0
 10
249.279
 20
63.0334
 11
240.443
 21
63.0334
  0
LINE
  8
0
 10
-203.368
 20
54.1977
 11
-207.785
 21
61.8497
  0
LINE
  8
0
 10
-207.785
 20
61.8497
 11
-206.083
 21
64.7981
  0
LINE
  8
0
 10
-206.083
 20
64.7981
 11
-176.567
 21
67.6417
  0
LINE
  8
0
 10
-176.567
 20
67.6417
 11
-179.228
 21
63.0334
  0
LINE
  8
0
 10
-179.228
 20
63.0334
 11
-188.064
 21
63.0334
  0
LINE
  8
0
 10
-188.064
 20
63.0334
 11
-189.978
 21
66.3496
  0
LINE
  8
0
 10
-189.978
 20
66.3496
 11
-192.568
 21
66.1001
  0
LINE
  8
0
 10
-192.568
 20
66.1001
 11
-190.114
 21
61.8497
  0
LINE
  8
0
 10
-190.114
 20
61.8497
 11
-194.532
 21
54.1977
  0
LINE
  8
0
 10
-194.532
 20
54.1977
 11
-203.368
 21
54.1977
  0
LINE
  8
0
 10
255.747
 20
54.1977
 11
251.329
 21
61.8497
  0
LINE
  8
0
 10
251.329
 20
61.8497
 11
252.592
 21
64.0366
  0
LINE
  8
0
 10
252.592
 20
64.0366
 11
266.334
 21
59.2754
  0
LINE
  8
0
 10
266.334
 20
59.2754
 11
267.284
 21
58.8761
  0
LINE
  8
0
 10
267.284
 20
58.8761
 11
264.583
 21
54.1977
  0
LINE
  8
0
 10
264.583
 20
54.1977
 11
255.747
 21
54.1977
  0
LINE
  8
0
 10
-96.2408
 20
45.3621
 11
-100.659
 21
53.014
  0
LINE
  8
0
 10
-100.659
 20
53.014
 11
-96.2408
 21
60.6659
  0
LINE
  8
0
 10
-96.2408
 20
60.6659
 11
-87.4051
 21
60.6659
  0
LINE
  8
0
 10
-87.4051
 20
60.6659
 11
-82.9873
 21
53.014
  0
LINE
  8
0
 10
-82.9873
 20
53.014
 11
-87.4051
 21
45.3621
  0
LINE
  8
0
 10
-87.4051
 20
45.3621
 11
-96.2408
 21
45.3621
  0
LINE
  8
0
 10
-65.6331
 20
45.3621
 11
-70.0509
 21
53.014
  0
LINE
  8
0
 10
-70.0509
 20
53.014
 11
-65.6331
 21
60.6659
  0
LINE
  8
0
 10
-65.6331
 20
60.6659
 11
-56.7974
 21
60.6659
  0
LINE
  8
0
 10
-56.7974
 20
60.6659
 11
-52.3796
 21
53.014
  0
LINE
  8
0
 10
-52.3796
 20
53.014
 11
-56.7974
 21
45.3621
  0
LINE
  8
0
 10
-56.7974
 20
45.3621
 11
-65.6331
 21
45.3621
  0
LINE
  8
0
 10
179.228
 20
45.3621
 11
174.81
 21
53.014
  0
LINE
  8
0
 10
174.81
 20
53.014
 11
179.228
 21
60.6659
  0
LINE
  8
0
 10
179.228
 20
60.6659
 11
188.064
 21
60.6659
  0
LINE
  8
0
 10
188.064
 20
60.6659
 11
192.482
 21
53.014
  0
LINE
  8
0
 10
192.482
 20
53.014
 11
188.064
 21
45.3621
  0
LINE
  8
0
 10
188.064
 20
45.3621
 11
179.228
 21
45.3621
  0
LINE
  8
0
 10
-188.064
 20
45.3621
 11
-192.482
 21
53.014
  0
LINE
  8
0
 10
-192.482
 20
53.014
 11
-188.064
 21
60.6659
  0
LINE
  8
0
 10
-188.064
 20
60.6659
 11
-179.228
 21
60.6659
  0
LINE
  8
0
 10
-179.228
 20
60.6659
 11
-174.81
 21
53.014
  0
LINE
  8
0
 10
-174.81
 20
53.014
 11
-179.228
 21
45.3621
  0
LINE
  8
0
 10
-179.228
 20
45.3621
 11
-188.064
 21
45.3621
  0
LINE
  8
0
 10
-35.0255
 20
45.3621
 11
-39.4433
 21
53.014
  0
LINE
  8
0
 10
-39.4433
 20
53.014
 11
-35.0255
 21
60.6659
  0
LINE
  8
0
 10
-35.0255
 20
60.6659
 11
-26.1898
 21
60.6659
  0
LINE
  8
0
 10
-26.1898
 20
60.6659
 11
-21.772
 21
53.014
  0
LINE
  8
0
 10
-21.772
 20
53.014
 11
-26.1898
 21
45.3621
  0
LINE
  8
0
 10
-26.1898
 20
45.3621
 11
-35.0255
 21
45.3621
  0
LINE
  8
0
 10
26.1898
 20
45.3621
 11
21.772
 21
53.014
  0
LINE
  8
0
 10
21.772
 20
53.014
 11
26.1898
 21
60.6659
  0
LINE
  8
0
 10
26.1898
 20
60.6659
 11
35.0255
 21
60.6659
  0
LINE
  8
0
 10
35.0255
 20
60.6659
 11
39.4433
 21
53.014
  0
LINE
  8
0
 10
39.4433
 20
53.014
 11
35.0255
 21
45.3621
  0
LINE
  8
0
 10
35.0255
 20
45.3621
 11
26.1898
 21
45.3621
  0
LINE
  8
0
 10
-4.41783
 20
45.3621
 11
-8.83566
 21
53.014
  0
LINE
  8
0
 10
-8.83566
 20
53.014
 11
-4.41783
 21
60.6659
  0
LINE
  8
0
 10
-4.41783
 20
60.6659
 11
4.41783
 21
60.6659
  0
LINE
  8
0
 10
4.41783
 20
60.6659
 11
8.83566
 21
53.014
  0
LINE
  8
0
 10
8.83566
 20
53.014
 11
4.41783
 21
45.3621
  0
LINE
  8
0
 10
4.41783
 20
45.3621
 11
-4.41783
 21
45.3621
  0
LINE
  8
0
 10
87.4051
 20
45.3621
 11
82.9873
 21
53.014
  0
LINE
  8
0
 10
82.9873
 20
53.014
 11
87.4051
 21
60.6659
  0
LINE
  8
0
 10
87.4051
 20
60.6659
 11
96.2408
 21
60.6659
  0
LINE
  8
0
 10
96.2408
 20
60.6659
 11
100.659
 21
53.014
  0
LINE
  8
0
 10
100.659
 20
53.014
 11
96.2408
 21
45.3621
  0
LINE
  8
0
 10
96.2408
 20
45.3621
 11
87.4051
 21
45.3621
  0
LINE
  8
0
 10
-126.848
 20
45.3621
 11
-131.266
 21
53.014
  0
LINE
  8
0
 10
-131.266
 20
53.014
 11
-126.848
 21
60.6659
  0
LINE
  8
0
 10
-126.848
 20
60.6659
 11
-118.013
 21
60.6659
  0
LINE
  8
0
 10
-118.013
 20
60.6659
 11
-113.595
 21
53.014
  0
LINE
  8
0
 10
-113.595
 20
53.014
 11
-118.013
 21
45.3621
  0
LINE
  8
0
 10
-118.013
 20
45.3621
 11
-126.848
 21
45.3621
  0
LINE
  8
0
 10
-157.456
 20
45.3621
 11
-161.874
 21
53.014
  0
LINE
  8
0
 10
-161.874
 20
53.014
 11
-157.456
 21
60.6659
  0
LINE
  8
0
 10
-157.456
 20
60.6659
 11
-148.62
 21
60.6659
  0
LINE
  8
0
 10
-148.62
 20
60.6659
 11
-144.203
 21
53.014
  0
LINE
  8
0
 10
-144.203
 20
53.014
 11
-148.62
 21
45.3621
  0
LINE
  8
0
 10
-148.62
 20
45.3621
 11
-157.456
 21
45.3621
  0
LINE
  8
0
 10
118.013
 20
45.3621
 11
113.595
 21
53.014
  0
LINE
  8
0
 10
113.595
 20
53.014
 11
118.013
 21
60.6659
  0
LINE
  8
0
 10
118.013
 20
60.6659
 11
126.848
 21
60.6659
  0
LINE
  8
0
 10
126.848
 20
60.6659
 11
131.266
 21
53.014
  0
LINE
  8
0
 10
131.266
 20
53.014
 11
126.848
 21
45.3621
  0
LINE
  8
0
 10
126.848
 20
45.3621
 11
118.013
 21
45.3621
  0
LINE
  8
0
 10
148.62
 20
45.3621
 11
144.203
 21
53.014
  0
LINE
  8
0
 10
144.203
 20
53.014
 11
148.62
 21
60.6659
  0
LINE
  8
0
 10
148.62
 20
60.6659
 11
157.456
 21
60.6659
  0
LINE
  8
0
 10
157.456
 20
60.6659
 11
161.874
 21
53.014
  0
LINE
  8
0
 10
161.874
 20
53.014
 11
157.456
 21
45.3621
  0
LINE
  8
0
 10
157.456
 20
45.3621
 11
148.62
 21
45.3621
  0
LINE
  8
0
 10
209.836
 20
45.3621
 11
205.418
 21
53.014
  0
LINE
  8
0
 10
205.418
 20
53.014
 11
209.836
 21
60.6659
  0
LINE
  8
0
 10
209.836
 20
60.6659
 11
218.671
 21
60.6659
  0
LINE
  8
0
 10
218.671
 20
60.6659
 11
223.089
 21
53.014
  0
LINE
  8
0
 10
223.089
 20
53.014
 11
218.671
 21
45.3621
  0
LINE
  8
0
 10
218.671
 20
45.3621
 11
209.836
 21
45.3621
  0
LINE
  8
0
 10
56.7974
 20
45.3621
 11
52.3796
 21
53.014
  0
LINE
  8
0
 10
52.3796
 20
53.014
 11
56.7974
 21
60.6659
  0
LINE
  8
0
 10
56.7974
 20
60.6659
 11
65.6331
 21
60.6659
  0
LINE
  8
0
 10
65.6331
 20
60.6659
 11
70.0509
 21
53.014
  0
LINE
  8
0
 10
70.0509
 20
53.014
 11
65.6331
 21
45.3621
  0
LINE
  8
0
 10
65.6331
 20
45.3621
 11
56.7974
 21
45.3621
  0
LINE
  8
0
 10
240.443
 20
45.3621
 11
236.025
 21
53.014
  0
LINE
  8
0
 10
236.025
 20
53.014
 11
240.443
 21
60.6659
  0
LINE
  8
0
 10
240.443
 20
60.6659
 11
249.279
 21
60.6659
  0
LINE
  8
0
 10
249.279
 20
60.6659
 11
253.697
 21
53.014
  0
LINE
  8
0
 10
253.697
 20
53.014
 11
249.279
 21
45.3621
  0
LINE
  8
0
 10
249.279
 20
45.3621
 11
240.443
 21
45.3621
  0
LINE
  8
0
 10
-208.346
 20
58.0852
 11
-205.418
 21
53.014
  0
LINE
  8
0
 10
-205.418
 20
53.014
 11
-208.346
 21
47.9428
  0
LINE
  8
0
 10
-208.346
 20
47.9428
 11
-208.346
 21
58.0852
  0
LINE
  8
0
 10
271.051
 20
45.3621
 11
266.633
 21
53.014
  0
LINE
  8
0
 10
266.633
 20
53.014
 11
269.484
 21
57.9512
  0
LINE
  8
0
 10
269.484
 20
57.9512
 11
283.703
 21
51.973
  0
LINE
  8
0
 10
283.703
 20
51.973
 11
279.887
 21
45.3621
  0
LINE
  8
0
 10
279.887
 20
45.3621
 11
271.051
 21
45.3621
  0
LINE
  8
0
 10
163.924
 20
36.5264
 11
159.506
 21
44.1783
  0
LINE
  8
0
 10
159.506
 20
44.1783
 11
163.924
 21
51.8302
  0
LINE
  8
0
 10
163.924
 20
51.8302
 11
172.76
 21
51.8302
  0
LINE
  8
0
 10
172.76
 20
51.8302
 11
177.178
 21
44.1783
  0
LINE
  8
0
 10
177.178
 20
44.1783
 11
172.76
 21
36.5264
  0
LINE
  8
0
 10
172.76
 20
36.5264
 11
163.924
 21
36.5264
  0
LINE
  8
0
 10
-203.368
 20
36.5264
 11
-207.785
 21
44.1783
  0
LINE
  8
0
 10
-207.785
 20
44.1783
 11
-203.368
 21
51.8302
  0
LINE
  8
0
 10
-203.368
 20
51.8302
 11
-194.532
 21
51.8302
  0
LINE
  8
0
 10
-194.532
 20
51.8302
 11
-190.114
 21
44.1783
  0
LINE
  8
0
 10
-190.114
 20
44.1783
 11
-194.532
 21
36.5264
  0
LINE
  8
0
 10
-194.532
 20
36.5264
 11
-203.368
 21
36.5264
  0
LINE
  8
0
 10
102.709
 20
36.5264
 11
98.2911
 21
44.1783
  0
LINE
  8
0
 10
98.2911
 20
44.1783
 11
102.709
 21
51.8302
  0
LINE
  8
0
 10
102.709
 20
51.8302
 11
111.545
 21
51.8302
  0
LINE
  8
0
 10
111.545
 20
51.8302
 11
115.962
 21
44.1783
  0
LINE
  8
0
 10
115.962
 20
44.1783
 11
111.545
 21
36.5264
  0
LINE
  8
0
 10
111.545
 20
36.5264
 11
102.709
 21
36.5264
  0
LINE
  8
0
 10
225.139
 20
36.5264
 11
220.722
 21
44.1783
  0
LINE
  8
0
 10
220.722
 20
44.1783
 11
225.139
 21
51.8302
  0
LINE
  8
0
 10
225.139
 20
51.8302
 11
233.975
 21
51.8302
  0
LINE
  8
0
 10
233.975
 20
51.8302
 11
238.393
 21
44.1783
  0
LINE
  8
0
 10
238.393
 20
44.1783
 11
233.975
 21
36.5264
  0
LINE
  8
0
 10
233.975
 20
36.5264
 11
225.139
 21
36.5264
  0
LINE
  8
0
 10
194.532
 20
36.5264
 11
190.114
 21
44.1783
  0
LINE
  8
0
 10
190.114
 20
44.1783
 11
194.532
 21
51.8302
  0
LINE
  8
0
 10
194.532
 20
51.8302
 11
203.368
 21
51.8302
  0
LINE
  8
0
 10
203.368
 20
51.8302
 11
207.785
 21
44.1783
  0
LINE
  8
0
 10
207.785
 20
44.1783
 11
203.368
 21
36.5264
  0
LINE
  8
0
 10
203.368
 20
36.5264
 11
194.532
 21
36.5264
  0
LINE
  8
0
 10
-172.76
 20
36.5264
 11
-177.178
 21
44.1783
  0
LINE
  8
0
 10
-177.178
 20
44.1783
 11
-172.76
 21
51.8302
  0
LINE
  8
0
 10
-172.76
 20
51.8302
 11
-163.924
 21
51.8302
  0
LINE
  8
0
 10
-163.924
 20
51.8302
 11
-159.506
 21
44.1783
  0
LINE
  8
0
 10
-159.506
 20
44.1783
 11
-163.924
 21
36.5264
  0
LINE
  8
0
 10
-163.924
 20
36.5264
 11
-172.76
 21
36.5264
  0
LINE
  8
0
 10
-111.545
 20
36.5264
 11
-115.962
 21
44.1783
  0
LINE
  8
0
 10
-115.962
 20
44.1783
 11
-111.545
 21
51.8302
  0
LINE
  8
0
 10
-111.545
 20
51.8302
 11
-102.709
 21
51.8302
  0
LINE
  8
0
 10
-102.709
 20
51.8302
 11
-98.2911
 21
44.1783
  0
LINE
  8
0
 10
-98.2911
 20
44.1783
 11
-102.709
 21
36.5264
  0
LINE
  8
0
 10
-102.709
 20
36.5264
 11
-111.545
 21
36.5264
  0
LINE
  8
0
 10
10.886
 20
36.5264
 11
6.46815
 21
44.1783
  0
LINE
  8
0
 10
6.46815
 20
44.1783
 11
10.886
 21
51.8302
  0
LINE
  8
0
 10
10.886
 20
51.8302
 11
19.7216
 21
51.8302
  0
LINE
  8
0
 10
19.7216
 20
51.8302
 11
24.1395
 21
44.1783
  0
LINE
  8
0
 10
24.1395
 20
44.1783
 11
19.7216
 21
36.5264
  0
LINE
  8
0
 10
19.7216
 20
36.5264
 11
10.886
 21
36.5264
  0
LINE
  8
0
 10
72.1013
 20
36.5264
 11
67.6834
 21
44.1783
  0
LINE
  8
0
 10
67.6834
 20
44.1783
 11
72.1013
 21
51.8302
  0
LINE
  8
0
 10
72.1013
 20
51.8302
 11
80.9369
 21
51.8302
  0
LINE
  8
0
 10
80.9369
 20
51.8302
 11
85.3548
 21
44.1783
  0
LINE
  8
0
 10
85.3548
 20
44.1783
 11
80.9369
 21
36.5264
  0
LINE
  8
0
 10
80.9369
 20
36.5264
 11
72.1013
 21
36.5264
  0
LINE
  8
0
 10
-50.3293
 20
36.5264
 11
-54.7471
 21
44.1783
  0
LINE
  8
0
 10
-54.7471
 20
44.1783
 11
-50.3293
 21
51.8302
  0
LINE
  8
0
 10
-50.3293
 20
51.8302
 11
-41.4936
 21
51.8302
  0
LINE
  8
0
 10
-41.4936
 20
51.8302
 11
-37.0758
 21
44.1783
  0
LINE
  8
0
 10
-37.0758
 20
44.1783
 11
-41.4936
 21
36.5264
  0
LINE
  8
0
 10
-41.4936
 20
36.5264
 11
-50.3293
 21
36.5264
  0
LINE
  8
0
 10
41.4936
 20
36.5264
 11
37.0758
 21
44.1783
  0
LINE
  8
0
 10
37.0758
 20
44.1783
 11
41.4936
 21
51.8302
  0
LINE
  8
0
 10
41.4936
 20
51.8302
 11
50.3293
 21
51.8302
  0
LINE
  8
0
 10
50.3293
 20
51.8302
 11
54.7471
 21
44.1783
  0
LINE
  8
0
 10
54.7471
 20
44.1783
 11
50.3293
 21
36.5264
  0
LINE
  8
0
 10
50.3293
 20
36.5264
 11
41.4936
 21
36.5264
  0
LINE
  8
0
 10
-80.9369
 20
36.5264
 11
-85.3548
 21
44.1783
  0
LINE
  8
0
 10
-85.3548
 20
44.1783
 11
-80.9369
 21
51.8302
  0
LINE
  8
0
 10
-80.9369
 20
51.8302
 11
-72.1013
 21
51.8302
  0
LINE
  8
0
 10
-72.1013
 20
51.8302
 11
-67.6834
 21
44.1783
  0
LINE
  8
0
 10
-67.6834
 20
44.1783
 11
-72.1013
 21
36.5264
  0
LINE
  8
0
 10
-72.1013
 20
36.5264
 11
-80.9369
 21
36.5264
  0
LINE
  8
0
 10
133.317
 20
36.5264
 11
128.899
 21
44.1783
  0
LINE
  8
0
 10
128.899
 20
44.1783
 11
133.317
 21
51.8302
  0
LINE
  8
0
 10
133.317
 20
51.8302
 11
142.152
 21
51.8302
  0
LINE
  8
0
 10
142.152
 20
51.8302
 11
146.57
 21
44.1783
  0
LINE
  8
0
 10
146.57
 20
44.1783
 11
142.152
 21
36.5264
  0
LINE
  8
0
 10
142.152
 20
36.5264
 11
133.317
 21
36.5264
  0
LINE
  8
0
 10
-19.7216
 20
36.5264
 11
-24.1395
 21
44.1783
  0
LINE
  8
0
 10
-24.1395
 20
44.1783
 11
-19.7216
 21
51.8302
  0
LINE
  8
0
 10
-19.7216
 20
51.8302
 11
-10.886
 21
51.8302
  0
LINE
  8
0
 10
-10.886
 20
51.8302
 11
-6.46815
 21
44.1783
  0
LINE
  8
0
 10
-6.46815
 20
44.1783
 11
-10.886
 21
36.5264
  0
LINE
  8
0
 10
-10.886
 20
36.5264
 11
-19.7216
 21
36.5264
  0
LINE
  8
0
 10
255.747
 20
36.5264
 11
251.329
 21
44.1783
  0
LINE
  8
0
 10
251.329
 20
44.1783
 11
255.747
 21
51.8302
  0
LINE
  8
0
 10
255.747
 20
51.8302
 11
264.583
 21
51.8302
  0
LINE
  8
0
 10
264.583
 20
51.8302
 11
269.001
 21
44.1783
  0
LINE
  8
0
 10
269.001
 20
44.1783
 11
264.583
 21
36.5264
  0
LINE
  8
0
 10
264.583
 20
36.5264
 11
255.747
 21
36.5264
  0
LINE
  8
0
 10
-142.152
 20
36.5264
 11
-146.57
 21
44.1783
  0
LINE
  8
0
 10
-146.57
 20
44.1783
 11
-142.152
 21
51.8302
  0
LINE
  8
0
 10
-142.152
 20
51.8302
 11
-133.317
 21
51.8302
  0
LINE
  8
0
 10
-133.317
 20
51.8302
 11
-128.899
 21
44.1783
  0
LINE
  8
0
 10
-128.899
 20
44.1783
 11
-133.317
 21
36.5264
  0
LINE
  8
0
 10
-133.317
 20
36.5264
 11
-142.152
 21
36.5264
  0
LINE
  8
0
 10
286.355
 20
36.5264
 11
281.937
 21
44.1783
  0
LINE
  8
0
 10
281.937
 20
44.1783
 11
285.862
 21
50.9764
  0
LINE
  8
0
 10
285.862
 20
50.9764
 11
299.487
 21
43.9689
  0
LINE
  8
0
 10
299.487
 20
43.9689
 11
295.19
 21
36.5264
  0
LINE
  8
0
 10
295.19
 20
36.5264
 11
286.355
 21
36.5264
  0
LINE
  8
0
 10
-96.2408
 20
27.6908
 11
-100.659
 21
35.3427
  0
LINE
  8
0
 10
-100.659
 20
35.3427
 11
-96.2408
 21
42.9946
  0
LINE
  8
0
 10
-96.2408
 20
42.9946
 11
-87.4051
 21
42.9946
  0
LINE
  8
0
 10
-87.4051
 20
42.9946
 11
-82.9873
 21
35.3427
  0
LINE
  8
0
 10
-82.9873
 20
35.3427
 11
-87.4051
 21
27.6908
  0
LINE
  8
0
 10
-87.4051
 20
27.6908
 11
-96.2408
 21
27.6908
  0
LINE
  8
0
 10
118.013
 20
27.6908
 11
113.595
 21
35.3427
  0
LINE
  8
0
 10
113.595
 20
35.3427
 11
118.013
 21
42.9946
  0
LINE
  8
0
 10
118.013
 20
42.9946
 11
126.848
 21
42.9946
  0
LINE
  8
0
 10
126.848
 20
42.9946
 11
131.266
 21
35.3427
  0
LINE
  8
0
 10
131.266
 20
35.3427
 11
126.848
 21
27.6908
  0
LINE
  8
0
 10
126.848
 20
27.6908
 11
118.013
 21
27.6908
  0
LINE
  8
0
 10
286.355
 20
34.1589
 11
295.19
 21
34.1589
  0
LINE
  8
0
 10
295.19
 20
34.1589
 11
299.608
 21
26.507
  0
LINE
  8
0
 10
299.608
 20
26.507
 11
295.19
 21
18.8551
  0
LINE
  8
0
 10
295.19
 20
18.8551
 11
289.834
 21
18.8551
  0
LINE
  8
0
 10
289.834
 20
18.8551
 11
289.834
 21
30.1621
  0
LINE
  8
0
 10
289.834
 20
30.1621
 11
284.047
 21
30.1621
  0
LINE
  8
0
 10
284.047
 20
30.1621
 11
286.355
 21
34.1589
  0
LINE
  8
0
 10
-203.368
 20
34.1589
 11
-194.532
 21
34.1589
  0
LINE
  8
0
 10
-194.532
 20
34.1589
 11
-192.224
 21
30.1621
  0
LINE
  8
0
 10
-192.224
 20
30.1621
 11
-189.491
 21
30.1621
  0
LINE
  8
0
 10
-189.491
 20
30.1621
 11
-192.482
 21
35.3427
  0
LINE
  8
0
 10
-192.482
 20
35.3427
 11
-188.064
 21
42.9946
  0
LINE
  8
0
 10
-188.064
 20
42.9946
 11
-179.228
 21
42.9946
  0
LINE
  8
0
 10
-179.228
 20
42.9946
 11
-174.81
 21
35.3427
  0
LINE
  8
0
 10
-174.81
 20
35.3427
 11
-177.801
 21
30.1621
  0
LINE
  8
0
 10
-177.801
 20
30.1621
 11
-175.067
 21
30.1621
  0
LINE
  8
0
 10
-175.067
 20
30.1621
 11
-172.76
 21
34.1589
  0
LINE
  8
0
 10
-172.76
 20
34.1589
 11
-163.924
 21
34.1589
  0
LINE
  8
0
 10
-163.924
 20
34.1589
 11
-161.617
 21
30.1621
  0
LINE
  8
0
 10
-161.617
 20
30.1621
 11
-158.883
 21
30.1621
  0
LINE
  8
0
 10
-158.883
 20
30.1621
 11
-161.874
 21
35.3427
  0
LINE
  8
0
 10
-161.874
 20
35.3427
 11
-157.456
 21
42.9946
  0
LINE
  8
0
 10
-157.456
 20
42.9946
 11
-148.62
 21
42.9946
  0
LINE
  8
0
 10
-148.62
 20
42.9946
 11
-144.203
 21
35.3427
  0
LINE
  8
0
 10
-144.203
 20
35.3427
 11
-148.62
 21
27.6908
  0
LINE
  8
0
 10
-148.62
 20
27.6908
 11
-153.268
 21
27.6908
  0
LINE
  8
0
 10
-153.268
 20
27.6908
 11
-153.268
 21
30.1621
  0
LINE
  8
0
 10
-153.268
 20
30.1621
 11
-205.675
 21
30.1621
  0
LINE
  8
0
 10
-205.675
 20
30.1621
 11
-203.368
 21
34.1589
  0
LINE
  8
0
 10
87.4051
 20
27.6908
 11
82.9873
 21
35.3427
  0
LINE
  8
0
 10
82.9873
 20
35.3427
 11
87.4051
 21
42.9946
  0
LINE
  8
0
 10
87.4051
 20
42.9946
 11
96.2408
 21
42.9946
  0
LINE
  8
0
 10
96.2408
 20
42.9946
 11
100.659
 21
35.3427
  0
LINE
  8
0
 10
100.659
 20
35.3427
 11
96.2408
 21
27.6908
  0
LINE
  8
0
 10
96.2408
 20
27.6908
 11
87.4051
 21
27.6908
  0
LINE
  8
0
 10
-35.0255
 20
27.6908
 11
-39.4433
 21
35.3427
  0
LINE
  8
0
 10
-39.4433
 20
35.3427
 11
-35.0255
 21
42.9946
  0
LINE
  8
0
 10
-35.0255
 20
42.9946
 11
-26.1898
 21
42.9946
  0
LINE
  8
0
 10
-26.1898
 20
42.9946
 11
-21.772
 21
35.3427
  0
LINE
  8
0
 10
-21.772
 20
35.3427
 11
-26.1898
 21
27.6908
  0
LINE
  8
0
 10
-26.1898
 20
27.6908
 11
-35.0255
 21
27.6908
  0
LINE
  8
0
 10
179.228
 20
27.6908
 11
174.81
 21
35.3427
  0
LINE
  8
0
 10
174.81
 20
35.3427
 11
179.228
 21
42.9946
  0
LINE
  8
0
 10
179.228
 20
42.9946
 11
188.064
 21
42.9946
  0
LINE
  8
0
 10
188.064
 20
42.9946
 11
192.482
 21
35.3427
  0
LINE
  8
0
 10
192.482
 20
35.3427
 11
188.064
 21
27.6908
  0
LINE
  8
0
 10
188.064
 20
27.6908
 11
179.228
 21
27.6908
  0
LINE
  8
0
 10
-65.6331
 20
27.6908
 11
-70.0509
 21
35.3427
  0
LINE
  8
0
 10
-70.0509
 20
35.3427
 11
-65.6331
 21
42.9946
  0
LINE
  8
0
 10
-65.6331
 20
42.9946
 11
-56.7974
 21
42.9946
  0
LINE
  8
0
 10
-56.7974
 20
42.9946
 11
-52.3796
 21
35.3427
  0
LINE
  8
0
 10
-52.3796
 20
35.3427
 11
-56.7974
 21
27.6908
  0
LINE
  8
0
 10
-56.7974
 20
27.6908
 11
-65.6331
 21
27.6908
  0
LINE
  8
0
 10
56.7974
 20
27.6908
 11
52.3796
 21
35.3427
  0
LINE
  8
0
 10
52.3796
 20
35.3427
 11
56.7974
 21
42.9946
  0
LINE
  8
0
 10
56.7974
 20
42.9946
 11
65.6331
 21
42.9946
  0
LINE
  8
0
 10
65.6331
 20
42.9946
 11
70.0509
 21
35.3427
  0
LINE
  8
0
 10
70.0509
 20
35.3427
 11
65.6331
 21
27.6908
  0
LINE
  8
0
 10
65.6331
 20
27.6908
 11
56.7974
 21
27.6908
  0
LINE
  8
0
 10
148.62
 20
27.6908
 11
144.203
 21
35.3427
  0
LINE
  8
0
 10
144.203
 20
35.3427
 11
148.62
 21
42.9946
  0
LINE
  8
0
 10
148.62
 20
42.9946
 11
157.456
 21
42.9946
  0
LINE
  8
0
 10
157.456
 20
42.9946
 11
161.874
 21
35.3427
  0
LINE
  8
0
 10
161.874
 20
35.3427
 11
157.456
 21
27.6908
  0
LINE
  8
0
 10
157.456
 20
27.6908
 11
148.62
 21
27.6908
  0
LINE
  8
0
 10
-126.848
 20
27.6908
 11
-131.266
 21
35.3427
  0
LINE
  8
0
 10
-131.266
 20
35.3427
 11
-126.848
 21
42.9946
  0
LINE
  8
0
 10
-126.848
 20
42.9946
 11
-118.013
 21
42.9946
  0
LINE
  8
0
 10
-118.013
 20
42.9946
 11
-113.595
 21
35.3427
  0
LINE
  8
0
 10
-113.595
 20
35.3427
 11
-118.013
 21
27.6908
  0
LINE
  8
0
 10
-118.013
 20
27.6908
 11
-126.848
 21
27.6908
  0
LINE
  8
0
 10
26.1898
 20
27.6908
 11
21.772
 21
35.3427
  0
LINE
  8
0
 10
21.772
 20
35.3427
 11
26.1898
 21
42.9946
  0
LINE
  8
0
 10
26.1898
 20
42.9946
 11
35.0255
 21
42.9946
  0
LINE
  8
0
 10
35.0255
 20
42.9946
 11
39.4433
 21
35.3427
  0
LINE
  8
0
 10
39.4433
 20
35.3427
 11
35.0255
 21
27.6908
  0
LINE
  8
0
 10
35.0255
 20
27.6908
 11
26.1898
 21
27.6908
  0
LINE
  8
0
 10
-4.41783
 20
27.6908
 11
-8.83566
 21
35.3427
  0
LINE
  8
0
 10
-8.83566
 20
35.3427
 11
-4.41783
 21
42.9946
  0
LINE
  8
0
 10
-4.41783
 20
42.9946
 11
4.41783
 21
42.9946
  0
LINE
  8
0
 10
4.41783
 20
42.9946
 11
8.83566
 21
35.3427
  0
LINE
  8
0
 10
8.83566
 20
35.3427
 11
4.41783
 21
27.6908
  0
LINE
  8
0
 10
4.41783
 20
27.6908
 11
-4.41783
 21
27.6908
  0
LINE
  8
0
 10
301.659
 20
27.6908
 11
297.241
 21
35.3427
  0
LINE
  8
0
 10
297.241
 20
35.3427
 11
301.542
 21
42.7935
  0
LINE
  8
0
 10
301.542
 20
42.7935
 11
312.906
 21
35.3594
  0
LINE
  8
0
 10
312.906
 20
35.3594
 11
314.239
 21
34.1776
  0
LINE
  8
0
 10
314.239
 20
34.1776
 11
310.494
 21
27.6908
  0
LINE
  8
0
 10
310.494
 20
27.6908
 11
301.659
 21
27.6908
  0
LINE
  8
0
 10
-208.346
 20
40.4139
 11
-205.418
 21
35.3427
  0
LINE
  8
0
 10
-205.418
 20
35.3427
 11
-208.346
 21
30.2714
  0
LINE
  8
0
 10
-208.346
 20
30.2714
 11
-208.346
 21
40.4139
  0
LINE
  8
0
 10
72.1013
 20
18.8551
 11
67.6834
 21
26.507
  0
LINE
  8
0
 10
67.6834
 20
26.507
 11
72.1013
 21
34.1589
  0
LINE
  8
0
 10
72.1013
 20
34.1589
 11
80.9369
 21
34.1589
  0
LINE
  8
0
 10
80.9369
 20
34.1589
 11
85.3548
 21
26.507
  0
LINE
  8
0
 10
85.3548
 20
26.507
 11
80.9369
 21
18.8551
  0
LINE
  8
0
 10
80.9369
 20
18.8551
 11
72.1013
 21
18.8551
  0
LINE
  8
0
 10
41.4936
 20
18.8551
 11
37.0758
 21
26.507
  0
LINE
  8
0
 10
37.0758
 20
26.507
 11
41.4936
 21
34.1589
  0
LINE
  8
0
 10
41.4936
 20
34.1589
 11
50.3293
 21
34.1589
  0
LINE
  8
0
 10
50.3293
 20
34.1589
 11
54.7471
 21
26.507
  0
LINE
  8
0
 10
54.7471
 20
26.507
 11
50.3293
 21
18.8551
  0
LINE
  8
0
 10
50.3293
 20
18.8551
 11
41.4936
 21
18.8551
  0
LINE
  8
0
 10
-50.3293
 20
18.8551
 11
-54.7471
 21
26.507
  0
LINE
  8
0
 10
-54.7471
 20
26.507
 11
-50.3293
 21
34.1589
  0
LINE
  8
0
 10
-50.3293
 20
34.1589
 11
-41.4936
 21
34.1589
  0
LINE
  8
0
 10
-41.4936
 20
34.1589
 11
-37.0758
 21
26.507
  0
LINE
  8
0
 10
-37.0758
 20
26.507
 11
-41.4936
 21
18.8551
  0
LINE
  8
0
 10
-41.4936
 20
18.8551
 11
-50.3293
 21
18.8551
  0
LINE
  8
0
 10
-111.545
 20
18.8551
 11
-115.962
 21
26.507
  0
LINE
  8
0
 10
-115.962
 20
26.507
 11
-111.545
 21
34.1589
  0
LINE
  8
0
 10
-111.545
 20
34.1589
 11
-102.709
 21
34.1589
  0
LINE
  8
0
 10
-102.709
 20
34.1589
 11
-98.2911
 21
26.507
  0
LINE
  8
0
 10
-98.2911
 20
26.507
 11
-102.709
 21
18.8551
  0
LINE
  8
0
 10
-102.709
 20
18.8551
 11
-111.545
 21
18.8551
  0
LINE
  8
0
 10
-80.9369
 20
18.8551
 11
-85.3548
 21
26.507
  0
LINE
  8
0
 10
-85.3548
 20
26.507
 11
-80.9369
 21
34.1589
  0
LINE
  8
0
 10
-80.9369
 20
34.1589
 11
-72.1013
 21
34.1589
  0
LINE
  8
0
 10
-72.1013
 20
34.1589
 11
-67.6834
 21
26.507
  0
LINE
  8
0
 10
-67.6834
 20
26.507
 11
-72.1013
 21
18.8551
  0
LINE
  8
0
 10
-72.1013
 20
18.8551
 11
-80.9369
 21
18.8551
  0
LINE
  8
0
 10
102.709
 20
18.8551
 11
98.2911
 21
26.507
  0
LINE
  8
0
 10
98.2911
 20
26.507
 11
102.709
 21
34.1589
  0
LINE
  8
0
 10
102.709
 20
34.1589
 11
111.545
 21
34.1589
  0
LINE
  8
0
 10
111.545
 20
34.1589
 11
115.962
 21
26.507
  0
LINE
  8
0
 10
115.962
 20
26.507
 11
111.545
 21
18.8551
  0
LINE
  8
0
 10
111.545
 20
18.8551
 11
102.709
 21
18.8551
  0
LINE
  8
0
 10
10.886
 20
18.8551
 11
6.46815
 21
26.507
  0
LINE
  8
0
 10
6.46815
 20
26.507
 11
10.886
 21
34.1589
  0
LINE
  8
0
 10
10.886
 20
34.1589
 11
19.7216
 21
34.1589
  0
LINE
  8
0
 10
19.7216
 20
34.1589
 11
24.1395
 21
26.507
  0
LINE
  8
0
 10
24.1395
 20
26.507
 11
19.7216
 21
18.8551
  0
LINE
  8
0
 10
19.7216
 20
18.8551
 11
10.886
 21
18.8551
  0
LINE
  8
0
 10
163.924
 20
18.8551
 11
159.506
 21
26.507
  0
LINE
  8
0
 10
159.506
 20
26.507
 11
163.924
 21
34.1589
  0
LINE
  8
0
 10
163.924
 20
34.1589
 11
172.76
 21
34.1589
  0
LINE
  8
0
 10
172.76
 20
34.1589
 11
177.178
 21
26.507
  0
LINE
  8
0
 10
177.178
 20
26.507
 11
172.76
 21
18.8551
  0
LINE
  8
0
 10
172.76
 20
18.8551
 11
163.924
 21
18.8551
  0
LINE
  8
0
 10
-142.152
 20
18.8551
 11
-146.57
 21
26.507
  0
LINE
  8
0
 10
-146.57
 20
26.507
 11
-142.152
 21
34.1589
  0
LINE
  8
0
 10
-142.152
 20
34.1589
 11
-133.317
 21
34.1589
  0
LINE
  8
0
 10
-133.317
 20
34.1589
 11
-128.899
 21
26.507
  0
LINE
  8
0
 10
-128.899
 20
26.507
 11
-133.317
 21
18.8551
  0
LINE
  8
0
 10
-133.317
 20
18.8551
 11
-142.152
 21
18.8551
  0
LINE
  8
0
 10
133.317
 20
18.8551
 11
128.899
 21
26.507
  0
LINE
  8
0
 10
128.899
 20
26.507
 11
133.317
 21
34.1589
  0
LINE
  8
0
 10
133.317
 20
34.1589
 11
142.152
 21
34.1589
  0
LINE
  8
0
 10
142.152
 20
34.1589
 11
146.57
 21
26.507
  0
LINE
  8
0
 10
146.57
 20
26.507
 11
142.152
 21
18.8551
  0
LINE
  8
0
 10
142.152
 20
18.8551
 11
133.317
 21
18.8551
  0
LINE
  8
0
 10
-19.7216
 20
18.8551
 11
-24.1395
 21
26.507
  0
LINE
  8
0
 10
-24.1395
 20
26.507
 11
-19.7216
 21
34.1589
  0
LINE
  8
0
 10
-19.7216
 20
34.1589
 11
-10.886
 21
34.1589
  0
LINE
  8
0
 10
-10.886
 20
34.1589
 11
-6.46815
 21
26.507
  0
LINE
  8
0
 10
-6.46815
 20
26.507
 11
-10.886
 21
18.8551
  0
LINE
  8
0
 10
-10.886
 20
18.8551
 11
-19.7216
 21
18.8551
  0
LINE
  8
0
 10
316.962
 20
18.8551
 11
312.545
 21
26.507
  0
LINE
  8
0
 10
312.545
 20
26.507
 11
316.048
 21
32.5747
  0
LINE
  8
0
 10
316.048
 20
32.5747
 11
321.434
 21
27.8008
  0
LINE
  8
0
 10
321.434
 20
27.8008
 11
326.957
 21
20.8628
  0
LINE
  8
0
 10
326.957
 20
20.8628
 11
325.798
 21
18.8551
  0
LINE
  8
0
 10
325.798
 20
18.8551
 11
316.962
 21
18.8551
  0
LINE
  8
0
 10
-153.268
 20
25.3232
 11
-148.62
 21
25.3232
  0
LINE
  8
0
 10
-148.62
 20
25.3232
 11
-144.203
 21
17.6713
  0
LINE
  8
0
 10
-144.203
 20
17.6713
 11
-148.62
 21
10.0194
  0
LINE
  8
0
 10
-148.62
 20
10.0194
 11
-153.268
 21
10.0194
  0
LINE
  8
0
 10
-153.268
 20
10.0194
 11
-153.268
 21
25.3232
  0
LINE
  8
0
 10
26.1898
 20
10.0194
 11
21.772
 21
17.6713
  0
LINE
  8
0
 10
21.772
 20
17.6713
 11
26.1898
 21
25.3232
  0
LINE
  8
0
 10
26.1898
 20
25.3232
 11
35.0255
 21
25.3232
  0
LINE
  8
0
 10
35.0255
 20
25.3232
 11
39.4433
 21
17.6713
  0
LINE
  8
0
 10
39.4433
 20
17.6713
 11
35.0255
 21
10.0194
  0
LINE
  8
0
 10
35.0255
 20
10.0194
 11
26.1898
 21
10.0194
  0
LINE
  8
0
 10
87.4051
 20
10.0194
 11
82.9873
 21
17.6713
  0
LINE
  8
0
 10
82.9873
 20
17.6713
 11
87.4051
 21
25.3232
  0
LINE
  8
0
 10
87.4051
 20
25.3232
 11
96.2408
 21
25.3232
  0
LINE
  8
0
 10
96.2408
 20
25.3232
 11
100.659
 21
17.6713
  0
LINE
  8
0
 10
100.659
 20
17.6713
 11
96.2408
 21
10.0194
  0
LINE
  8
0
 10
96.2408
 20
10.0194
 11
87.4051
 21
10.0194
  0
LINE
  8
0
 10
-35.0255
 20
10.0194
 11
-39.4433
 21
17.6713
  0
LINE
  8
0
 10
-39.4433
 20
17.6713
 11
-35.0255
 21
25.3232
  0
LINE
  8
0
 10
-35.0255
 20
25.3232
 11
-26.1898
 21
25.3232
  0
LINE
  8
0
 10
-26.1898
 20
25.3232
 11
-21.772
 21
17.6713
  0
LINE
  8
0
 10
-21.772
 20
17.6713
 11
-26.1898
 21
10.0194
  0
LINE
  8
0
 10
-26.1898
 20
10.0194
 11
-35.0255
 21
10.0194
  0
LINE
  8
0
 10
-126.848
 20
10.0194
 11
-131.266
 21
17.6713
  0
LINE
  8
0
 10
-131.266
 20
17.6713
 11
-126.848
 21
25.3232
  0
LINE
  8
0
 10
-126.848
 20
25.3232
 11
-118.013
 21
25.3232
  0
LINE
  8
0
 10
-118.013
 20
25.3232
 11
-113.595
 21
17.6713
  0
LINE
  8
0
 10
-113.595
 20
17.6713
 11
-118.013
 21
10.0194
  0
LINE
  8
0
 10
-118.013
 20
10.0194
 11
-126.848
 21
10.0194
  0
LINE
  8
0
 10
118.013
 20
10.0194
 11
113.595
 21
17.6713
  0
LINE
  8
0
 10
113.595
 20
17.6713
 11
118.013
 21
25.3232
  0
LINE
  8
0
 10
118.013
 20
25.3232
 11
126.848
 21
25.3232
  0
LINE
  8
0
 10
126.848
 20
25.3232
 11
131.266
 21
17.6713
  0
LINE
  8
0
 10
131.266
 20
17.6713
 11
126.848
 21
10.0194
  0
LINE
  8
0
 10
126.848
 20
10.0194
 11
118.013
 21
10.0194
  0
LINE
  8
0
 10
148.62
 20
10.0194
 11
144.203
 21
17.6713
  0
LINE
  8
0
 10
144.203
 20
17.6713
 11
148.62
 21
25.3232
  0
LINE
  8
0
 10
148.62
 20
25.3232
 11
157.456
 21
25.3232
  0
LINE
  8
0
 10
157.456
 20
25.3232
 11
161.874
 21
17.6713
  0
LINE
  8
0
 10
161.874
 20
17.6713
 11
157.456
 21
10.0194
  0
LINE
  8
0
 10
157.456
 20
10.0194
 11
148.62
 21
10.0194
  0
LINE
  8
0
 10
-96.2408
 20
10.0194
 11
-100.659
 21
17.6713
  0
LINE
  8
0
 10
-100.659
 20
17.6713
 11
-96.2408
 21
25.3232
  0
LINE
  8
0
 10
-96.2408
 20
25.3232
 11
-87.4051
 21
25.3232
  0
LINE
  8
0
 10
-87.4051
 20
25.3232
 11
-82.9873
 21
17.6713
  0
LINE
  8
0
 10
-82.9873
 20
17.6713
 11
-87.4051
 21
10.0194
  0
LINE
  8
0
 10
-87.4051
 20
10.0194
 11
-96.2408
 21
10.0194
  0
LINE
  8
0
 10
56.7974
 20
10.0194
 11
52.3796
 21
17.6713
  0
LINE
  8
0
 10
52.3796
 20
17.6713
 11
56.7974
 21
25.3232
  0
LINE
  8
0
 10
56.7974
 20
25.3232
 11
65.6331
 21
25.3232
  0
LINE
  8
0
 10
65.6331
 20
25.3232
 11
70.0509
 21
17.6713
  0
LINE
  8
0
 10
70.0509
 20
17.6713
 11
65.6331
 21
10.0194
  0
LINE
  8
0
 10
65.6331
 20
10.0194
 11
56.7974
 21
10.0194
  0
LINE
  8
0
 10
-65.6331
 20
10.0194
 11
-70.0509
 21
17.6713
  0
LINE
  8
0
 10
-70.0509
 20
17.6713
 11
-65.6331
 21
25.3232
  0
LINE
  8
0
 10
-65.6331
 20
25.3232
 11
-56.7974
 21
25.3232
  0
LINE
  8
0
 10
-56.7974
 20
25.3232
 11
-52.3796
 21
17.6713
  0
LINE
  8
0
 10
-52.3796
 20
17.6713
 11
-56.7974
 21
10.0194
  0
LINE
  8
0
 10
-56.7974
 20
10.0194
 11
-65.6331
 21
10.0194
  0
LINE
  8
0
 10
179.228
 20
10.0194
 11
174.81
 21
17.6713
  0
LINE
  8
0
 10
174.81
 20
17.6713
 11
179.228
 21
25.3232
  0
LINE
  8
0
 10
179.228
 20
25.3232
 11
188.064
 21
25.3232
  0
LINE
  8
0
 10
188.064
 20
25.3232
 11
192.482
 21
17.6713
  0
LINE
  8
0
 10
192.482
 20
17.6713
 11
188.064
 21
10.0194
  0
LINE
  8
0
 10
188.064
 20
10.0194
 11
179.228
 21
10.0194
  0
LINE
  8
0
 10
-4.41783
 20
10.0194
 11
-8.83566
 21
17.6713
  0
LINE
  8
0
 10
-8.83566
 20
17.6713
 11
-4.41783
 21
25.3232
  0
LINE
  8
0
 10
-4.41783
 20
25.3232
 11
4.41783
 21
25.3232
  0
LINE
  8
0
 10
4.41783
 20
25.3232
 11
8.83566
 21
17.6713
  0
LINE
  8
0
 10
8.83566
 20
17.6713
 11
4.41783
 21
10.0194
  0
LINE
  8
0
 10
4.41783
 20
10.0194
 11
-4.41783
 21
10.0194
  0
LINE
  8
0
 10
301.659
 20
10.0194
 11
297.241
 21
17.6713
  0
LINE
  8
0
 10
297.241
 20
17.6713
 11
301.659
 21
25.3232
  0
LINE
  8
0
 10
301.659
 20
25.3232
 11
310.494
 21
25.3232
  0
LINE
  8
0
 10
310.494
 20
25.3232
 11
314.912
 21
17.6713
  0
LINE
  8
0
 10
314.912
 20
17.6713
 11
310.494
 21
10.0194
  0
LINE
  8
0
 10
310.494
 20
10.0194
 11
301.659
 21
10.0194
  0
LINE
  8
0
 10
216.709
 20
17.4639
 11
216.609
 21
17.4688
  0
LINE
  8
0
 10
216.609
 20
17.4688
 11
216.46
 21
17.4814
  0
LINE
  8
0
 10
216.46
 20
17.4814
 11
216.361
 21
17.4941
  0
LINE
  8
0
 10
216.361
 20
17.4941
 11
216.214
 21
17.5186
  0
LINE
  8
0
 10
216.214
 20
17.5186
 11
216.067
 21
17.5498
  0
LINE
  8
0
 10
216.067
 20
17.5498
 11
215.971
 21
17.5752
  0
LINE
  8
0
 10
215.971
 20
17.5752
 11
215.875
 21
17.6025
  0
LINE
  8
0
 10
215.875
 20
17.6025
 11
215.78
 21
17.6338
  0
LINE
  8
0
 10
215.78
 20
17.6338
 11
215.687
 21
17.667
  0
LINE
  8
0
 10
215.687
 20
17.667
 11
215.548
 21
17.7236
  0
LINE
  8
0
 10
215.548
 20
17.7236
 11
215.412
 21
17.7861
  0
LINE
  8
0
 10
215.412
 20
17.7861
 11
215.235
 21
17.8799
  0
LINE
  8
0
 10
215.235
 20
17.8799
 11
215.149
 21
17.9307
  0
LINE
  8
0
 10
215.149
 20
17.9307
 11
215.065
 21
17.9834
  0
LINE
  8
0
 10
215.065
 20
17.9834
 11
214.902
 21
18.0986
  0
LINE
  8
0
 10
214.902
 20
18.0986
 11
214.823
 21
18.1592
  0
LINE
  8
0
 10
214.823
 20
18.1592
 11
214.709
 21
18.2559
  0
LINE
  8
0
 10
214.709
 20
18.2559
 11
214.563
 21
18.3926
  0
LINE
  8
0
 10
214.563
 20
18.3926
 11
214.494
 21
18.4639
  0
LINE
  8
0
 10
214.494
 20
18.4639
 11
214.395
 21
18.5752
  0
LINE
  8
0
 10
214.395
 20
18.5752
 11
214.3
 21
18.6914
  0
LINE
  8
0
 10
214.3
 20
18.6914
 11
214.211
 21
18.8115
  0
LINE
  8
0
 10
214.211
 20
18.8115
 11
214.102
 21
18.9785
  0
LINE
  8
0
 10
214.102
 20
18.9785
 11
214.003
 21
19.1514
  0
LINE
  8
0
 10
214.003
 20
19.1514
 11
213.936
 21
19.2861
  0
LINE
  8
0
 10
213.936
 20
19.2861
 11
213.875
 21
19.4229
  0
LINE
  8
0
 10
213.875
 20
19.4229
 11
213.821
 21
19.5615
  0
LINE
  8
0
 10
213.821
 20
19.5615
 11
213.789
 21
19.6562
  0
LINE
  8
0
 10
213.789
 20
19.6562
 11
213.746
 21
19.7998
  0
LINE
  8
0
 10
213.746
 20
19.7998
 11
213.71
 21
19.9453
  0
LINE
  8
0
 10
213.71
 20
19.9453
 11
213.681
 21
20.0918
  0
LINE
  8
0
 10
213.681
 20
20.0918
 11
213.665
 21
20.1904
  0
LINE
  8
0
 10
213.665
 20
20.1904
 11
213.647
 21
20.3389
  0
LINE
  8
0
 10
213.647
 20
20.3389
 11
213.64
 21
20.4385
  0
LINE
  8
0
 10
213.64
 20
20.4385
 11
213.634
 21
20.5879
  0
LINE
  8
0
 10
213.634
 20
20.5879
 11
213.634
 21
20.6875
  0
LINE
  8
0
 10
213.634
 20
20.6875
 11
213.64
 21
20.8369
  0
LINE
  8
0
 10
213.64
 20
20.8369
 11
213.647
 21
20.9365
  0
LINE
  8
0
 10
213.647
 20
20.9365
 11
213.665
 21
21.085
  0
LINE
  8
0
 10
213.665
 20
21.085
 11
213.681
 21
21.1836
  0
LINE
  8
0
 10
213.681
 20
21.1836
 11
213.71
 21
21.3301
  0
LINE
  8
0
 10
213.71
 20
21.3301
 11
213.746
 21
21.4756
  0
LINE
  8
0
 10
213.746
 20
21.4756
 11
213.805
 21
21.666
  0
LINE
  8
0
 10
213.805
 20
21.666
 11
213.856
 21
21.8066
  0
LINE
  8
0
 10
213.856
 20
21.8066
 11
213.936
 21
21.9893
  0
LINE
  8
0
 10
213.936
 20
21.9893
 11
213.979
 21
22.0791
  0
LINE
  8
0
 10
213.979
 20
22.0791
 11
214.051
 21
22.2109
  0
LINE
  8
0
 10
214.051
 20
22.2109
 11
214.128
 21
22.3389
  0
LINE
  8
0
 10
214.128
 20
22.3389
 11
214.211
 21
22.4629
  0
LINE
  8
0
 10
214.211
 20
22.4629
 11
214.27
 21
22.5439
  0
LINE
  8
0
 10
214.27
 20
22.5439
 11
214.362
 21
22.6611
  0
LINE
  8
0
 10
214.362
 20
22.6611
 11
214.427
 21
22.7373
  0
LINE
  8
0
 10
214.427
 20
22.7373
 11
214.563
 21
22.8828
  0
LINE
  8
0
 10
214.563
 20
22.8828
 11
214.709
 21
23.0195
  0
LINE
  8
0
 10
214.709
 20
23.0195
 11
214.823
 21
23.1152
  0
LINE
  8
0
 10
214.823
 20
23.1152
 11
214.942
 21
23.2061
  0
LINE
  8
0
 10
214.942
 20
23.2061
 11
215.065
 21
23.291
  0
LINE
  8
0
 10
215.065
 20
23.291
 11
215.149
 21
23.3447
  0
LINE
  8
0
 10
215.149
 20
23.3447
 11
215.279
 21
23.4199
  0
LINE
  8
0
 10
215.279
 20
23.4199
 11
215.367
 21
23.4668
  0
LINE
  8
0
 10
215.367
 20
23.4668
 11
215.548
 21
23.5518
  0
LINE
  8
0
 10
215.548
 20
23.5518
 11
215.64
 21
23.5898
  0
LINE
  8
0
 10
215.64
 20
23.5898
 11
215.78
 21
23.6416
  0
LINE
  8
0
 10
215.78
 20
23.6416
 11
215.923
 21
23.6865
  0
LINE
  8
0
 10
215.923
 20
23.6865
 11
216.116
 21
23.7363
  0
LINE
  8
0
 10
216.116
 20
23.7363
 11
216.263
 21
23.7656
  0
LINE
  8
0
 10
216.263
 20
23.7656
 11
216.361
 21
23.7812
  0
LINE
  8
0
 10
216.361
 20
23.7812
 11
216.51
 21
23.7988
  0
LINE
  8
0
 10
216.51
 20
23.7988
 11
216.609
 21
23.8066
  0
LINE
  8
0
 10
216.609
 20
23.8066
 11
216.759
 21
23.8125
  0
LINE
  8
0
 10
216.759
 20
23.8125
 11
216.858
 21
23.8125
  0
LINE
  8
0
 10
216.858
 20
23.8125
 11
217.006
 21
23.8066
  0
LINE
  8
0
 10
217.006
 20
23.8066
 11
217.153
 21
23.7939
  0
LINE
  8
0
 10
217.153
 20
23.7939
 11
217.301
 21
23.7744
  0
LINE
  8
0
 10
217.301
 20
23.7744
 11
217.446
 21
23.748
  0
LINE
  8
0
 10
217.446
 20
23.748
 11
217.591
 21
23.7148
  0
LINE
  8
0
 10
217.591
 20
23.7148
 11
217.733
 21
23.6748
  0
LINE
  8
0
 10
217.733
 20
23.6748
 11
217.874
 21
23.6289
  0
LINE
  8
0
 10
217.874
 20
23.6289
 11
218.058
 21
23.5566
  0
LINE
  8
0
 10
218.058
 20
23.5566
 11
218.148
 21
23.5166
  0
LINE
  8
0
 10
218.148
 20
23.5166
 11
218.324
 21
23.4277
  0
LINE
  8
0
 10
218.324
 20
23.4277
 11
218.495
 21
23.3281
  0
LINE
  8
0
 10
218.495
 20
23.3281
 11
218.578
 21
23.2744
  0
LINE
  8
0
 10
218.578
 20
23.2744
 11
218.738
 21
23.1592
  0
LINE
  8
0
 10
218.738
 20
23.1592
 11
218.892
 21
23.0342
  0
LINE
  8
0
 10
218.892
 20
23.0342
 11
219.001
 21
22.9346
  0
LINE
  8
0
 10
219.001
 20
22.9346
 11
219.071
 21
22.8652
  0
LINE
  8
0
 10
219.071
 20
22.8652
 11
219.14
 21
22.7939
  0
LINE
  8
0
 10
219.14
 20
22.7939
 11
219.237
 21
22.6826
  0
LINE
  8
0
 10
219.237
 20
22.6826
 11
219.33
 21
22.5674
  0
LINE
  8
0
 10
219.33
 20
22.5674
 11
219.36
 21
22.5273
  0
LINE
  8
0
 10
219.36
 20
22.5273
 11
219.473
 21
22.3652
  0
LINE
  8
0
 10
219.473
 20
22.3652
 11
219.525
 21
22.2812
  0
LINE
  8
0
 10
219.525
 20
22.2812
 11
219.575
 21
22.1963
  0
LINE
  8
0
 10
219.575
 20
22.1963
 11
219.645
 21
22.0654
  0
LINE
  8
0
 10
219.645
 20
22.0654
 11
219.708
 21
21.9316
  0
LINE
  8
0
 10
219.708
 20
21.9316
 11
219.766
 21
21.7949
  0
LINE
  8
0
 10
219.766
 20
21.7949
 11
219.816
 21
21.6562
  0
LINE
  8
0
 10
219.816
 20
21.6562
 11
219.86
 21
21.5146
  0
LINE
  8
0
 10
219.86
 20
21.5146
 11
219.909
 21
21.3232
  0
LINE
  8
0
 10
219.909
 20
21.3232
 11
219.938
 21
21.1777
  0
LINE
  8
0
 10
219.938
 20
21.1777
 11
219.953
 21
21.0801
  0
LINE
  8
0
 10
219.953
 20
21.0801
 11
219.975
 21
20.8838
  0
LINE
  8
0
 10
219.975
 20
20.8838
 11
219.982
 21
20.7363
  0
LINE
  8
0
 10
219.982
 20
20.7363
 11
219.982
 21
20.5391
  0
LINE
  8
0
 10
219.982
 20
20.5391
 11
219.975
 21
20.3906
  0
LINE
  8
0
 10
219.975
 20
20.3906
 11
219.953
 21
20.1943
  0
LINE
  8
0
 10
219.953
 20
20.1943
 11
219.929
 21
20.0488
  0
LINE
  8
0
 10
219.929
 20
20.0488
 11
219.909
 21
19.9512
  0
LINE
  8
0
 10
219.909
 20
19.9512
 11
219.86
 21
19.7598
  0
LINE
  8
0
 10
219.86
 20
19.7598
 11
219.816
 21
19.6191
  0
LINE
  8
0
 10
219.816
 20
19.6191
 11
219.766
 21
19.4795
  0
LINE
  8
0
 10
219.766
 20
19.4795
 11
219.708
 21
19.3428
  0
LINE
  8
0
 10
219.708
 20
19.3428
 11
219.645
 21
19.209
  0
LINE
  8
0
 10
219.645
 20
19.209
 11
219.575
 21
19.0781
  0
LINE
  8
0
 10
219.575
 20
19.0781
 11
219.525
 21
18.9932
  0
LINE
  8
0
 10
219.525
 20
18.9932
 11
219.445
 21
18.8682
  0
LINE
  8
0
 10
219.445
 20
18.8682
 11
219.36
 21
18.7471
  0
LINE
  8
0
 10
219.36
 20
18.7471
 11
219.3
 21
18.6689
  0
LINE
  8
0
 10
219.3
 20
18.6689
 11
219.173
 21
18.5176
  0
LINE
  8
0
 10
219.173
 20
18.5176
 11
219.071
 21
18.4102
  0
LINE
  8
0
 10
219.071
 20
18.4102
 11
218.965
 21
18.3066
  0
LINE
  8
0
 10
218.965
 20
18.3066
 11
218.854
 21
18.209
  0
LINE
  8
0
 10
218.854
 20
18.209
 11
218.777
 21
18.1465
  0
LINE
  8
0
 10
218.777
 20
18.1465
 11
218.699
 21
18.0859
  0
LINE
  8
0
 10
218.699
 20
18.0859
 11
218.537
 21
17.9736
  0
LINE
  8
0
 10
218.537
 20
17.9736
 11
218.453
 21
17.9209
  0
LINE
  8
0
 10
218.453
 20
17.9209
 11
218.368
 21
17.8711
  0
LINE
  8
0
 10
218.368
 20
17.8711
 11
218.237
 21
17.8018
  0
LINE
  8
0
 10
218.237
 20
17.8018
 11
218.104
 21
17.7383
  0
LINE
  8
0
 10
218.104
 20
17.7383
 11
217.967
 21
17.6807
  0
LINE
  8
0
 10
217.967
 20
17.6807
 11
217.827
 21
17.6299
  0
LINE
  8
0
 10
217.827
 20
17.6299
 11
217.687
 21
17.5859
  0
LINE
  8
0
 10
217.687
 20
17.5859
 11
217.495
 21
17.5371
  0
LINE
  8
0
 10
217.495
 20
17.5371
 11
217.35
 21
17.5088
  0
LINE
  8
0
 10
217.35
 20
17.5088
 11
217.252
 21
17.4932
  0
LINE
  8
0
 10
217.252
 20
17.4932
 11
217.056
 21
17.4717
  0
LINE
  8
0
 10
217.056
 20
17.4717
 11
216.907
 21
17.4639
  0
LINE
  8
0
 10
216.907
 20
17.4639
 11
216.709
 21
17.4639
  0
LINE
  8
0
 10
-226.393
 20
17.4639
 11
-226.591
 21
17.4766
  0
LINE
  8
0
 10
-226.591
 20
17.4766
 11
-226.74
 21
17.4941
  0
LINE
  8
0
 10
-226.74
 20
17.4941
 11
-226.888
 21
17.5186
  0
LINE
  8
0
 10
-226.888
 20
17.5186
 11
-227.034
 21
17.5498
  0
LINE
  8
0
 10
-227.034
 20
17.5498
 11
-227.227
 21
17.6025
  0
LINE
  8
0
 10
-227.227
 20
17.6025
 11
-227.321
 21
17.6338
  0
LINE
  8
0
 10
-227.321
 20
17.6338
 11
-227.415
 21
17.667
  0
LINE
  8
0
 10
-227.415
 20
17.667
 11
-227.554
 21
17.7236
  0
LINE
  8
0
 10
-227.554
 20
17.7236
 11
-227.689
 21
17.7861
  0
LINE
  8
0
 10
-227.689
 20
17.7861
 11
-227.822
 21
17.8555
  0
LINE
  8
0
 10
-227.822
 20
17.8555
 11
-227.909
 21
17.9043
  0
LINE
  8
0
 10
-227.909
 20
17.9043
 11
-228.036
 21
17.9834
  0
LINE
  8
0
 10
-228.036
 20
17.9834
 11
-228.199
 21
18.0986
  0
LINE
  8
0
 10
-228.199
 20
18.0986
 11
-228.277
 21
18.1592
  0
LINE
  8
0
 10
-228.277
 20
18.1592
 11
-228.393
 21
18.2559
  0
LINE
  8
0
 10
-228.393
 20
18.2559
 11
-228.502
 21
18.3574
  0
LINE
  8
0
 10
-228.502
 20
18.3574
 11
-228.607
 21
18.4639
  0
LINE
  8
0
 10
-228.607
 20
18.4639
 11
-228.707
 21
18.5752
  0
LINE
  8
0
 10
-228.707
 20
18.5752
 11
-228.801
 21
18.6914
  0
LINE
  8
0
 10
-228.801
 20
18.6914
 11
-228.861
 21
18.7715
  0
LINE
  8
0
 10
-228.861
 20
18.7715
 11
-228.919
 21
18.8525
  0
LINE
  8
0
 10
-228.919
 20
18.8525
 11
-229
 21
18.9785
  0
LINE
  8
0
 10
-229
 20
18.9785
 11
-229.099
 21
19.1514
  0
LINE
  8
0
 10
-229.099
 20
19.1514
 11
-229.144
 21
19.2402
  0
LINE
  8
0
 10
-229.144
 20
19.2402
 11
-229.187
 21
19.3311
  0
LINE
  8
0
 10
-229.187
 20
19.3311
 11
-229.263
 21
19.5156
  0
LINE
  8
0
 10
-229.263
 20
19.5156
 11
-229.28
 21
19.5615
  0
LINE
  8
0
 10
-229.28
 20
19.5615
 11
-229.312
 21
19.6562
  0
LINE
  8
0
 10
-229.312
 20
19.6562
 11
-229.342
 21
19.752
  0
LINE
  8
0
 10
-229.342
 20
19.752
 11
-229.368
 21
19.8477
  0
LINE
  8
0
 10
-229.368
 20
19.8477
 11
-229.401
 21
19.9932
  0
LINE
  8
0
 10
-229.401
 20
19.9932
 11
-229.429
 21
20.1406
  0
LINE
  8
0
 10
-229.429
 20
20.1406
 11
-229.448
 21
20.2891
  0
LINE
  8
0
 10
-229.448
 20
20.2891
 11
-229.458
 21
20.3887
  0
LINE
  8
0
 10
-229.458
 20
20.3887
 11
-229.466
 21
20.5381
  0
LINE
  8
0
 10
-229.466
 20
20.5381
 11
-229.468
 21
20.6377
  0
LINE
  8
0
 10
-229.468
 20
20.6377
 11
-229.464
 21
20.7871
  0
LINE
  8
0
 10
-229.464
 20
20.7871
 11
-229.458
 21
20.8867
  0
LINE
  8
0
 10
-229.458
 20
20.8867
 11
-229.442
 21
21.0352
  0
LINE
  8
0
 10
-229.442
 20
21.0352
 11
-229.429
 21
21.1338
  0
LINE
  8
0
 10
-229.429
 20
21.1338
 11
-229.401
 21
21.2812
  0
LINE
  8
0
 10
-229.401
 20
21.2812
 11
-229.368
 21
21.4268
  0
LINE
  8
0
 10
-229.368
 20
21.4268
 11
-229.342
 21
21.5234
  0
LINE
  8
0
 10
-229.342
 20
21.5234
 11
-229.312
 21
21.6182
  0
LINE
  8
0
 10
-229.312
 20
21.6182
 11
-229.28
 21
21.7129
  0
LINE
  8
0
 10
-229.28
 20
21.7129
 11
-229.226
 21
21.8525
  0
LINE
  8
0
 10
-229.226
 20
21.8525
 11
-229.187
 21
21.9443
  0
LINE
  8
0
 10
-229.187
 20
21.9443
 11
-229.099
 21
22.123
  0
LINE
  8
0
 10
-229.099
 20
22.123
 11
-229.051
 21
22.2109
  0
LINE
  8
0
 10
-229.051
 20
22.2109
 11
-228.974
 21
22.3389
  0
LINE
  8
0
 10
-228.974
 20
22.3389
 11
-228.919
 21
22.4219
  0
LINE
  8
0
 10
-228.919
 20
22.4219
 11
-228.861
 21
22.5039
  0
LINE
  8
0
 10
-228.861
 20
22.5039
 11
-228.771
 21
22.623
  0
LINE
  8
0
 10
-228.771
 20
22.623
 11
-228.674
 21
22.7373
  0
LINE
  8
0
 10
-228.674
 20
22.7373
 11
-228.607
 21
22.8105
  0
LINE
  8
0
 10
-228.607
 20
22.8105
 11
-228.502
 21
22.918
  0
LINE
  8
0
 10
-228.502
 20
22.918
 11
-228.393
 21
23.0195
  0
LINE
  8
0
 10
-228.393
 20
23.0195
 11
-228.316
 21
23.084
  0
LINE
  8
0
 10
-228.316
 20
23.084
 11
-228.199
 21
23.1768
  0
LINE
  8
0
 10
-228.199
 20
23.1768
 11
-228.077
 21
23.2637
  0
LINE
  8
0
 10
-228.077
 20
23.2637
 11
-227.994
 21
23.3184
  0
LINE
  8
0
 10
-227.994
 20
23.3184
 11
-227.822
 21
23.4199
  0
LINE
  8
0
 10
-227.822
 20
23.4199
 11
-227.734
 21
23.4668
  0
LINE
  8
0
 10
-227.734
 20
23.4668
 11
-227.645
 21
23.5107
  0
LINE
  8
0
 10
-227.645
 20
23.5107
 11
-227.508
 21
23.5713
  0
LINE
  8
0
 10
-227.508
 20
23.5713
 11
-227.321
 21
23.6416
  0
LINE
  8
0
 10
-227.321
 20
23.6416
 11
-227.179
 21
23.6865
  0
LINE
  8
0
 10
-227.179
 20
23.6865
 11
-226.985
 21
23.7363
  0
LINE
  8
0
 10
-226.985
 20
23.7363
 11
-226.839
 21
23.7656
  0
LINE
  8
0
 10
-226.839
 20
23.7656
 11
-226.74
 21
23.7812
  0
LINE
  8
0
 10
-226.74
 20
23.7812
 11
-226.591
 21
23.7988
  0
LINE
  8
0
 10
-226.591
 20
23.7988
 11
-226.492
 21
23.8066
  0
LINE
  8
0
 10
-226.492
 20
23.8066
 11
-226.343
 21
23.8125
  0
LINE
  8
0
 10
-226.343
 20
23.8125
 11
-226.243
 21
23.8125
  0
LINE
  8
0
 10
-226.243
 20
23.8125
 11
-226.095
 21
23.8066
  0
LINE
  8
0
 10
-226.095
 20
23.8066
 11
-225.947
 21
23.7939
  0
LINE
  8
0
 10
-225.947
 20
23.7939
 11
-225.752
 21
23.7666
  0
LINE
  8
0
 10
-225.752
 20
23.7666
 11
-225.559
 21
23.7266
  0
LINE
  8
0
 10
-225.559
 20
23.7266
 11
-225.368
 21
23.6748
  0
LINE
  8
0
 10
-225.368
 20
23.6748
 11
-225.228
 21
23.6289
  0
LINE
  8
0
 10
-225.228
 20
23.6289
 11
-225.135
 21
23.5938
  0
LINE
  8
0
 10
-225.135
 20
23.5938
 11
-224.998
 21
23.5371
  0
LINE
  8
0
 10
-224.998
 20
23.5371
 11
-224.908
 21
23.4951
  0
LINE
  8
0
 10
-224.908
 20
23.4951
 11
-224.776
 21
23.4277
  0
LINE
  8
0
 10
-224.776
 20
23.4277
 11
-224.69
 21
23.3789
  0
LINE
  8
0
 10
-224.69
 20
23.3789
 11
-224.606
 21
23.3281
  0
LINE
  8
0
 10
-224.606
 20
23.3281
 11
-224.482
 21
23.2461
  0
LINE
  8
0
 10
-224.482
 20
23.2461
 11
-224.363
 21
23.1592
  0
LINE
  8
0
 10
-224.363
 20
23.1592
 11
-224.247
 21
23.0664
  0
LINE
  8
0
 10
-224.247
 20
23.0664
 11
-224.173
 21
23.001
  0
LINE
  8
0
 10
-224.173
 20
23.001
 11
-224.065
 21
22.9004
  0
LINE
  8
0
 10
-224.065
 20
22.9004
 11
-223.962
 21
22.7939
  0
LINE
  8
0
 10
-223.962
 20
22.7939
 11
-223.832
 21
22.6445
  0
LINE
  8
0
 10
-223.832
 20
22.6445
 11
-223.741
 21
22.5273
  0
LINE
  8
0
 10
-223.741
 20
22.5273
 11
-223.684
 21
22.4473
  0
LINE
  8
0
 10
-223.684
 20
22.4473
 11
-223.629
 21
22.3652
  0
LINE
  8
0
 10
-223.629
 20
22.3652
 11
-223.551
 21
22.2393
  0
LINE
  8
0
 10
-223.551
 20
22.2393
 11
-223.479
 21
22.1094
  0
LINE
  8
0
 10
-223.479
 20
22.1094
 11
-223.435
 21
22.0215
  0
LINE
  8
0
 10
-223.435
 20
22.0215
 11
-223.354
 21
21.8408
  0
LINE
  8
0
 10
-223.354
 20
21.8408
 11
-223.285
 21
21.6562
  0
LINE
  8
0
 10
-223.285
 20
21.6562
 11
-223.255
 21
21.5625
  0
LINE
  8
0
 10
-223.255
 20
21.5625
 11
-223.215
 21
21.4189
  0
LINE
  8
0
 10
-223.215
 20
21.4189
 11
-223.173
 21
21.2266
  0
LINE
  8
0
 10
-223.173
 20
21.2266
 11
-223.142
 21
21.0312
  0
LINE
  8
0
 10
-223.142
 20
21.0312
 11
-223.131
 21
20.9336
  0
LINE
  8
0
 10
-223.131
 20
20.9336
 11
-223.119
 21
20.7363
  0
LINE
  8
0
 10
-223.119
 20
20.7363
 11
-223.117
 21
20.6377
  0
LINE
  8
0
 10
-223.117
 20
20.6377
 11
-223.121
 21
20.4893
  0
LINE
  8
0
 10
-223.121
 20
20.4893
 11
-223.131
 21
20.3418
  0
LINE
  8
0
 10
-223.131
 20
20.3418
 11
-223.142
 21
20.2432
  0
LINE
  8
0
 10
-223.142
 20
20.2432
 11
-223.164
 21
20.0967
  0
LINE
  8
0
 10
-223.164
 20
20.0967
 11
-223.192
 21
19.9512
  0
LINE
  8
0
 10
-223.192
 20
19.9512
 11
-223.228
 21
19.8076
  0
LINE
  8
0
 10
-223.228
 20
19.8076
 11
-223.27
 21
19.666
  0
LINE
  8
0
 10
-223.27
 20
19.666
 11
-223.318
 21
19.5254
  0
LINE
  8
0
 10
-223.318
 20
19.5254
 11
-223.354
 21
19.4336
  0
LINE
  8
0
 10
-223.354
 20
19.4336
 11
-223.435
 21
19.2539
  0
LINE
  8
0
 10
-223.435
 20
19.2539
 11
-223.479
 21
19.165
  0
LINE
  8
0
 10
-223.479
 20
19.165
 11
-223.526
 21
19.0781
  0
LINE
  8
0
 10
-223.526
 20
19.0781
 11
-223.576
 21
18.9932
  0
LINE
  8
0
 10
-223.576
 20
18.9932
 11
-223.656
 21
18.8682
  0
LINE
  8
0
 10
-223.656
 20
18.8682
 11
-223.741
 21
18.7471
  0
LINE
  8
0
 10
-223.741
 20
18.7471
 11
-223.832
 21
18.6309
  0
LINE
  8
0
 10
-223.832
 20
18.6309
 11
-223.896
 21
18.5547
  0
LINE
  8
0
 10
-223.896
 20
18.5547
 11
-223.996
 21
18.4453
  0
LINE
  8
0
 10
-223.996
 20
18.4453
 11
-224.101
 21
18.3408
  0
LINE
  8
0
 10
-224.101
 20
18.3408
 11
-224.173
 21
18.2734
  0
LINE
  8
0
 10
-224.173
 20
18.2734
 11
-224.285
 21
18.1777
  0
LINE
  8
0
 10
-224.285
 20
18.1777
 11
-224.402
 21
18.0859
  0
LINE
  8
0
 10
-224.402
 20
18.0859
 11
-224.564
 21
17.9736
  0
LINE
  8
0
 10
-224.564
 20
17.9736
 11
-224.648
 21
17.9209
  0
LINE
  8
0
 10
-224.648
 20
17.9209
 11
-224.733
 21
17.8711
  0
LINE
  8
0
 10
-224.733
 20
17.8711
 11
-224.864
 21
17.8018
  0
LINE
  8
0
 10
-224.864
 20
17.8018
 11
-224.998
 21
17.7383
  0
LINE
  8
0
 10
-224.998
 20
17.7383
 11
-225.135
 21
17.6807
  0
LINE
  8
0
 10
-225.135
 20
17.6807
 11
-225.273
 21
17.6299
  0
LINE
  8
0
 10
-225.273
 20
17.6299
 11
-225.415
 21
17.5859
  0
LINE
  8
0
 10
-225.415
 20
17.5859
 11
-225.606
 21
17.5371
  0
LINE
  8
0
 10
-225.606
 20
17.5371
 11
-225.752
 21
17.5088
  0
LINE
  8
0
 10
-225.752
 20
17.5088
 11
-225.85
 21
17.4932
  0
LINE
  8
0
 10
-225.85
 20
17.4932
 11
-226.046
 21
17.4717
  0
LINE
  8
0
 10
-226.046
 20
17.4717
 11
-226.193
 21
17.4639
  0
LINE
  8
0
 10
-226.193
 20
17.4639
 11
-226.393
 21
17.4639
  0
LINE
  8
0
 10
-162.893
 20
17.4639
 11
-163.091
 21
17.4766
  0
LINE
  8
0
 10
-163.091
 20
17.4766
 11
-163.24
 21
17.4941
  0
LINE
  8
0
 10
-163.24
 20
17.4941
 11
-163.388
 21
17.5186
  0
LINE
  8
0
 10
-163.388
 20
17.5186
 11
-163.534
 21
17.5498
  0
LINE
  8
0
 10
-163.534
 20
17.5498
 11
-163.727
 21
17.6025
  0
LINE
  8
0
 10
-163.727
 20
17.6025
 11
-163.821
 21
17.6338
  0
LINE
  8
0
 10
-163.821
 20
17.6338
 11
-163.915
 21
17.667
  0
LINE
  8
0
 10
-163.915
 20
17.667
 11
-164.054
 21
17.7236
  0
LINE
  8
0
 10
-164.054
 20
17.7236
 11
-164.189
 21
17.7861
  0
LINE
  8
0
 10
-164.189
 20
17.7861
 11
-164.322
 21
17.8555
  0
LINE
  8
0
 10
-164.322
 20
17.8555
 11
-164.409
 21
17.9043
  0
LINE
  8
0
 10
-164.409
 20
17.9043
 11
-164.536
 21
17.9834
  0
LINE
  8
0
 10
-164.536
 20
17.9834
 11
-164.699
 21
18.0986
  0
LINE
  8
0
 10
-164.699
 20
18.0986
 11
-164.777
 21
18.1592
  0
LINE
  8
0
 10
-164.777
 20
18.1592
 11
-164.893
 21
18.2559
  0
LINE
  8
0
 10
-164.893
 20
18.2559
 11
-165.002
 21
18.3574
  0
LINE
  8
0
 10
-165.002
 20
18.3574
 11
-165.107
 21
18.4639
  0
LINE
  8
0
 10
-165.107
 20
18.4639
 11
-165.207
 21
18.5752
  0
LINE
  8
0
 10
-165.207
 20
18.5752
 11
-165.301
 21
18.6914
  0
LINE
  8
0
 10
-165.301
 20
18.6914
 11
-165.361
 21
18.7715
  0
LINE
  8
0
 10
-165.361
 20
18.7715
 11
-165.419
 21
18.8525
  0
LINE
  8
0
 10
-165.419
 20
18.8525
 11
-165.5
 21
18.9785
  0
LINE
  8
0
 10
-165.5
 20
18.9785
 11
-165.599
 21
19.1514
  0
LINE
  8
0
 10
-165.599
 20
19.1514
 11
-165.644
 21
19.2402
  0
LINE
  8
0
 10
-165.644
 20
19.2402
 11
-165.687
 21
19.3311
  0
LINE
  8
0
 10
-165.687
 20
19.3311
 11
-165.763
 21
19.5156
  0
LINE
  8
0
 10
-165.763
 20
19.5156
 11
-165.78
 21
19.5615
  0
LINE
  8
0
 10
-165.78
 20
19.5615
 11
-165.812
 21
19.6562
  0
LINE
  8
0
 10
-165.812
 20
19.6562
 11
-165.842
 21
19.752
  0
LINE
  8
0
 10
-165.842
 20
19.752
 11
-165.868
 21
19.8477
  0
LINE
  8
0
 10
-165.868
 20
19.8477
 11
-165.901
 21
19.9932
  0
LINE
  8
0
 10
-165.901
 20
19.9932
 11
-165.929
 21
20.1406
  0
LINE
  8
0
 10
-165.929
 20
20.1406
 11
-165.948
 21
20.2891
  0
LINE
  8
0
 10
-165.948
 20
20.2891
 11
-165.958
 21
20.3887
  0
LINE
  8
0
 10
-165.958
 20
20.3887
 11
-165.966
 21
20.5381
  0
LINE
  8
0
 10
-165.966
 20
20.5381
 11
-165.968
 21
20.6377
  0
LINE
  8
0
 10
-165.968
 20
20.6377
 11
-165.964
 21
20.7871
  0
LINE
  8
0
 10
-165.964
 20
20.7871
 11
-165.958
 21
20.8867
  0
LINE
  8
0
 10
-165.958
 20
20.8867
 11
-165.942
 21
21.0352
  0
LINE
  8
0
 10
-165.942
 20
21.0352
 11
-165.929
 21
21.1338
  0
LINE
  8
0
 10
-165.929
 20
21.1338
 11
-165.901
 21
21.2812
  0
LINE
  8
0
 10
-165.901
 20
21.2812
 11
-165.868
 21
21.4268
  0
LINE
  8
0
 10
-165.868
 20
21.4268
 11
-165.842
 21
21.5234
  0
LINE
  8
0
 10
-165.842
 20
21.5234
 11
-165.812
 21
21.6182
  0
LINE
  8
0
 10
-165.812
 20
21.6182
 11
-165.78
 21
21.7129
  0
LINE
  8
0
 10
-165.78
 20
21.7129
 11
-165.726
 21
21.8525
  0
LINE
  8
0
 10
-165.726
 20
21.8525
 11
-165.687
 21
21.9443
  0
LINE
  8
0
 10
-165.687
 20
21.9443
 11
-165.599
 21
22.123
  0
LINE
  8
0
 10
-165.599
 20
22.123
 11
-165.551
 21
22.2109
  0
LINE
  8
0
 10
-165.551
 20
22.2109
 11
-165.474
 21
22.3389
  0
LINE
  8
0
 10
-165.474
 20
22.3389
 11
-165.419
 21
22.4219
  0
LINE
  8
0
 10
-165.419
 20
22.4219
 11
-165.361
 21
22.5039
  0
LINE
  8
0
 10
-165.361
 20
22.5039
 11
-165.271
 21
22.623
  0
LINE
  8
0
 10
-165.271
 20
22.623
 11
-165.174
 21
22.7373
  0
LINE
  8
0
 10
-165.174
 20
22.7373
 11
-165.107
 21
22.8105
  0
LINE
  8
0
 10
-165.107
 20
22.8105
 11
-165.002
 21
22.918
  0
LINE
  8
0
 10
-165.002
 20
22.918
 11
-164.893
 21
23.0195
  0
LINE
  8
0
 10
-164.893
 20
23.0195
 11
-164.816
 21
23.084
  0
LINE
  8
0
 10
-164.816
 20
23.084
 11
-164.699
 21
23.1768
  0
LINE
  8
0
 10
-164.699
 20
23.1768
 11
-164.577
 21
23.2637
  0
LINE
  8
0
 10
-164.577
 20
23.2637
 11
-164.494
 21
23.3184
  0
LINE
  8
0
 10
-164.494
 20
23.3184
 11
-164.322
 21
23.4199
  0
LINE
  8
0
 10
-164.322
 20
23.4199
 11
-164.234
 21
23.4668
  0
LINE
  8
0
 10
-164.234
 20
23.4668
 11
-164.145
 21
23.5107
  0
LINE
  8
0
 10
-164.145
 20
23.5107
 11
-164.008
 21
23.5713
  0
LINE
  8
0
 10
-164.008
 20
23.5713
 11
-163.821
 21
23.6416
  0
LINE
  8
0
 10
-163.821
 20
23.6416
 11
-163.679
 21
23.6865
  0
LINE
  8
0
 10
-163.679
 20
23.6865
 11
-163.485
 21
23.7363
  0
LINE
  8
0
 10
-163.485
 20
23.7363
 11
-163.339
 21
23.7656
  0
LINE
  8
0
 10
-163.339
 20
23.7656
 11
-163.24
 21
23.7812
  0
LINE
  8
0
 10
-163.24
 20
23.7812
 11
-163.091
 21
23.7988
  0
LINE
  8
0
 10
-163.091
 20
23.7988
 11
-162.992
 21
23.8066
  0
LINE
  8
0
 10
-162.992
 20
23.8066
 11
-162.843
 21
23.8125
  0
LINE
  8
0
 10
-162.843
 20
23.8125
 11
-162.743
 21
23.8125
  0
LINE
  8
0
 10
-162.743
 20
23.8125
 11
-162.595
 21
23.8066
  0
LINE
  8
0
 10
-162.595
 20
23.8066
 11
-162.447
 21
23.7939
  0
LINE
  8
0
 10
-162.447
 20
23.7939
 11
-162.252
 21
23.7666
  0
LINE
  8
0
 10
-162.252
 20
23.7666
 11
-162.059
 21
23.7266
  0
LINE
  8
0
 10
-162.059
 20
23.7266
 11
-161.868
 21
23.6748
  0
LINE
  8
0
 10
-161.868
 20
23.6748
 11
-161.728
 21
23.6289
  0
LINE
  8
0
 10
-161.728
 20
23.6289
 11
-161.635
 21
23.5938
  0
LINE
  8
0
 10
-161.635
 20
23.5938
 11
-161.498
 21
23.5371
  0
LINE
  8
0
 10
-161.498
 20
23.5371
 11
-161.408
 21
23.4951
  0
LINE
  8
0
 10
-161.408
 20
23.4951
 11
-161.276
 21
23.4277
  0
LINE
  8
0
 10
-161.276
 20
23.4277
 11
-161.19
 21
23.3789
  0
LINE
  8
0
 10
-161.19
 20
23.3789
 11
-161.106
 21
23.3281
  0
LINE
  8
0
 10
-161.106
 20
23.3281
 11
-160.982
 21
23.2461
  0
LINE
  8
0
 10
-160.982
 20
23.2461
 11
-160.863
 21
23.1592
  0
LINE
  8
0
 10
-160.863
 20
23.1592
 11
-160.747
 21
23.0664
  0
LINE
  8
0
 10
-160.747
 20
23.0664
 11
-160.673
 21
23.001
  0
LINE
  8
0
 10
-160.673
 20
23.001
 11
-160.565
 21
22.9004
  0
LINE
  8
0
 10
-160.565
 20
22.9004
 11
-160.462
 21
22.7939
  0
LINE
  8
0
 10
-160.462
 20
22.7939
 11
-160.332
 21
22.6445
  0
LINE
  8
0
 10
-160.332
 20
22.6445
 11
-160.241
 21
22.5273
  0
LINE
  8
0
 10
-160.241
 20
22.5273
 11
-160.184
 21
22.4473
  0
LINE
  8
0
 10
-160.184
 20
22.4473
 11
-160.129
 21
22.3652
  0
LINE
  8
0
 10
-160.129
 20
22.3652
 11
-160.051
 21
22.2393
  0
LINE
  8
0
 10
-160.051
 20
22.2393
 11
-159.979
 21
22.1094
  0
LINE
  8
0
 10
-159.979
 20
22.1094
 11
-159.935
 21
22.0215
  0
LINE
  8
0
 10
-159.935
 20
22.0215
 11
-159.854
 21
21.8408
  0
LINE
  8
0
 10
-159.854
 20
21.8408
 11
-159.785
 21
21.6562
  0
LINE
  8
0
 10
-159.785
 20
21.6562
 11
-159.755
 21
21.5625
  0
LINE
  8
0
 10
-159.755
 20
21.5625
 11
-159.715
 21
21.4189
  0
LINE
  8
0
 10
-159.715
 20
21.4189
 11
-159.673
 21
21.2266
  0
LINE
  8
0
 10
-159.673
 20
21.2266
 11
-159.642
 21
21.0312
  0
LINE
  8
0
 10
-159.642
 20
21.0312
 11
-159.631
 21
20.9336
  0
LINE
  8
0
 10
-159.631
 20
20.9336
 11
-159.619
 21
20.7363
  0
LINE
  8
0
 10
-159.619
 20
20.7363
 11
-159.617
 21
20.6377
  0
LINE
  8
0
 10
-159.617
 20
20.6377
 11
-159.621
 21
20.4893
  0
LINE
  8
0
 10
-159.621
 20
20.4893
 11
-159.631
 21
20.3418
  0
LINE
  8
0
 10
-159.631
 20
20.3418
 11
-159.642
 21
20.2432
  0
LINE
  8
0
 10
-159.642
 20
20.2432
 11
-159.664
 21
20.0967
  0
LINE
  8
0
 10
-159.664
 20
20.0967
 11
-159.692
 21
19.9512
  0
LINE
  8
0
 10
-159.692
 20
19.9512
 11
-159.728
 21
19.8076
  0
LINE
  8
0
 10
-159.728
 20
19.8076
 11
-159.77
 21
19.666
  0
LINE
  8
0
 10
-159.77
 20
19.666
 11
-159.818
 21
19.5254
  0
LINE
  8
0
 10
-159.818
 20
19.5254
 11
-159.854
 21
19.4336
  0
LINE
  8
0
 10
-159.854
 20
19.4336
 11
-159.935
 21
19.2539
  0
LINE
  8
0
 10
-159.935
 20
19.2539
 11
-159.979
 21
19.165
  0
LINE
  8
0
 10
-159.979
 20
19.165
 11
-160.026
 21
19.0781
  0
LINE
  8
0
 10
-160.026
 20
19.0781
 11
-160.076
 21
18.9932
  0
LINE
  8
0
 10
-160.076
 20
18.9932
 11
-160.156
 21
18.8682
  0
LINE
  8
0
 10
-160.156
 20
18.8682
 11
-160.241
 21
18.7471
  0
LINE
  8
0
 10
-160.241
 20
18.7471
 11
-160.332
 21
18.6309
  0
LINE
  8
0
 10
-160.332
 20
18.6309
 11
-160.396
 21
18.5547
  0
LINE
  8
0
 10
-160.396
 20
18.5547
 11
-160.496
 21
18.4453
  0
LINE
  8
0
 10
-160.496
 20
18.4453
 11
-160.601
 21
18.3408
  0
LINE
  8
0
 10
-160.601
 20
18.3408
 11
-160.673
 21
18.2734
  0
LINE
  8
0
 10
-160.673
 20
18.2734
 11
-160.785
 21
18.1777
  0
LINE
  8
0
 10
-160.785
 20
18.1777
 11
-160.902
 21
18.0859
  0
LINE
  8
0
 10
-160.902
 20
18.0859
 11
-161.064
 21
17.9736
  0
LINE
  8
0
 10
-161.064
 20
17.9736
 11
-161.148
 21
17.9209
  0
LINE
  8
0
 10
-161.148
 20
17.9209
 11
-161.233
 21
17.8711
  0
LINE
  8
0
 10
-161.233
 20
17.8711
 11
-161.364
 21
17.8018
  0
LINE
  8
0
 10
-161.364
 20
17.8018
 11
-161.498
 21
17.7383
  0
LINE
  8
0
 10
-161.498
 20
17.7383
 11
-161.635
 21
17.6807
  0
LINE
  8
0
 10
-161.635
 20
17.6807
 11
-161.773
 21
17.6299
  0
LINE
  8
0
 10
-161.773
 20
17.6299
 11
-161.915
 21
17.5859
  0
LINE
  8
0
 10
-161.915
 20
17.5859
 11
-162.106
 21
17.5371
  0
LINE
  8
0
 10
-162.106
 20
17.5371
 11
-162.252
 21
17.5088
  0
LINE
  8
0
 10
-162.252
 20
17.5088
 11
-162.35
 21
17.4932
  0
LINE
  8
0
 10
-162.35
 20
17.4932
 11
-162.546
 21
17.4717
  0
LINE
  8
0
 10
-162.546
 20
17.4717
 11
-162.693
 21
17.4639
  0
LINE
  8
0
 10
-162.693
 20
17.4639
 11
-162.893
 21
17.4639
  0
LINE
  8
0
 10
280.209
 20
17.4639
 11
280.109
 21
17.4688
  0
LINE
  8
0
 10
280.109
 20
17.4688
 11
279.96
 21
17.4814
  0
LINE
  8
0
 10
279.96
 20
17.4814
 11
279.861
 21
17.4941
  0
LINE
  8
0
 10
279.861
 20
17.4941
 11
279.714
 21
17.5186
  0
LINE
  8
0
 10
279.714
 20
17.5186
 11
279.567
 21
17.5498
  0
LINE
  8
0
 10
279.567
 20
17.5498
 11
279.471
 21
17.5752
  0
LINE
  8
0
 10
279.471
 20
17.5752
 11
279.375
 21
17.6025
  0
LINE
  8
0
 10
279.375
 20
17.6025
 11
279.28
 21
17.6338
  0
LINE
  8
0
 10
279.28
 20
17.6338
 11
279.187
 21
17.667
  0
LINE
  8
0
 10
279.187
 20
17.667
 11
279.048
 21
17.7236
  0
LINE
  8
0
 10
279.048
 20
17.7236
 11
278.912
 21
17.7861
  0
LINE
  8
0
 10
278.912
 20
17.7861
 11
278.735
 21
17.8799
  0
LINE
  8
0
 10
278.735
 20
17.8799
 11
278.649
 21
17.9307
  0
LINE
  8
0
 10
278.649
 20
17.9307
 11
278.565
 21
17.9834
  0
LINE
  8
0
 10
278.565
 20
17.9834
 11
278.402
 21
18.0986
  0
LINE
  8
0
 10
278.402
 20
18.0986
 11
278.323
 21
18.1592
  0
LINE
  8
0
 10
278.323
 20
18.1592
 11
278.209
 21
18.2559
  0
LINE
  8
0
 10
278.209
 20
18.2559
 11
278.063
 21
18.3926
  0
LINE
  8
0
 10
278.063
 20
18.3926
 11
277.994
 21
18.4639
  0
LINE
  8
0
 10
277.994
 20
18.4639
 11
277.895
 21
18.5752
  0
LINE
  8
0
 10
277.895
 20
18.5752
 11
277.8
 21
18.6914
  0
LINE
  8
0
 10
277.8
 20
18.6914
 11
277.711
 21
18.8115
  0
LINE
  8
0
 10
277.711
 20
18.8115
 11
277.602
 21
18.9785
  0
LINE
  8
0
 10
277.602
 20
18.9785
 11
277.503
 21
19.1514
  0
LINE
  8
0
 10
277.503
 20
19.1514
 11
277.436
 21
19.2861
  0
LINE
  8
0
 10
277.436
 20
19.2861
 11
277.375
 21
19.4229
  0
LINE
  8
0
 10
277.375
 20
19.4229
 11
277.321
 21
19.5615
  0
LINE
  8
0
 10
277.321
 20
19.5615
 11
277.289
 21
19.6562
  0
LINE
  8
0
 10
277.289
 20
19.6562
 11
277.246
 21
19.7998
  0
LINE
  8
0
 10
277.246
 20
19.7998
 11
277.21
 21
19.9453
  0
LINE
  8
0
 10
277.21
 20
19.9453
 11
277.181
 21
20.0918
  0
LINE
  8
0
 10
277.181
 20
20.0918
 11
277.165
 21
20.1904
  0
LINE
  8
0
 10
277.165
 20
20.1904
 11
277.147
 21
20.3389
  0
LINE
  8
0
 10
277.147
 20
20.3389
 11
277.14
 21
20.4385
  0
LINE
  8
0
 10
277.14
 20
20.4385
 11
277.134
 21
20.5879
  0
LINE
  8
0
 10
277.134
 20
20.5879
 11
277.134
 21
20.6875
  0
LINE
  8
0
 10
277.134
 20
20.6875
 11
277.14
 21
20.8369
  0
LINE
  8
0
 10
277.14
 20
20.8369
 11
277.147
 21
20.9365
  0
LINE
  8
0
 10
277.147
 20
20.9365
 11
277.165
 21
21.085
  0
LINE
  8
0
 10
277.165
 20
21.085
 11
277.181
 21
21.1836
  0
LINE
  8
0
 10
277.181
 20
21.1836
 11
277.21
 21
21.3301
  0
LINE
  8
0
 10
277.21
 20
21.3301
 11
277.246
 21
21.4756
  0
LINE
  8
0
 10
277.246
 20
21.4756
 11
277.305
 21
21.666
  0
LINE
  8
0
 10
277.305
 20
21.666
 11
277.356
 21
21.8066
  0
LINE
  8
0
 10
277.356
 20
21.8066
 11
277.436
 21
21.9893
  0
LINE
  8
0
 10
277.436
 20
21.9893
 11
277.479
 21
22.0791
  0
LINE
  8
0
 10
277.479
 20
22.0791
 11
277.551
 21
22.2109
  0
LINE
  8
0
 10
277.551
 20
22.2109
 11
277.628
 21
22.3389
  0
LINE
  8
0
 10
277.628
 20
22.3389
 11
277.711
 21
22.4629
  0
LINE
  8
0
 10
277.711
 20
22.4629
 11
277.77
 21
22.5439
  0
LINE
  8
0
 10
277.77
 20
22.5439
 11
277.862
 21
22.6611
  0
LINE
  8
0
 10
277.862
 20
22.6611
 11
277.927
 21
22.7373
  0
LINE
  8
0
 10
277.927
 20
22.7373
 11
278.063
 21
22.8828
  0
LINE
  8
0
 10
278.063
 20
22.8828
 11
278.209
 21
23.0195
  0
LINE
  8
0
 10
278.209
 20
23.0195
 11
278.323
 21
23.1152
  0
LINE
  8
0
 10
278.323
 20
23.1152
 11
278.442
 21
23.2061
  0
LINE
  8
0
 10
278.442
 20
23.2061
 11
278.565
 21
23.291
  0
LINE
  8
0
 10
278.565
 20
23.291
 11
278.649
 21
23.3447
  0
LINE
  8
0
 10
278.649
 20
23.3447
 11
278.779
 21
23.4199
  0
LINE
  8
0
 10
278.779
 20
23.4199
 11
278.867
 21
23.4668
  0
LINE
  8
0
 10
278.867
 20
23.4668
 11
279.048
 21
23.5518
  0
LINE
  8
0
 10
279.048
 20
23.5518
 11
279.14
 21
23.5898
  0
LINE
  8
0
 10
279.14
 20
23.5898
 11
279.28
 21
23.6416
  0
LINE
  8
0
 10
279.28
 20
23.6416
 11
279.423
 21
23.6865
  0
LINE
  8
0
 10
279.423
 20
23.6865
 11
279.616
 21
23.7363
  0
LINE
  8
0
 10
279.616
 20
23.7363
 11
279.763
 21
23.7656
  0
LINE
  8
0
 10
279.763
 20
23.7656
 11
279.861
 21
23.7812
  0
LINE
  8
0
 10
279.861
 20
23.7812
 11
280.01
 21
23.7988
  0
LINE
  8
0
 10
280.01
 20
23.7988
 11
280.109
 21
23.8066
  0
LINE
  8
0
 10
280.109
 20
23.8066
 11
280.259
 21
23.8125
  0
LINE
  8
0
 10
280.259
 20
23.8125
 11
280.358
 21
23.8125
  0
LINE
  8
0
 10
280.358
 20
23.8125
 11
280.506
 21
23.8066
  0
LINE
  8
0
 10
280.506
 20
23.8066
 11
280.653
 21
23.7939
  0
LINE
  8
0
 10
280.653
 20
23.7939
 11
280.801
 21
23.7744
  0
LINE
  8
0
 10
280.801
 20
23.7744
 11
280.946
 21
23.748
  0
LINE
  8
0
 10
280.946
 20
23.748
 11
281.091
 21
23.7148
  0
LINE
  8
0
 10
281.091
 20
23.7148
 11
281.233
 21
23.6748
  0
LINE
  8
0
 10
281.233
 20
23.6748
 11
281.374
 21
23.6289
  0
LINE
  8
0
 10
281.374
 20
23.6289
 11
281.558
 21
23.5566
  0
LINE
  8
0
 10
281.558
 20
23.5566
 11
281.648
 21
23.5166
  0
LINE
  8
0
 10
281.648
 20
23.5166
 11
281.824
 21
23.4277
  0
LINE
  8
0
 10
281.824
 20
23.4277
 11
281.995
 21
23.3281
  0
LINE
  8
0
 10
281.995
 20
23.3281
 11
282.078
 21
23.2744
  0
LINE
  8
0
 10
282.078
 20
23.2744
 11
282.238
 21
23.1592
  0
LINE
  8
0
 10
282.238
 20
23.1592
 11
282.392
 21
23.0342
  0
LINE
  8
0
 10
282.392
 20
23.0342
 11
282.501
 21
22.9346
  0
LINE
  8
0
 10
282.501
 20
22.9346
 11
282.571
 21
22.8652
  0
LINE
  8
0
 10
282.571
 20
22.8652
 11
282.64
 21
22.7939
  0
LINE
  8
0
 10
282.64
 20
22.7939
 11
282.737
 21
22.6826
  0
LINE
  8
0
 10
282.737
 20
22.6826
 11
282.83
 21
22.5674
  0
LINE
  8
0
 10
282.83
 20
22.5674
 11
282.86
 21
22.5273
  0
LINE
  8
0
 10
282.86
 20
22.5273
 11
282.973
 21
22.3652
  0
LINE
  8
0
 10
282.973
 20
22.3652
 11
283.025
 21
22.2812
  0
LINE
  8
0
 10
283.025
 20
22.2812
 11
283.075
 21
22.1963
  0
LINE
  8
0
 10
283.075
 20
22.1963
 11
283.145
 21
22.0654
  0
LINE
  8
0
 10
283.145
 20
22.0654
 11
283.208
 21
21.9316
  0
LINE
  8
0
 10
283.208
 20
21.9316
 11
283.266
 21
21.7949
  0
LINE
  8
0
 10
283.266
 20
21.7949
 11
283.316
 21
21.6562
  0
LINE
  8
0
 10
283.316
 20
21.6562
 11
283.36
 21
21.5146
  0
LINE
  8
0
 10
283.36
 20
21.5146
 11
283.409
 21
21.3232
  0
LINE
  8
0
 10
283.409
 20
21.3232
 11
283.438
 21
21.1777
  0
LINE
  8
0
 10
283.438
 20
21.1777
 11
283.453
 21
21.0801
  0
LINE
  8
0
 10
283.453
 20
21.0801
 11
283.475
 21
20.8838
  0
LINE
  8
0
 10
283.475
 20
20.8838
 11
283.482
 21
20.7363
  0
LINE
  8
0
 10
283.482
 20
20.7363
 11
283.482
 21
20.5391
  0
LINE
  8
0
 10
283.482
 20
20.5391
 11
283.475
 21
20.3906
  0
LINE
  8
0
 10
283.475
 20
20.3906
 11
283.453
 21
20.1943
  0
LINE
  8
0
 10
283.453
 20
20.1943
 11
283.429
 21
20.0488
  0
LINE
  8
0
 10
283.429
 20
20.0488
 11
283.409
 21
19.9512
  0
LINE
  8
0
 10
283.409
 20
19.9512
 11
283.36
 21
19.7598
  0
LINE
  8
0
 10
283.36
 20
19.7598
 11
283.316
 21
19.6191
  0
LINE
  8
0
 10
283.316
 20
19.6191
 11
283.266
 21
19.4795
  0
LINE
  8
0
 10
283.266
 20
19.4795
 11
283.208
 21
19.3428
  0
LINE
  8
0
 10
283.208
 20
19.3428
 11
283.145
 21
19.209
  0
LINE
  8
0
 10
283.145
 20
19.209
 11
283.075
 21
19.0781
  0
LINE
  8
0
 10
283.075
 20
19.0781
 11
283.025
 21
18.9932
  0
LINE
  8
0
 10
283.025
 20
18.9932
 11
282.945
 21
18.8682
  0
LINE
  8
0
 10
282.945
 20
18.8682
 11
282.86
 21
18.7471
  0
LINE
  8
0
 10
282.86
 20
18.7471
 11
282.8
 21
18.6689
  0
LINE
  8
0
 10
282.8
 20
18.6689
 11
282.673
 21
18.5176
  0
LINE
  8
0
 10
282.673
 20
18.5176
 11
282.571
 21
18.4102
  0
LINE
  8
0
 10
282.571
 20
18.4102
 11
282.465
 21
18.3066
  0
LINE
  8
0
 10
282.465
 20
18.3066
 11
282.354
 21
18.209
  0
LINE
  8
0
 10
282.354
 20
18.209
 11
282.277
 21
18.1465
  0
LINE
  8
0
 10
282.277
 20
18.1465
 11
282.199
 21
18.0859
  0
LINE
  8
0
 10
282.199
 20
18.0859
 11
282.037
 21
17.9736
  0
LINE
  8
0
 10
282.037
 20
17.9736
 11
281.953
 21
17.9209
  0
LINE
  8
0
 10
281.953
 20
17.9209
 11
281.868
 21
17.8711
  0
LINE
  8
0
 10
281.868
 20
17.8711
 11
281.737
 21
17.8018
  0
LINE
  8
0
 10
281.737
 20
17.8018
 11
281.604
 21
17.7383
  0
LINE
  8
0
 10
281.604
 20
17.7383
 11
281.467
 21
17.6807
  0
LINE
  8
0
 10
281.467
 20
17.6807
 11
281.327
 21
17.6299
  0
LINE
  8
0
 10
281.327
 20
17.6299
 11
281.187
 21
17.5859
  0
LINE
  8
0
 10
281.187
 20
17.5859
 11
280.995
 21
17.5371
  0
LINE
  8
0
 10
280.995
 20
17.5371
 11
280.85
 21
17.5088
  0
LINE
  8
0
 10
280.85
 20
17.5088
 11
280.752
 21
17.4932
  0
LINE
  8
0
 10
280.752
 20
17.4932
 11
280.556
 21
17.4717
  0
LINE
  8
0
 10
280.556
 20
17.4717
 11
280.407
 21
17.4639
  0
LINE
  8
0
 10
280.407
 20
17.4639
 11
280.209
 21
17.4639
  0
LINE
  8
0
 10
207.284
 20
20.9039
 11
207.284
 21
14.4387
  0
LINE
  8
0
 10
207.284
 20
14.4387
 11
205.418
 21
17.6713
  0
LINE
  8
0
 10
205.418
 20
17.6713
 11
207.284
 21
20.9039
  0
LINE
  8
0
 10
332.266
 20
-7.6519
 11
327.848
 21
0
  0
LINE
  8
0
 10
327.848
 20
0
 11
332.266
 21
7.6519
  0
LINE
  8
0
 10
332.266
 20
7.6519
 11
332.664
 21
7.6519
  0
LINE
  8
0
 10
332.664
 20
7.6519
 11
331.542
 21
11.274
  0
LINE
  8
0
 10
331.542
 20
11.274
 11
327.848
 21
17.6713
  0
LINE
  8
0
 10
327.848
 20
17.6713
 11
328.297
 21
18.4476
  0
LINE
  8
0
 10
328.297
 20
18.4476
 11
330.717
 21
13.9375
  0
LINE
  8
0
 10
330.717
 20
13.9375
 11
332.712
 21
7.49707
  0
LINE
  8
0
 10
332.712
 20
7.49707
 11
333.375
 21
0
  0
LINE
  8
0
 10
333.375
 20
0
 11
332.712
 21
-7.49707
  0
LINE
  8
0
 10
332.712
 20
-7.49707
 11
332.664
 21
-7.6519
  0
LINE
  8
0
 10
332.664
 20
-7.6519
 11
332.266
 21
-7.6519
  0
LINE
  8
0
 10
289.834
 20
16.4876
 11
295.19
 21
16.4876
  0
LINE
  8
0
 10
295.19
 20
16.4876
 11
299.608
 21
8.83566
  0
LINE
  8
0
 10
299.608
 20
8.83566
 11
295.19
 21
1.18375
  0
LINE
  8
0
 10
295.19
 20
1.18375
 11
289.834
 21
1.18375
  0
LINE
  8
0
 10
289.834
 20
1.18375
 11
289.834
 21
16.4876
  0
LINE
  8
0
 10
-19.7216
 20
1.18375
 11
-24.1395
 21
8.83566
  0
LINE
  8
0
 10
-24.1395
 20
8.83566
 11
-19.7216
 21
16.4876
  0
LINE
  8
0
 10
-19.7216
 20
16.4876
 11
-10.886
 21
16.4876
  0
LINE
  8
0
 10
-10.886
 20
16.4876
 11
-6.46815
 21
8.83566
  0
LINE
  8
0
 10
-6.46815
 20
8.83566
 11
-10.886
 21
1.18375
  0
LINE
  8
0
 10
-10.886
 20
1.18375
 11
-19.7216
 21
1.18375
  0
LINE
  8
0
 10
102.709
 20
1.18375
 11
98.2911
 21
8.83566
  0
LINE
  8
0
 10
98.2911
 20
8.83566
 11
102.709
 21
16.4876
  0
LINE
  8
0
 10
102.709
 20
16.4876
 11
111.545
 21
16.4876
  0
LINE
  8
0
 10
111.545
 20
16.4876
 11
115.962
 21
8.83566
  0
LINE
  8
0
 10
115.962
 20
8.83566
 11
111.545
 21
1.18375
  0
LINE
  8
0
 10
111.545
 20
1.18375
 11
102.709
 21
1.18375
  0
LINE
  8
0
 10
72.1013
 20
1.18375
 11
67.6834
 21
8.83566
  0
LINE
  8
0
 10
67.6834
 20
8.83566
 11
72.1013
 21
16.4876
  0
LINE
  8
0
 10
72.1013
 20
16.4876
 11
80.9369
 21
16.4876
  0
LINE
  8
0
 10
80.9369
 20
16.4876
 11
85.3548
 21
8.83566
  0
LINE
  8
0
 10
85.3548
 20
8.83566
 11
80.9369
 21
1.18375
  0
LINE
  8
0
 10
80.9369
 20
1.18375
 11
72.1013
 21
1.18375
  0
LINE
  8
0
 10
41.4936
 20
1.18375
 11
37.0758
 21
8.83566
  0
LINE
  8
0
 10
37.0758
 20
8.83566
 11
41.4936
 21
16.4876
  0
LINE
  8
0
 10
41.4936
 20
16.4876
 11
50.3293
 21
16.4876
  0
LINE
  8
0
 10
50.3293
 20
16.4876
 11
54.7471
 21
8.83566
  0
LINE
  8
0
 10
54.7471
 20
8.83566
 11
50.3293
 21
1.18375
  0
LINE
  8
0
 10
50.3293
 20
1.18375
 11
41.4936
 21
1.18375
  0
LINE
  8
0
 10
316.962
 20
1.18375
 11
312.545
 21
8.83566
  0
LINE
  8
0
 10
312.545
 20
8.83566
 11
316.962
 21
16.4876
  0
LINE
  8
0
 10
316.962
 20
16.4876
 11
325.798
 21
16.4876
  0
LINE
  8
0
 10
325.798
 20
16.4876
 11
330.216
 21
8.83566
  0
LINE
  8
0
 10
330.216
 20
8.83566
 11
325.798
 21
1.18375
  0
LINE
  8
0
 10
325.798
 20
1.18375
 11
316.962
 21
1.18375
  0
LINE
  8
0
 10
-142.152
 20
1.18375
 11
-146.57
 21
8.83566
  0
LINE
  8
0
 10
-146.57
 20
8.83566
 11
-142.152
 21
16.4876
  0
LINE
  8
0
 10
-142.152
 20
16.4876
 11
-133.317
 21
16.4876
  0
LINE
  8
0
 10
-133.317
 20
16.4876
 11
-128.899
 21
8.83566
  0
LINE
  8
0
 10
-128.899
 20
8.83566
 11
-133.317
 21
1.18375
  0
LINE
  8
0
 10
-133.317
 20
1.18375
 11
-142.152
 21
1.18375
  0
LINE
  8
0
 10
-111.545
 20
1.18375
 11
-115.962
 21
8.83566
  0
LINE
  8
0
 10
-115.962
 20
8.83566
 11
-111.545
 21
16.4876
  0
LINE
  8
0
 10
-111.545
 20
16.4876
 11
-102.709
 21
16.4876
  0
LINE
  8
0
 10
-102.709
 20
16.4876
 11
-98.2911
 21
8.83566
  0
LINE
  8
0
 10
-98.2911
 20
8.83566
 11
-102.709
 21
1.18375
  0
LINE
  8
0
 10
-102.709
 20
1.18375
 11
-111.545
 21
1.18375
  0
LINE
  8
0
 10
133.317
 20
1.18375
 11
128.899
 21
8.83566
  0
LINE
  8
0
 10
128.899
 20
8.83566
 11
133.317
 21
16.4876
  0
LINE
  8
0
 10
133.317
 20
16.4876
 11
142.152
 21
16.4876
  0
LINE
  8
0
 10
142.152
 20
16.4876
 11
146.57
 21
8.83566
  0
LINE
  8
0
 10
146.57
 20
8.83566
 11
142.152
 21
1.18375
  0
LINE
  8
0
 10
142.152
 20
1.18375
 11
133.317
 21
1.18375
  0
LINE
  8
0
 10
-80.9369
 20
1.18375
 11
-85.3548
 21
8.83566
  0
LINE
  8
0
 10
-85.3548
 20
8.83566
 11
-80.9369
 21
16.4876
  0
LINE
  8
0
 10
-80.9369
 20
16.4876
 11
-72.1013
 21
16.4876
  0
LINE
  8
0
 10
-72.1013
 20
16.4876
 11
-67.6834
 21
8.83566
  0
LINE
  8
0
 10
-67.6834
 20
8.83566
 11
-72.1013
 21
1.18375
  0
LINE
  8
0
 10
-72.1013
 20
1.18375
 11
-80.9369
 21
1.18375
  0
LINE
  8
0
 10
163.924
 20
1.18375
 11
159.506
 21
8.83566
  0
LINE
  8
0
 10
159.506
 20
8.83566
 11
163.924
 21
16.4876
  0
LINE
  8
0
 10
163.924
 20
16.4876
 11
172.76
 21
16.4876
  0
LINE
  8
0
 10
172.76
 20
16.4876
 11
177.178
 21
8.83566
  0
LINE
  8
0
 10
177.178
 20
8.83566
 11
172.76
 21
1.18375
  0
LINE
  8
0
 10
172.76
 20
1.18375
 11
163.924
 21
1.18375
  0
LINE
  8
0
 10
10.886
 20
1.18375
 11
6.46815
 21
8.83566
  0
LINE
  8
0
 10
6.46815
 20
8.83566
 11
10.886
 21
16.4876
  0
LINE
  8
0
 10
10.886
 20
16.4876
 11
19.7216
 21
16.4876
  0
LINE
  8
0
 10
19.7216
 20
16.4876
 11
24.1395
 21
8.83566
  0
LINE
  8
0
 10
24.1395
 20
8.83566
 11
19.7216
 21
1.18375
  0
LINE
  8
0
 10
19.7216
 20
1.18375
 11
10.886
 21
1.18375
  0
LINE
  8
0
 10
-50.3293
 20
1.18375
 11
-54.7471
 21
8.83566
  0
LINE
  8
0
 10
-54.7471
 20
8.83566
 11
-50.3293
 21
16.4876
  0
LINE
  8
0
 10
-50.3293
 20
16.4876
 11
-41.4936
 21
16.4876
  0
LINE
  8
0
 10
-41.4936
 20
16.4876
 11
-37.0758
 21
8.83566
  0
LINE
  8
0
 10
-37.0758
 20
8.83566
 11
-41.4936
 21
1.18375
  0
LINE
  8
0
 10
-41.4936
 20
1.18375
 11
-50.3293
 21
1.18375
  0
LINE
  8
0
 10
-153.268
 20
7.6519
 11
-148.62
 21
7.6519
  0
LINE
  8
0
 10
-148.62
 20
7.6519
 11
-144.203
 21
0
  0
LINE
  8
0
 10
-144.203
 20
0
 11
-148.62
 21
-7.6519
  0
LINE
  8
0
 10
-148.62
 20
-7.6519
 11
-153.268
 21
-7.6519
  0
LINE
  8
0
 10
-153.268
 20
-7.6519
 11
-153.268
 21
7.6519
  0
LINE
  8
0
 10
-96.2408
 20
-7.6519
 11
-100.659
 21
0
  0
LINE
  8
0
 10
-100.659
 20
0
 11
-96.2408
 21
7.6519
  0
LINE
  8
0
 10
-96.2408
 20
7.6519
 11
-87.4051
 21
7.6519
  0
LINE
  8
0
 10
-87.4051
 20
7.6519
 11
-82.9873
 21
0
  0
LINE
  8
0
 10
-82.9873
 20
0
 11
-87.4051
 21
-7.6519
  0
LINE
  8
0
 10
-87.4051
 20
-7.6519
 11
-96.2408
 21
-7.6519
  0
LINE
  8
0
 10
179.228
 20
-7.6519
 11
174.81
 21
0
  0
LINE
  8
0
 10
174.81
 20
0
 11
179.228
 21
7.6519
  0
LINE
  8
0
 10
179.228
 20
7.6519
 11
188.064
 21
7.6519
  0
LINE
  8
0
 10
188.064
 20
7.6519
 11
192.482
 21
0
  0
LINE
  8
0
 10
192.482
 20
0
 11
188.064
 21
-7.6519
  0
LINE
  8
0
 10
188.064
 20
-7.6519
 11
179.228
 21
-7.6519
  0
LINE
  8
0
 10
-65.6331
 20
-7.6519
 11
-70.0509
 21
0
  0
LINE
  8
0
 10
-70.0509
 20
0
 11
-65.6331
 21
7.6519
  0
LINE
  8
0
 10
-65.6331
 20
7.6519
 11
-56.7974
 21
7.6519
  0
LINE
  8
0
 10
-56.7974
 20
7.6519
 11
-52.3796
 21
0
  0
LINE
  8
0
 10
-52.3796
 20
0
 11
-56.7974
 21
-7.6519
  0
LINE
  8
0
 10
-56.7974
 20
-7.6519
 11
-65.6331
 21
-7.6519
  0
LINE
  8
0
 10
56.7974
 20
-7.6519
 11
52.3796
 21
0
  0
LINE
  8
0
 10
52.3796
 20
0
 11
56.7974
 21
7.6519
  0
LINE
  8
0
 10
56.7974
 20
7.6519
 11
65.6331
 21
7.6519
  0
LINE
  8
0
 10
65.6331
 20
7.6519
 11
70.0509
 21
0
  0
LINE
  8
0
 10
70.0509
 20
0
 11
65.6331
 21
-7.6519
  0
LINE
  8
0
 10
65.6331
 20
-7.6519
 11
56.7974
 21
-7.6519
  0
LINE
  8
0
 10
301.659
 20
-7.6519
 11
297.241
 21
0
  0
LINE
  8
0
 10
297.241
 20
0
 11
301.659
 21
7.6519
  0
LINE
  8
0
 10
301.659
 20
7.6519
 11
310.494
 21
7.6519
  0
LINE
  8
0
 10
310.494
 20
7.6519
 11
314.912
 21
0
  0
LINE
  8
0
 10
314.912
 20
0
 11
310.494
 21
-7.6519
  0
LINE
  8
0
 10
310.494
 20
-7.6519
 11
301.659
 21
-7.6519
  0
LINE
  8
0
 10
-35.0255
 20
-7.6519
 11
-39.4433
 21
0
  0
LINE
  8
0
 10
-39.4433
 20
0
 11
-35.0255
 21
7.6519
  0
LINE
  8
0
 10
-35.0255
 20
7.6519
 11
-26.1898
 21
7.6519
  0
LINE
  8
0
 10
-26.1898
 20
7.6519
 11
-21.772
 21
0
  0
LINE
  8
0
 10
-21.772
 20
0
 11
-26.1898
 21
-7.6519
  0
LINE
  8
0
 10
-26.1898
 20
-7.6519
 11
-35.0255
 21
-7.6519
  0
LINE
  8
0
 10
148.62
 20
-7.6519
 11
144.203
 21
0
  0
LINE
  8
0
 10
144.203
 20
0
 11
148.62
 21
7.6519
  0
LINE
  8
0
 10
148.62
 20
7.6519
 11
157.456
 21
7.6519
  0
LINE
  8
0
 10
157.456
 20
7.6519
 11
161.874
 21
0
  0
LINE
  8
0
 10
161.874
 20
0
 11
157.456
 21
-7.6519
  0
LINE
  8
0
 10
157.456
 20
-7.6519
 11
148.62
 21
-7.6519
  0
LINE
  8
0
 10
-4.41783
 20
-7.6519
 11
-8.83566
 21
0
  0
LINE
  8
0
 10
-8.83566
 20
0
 11
-4.41783
 21
7.6519
  0
LINE
  8
0
 10
-4.41783
 20
7.6519
 11
4.41783
 21
7.6519
  0
LINE
  8
0
 10
4.41783
 20
7.6519
 11
8.83566
 21
0
  0
LINE
  8
0
 10
8.83566
 20
0
 11
4.41783
 21
-7.6519
  0
LINE
  8
0
 10
4.41783
 20
-7.6519
 11
-4.41783
 21
-7.6519
  0
LINE
  8
0
 10
26.1898
 20
-7.6519
 11
21.772
 21
0
  0
LINE
  8
0
 10
21.772
 20
0
 11
26.1898
 21
7.6519
  0
LINE
  8
0
 10
26.1898
 20
7.6519
 11
35.0255
 21
7.6519
  0
LINE
  8
0
 10
35.0255
 20
7.6519
 11
39.4433
 21
0
  0
LINE
  8
0
 10
39.4433
 20
0
 11
35.0255
 21
-7.6519
  0
LINE
  8
0
 10
35.0255
 20
-7.6519
 11
26.1898
 21
-7.6519
  0
LINE
  8
0
 10
-126.848
 20
-7.6519
 11
-131.266
 21
0
  0
LINE
  8
0
 10
-131.266
 20
0
 11
-126.848
 21
7.6519
  0
LINE
  8
0
 10
-126.848
 20
7.6519
 11
-118.013
 21
7.6519
  0
LINE
  8
0
 10
-118.013
 20
7.6519
 11
-113.595
 21
0
  0
LINE
  8
0
 10
-113.595
 20
0
 11
-118.013
 21
-7.6519
  0
LINE
  8
0
 10
-118.013
 20
-7.6519
 11
-126.848
 21
-7.6519
  0
LINE
  8
0
 10
87.4051
 20
-7.6519
 11
82.9873
 21
0
  0
LINE
  8
0
 10
82.9873
 20
0
 11
87.4051
 21
7.6519
  0
LINE
  8
0
 10
87.4051
 20
7.6519
 11
96.2408
 21
7.6519
  0
LINE
  8
0
 10
96.2408
 20
7.6519
 11
100.659
 21
0
  0
LINE
  8
0
 10
100.659
 20
0
 11
96.2408
 21
-7.6519
  0
LINE
  8
0
 10
96.2408
 20
-7.6519
 11
87.4051
 21
-7.6519
  0
LINE
  8
0
 10
118.013
 20
-7.6519
 11
113.595
 21
0
  0
LINE
  8
0
 10
113.595
 20
0
 11
118.013
 21
7.6519
  0
LINE
  8
0
 10
118.013
 20
7.6519
 11
126.848
 21
7.6519
  0
LINE
  8
0
 10
126.848
 20
7.6519
 11
131.266
 21
0
  0
LINE
  8
0
 10
131.266
 20
0
 11
126.848
 21
-7.6519
  0
LINE
  8
0
 10
126.848
 20
-7.6519
 11
118.013
 21
-7.6519
  0
LINE
  8
0
 10
207.284
 20
3.2326
 11
207.284
 21
-3.2326
  0
LINE
  8
0
 10
207.284
 20
-3.2326
 11
205.418
 21
0
  0
LINE
  8
0
 10
205.418
 20
0
 11
207.284
 21
3.2326
  0
LINE
  8
0
 10
289.834
 20
-1.18375
 11
295.19
 21
-1.18375
  0
LINE
  8
0
 10
295.19
 20
-1.18375
 11
299.608
 21
-8.83566
  0
LINE
  8
0
 10
299.608
 20
-8.83566
 11
295.19
 21
-16.4876
  0
LINE
  8
0
 10
295.19
 20
-16.4876
 11
289.834
 21
-16.4876
  0
LINE
  8
0
 10
289.834
 20
-16.4876
 11
289.834
 21
-1.18375
  0
LINE
  8
0
 10
-80.9369
 20
-16.4876
 11
-85.3548
 21
-8.83566
  0
LINE
  8
0
 10
-85.3548
 20
-8.83566
 11
-80.9369
 21
-1.18375
  0
LINE
  8
0
 10
-80.9369
 20
-1.18375
 11
-72.1013
 21
-1.18375
  0
LINE
  8
0
 10
-72.1013
 20
-1.18375
 11
-67.6834
 21
-8.83566
  0
LINE
  8
0
 10
-67.6834
 20
-8.83566
 11
-72.1013
 21
-16.4876
  0
LINE
  8
0
 10
-72.1013
 20
-16.4876
 11
-80.9369
 21
-16.4876
  0
LINE
  8
0
 10
10.886
 20
-16.4876
 11
6.46815
 21
-8.83566
  0
LINE
  8
0
 10
6.46815
 20
-8.83566
 11
10.886
 21
-1.18375
  0
LINE
  8
0
 10
10.886
 20
-1.18375
 11
19.7216
 21
-1.18375
  0
LINE
  8
0
 10
19.7216
 20
-1.18375
 11
24.1395
 21
-8.83566
  0
LINE
  8
0
 10
24.1395
 20
-8.83566
 11
19.7216
 21
-16.4876
  0
LINE
  8
0
 10
19.7216
 20
-16.4876
 11
10.886
 21
-16.4876
  0
LINE
  8
0
 10
-111.545
 20
-16.4876
 11
-115.962
 21
-8.83566
  0
LINE
  8
0
 10
-115.962
 20
-8.83566
 11
-111.545
 21
-1.18375
  0
LINE
  8
0
 10
-111.545
 20
-1.18375
 11
-102.709
 21
-1.18375
  0
LINE
  8
0
 10
-102.709
 20
-1.18375
 11
-98.2911
 21
-8.83566
  0
LINE
  8
0
 10
-98.2911
 20
-8.83566
 11
-102.709
 21
-16.4876
  0
LINE
  8
0
 10
-102.709
 20
-16.4876
 11
-111.545
 21
-16.4876
  0
LINE
  8
0
 10
316.962
 20
-16.4876
 11
312.545
 21
-8.83566
  0
LINE
  8
0
 10
312.545
 20
-8.83566
 11
316.962
 21
-1.18375
  0
LINE
  8
0
 10
316.962
 20
-1.18375
 11
325.798
 21
-1.18375
  0
LINE
  8
0
 10
325.798
 20
-1.18375
 11
330.216
 21
-8.83566
  0
LINE
  8
0
 10
330.216
 20
-8.83566
 11
325.798
 21
-16.4876
  0
LINE
  8
0
 10
325.798
 20
-16.4876
 11
316.962
 21
-16.4876
  0
LINE
  8
0
 10
-50.3293
 20
-16.4876
 11
-54.7471
 21
-8.83566
  0
LINE
  8
0
 10
-54.7471
 20
-8.83566
 11
-50.3293
 21
-1.18375
  0
LINE
  8
0
 10
-50.3293
 20
-1.18375
 11
-41.4936
 21
-1.18375
  0
LINE
  8
0
 10
-41.4936
 20
-1.18375
 11
-37.0758
 21
-8.83566
  0
LINE
  8
0
 10
-37.0758
 20
-8.83566
 11
-41.4936
 21
-16.4876
  0
LINE
  8
0
 10
-41.4936
 20
-16.4876
 11
-50.3293
 21
-16.4876
  0
LINE
  8
0
 10
133.317
 20
-16.4876
 11
128.899
 21
-8.83566
  0
LINE
  8
0
 10
128.899
 20
-8.83566
 11
133.317
 21
-1.18375
  0
LINE
  8
0
 10
133.317
 20
-1.18375
 11
142.152
 21
-1.18375
  0
LINE
  8
0
 10
142.152
 20
-1.18375
 11
146.57
 21
-8.83566
  0
LINE
  8
0
 10
146.57
 20
-8.83566
 11
142.152
 21
-16.4876
  0
LINE
  8
0
 10
142.152
 20
-16.4876
 11
133.317
 21
-16.4876
  0
LINE
  8
0
 10
-19.7216
 20
-16.4876
 11
-24.1395
 21
-8.83566
  0
LINE
  8
0
 10
-24.1395
 20
-8.83566
 11
-19.7216
 21
-1.18375
  0
LINE
  8
0
 10
-19.7216
 20
-1.18375
 11
-10.886
 21
-1.18375
  0
LINE
  8
0
 10
-10.886
 20
-1.18375
 11
-6.46815
 21
-8.83566
  0
LINE
  8
0
 10
-6.46815
 20
-8.83566
 11
-10.886
 21
-16.4876
  0
LINE
  8
0
 10
-10.886
 20
-16.4876
 11
-19.7216
 21
-16.4876
  0
LINE
  8
0
 10
163.924
 20
-16.4876
 11
159.506
 21
-8.83566
  0
LINE
  8
0
 10
159.506
 20
-8.83566
 11
163.924
 21
-1.18375
  0
LINE
  8
0
 10
163.924
 20
-1.18375
 11
172.76
 21
-1.18375
  0
LINE
  8
0
 10
172.76
 20
-1.18375
 11
177.178
 21
-8.83566
  0
LINE
  8
0
 10
177.178
 20
-8.83566
 11
172.76
 21
-16.4876
  0
LINE
  8
0
 10
172.76
 20
-16.4876
 11
163.924
 21
-16.4876
  0
LINE
  8
0
 10
-142.152
 20
-16.4876
 11
-146.57
 21
-8.83566
  0
LINE
  8
0
 10
-146.57
 20
-8.83566
 11
-142.152
 21
-1.18375
  0
LINE
  8
0
 10
-142.152
 20
-1.18375
 11
-133.317
 21
-1.18375
  0
LINE
  8
0
 10
-133.317
 20
-1.18375
 11
-128.899
 21
-8.83566
  0
LINE
  8
0
 10
-128.899
 20
-8.83566
 11
-133.317
 21
-16.4876
  0
LINE
  8
0
 10
-133.317
 20
-16.4876
 11
-142.152
 21
-16.4876
  0
LINE
  8
0
 10
72.1013
 20
-16.4876
 11
67.6834
 21
-8.83566
  0
LINE
  8
0
 10
67.6834
 20
-8.83566
 11
72.1013
 21
-1.18375
  0
LINE
  8
0
 10
72.1013
 20
-1.18375
 11
80.9369
 21
-1.18375
  0
LINE
  8
0
 10
80.9369
 20
-1.18375
 11
85.3548
 21
-8.83566
  0
LINE
  8
0
 10
85.3548
 20
-8.83566
 11
80.9369
 21
-16.4876
  0
LINE
  8
0
 10
80.9369
 20
-16.4876
 11
72.1013
 21
-16.4876
  0
LINE
  8
0
 10
41.4936
 20
-16.4876
 11
37.0758
 21
-8.83566
  0
LINE
  8
0
 10
37.0758
 20
-8.83566
 11
41.4936
 21
-1.18375
  0
LINE
  8
0
 10
41.4936
 20
-1.18375
 11
50.3293
 21
-1.18375
  0
LINE
  8
0
 10
50.3293
 20
-1.18375
 11
54.7471
 21
-8.83566
  0
LINE
  8
0
 10
54.7471
 20
-8.83566
 11
50.3293
 21
-16.4876
  0
LINE
  8
0
 10
50.3293
 20
-16.4876
 11
41.4936
 21
-16.4876
  0
LINE
  8
0
 10
102.709
 20
-16.4876
 11
98.2911
 21
-8.83566
  0
LINE
  8
0
 10
98.2911
 20
-8.83566
 11
102.709
 21
-1.18375
  0
LINE
  8
0
 10
102.709
 20
-1.18375
 11
111.545
 21
-1.18375
  0
LINE
  8
0
 10
111.545
 20
-1.18375
 11
115.962
 21
-8.83566
  0
LINE
  8
0
 10
115.962
 20
-8.83566
 11
111.545
 21
-16.4876
  0
LINE
  8
0
 10
111.545
 20
-16.4876
 11
102.709
 21
-16.4876
  0
LINE
  8
0
 10
-153.268
 20
-10.0194
 11
-148.62
 21
-10.0194
  0
LINE
  8
0
 10
-148.62
 20
-10.0194
 11
-144.203
 21
-17.6713
  0
LINE
  8
0
 10
-144.203
 20
-17.6713
 11
-148.62
 21
-25.3232
  0
LINE
  8
0
 10
-148.62
 20
-25.3232
 11
-153.268
 21
-25.3232
  0
LINE
  8
0
 10
-153.268
 20
-25.3232
 11
-153.268
 21
-10.0194
  0
LINE
  8
0
 10
148.62
 20
-25.3232
 11
144.203
 21
-17.6713
  0
LINE
  8
0
 10
144.203
 20
-17.6713
 11
148.62
 21
-10.0194
  0
LINE
  8
0
 10
148.62
 20
-10.0194
 11
157.456
 21
-10.0194
  0
LINE
  8
0
 10
157.456
 20
-10.0194
 11
161.874
 21
-17.6713
  0
LINE
  8
0
 10
161.874
 20
-17.6713
 11
157.456
 21
-25.3232
  0
LINE
  8
0
 10
157.456
 20
-25.3232
 11
148.62
 21
-25.3232
  0
LINE
  8
0
 10
-35.0255
 20
-25.3232
 11
-39.4433
 21
-17.6713
  0
LINE
  8
0
 10
-39.4433
 20
-17.6713
 11
-35.0255
 21
-10.0194
  0
LINE
  8
0
 10
-35.0255
 20
-10.0194
 11
-26.1898
 21
-10.0194
  0
LINE
  8
0
 10
-26.1898
 20
-10.0194
 11
-21.772
 21
-17.6713
  0
LINE
  8
0
 10
-21.772
 20
-17.6713
 11
-26.1898
 21
-25.3232
  0
LINE
  8
0
 10
-26.1898
 20
-25.3232
 11
-35.0255
 21
-25.3232
  0
LINE
  8
0
 10
-4.41783
 20
-25.3232
 11
-8.83566
 21
-17.6713
  0
LINE
  8
0
 10
-8.83566
 20
-17.6713
 11
-4.41783
 21
-10.0194
  0
LINE
  8
0
 10
-4.41783
 20
-10.0194
 11
4.41783
 21
-10.0194
  0
LINE
  8
0
 10
4.41783
 20
-10.0194
 11
8.83566
 21
-17.6713
  0
LINE
  8
0
 10
8.83566
 20
-17.6713
 11
4.41783
 21
-25.3232
  0
LINE
  8
0
 10
4.41783
 20
-25.3232
 11
-4.41783
 21
-25.3232
  0
LINE
  8
0
 10
118.013
 20
-25.3232
 11
113.595
 21
-17.6713
  0
LINE
  8
0
 10
113.595
 20
-17.6713
 11
118.013
 21
-10.0194
  0
LINE
  8
0
 10
118.013
 20
-10.0194
 11
126.848
 21
-10.0194
  0
LINE
  8
0
 10
126.848
 20
-10.0194
 11
131.266
 21
-17.6713
  0
LINE
  8
0
 10
131.266
 20
-17.6713
 11
126.848
 21
-25.3232
  0
LINE
  8
0
 10
126.848
 20
-25.3232
 11
118.013
 21
-25.3232
  0
LINE
  8
0
 10
-96.2408
 20
-25.3232
 11
-100.659
 21
-17.6713
  0
LINE
  8
0
 10
-100.659
 20
-17.6713
 11
-96.2408
 21
-10.0194
  0
LINE
  8
0
 10
-96.2408
 20
-10.0194
 11
-87.4051
 21
-10.0194
  0
LINE
  8
0
 10
-87.4051
 20
-10.0194
 11
-82.9873
 21
-17.6713
  0
LINE
  8
0
 10
-82.9873
 20
-17.6713
 11
-87.4051
 21
-25.3232
  0
LINE
  8
0
 10
-87.4051
 20
-25.3232
 11
-96.2408
 21
-25.3232
  0
LINE
  8
0
 10
56.7974
 20
-25.3232
 11
52.3796
 21
-17.6713
  0
LINE
  8
0
 10
52.3796
 20
-17.6713
 11
56.7974
 21
-10.0194
  0
LINE
  8
0
 10
56.7974
 20
-10.0194
 11
65.6331
 21
-10.0194
  0
LINE
  8
0
 10
65.6331
 20
-10.0194
 11
70.0509
 21
-17.6713
  0
LINE
  8
0
 10
70.0509
 20
-17.6713
 11
65.6331
 21
-25.3232
  0
LINE
  8
0
 10
65.6331
 20
-25.3232
 11
56.7974
 21
-25.3232
  0
LINE
  8
0
 10
87.4051
 20
-25.3232
 11
82.9873
 21
-17.6713
  0
LINE
  8
0
 10
82.9873
 20
-17.6713
 11
87.4051
 21
-10.0194
  0
LINE
  8
0
 10
87.4051
 20
-10.0194
 11
96.2408
 21
-10.0194
  0
LINE
  8
0
 10
96.2408
 20
-10.0194
 11
100.659
 21
-17.6713
  0
LINE
  8
0
 10
100.659
 20
-17.6713
 11
96.2408
 21
-25.3232
  0
LINE
  8
0
 10
96.2408
 20
-25.3232
 11
87.4051
 21
-25.3232
  0
LINE
  8
0
 10
-65.6331
 20
-25.3232
 11
-70.0509
 21
-17.6713
  0
LINE
  8
0
 10
-70.0509
 20
-17.6713
 11
-65.6331
 21
-10.0194
  0
LINE
  8
0
 10
-65.6331
 20
-10.0194
 11
-56.7974
 21
-10.0194
  0
LINE
  8
0
 10
-56.7974
 20
-10.0194
 11
-52.3796
 21
-17.6713
  0
LINE
  8
0
 10
-52.3796
 20
-17.6713
 11
-56.7974
 21
-25.3232
  0
LINE
  8
0
 10
-56.7974
 20
-25.3232
 11
-65.6331
 21
-25.3232
  0
LINE
  8
0
 10
179.228
 20
-25.3232
 11
174.81
 21
-17.6713
  0
LINE
  8
0
 10
174.81
 20
-17.6713
 11
179.228
 21
-10.0194
  0
LINE
  8
0
 10
179.228
 20
-10.0194
 11
188.064
 21
-10.0194
  0
LINE
  8
0
 10
188.064
 20
-10.0194
 11
192.482
 21
-17.6713
  0
LINE
  8
0
 10
192.482
 20
-17.6713
 11
188.064
 21
-25.3232
  0
LINE
  8
0
 10
188.064
 20
-25.3232
 11
179.228
 21
-25.3232
  0
LINE
  8
0
 10
301.659
 20
-25.3232
 11
297.241
 21
-17.6713
  0
LINE
  8
0
 10
297.241
 20
-17.6713
 11
301.659
 21
-10.0194
  0
LINE
  8
0
 10
301.659
 20
-10.0194
 11
310.494
 21
-10.0194
  0
LINE
  8
0
 10
310.494
 20
-10.0194
 11
314.912
 21
-17.6713
  0
LINE
  8
0
 10
314.912
 20
-17.6713
 11
310.494
 21
-25.3232
  0
LINE
  8
0
 10
310.494
 20
-25.3232
 11
301.659
 21
-25.3232
  0
LINE
  8
0
 10
-126.848
 20
-25.3232
 11
-131.266
 21
-17.6713
  0
LINE
  8
0
 10
-131.266
 20
-17.6713
 11
-126.848
 21
-10.0194
  0
LINE
  8
0
 10
-126.848
 20
-10.0194
 11
-118.013
 21
-10.0194
  0
LINE
  8
0
 10
-118.013
 20
-10.0194
 11
-113.595
 21
-17.6713
  0
LINE
  8
0
 10
-113.595
 20
-17.6713
 11
-118.013
 21
-25.3232
  0
LINE
  8
0
 10
-118.013
 20
-25.3232
 11
-126.848
 21
-25.3232
  0
LINE
  8
0
 10
26.1898
 20
-25.3232
 11
21.772
 21
-17.6713
  0
LINE
  8
0
 10
21.772
 20
-17.6713
 11
26.1898
 21
-10.0194
  0
LINE
  8
0
 10
26.1898
 20
-10.0194
 11
35.0255
 21
-10.0194
  0
LINE
  8
0
 10
35.0255
 20
-10.0194
 11
39.4433
 21
-17.6713
  0
LINE
  8
0
 10
39.4433
 20
-17.6713
 11
35.0255
 21
-25.3232
  0
LINE
  8
0
 10
35.0255
 20
-25.3232
 11
26.1898
 21
-25.3232
  0
LINE
  8
0
 10
327.848
 20
-17.6713
 11
331.542
 21
-11.274
  0
LINE
  8
0
 10
331.542
 20
-11.274
 11
330.717
 21
-13.9375
  0
LINE
  8
0
 10
330.717
 20
-13.9375
 11
328.297
 21
-18.4476
  0
LINE
  8
0
 10
328.297
 20
-18.4476
 11
327.848
 21
-17.6713
  0
LINE
  8
0
 10
207.284
 20
-14.4387
 11
207.284
 21
-20.9039
  0
LINE
  8
0
 10
207.284
 20
-20.9039
 11
205.418
 21
-17.6713
  0
LINE
  8
0
 10
205.418
 20
-17.6713
 11
207.284
 21
-14.4387
  0
LINE
  8
0
 10
280.259
 20
-23.8125
 11
280.109
 21
-23.8066
  0
LINE
  8
0
 10
280.109
 20
-23.8066
 11
280.01
 21
-23.7988
  0
LINE
  8
0
 10
280.01
 20
-23.7988
 11
279.861
 21
-23.7812
  0
LINE
  8
0
 10
279.861
 20
-23.7812
 11
279.763
 21
-23.7656
  0
LINE
  8
0
 10
279.763
 20
-23.7656
 11
279.616
 21
-23.7363
  0
LINE
  8
0
 10
279.616
 20
-23.7363
 11
279.471
 21
-23.7002
  0
LINE
  8
0
 10
279.471
 20
-23.7002
 11
279.28
 21
-23.6416
  0
LINE
  8
0
 10
279.28
 20
-23.6416
 11
279.14
 21
-23.5898
  0
LINE
  8
0
 10
279.14
 20
-23.5898
 11
278.957
 21
-23.5107
  0
LINE
  8
0
 10
278.957
 20
-23.5107
 11
278.867
 21
-23.4668
  0
LINE
  8
0
 10
278.867
 20
-23.4668
 11
278.735
 21
-23.3955
  0
LINE
  8
0
 10
278.735
 20
-23.3955
 11
278.607
 21
-23.3184
  0
LINE
  8
0
 10
278.607
 20
-23.3184
 11
278.483
 21
-23.2354
  0
LINE
  8
0
 10
278.483
 20
-23.2354
 11
278.402
 21
-23.1768
  0
LINE
  8
0
 10
278.402
 20
-23.1768
 11
278.285
 21
-23.084
  0
LINE
  8
0
 10
278.285
 20
-23.084
 11
278.209
 21
-23.0195
  0
LINE
  8
0
 10
278.209
 20
-23.0195
 11
278.063
 21
-22.8828
  0
LINE
  8
0
 10
278.063
 20
-22.8828
 11
277.927
 21
-22.7373
  0
LINE
  8
0
 10
277.927
 20
-22.7373
 11
277.831
 21
-22.623
  0
LINE
  8
0
 10
277.831
 20
-22.623
 11
277.74
 21
-22.5039
  0
LINE
  8
0
 10
277.74
 20
-22.5039
 11
277.655
 21
-22.3809
  0
LINE
  8
0
 10
277.655
 20
-22.3809
 11
277.602
 21
-22.2969
  0
LINE
  8
0
 10
277.602
 20
-22.2969
 11
277.526
 21
-22.167
  0
LINE
  8
0
 10
277.526
 20
-22.167
 11
277.479
 21
-22.0791
  0
LINE
  8
0
 10
277.479
 20
-22.0791
 11
277.395
 21
-21.8984
  0
LINE
  8
0
 10
277.395
 20
-21.8984
 11
277.356
 21
-21.8066
  0
LINE
  8
0
 10
277.356
 20
-21.8066
 11
277.305
 21
-21.666
  0
LINE
  8
0
 10
277.305
 20
-21.666
 11
277.26
 21
-21.5234
  0
LINE
  8
0
 10
277.26
 20
-21.5234
 11
277.21
 21
-21.3301
  0
LINE
  8
0
 10
277.21
 20
-21.3301
 11
277.181
 21
-21.1836
  0
LINE
  8
0
 10
277.181
 20
-21.1836
 11
277.165
 21
-21.085
  0
LINE
  8
0
 10
277.165
 20
-21.085
 11
277.147
 21
-20.9365
  0
LINE
  8
0
 10
277.147
 20
-20.9365
 11
277.14
 21
-20.8369
  0
LINE
  8
0
 10
277.14
 20
-20.8369
 11
277.134
 21
-20.6875
  0
LINE
  8
0
 10
277.134
 20
-20.6875
 11
277.134
 21
-20.5879
  0
LINE
  8
0
 10
277.134
 20
-20.5879
 11
277.14
 21
-20.4385
  0
LINE
  8
0
 10
277.14
 20
-20.4385
 11
277.147
 21
-20.3389
  0
LINE
  8
0
 10
277.147
 20
-20.3389
 11
277.165
 21
-20.1904
  0
LINE
  8
0
 10
277.165
 20
-20.1904
 11
277.181
 21
-20.0918
  0
LINE
  8
0
 10
277.181
 20
-20.0918
 11
277.21
 21
-19.9453
  0
LINE
  8
0
 10
277.21
 20
-19.9453
 11
277.246
 21
-19.7998
  0
LINE
  8
0
 10
277.246
 20
-19.7998
 11
277.289
 21
-19.6562
  0
LINE
  8
0
 10
277.289
 20
-19.6562
 11
277.321
 21
-19.5615
  0
LINE
  8
0
 10
277.321
 20
-19.5615
 11
277.375
 21
-19.4229
  0
LINE
  8
0
 10
277.375
 20
-19.4229
 11
277.436
 21
-19.2861
  0
LINE
  8
0
 10
277.436
 20
-19.2861
 11
277.503
 21
-19.1514
  0
LINE
  8
0
 10
277.503
 20
-19.1514
 11
277.551
 21
-19.0645
  0
LINE
  8
0
 10
277.551
 20
-19.0645
 11
277.628
 21
-18.9365
  0
LINE
  8
0
 10
277.628
 20
-18.9365
 11
277.711
 21
-18.8115
  0
LINE
  8
0
 10
277.711
 20
-18.8115
 11
277.8
 21
-18.6914
  0
LINE
  8
0
 10
277.8
 20
-18.6914
 11
277.895
 21
-18.5752
  0
LINE
  8
0
 10
277.895
 20
-18.5752
 11
277.994
 21
-18.4639
  0
LINE
  8
0
 10
277.994
 20
-18.4639
 11
278.1
 21
-18.3574
  0
LINE
  8
0
 10
278.1
 20
-18.3574
 11
278.209
 21
-18.2559
  0
LINE
  8
0
 10
278.209
 20
-18.2559
 11
278.323
 21
-18.1592
  0
LINE
  8
0
 10
278.323
 20
-18.1592
 11
278.483
 21
-18.04
  0
LINE
  8
0
 10
278.483
 20
-18.04
 11
278.565
 21
-17.9834
  0
LINE
  8
0
 10
278.565
 20
-17.9834
 11
278.692
 21
-17.9043
  0
LINE
  8
0
 10
278.692
 20
-17.9043
 11
278.779
 21
-17.8555
  0
LINE
  8
0
 10
278.779
 20
-17.8555
 11
278.912
 21
-17.7861
  0
LINE
  8
0
 10
278.912
 20
-17.7861
 11
279.048
 21
-17.7236
  0
LINE
  8
0
 10
279.048
 20
-17.7236
 11
279.187
 21
-17.667
  0
LINE
  8
0
 10
279.187
 20
-17.667
 11
279.375
 21
-17.6025
  0
LINE
  8
0
 10
279.375
 20
-17.6025
 11
279.567
 21
-17.5498
  0
LINE
  8
0
 10
279.567
 20
-17.5498
 11
279.714
 21
-17.5186
  0
LINE
  8
0
 10
279.714
 20
-17.5186
 11
279.861
 21
-17.4941
  0
LINE
  8
0
 10
279.861
 20
-17.4941
 11
279.96
 21
-17.4814
  0
LINE
  8
0
 10
279.96
 20
-17.4814
 11
280.159
 21
-17.4658
  0
LINE
  8
0
 10
280.159
 20
-17.4658
 11
280.259
 21
-17.4629
  0
LINE
  8
0
 10
280.259
 20
-17.4629
 11
280.407
 21
-17.4639
  0
LINE
  8
0
 10
280.407
 20
-17.4639
 11
280.556
 21
-17.4717
  0
LINE
  8
0
 10
280.556
 20
-17.4717
 11
280.752
 21
-17.4932
  0
LINE
  8
0
 10
280.752
 20
-17.4932
 11
280.897
 21
-17.5176
  0
LINE
  8
0
 10
280.897
 20
-17.5176
 11
280.995
 21
-17.5371
  0
LINE
  8
0
 10
280.995
 20
-17.5371
 11
281.187
 21
-17.5859
  0
LINE
  8
0
 10
281.187
 20
-17.5859
 11
281.327
 21
-17.6299
  0
LINE
  8
0
 10
281.327
 20
-17.6299
 11
281.467
 21
-17.6807
  0
LINE
  8
0
 10
281.467
 20
-17.6807
 11
281.604
 21
-17.7383
  0
LINE
  8
0
 10
281.604
 20
-17.7383
 11
281.737
 21
-17.8018
  0
LINE
  8
0
 10
281.737
 20
-17.8018
 11
281.868
 21
-17.8711
  0
LINE
  8
0
 10
281.868
 20
-17.8711
 11
281.953
 21
-17.9209
  0
LINE
  8
0
 10
281.953
 20
-17.9209
 11
282.078
 21
-18.001
  0
LINE
  8
0
 10
282.078
 20
-18.001
 11
282.199
 21
-18.0859
  0
LINE
  8
0
 10
282.199
 20
-18.0859
 11
282.277
 21
-18.1465
  0
LINE
  8
0
 10
282.277
 20
-18.1465
 11
282.429
 21
-18.2734
  0
LINE
  8
0
 10
282.429
 20
-18.2734
 11
282.536
 21
-18.375
  0
LINE
  8
0
 10
282.536
 20
-18.375
 11
282.64
 21
-18.4814
  0
LINE
  8
0
 10
282.64
 20
-18.4814
 11
282.737
 21
-18.5928
  0
LINE
  8
0
 10
282.737
 20
-18.5928
 11
282.8
 21
-18.6689
  0
LINE
  8
0
 10
282.8
 20
-18.6689
 11
282.86
 21
-18.7471
  0
LINE
  8
0
 10
282.86
 20
-18.7471
 11
282.973
 21
-18.9092
  0
LINE
  8
0
 10
282.973
 20
-18.9092
 11
283.025
 21
-18.9932
  0
LINE
  8
0
 10
283.025
 20
-18.9932
 11
283.075
 21
-19.0781
  0
LINE
  8
0
 10
283.075
 20
-19.0781
 11
283.145
 21
-19.209
  0
LINE
  8
0
 10
283.145
 20
-19.209
 11
283.208
 21
-19.3428
  0
LINE
  8
0
 10
283.208
 20
-19.3428
 11
283.266
 21
-19.4795
  0
LINE
  8
0
 10
283.266
 20
-19.4795
 11
283.316
 21
-19.6191
  0
LINE
  8
0
 10
283.316
 20
-19.6191
 11
283.36
 21
-19.7598
  0
LINE
  8
0
 10
283.36
 20
-19.7598
 11
283.409
 21
-19.9512
  0
LINE
  8
0
 10
283.409
 20
-19.9512
 11
283.438
 21
-20.0967
  0
LINE
  8
0
 10
283.438
 20
-20.0967
 11
283.453
 21
-20.1943
  0
LINE
  8
0
 10
283.453
 20
-20.1943
 11
283.475
 21
-20.3906
  0
LINE
  8
0
 10
283.475
 20
-20.3906
 11
283.482
 21
-20.5391
  0
LINE
  8
0
 10
283.482
 20
-20.5391
 11
283.482
 21
-20.7363
  0
LINE
  8
0
 10
283.482
 20
-20.7363
 11
283.475
 21
-20.8838
  0
LINE
  8
0
 10
283.475
 20
-20.8838
 11
283.465
 21
-20.9824
  0
LINE
  8
0
 10
283.465
 20
-20.9824
 11
283.453
 21
-21.0801
  0
LINE
  8
0
 10
283.453
 20
-21.0801
 11
283.429
 21
-21.2266
  0
LINE
  8
0
 10
283.429
 20
-21.2266
 11
283.409
 21
-21.3232
  0
LINE
  8
0
 10
283.409
 20
-21.3232
 11
283.36
 21
-21.5146
  0
LINE
  8
0
 10
283.36
 20
-21.5146
 11
283.316
 21
-21.6562
  0
LINE
  8
0
 10
283.316
 20
-21.6562
 11
283.266
 21
-21.7949
  0
LINE
  8
0
 10
283.266
 20
-21.7949
 11
283.208
 21
-21.9316
  0
LINE
  8
0
 10
283.208
 20
-21.9316
 11
283.145
 21
-22.0654
  0
LINE
  8
0
 10
283.145
 20
-22.0654
 11
283.075
 21
-22.1963
  0
LINE
  8
0
 10
283.075
 20
-22.1963
 11
283.025
 21
-22.2812
  0
LINE
  8
0
 10
283.025
 20
-22.2812
 11
282.945
 21
-22.4062
  0
LINE
  8
0
 10
282.945
 20
-22.4062
 11
282.86
 21
-22.5273
  0
LINE
  8
0
 10
282.86
 20
-22.5273
 11
282.8
 21
-22.6064
  0
LINE
  8
0
 10
282.8
 20
-22.6064
 11
282.737
 21
-22.6826
  0
LINE
  8
0
 10
282.737
 20
-22.6826
 11
282.64
 21
-22.7939
  0
LINE
  8
0
 10
282.64
 20
-22.7939
 11
282.536
 21
-22.9004
  0
LINE
  8
0
 10
282.536
 20
-22.9004
 11
282.392
 21
-23.0342
  0
LINE
  8
0
 10
282.392
 20
-23.0342
 11
282.277
 21
-23.1289
  0
LINE
  8
0
 10
282.277
 20
-23.1289
 11
282.159
 21
-23.2178
  0
LINE
  8
0
 10
282.159
 20
-23.2178
 11
282.078
 21
-23.2744
  0
LINE
  8
0
 10
282.078
 20
-23.2744
 11
281.953
 21
-23.3535
  0
LINE
  8
0
 10
281.953
 20
-23.3535
 11
281.824
 21
-23.4277
  0
LINE
  8
0
 10
281.824
 20
-23.4277
 11
281.648
 21
-23.5166
  0
LINE
  8
0
 10
281.648
 20
-23.5166
 11
281.467
 21
-23.5938
  0
LINE
  8
0
 10
281.467
 20
-23.5938
 11
281.374
 21
-23.6289
  0
LINE
  8
0
 10
281.374
 20
-23.6289
 11
281.233
 21
-23.6748
  0
LINE
  8
0
 10
281.233
 20
-23.6748
 11
281.091
 21
-23.7148
  0
LINE
  8
0
 10
281.091
 20
-23.7148
 11
280.946
 21
-23.748
  0
LINE
  8
0
 10
280.946
 20
-23.748
 11
280.85
 21
-23.7666
  0
LINE
  8
0
 10
280.85
 20
-23.7666
 11
280.703
 21
-23.7881
  0
LINE
  8
0
 10
280.703
 20
-23.7881
 11
280.506
 21
-23.8066
  0
LINE
  8
0
 10
280.506
 20
-23.8066
 11
280.358
 21
-23.8125
  0
LINE
  8
0
 10
280.358
 20
-23.8125
 11
280.259
 21
-23.8125
  0
LINE
  8
0
 10
216.759
 20
-23.8125
 11
216.609
 21
-23.8066
  0
LINE
  8
0
 10
216.609
 20
-23.8066
 11
216.51
 21
-23.7988
  0
LINE
  8
0
 10
216.51
 20
-23.7988
 11
216.361
 21
-23.7812
  0
LINE
  8
0
 10
216.361
 20
-23.7812
 11
216.263
 21
-23.7656
  0
LINE
  8
0
 10
216.263
 20
-23.7656
 11
216.116
 21
-23.7363
  0
LINE
  8
0
 10
216.116
 20
-23.7363
 11
215.971
 21
-23.7002
  0
LINE
  8
0
 10
215.971
 20
-23.7002
 11
215.78
 21
-23.6416
  0
LINE
  8
0
 10
215.78
 20
-23.6416
 11
215.64
 21
-23.5898
  0
LINE
  8
0
 10
215.64
 20
-23.5898
 11
215.457
 21
-23.5107
  0
LINE
  8
0
 10
215.457
 20
-23.5107
 11
215.367
 21
-23.4668
  0
LINE
  8
0
 10
215.367
 20
-23.4668
 11
215.235
 21
-23.3955
  0
LINE
  8
0
 10
215.235
 20
-23.3955
 11
215.107
 21
-23.3184
  0
LINE
  8
0
 10
215.107
 20
-23.3184
 11
214.983
 21
-23.2354
  0
LINE
  8
0
 10
214.983
 20
-23.2354
 11
214.902
 21
-23.1768
  0
LINE
  8
0
 10
214.902
 20
-23.1768
 11
214.785
 21
-23.084
  0
LINE
  8
0
 10
214.785
 20
-23.084
 11
214.709
 21
-23.0195
  0
LINE
  8
0
 10
214.709
 20
-23.0195
 11
214.563
 21
-22.8828
  0
LINE
  8
0
 10
214.563
 20
-22.8828
 11
214.427
 21
-22.7373
  0
LINE
  8
0
 10
214.427
 20
-22.7373
 11
214.331
 21
-22.623
  0
LINE
  8
0
 10
214.331
 20
-22.623
 11
214.24
 21
-22.5039
  0
LINE
  8
0
 10
214.24
 20
-22.5039
 11
214.155
 21
-22.3809
  0
LINE
  8
0
 10
214.155
 20
-22.3809
 11
214.102
 21
-22.2969
  0
LINE
  8
0
 10
214.102
 20
-22.2969
 11
214.026
 21
-22.167
  0
LINE
  8
0
 10
214.026
 20
-22.167
 11
213.979
 21
-22.0791
  0
LINE
  8
0
 10
213.979
 20
-22.0791
 11
213.895
 21
-21.8984
  0
LINE
  8
0
 10
213.895
 20
-21.8984
 11
213.856
 21
-21.8066
  0
LINE
  8
0
 10
213.856
 20
-21.8066
 11
213.805
 21
-21.666
  0
LINE
  8
0
 10
213.805
 20
-21.666
 11
213.76
 21
-21.5234
  0
LINE
  8
0
 10
213.76
 20
-21.5234
 11
213.71
 21
-21.3301
  0
LINE
  8
0
 10
213.71
 20
-21.3301
 11
213.681
 21
-21.1836
  0
LINE
  8
0
 10
213.681
 20
-21.1836
 11
213.665
 21
-21.085
  0
LINE
  8
0
 10
213.665
 20
-21.085
 11
213.647
 21
-20.9365
  0
LINE
  8
0
 10
213.647
 20
-20.9365
 11
213.64
 21
-20.8369
  0
LINE
  8
0
 10
213.64
 20
-20.8369
 11
213.634
 21
-20.6875
  0
LINE
  8
0
 10
213.634
 20
-20.6875
 11
213.634
 21
-20.5879
  0
LINE
  8
0
 10
213.634
 20
-20.5879
 11
213.64
 21
-20.4385
  0
LINE
  8
0
 10
213.64
 20
-20.4385
 11
213.647
 21
-20.3389
  0
LINE
  8
0
 10
213.647
 20
-20.3389
 11
213.665
 21
-20.1904
  0
LINE
  8
0
 10
213.665
 20
-20.1904
 11
213.681
 21
-20.0918
  0
LINE
  8
0
 10
213.681
 20
-20.0918
 11
213.71
 21
-19.9453
  0
LINE
  8
0
 10
213.71
 20
-19.9453
 11
213.746
 21
-19.7998
  0
LINE
  8
0
 10
213.746
 20
-19.7998
 11
213.789
 21
-19.6562
  0
LINE
  8
0
 10
213.789
 20
-19.6562
 11
213.821
 21
-19.5615
  0
LINE
  8
0
 10
213.821
 20
-19.5615
 11
213.875
 21
-19.4229
  0
LINE
  8
0
 10
213.875
 20
-19.4229
 11
213.936
 21
-19.2861
  0
LINE
  8
0
 10
213.936
 20
-19.2861
 11
214.003
 21
-19.1514
  0
LINE
  8
0
 10
214.003
 20
-19.1514
 11
214.051
 21
-19.0645
  0
LINE
  8
0
 10
214.051
 20
-19.0645
 11
214.128
 21
-18.9365
  0
LINE
  8
0
 10
214.128
 20
-18.9365
 11
214.211
 21
-18.8115
  0
LINE
  8
0
 10
214.211
 20
-18.8115
 11
214.3
 21
-18.6914
  0
LINE
  8
0
 10
214.3
 20
-18.6914
 11
214.395
 21
-18.5752
  0
LINE
  8
0
 10
214.395
 20
-18.5752
 11
214.494
 21
-18.4639
  0
LINE
  8
0
 10
214.494
 20
-18.4639
 11
214.6
 21
-18.3574
  0
LINE
  8
0
 10
214.6
 20
-18.3574
 11
214.709
 21
-18.2559
  0
LINE
  8
0
 10
214.709
 20
-18.2559
 11
214.823
 21
-18.1592
  0
LINE
  8
0
 10
214.823
 20
-18.1592
 11
214.983
 21
-18.04
  0
LINE
  8
0
 10
214.983
 20
-18.04
 11
215.065
 21
-17.9834
  0
LINE
  8
0
 10
215.065
 20
-17.9834
 11
215.192
 21
-17.9043
  0
LINE
  8
0
 10
215.192
 20
-17.9043
 11
215.279
 21
-17.8555
  0
LINE
  8
0
 10
215.279
 20
-17.8555
 11
215.412
 21
-17.7861
  0
LINE
  8
0
 10
215.412
 20
-17.7861
 11
215.548
 21
-17.7236
  0
LINE
  8
0
 10
215.548
 20
-17.7236
 11
215.687
 21
-17.667
  0
LINE
  8
0
 10
215.687
 20
-17.667
 11
215.875
 21
-17.6025
  0
LINE
  8
0
 10
215.875
 20
-17.6025
 11
216.067
 21
-17.5498
  0
LINE
  8
0
 10
216.067
 20
-17.5498
 11
216.214
 21
-17.5186
  0
LINE
  8
0
 10
216.214
 20
-17.5186
 11
216.361
 21
-17.4941
  0
LINE
  8
0
 10
216.361
 20
-17.4941
 11
216.46
 21
-17.4814
  0
LINE
  8
0
 10
216.46
 20
-17.4814
 11
216.659
 21
-17.4658
  0
LINE
  8
0
 10
216.659
 20
-17.4658
 11
216.759
 21
-17.4629
  0
LINE
  8
0
 10
216.759
 20
-17.4629
 11
216.907
 21
-17.4639
  0
LINE
  8
0
 10
216.907
 20
-17.4639
 11
217.056
 21
-17.4717
  0
LINE
  8
0
 10
217.056
 20
-17.4717
 11
217.252
 21
-17.4932
  0
LINE
  8
0
 10
217.252
 20
-17.4932
 11
217.397
 21
-17.5176
  0
LINE
  8
0
 10
217.397
 20
-17.5176
 11
217.495
 21
-17.5371
  0
LINE
  8
0
 10
217.495
 20
-17.5371
 11
217.687
 21
-17.5859
  0
LINE
  8
0
 10
217.687
 20
-17.5859
 11
217.827
 21
-17.6299
  0
LINE
  8
0
 10
217.827
 20
-17.6299
 11
217.967
 21
-17.6807
  0
LINE
  8
0
 10
217.967
 20
-17.6807
 11
218.104
 21
-17.7383
  0
LINE
  8
0
 10
218.104
 20
-17.7383
 11
218.237
 21
-17.8018
  0
LINE
  8
0
 10
218.237
 20
-17.8018
 11
218.368
 21
-17.8711
  0
LINE
  8
0
 10
218.368
 20
-17.8711
 11
218.453
 21
-17.9209
  0
LINE
  8
0
 10
218.453
 20
-17.9209
 11
218.578
 21
-18.001
  0
LINE
  8
0
 10
218.578
 20
-18.001
 11
218.699
 21
-18.0859
  0
LINE
  8
0
 10
218.699
 20
-18.0859
 11
218.777
 21
-18.1465
  0
LINE
  8
0
 10
218.777
 20
-18.1465
 11
218.929
 21
-18.2734
  0
LINE
  8
0
 10
218.929
 20
-18.2734
 11
219.036
 21
-18.375
  0
LINE
  8
0
 10
219.036
 20
-18.375
 11
219.14
 21
-18.4814
  0
LINE
  8
0
 10
219.14
 20
-18.4814
 11
219.237
 21
-18.5928
  0
LINE
  8
0
 10
219.237
 20
-18.5928
 11
219.3
 21
-18.6689
  0
LINE
  8
0
 10
219.3
 20
-18.6689
 11
219.36
 21
-18.7471
  0
LINE
  8
0
 10
219.36
 20
-18.7471
 11
219.473
 21
-18.9092
  0
LINE
  8
0
 10
219.473
 20
-18.9092
 11
219.525
 21
-18.9932
  0
LINE
  8
0
 10
219.525
 20
-18.9932
 11
219.575
 21
-19.0781
  0
LINE
  8
0
 10
219.575
 20
-19.0781
 11
219.645
 21
-19.209
  0
LINE
  8
0
 10
219.645
 20
-19.209
 11
219.708
 21
-19.3428
  0
LINE
  8
0
 10
219.708
 20
-19.3428
 11
219.766
 21
-19.4795
  0
LINE
  8
0
 10
219.766
 20
-19.4795
 11
219.816
 21
-19.6191
  0
LINE
  8
0
 10
219.816
 20
-19.6191
 11
219.86
 21
-19.7598
  0
LINE
  8
0
 10
219.86
 20
-19.7598
 11
219.909
 21
-19.9512
  0
LINE
  8
0
 10
219.909
 20
-19.9512
 11
219.938
 21
-20.0967
  0
LINE
  8
0
 10
219.938
 20
-20.0967
 11
219.953
 21
-20.1943
  0
LINE
  8
0
 10
219.953
 20
-20.1943
 11
219.975
 21
-20.3906
  0
LINE
  8
0
 10
219.975
 20
-20.3906
 11
219.982
 21
-20.5391
  0
LINE
  8
0
 10
219.982
 20
-20.5391
 11
219.982
 21
-20.7363
  0
LINE
  8
0
 10
219.982
 20
-20.7363
 11
219.975
 21
-20.8838
  0
LINE
  8
0
 10
219.975
 20
-20.8838
 11
219.965
 21
-20.9824
  0
LINE
  8
0
 10
219.965
 20
-20.9824
 11
219.953
 21
-21.0801
  0
LINE
  8
0
 10
219.953
 20
-21.0801
 11
219.929
 21
-21.2266
  0
LINE
  8
0
 10
219.929
 20
-21.2266
 11
219.909
 21
-21.3232
  0
LINE
  8
0
 10
219.909
 20
-21.3232
 11
219.86
 21
-21.5146
  0
LINE
  8
0
 10
219.86
 20
-21.5146
 11
219.816
 21
-21.6562
  0
LINE
  8
0
 10
219.816
 20
-21.6562
 11
219.766
 21
-21.7949
  0
LINE
  8
0
 10
219.766
 20
-21.7949
 11
219.708
 21
-21.9316
  0
LINE
  8
0
 10
219.708
 20
-21.9316
 11
219.645
 21
-22.0654
  0
LINE
  8
0
 10
219.645
 20
-22.0654
 11
219.575
 21
-22.1963
  0
LINE
  8
0
 10
219.575
 20
-22.1963
 11
219.525
 21
-22.2812
  0
LINE
  8
0
 10
219.525
 20
-22.2812
 11
219.445
 21
-22.4062
  0
LINE
  8
0
 10
219.445
 20
-22.4062
 11
219.36
 21
-22.5273
  0
LINE
  8
0
 10
219.36
 20
-22.5273
 11
219.3
 21
-22.6064
  0
LINE
  8
0
 10
219.3
 20
-22.6064
 11
219.237
 21
-22.6826
  0
LINE
  8
0
 10
219.237
 20
-22.6826
 11
219.14
 21
-22.7939
  0
LINE
  8
0
 10
219.14
 20
-22.7939
 11
219.036
 21
-22.9004
  0
LINE
  8
0
 10
219.036
 20
-22.9004
 11
218.892
 21
-23.0342
  0
LINE
  8
0
 10
218.892
 20
-23.0342
 11
218.777
 21
-23.1289
  0
LINE
  8
0
 10
218.777
 20
-23.1289
 11
218.659
 21
-23.2178
  0
LINE
  8
0
 10
218.659
 20
-23.2178
 11
218.578
 21
-23.2744
  0
LINE
  8
0
 10
218.578
 20
-23.2744
 11
218.453
 21
-23.3535
  0
LINE
  8
0
 10
218.453
 20
-23.3535
 11
218.324
 21
-23.4277
  0
LINE
  8
0
 10
218.324
 20
-23.4277
 11
218.148
 21
-23.5166
  0
LINE
  8
0
 10
218.148
 20
-23.5166
 11
217.967
 21
-23.5938
  0
LINE
  8
0
 10
217.967
 20
-23.5938
 11
217.874
 21
-23.6289
  0
LINE
  8
0
 10
217.874
 20
-23.6289
 11
217.733
 21
-23.6748
  0
LINE
  8
0
 10
217.733
 20
-23.6748
 11
217.591
 21
-23.7148
  0
LINE
  8
0
 10
217.591
 20
-23.7148
 11
217.446
 21
-23.748
  0
LINE
  8
0
 10
217.446
 20
-23.748
 11
217.35
 21
-23.7666
  0
LINE
  8
0
 10
217.35
 20
-23.7666
 11
217.203
 21
-23.7881
  0
LINE
  8
0
 10
217.203
 20
-23.7881
 11
217.006
 21
-23.8066
  0
LINE
  8
0
 10
217.006
 20
-23.8066
 11
216.858
 21
-23.8125
  0
LINE
  8
0
 10
216.858
 20
-23.8125
 11
216.759
 21
-23.8125
  0
LINE
  8
0
 10
-162.843
 20
-23.8125
 11
-162.992
 21
-23.8066
  0
LINE
  8
0
 10
-162.992
 20
-23.8066
 11
-163.091
 21
-23.7988
  0
LINE
  8
0
 10
-163.091
 20
-23.7988
 11
-163.24
 21
-23.7812
  0
LINE
  8
0
 10
-163.24
 20
-23.7812
 11
-163.339
 21
-23.7656
  0
LINE
  8
0
 10
-163.339
 20
-23.7656
 11
-163.485
 21
-23.7363
  0
LINE
  8
0
 10
-163.485
 20
-23.7363
 11
-163.63
 21
-23.7002
  0
LINE
  8
0
 10
-163.63
 20
-23.7002
 11
-163.821
 21
-23.6416
  0
LINE
  8
0
 10
-163.821
 20
-23.6416
 11
-164.008
 21
-23.5713
  0
LINE
  8
0
 10
-164.008
 20
-23.5713
 11
-164.145
 21
-23.5107
  0
LINE
  8
0
 10
-164.145
 20
-23.5107
 11
-164.234
 21
-23.4668
  0
LINE
  8
0
 10
-164.234
 20
-23.4668
 11
-164.409
 21
-23.3701
  0
LINE
  8
0
 10
-164.409
 20
-23.3701
 11
-164.494
 21
-23.3184
  0
LINE
  8
0
 10
-164.494
 20
-23.3184
 11
-164.618
 21
-23.2354
  0
LINE
  8
0
 10
-164.618
 20
-23.2354
 11
-164.699
 21
-23.1768
  0
LINE
  8
0
 10
-164.699
 20
-23.1768
 11
-164.816
 21
-23.084
  0
LINE
  8
0
 10
-164.816
 20
-23.084
 11
-164.893
 21
-23.0195
  0
LINE
  8
0
 10
-164.893
 20
-23.0195
 11
-165.002
 21
-22.918
  0
LINE
  8
0
 10
-165.002
 20
-22.918
 11
-165.107
 21
-22.8105
  0
LINE
  8
0
 10
-165.107
 20
-22.8105
 11
-165.207
 21
-22.6992
  0
LINE
  8
0
 10
-165.207
 20
-22.6992
 11
-165.271
 21
-22.623
  0
LINE
  8
0
 10
-165.271
 20
-22.623
 11
-165.361
 21
-22.5039
  0
LINE
  8
0
 10
-165.361
 20
-22.5039
 11
-165.446
 21
-22.3809
  0
LINE
  8
0
 10
-165.446
 20
-22.3809
 11
-165.5
 21
-22.2969
  0
LINE
  8
0
 10
-165.5
 20
-22.2969
 11
-165.575
 21
-22.167
  0
LINE
  8
0
 10
-165.575
 20
-22.167
 11
-165.644
 21
-22.0342
  0
LINE
  8
0
 10
-165.644
 20
-22.0342
 11
-165.687
 21
-21.9443
  0
LINE
  8
0
 10
-165.687
 20
-21.9443
 11
-165.763
 21
-21.7598
  0
LINE
  8
0
 10
-165.763
 20
-21.7598
 11
-165.812
 21
-21.6182
  0
LINE
  8
0
 10
-165.812
 20
-21.6182
 11
-165.842
 21
-21.5234
  0
LINE
  8
0
 10
-165.842
 20
-21.5234
 11
-165.88
 21
-21.3789
  0
LINE
  8
0
 10
-165.88
 20
-21.3789
 11
-165.911
 21
-21.2324
  0
LINE
  8
0
 10
-165.911
 20
-21.2324
 11
-165.929
 21
-21.1338
  0
LINE
  8
0
 10
-165.929
 20
-21.1338
 11
-165.948
 21
-20.9863
  0
LINE
  8
0
 10
-165.948
 20
-20.9863
 11
-165.958
 21
-20.8867
  0
LINE
  8
0
 10
-165.958
 20
-20.8867
 11
-165.966
 21
-20.7373
  0
LINE
  8
0
 10
-165.966
 20
-20.7373
 11
-165.968
 21
-20.6377
  0
LINE
  8
0
 10
-165.968
 20
-20.6377
 11
-165.964
 21
-20.4883
  0
LINE
  8
0
 10
-165.964
 20
-20.4883
 11
-165.958
 21
-20.3887
  0
LINE
  8
0
 10
-165.958
 20
-20.3887
 11
-165.942
 21
-20.2393
  0
LINE
  8
0
 10
-165.942
 20
-20.2393
 11
-165.929
 21
-20.1406
  0
LINE
  8
0
 10
-165.929
 20
-20.1406
 11
-165.901
 21
-19.9932
  0
LINE
  8
0
 10
-165.901
 20
-19.9932
 11
-165.868
 21
-19.8477
  0
LINE
  8
0
 10
-165.868
 20
-19.8477
 11
-165.842
 21
-19.752
  0
LINE
  8
0
 10
-165.842
 20
-19.752
 11
-165.812
 21
-19.6562
  0
LINE
  8
0
 10
-165.812
 20
-19.6562
 11
-165.78
 21
-19.5615
  0
LINE
  8
0
 10
-165.78
 20
-19.5615
 11
-165.726
 21
-19.4229
  0
LINE
  8
0
 10
-165.726
 20
-19.4229
 11
-165.687
 21
-19.3311
  0
LINE
  8
0
 10
-165.687
 20
-19.3311
 11
-165.644
 21
-19.2402
  0
LINE
  8
0
 10
-165.644
 20
-19.2402
 11
-165.599
 21
-19.1514
  0
LINE
  8
0
 10
-165.599
 20
-19.1514
 11
-165.551
 21
-19.0645
  0
LINE
  8
0
 10
-165.551
 20
-19.0645
 11
-165.474
 21
-18.9365
  0
LINE
  8
0
 10
-165.474
 20
-18.9365
 11
-165.419
 21
-18.8525
  0
LINE
  8
0
 10
-165.419
 20
-18.8525
 11
-165.361
 21
-18.7715
  0
LINE
  8
0
 10
-165.361
 20
-18.7715
 11
-165.239
 21
-18.6133
  0
LINE
  8
0
 10
-165.239
 20
-18.6133
 11
-165.207
 21
-18.5752
  0
LINE
  8
0
 10
-165.207
 20
-18.5752
 11
-165.107
 21
-18.4639
  0
LINE
  8
0
 10
-165.107
 20
-18.4639
 11
-165.002
 21
-18.3574
  0
LINE
  8
0
 10
-165.002
 20
-18.3574
 11
-164.893
 21
-18.2559
  0
LINE
  8
0
 10
-164.893
 20
-18.2559
 11
-164.777
 21
-18.1592
  0
LINE
  8
0
 10
-164.777
 20
-18.1592
 11
-164.659
 21
-18.0693
  0
LINE
  8
0
 10
-164.659
 20
-18.0693
 11
-164.536
 21
-17.9834
  0
LINE
  8
0
 10
-164.536
 20
-17.9834
 11
-164.409
 21
-17.9043
  0
LINE
  8
0
 10
-164.409
 20
-17.9043
 11
-164.322
 21
-17.8555
  0
LINE
  8
0
 10
-164.322
 20
-17.8555
 11
-164.189
 21
-17.7861
  0
LINE
  8
0
 10
-164.189
 20
-17.7861
 11
-164.054
 21
-17.7236
  0
LINE
  8
0
 10
-164.054
 20
-17.7236
 11
-163.915
 21
-17.667
  0
LINE
  8
0
 10
-163.915
 20
-17.667
 11
-163.727
 21
-17.6025
  0
LINE
  8
0
 10
-163.727
 20
-17.6025
 11
-163.534
 21
-17.5498
  0
LINE
  8
0
 10
-163.534
 20
-17.5498
 11
-163.388
 21
-17.5186
  0
LINE
  8
0
 10
-163.388
 20
-17.5186
 11
-163.24
 21
-17.4941
  0
LINE
  8
0
 10
-163.24
 20
-17.4941
 11
-163.091
 21
-17.4766
  0
LINE
  8
0
 10
-163.091
 20
-17.4766
 11
-162.942
 21
-17.4658
  0
LINE
  8
0
 10
-162.942
 20
-17.4658
 11
-162.843
 21
-17.4629
  0
LINE
  8
0
 10
-162.843
 20
-17.4629
 11
-162.693
 21
-17.4639
  0
LINE
  8
0
 10
-162.693
 20
-17.4639
 11
-162.546
 21
-17.4717
  0
LINE
  8
0
 10
-162.546
 20
-17.4717
 11
-162.447
 21
-17.4814
  0
LINE
  8
0
 10
-162.447
 20
-17.4814
 11
-162.35
 21
-17.4932
  0
LINE
  8
0
 10
-162.35
 20
-17.4932
 11
-162.203
 21
-17.5176
  0
LINE
  8
0
 10
-162.203
 20
-17.5176
 11
-162.106
 21
-17.5371
  0
LINE
  8
0
 10
-162.106
 20
-17.5371
 11
-161.915
 21
-17.5859
  0
LINE
  8
0
 10
-161.915
 20
-17.5859
 11
-161.773
 21
-17.6299
  0
LINE
  8
0
 10
-161.773
 20
-17.6299
 11
-161.635
 21
-17.6807
  0
LINE
  8
0
 10
-161.635
 20
-17.6807
 11
-161.498
 21
-17.7383
  0
LINE
  8
0
 10
-161.498
 20
-17.7383
 11
-161.364
 21
-17.8018
  0
LINE
  8
0
 10
-161.364
 20
-17.8018
 11
-161.233
 21
-17.8711
  0
LINE
  8
0
 10
-161.233
 20
-17.8711
 11
-161.148
 21
-17.9209
  0
LINE
  8
0
 10
-161.148
 20
-17.9209
 11
-161.023
 21
-18.001
  0
LINE
  8
0
 10
-161.023
 20
-18.001
 11
-160.902
 21
-18.0859
  0
LINE
  8
0
 10
-160.902
 20
-18.0859
 11
-160.747
 21
-18.209
  0
LINE
  8
0
 10
-160.747
 20
-18.209
 11
-160.637
 21
-18.3066
  0
LINE
  8
0
 10
-160.637
 20
-18.3066
 11
-160.53
 21
-18.4102
  0
LINE
  8
0
 10
-160.53
 20
-18.4102
 11
-160.429
 21
-18.5176
  0
LINE
  8
0
 10
-160.429
 20
-18.5176
 11
-160.396
 21
-18.5547
  0
LINE
  8
0
 10
-160.396
 20
-18.5547
 11
-160.302
 21
-18.6689
  0
LINE
  8
0
 10
-160.302
 20
-18.6689
 11
-160.212
 21
-18.7871
  0
LINE
  8
0
 10
-160.212
 20
-18.7871
 11
-160.129
 21
-18.9092
  0
LINE
  8
0
 10
-160.129
 20
-18.9092
 11
-160.026
 21
-19.0781
  0
LINE
  8
0
 10
-160.026
 20
-19.0781
 11
-159.935
 21
-19.2539
  0
LINE
  8
0
 10
-159.935
 20
-19.2539
 11
-159.854
 21
-19.4336
  0
LINE
  8
0
 10
-159.854
 20
-19.4336
 11
-159.818
 21
-19.5254
  0
LINE
  8
0
 10
-159.818
 20
-19.5254
 11
-159.77
 21
-19.666
  0
LINE
  8
0
 10
-159.77
 20
-19.666
 11
-159.728
 21
-19.8076
  0
LINE
  8
0
 10
-159.728
 20
-19.8076
 11
-159.692
 21
-19.9512
  0
LINE
  8
0
 10
-159.692
 20
-19.9512
 11
-159.664
 21
-20.0967
  0
LINE
  8
0
 10
-159.664
 20
-20.0967
 11
-159.642
 21
-20.2432
  0
LINE
  8
0
 10
-159.642
 20
-20.2432
 11
-159.627
 21
-20.3906
  0
LINE
  8
0
 10
-159.627
 20
-20.3906
 11
-159.619
 21
-20.5391
  0
LINE
  8
0
 10
-159.619
 20
-20.5391
 11
-159.617
 21
-20.6377
  0
LINE
  8
0
 10
-159.617
 20
-20.6377
 11
-159.621
 21
-20.7852
  0
LINE
  8
0
 10
-159.621
 20
-20.7852
 11
-159.631
 21
-20.9336
  0
LINE
  8
0
 10
-159.631
 20
-20.9336
 11
-159.648
 21
-21.0801
  0
LINE
  8
0
 10
-159.648
 20
-21.0801
 11
-159.673
 21
-21.2266
  0
LINE
  8
0
 10
-159.673
 20
-21.2266
 11
-159.703
 21
-21.3711
  0
LINE
  8
0
 10
-159.703
 20
-21.3711
 11
-159.728
 21
-21.4668
  0
LINE
  8
0
 10
-159.728
 20
-21.4668
 11
-159.77
 21
-21.6094
  0
LINE
  8
0
 10
-159.77
 20
-21.6094
 11
-159.818
 21
-21.749
  0
LINE
  8
0
 10
-159.818
 20
-21.749
 11
-159.894
 21
-21.9316
  0
LINE
  8
0
 10
-159.894
 20
-21.9316
 11
-159.935
 21
-22.0215
  0
LINE
  8
0
 10
-159.935
 20
-22.0215
 11
-160.026
 21
-22.1963
  0
LINE
  8
0
 10
-160.026
 20
-22.1963
 11
-160.076
 21
-22.2812
  0
LINE
  8
0
 10
-160.076
 20
-22.2812
 11
-160.129
 21
-22.3652
  0
LINE
  8
0
 10
-160.129
 20
-22.3652
 11
-160.212
 21
-22.4873
  0
LINE
  8
0
 10
-160.212
 20
-22.4873
 11
-160.332
 21
-22.6445
  0
LINE
  8
0
 10
-160.332
 20
-22.6445
 11
-160.396
 21
-22.7197
  0
LINE
  8
0
 10
-160.396
 20
-22.7197
 11
-160.462
 21
-22.7939
  0
LINE
  8
0
 10
-160.462
 20
-22.7939
 11
-160.565
 21
-22.9004
  0
LINE
  8
0
 10
-160.565
 20
-22.9004
 11
-160.71
 21
-23.0342
  0
LINE
  8
0
 10
-160.71
 20
-23.0342
 11
-160.824
 21
-23.1289
  0
LINE
  8
0
 10
-160.824
 20
-23.1289
 11
-160.942
 21
-23.2178
  0
LINE
  8
0
 10
-160.942
 20
-23.2178
 11
-161.023
 21
-23.2744
  0
LINE
  8
0
 10
-161.023
 20
-23.2744
 11
-161.106
 21
-23.3281
  0
LINE
  8
0
 10
-161.106
 20
-23.3281
 11
-161.19
 21
-23.3789
  0
LINE
  8
0
 10
-161.19
 20
-23.3789
 11
-161.276
 21
-23.4277
  0
LINE
  8
0
 10
-161.276
 20
-23.4277
 11
-161.453
 21
-23.5166
  0
LINE
  8
0
 10
-161.453
 20
-23.5166
 11
-161.543
 21
-23.5566
  0
LINE
  8
0
 10
-161.543
 20
-23.5566
 11
-161.728
 21
-23.6289
  0
LINE
  8
0
 10
-161.728
 20
-23.6289
 11
-161.868
 21
-23.6748
  0
LINE
  8
0
 10
-161.868
 20
-23.6748
 11
-162.011
 21
-23.7148
  0
LINE
  8
0
 10
-162.011
 20
-23.7148
 11
-162.203
 21
-23.7578
  0
LINE
  8
0
 10
-162.203
 20
-23.7578
 11
-162.301
 21
-23.7744
  0
LINE
  8
0
 10
-162.301
 20
-23.7744
 11
-162.447
 21
-23.7939
  0
LINE
  8
0
 10
-162.447
 20
-23.7939
 11
-162.595
 21
-23.8066
  0
LINE
  8
0
 10
-162.595
 20
-23.8066
 11
-162.743
 21
-23.8125
  0
LINE
  8
0
 10
-162.743
 20
-23.8125
 11
-162.843
 21
-23.8125
  0
LINE
  8
0
 10
-226.343
 20
-23.8125
 11
-226.492
 21
-23.8066
  0
LINE
  8
0
 10
-226.492
 20
-23.8066
 11
-226.591
 21
-23.7988
  0
LINE
  8
0
 10
-226.591
 20
-23.7988
 11
-226.74
 21
-23.7812
  0
LINE
  8
0
 10
-226.74
 20
-23.7812
 11
-226.839
 21
-23.7656
  0
LINE
  8
0
 10
-226.839
 20
-23.7656
 11
-226.985
 21
-23.7363
  0
LINE
  8
0
 10
-226.985
 20
-23.7363
 11
-227.13
 21
-23.7002
  0
LINE
  8
0
 10
-227.13
 20
-23.7002
 11
-227.321
 21
-23.6416
  0
LINE
  8
0
 10
-227.321
 20
-23.6416
 11
-227.508
 21
-23.5713
  0
LINE
  8
0
 10
-227.508
 20
-23.5713
 11
-227.645
 21
-23.5107
  0
LINE
  8
0
 10
-227.645
 20
-23.5107
 11
-227.734
 21
-23.4668
  0
LINE
  8
0
 10
-227.734
 20
-23.4668
 11
-227.909
 21
-23.3701
  0
LINE
  8
0
 10
-227.909
 20
-23.3701
 11
-227.994
 21
-23.3184
  0
LINE
  8
0
 10
-227.994
 20
-23.3184
 11
-228.118
 21
-23.2354
  0
LINE
  8
0
 10
-228.118
 20
-23.2354
 11
-228.199
 21
-23.1768
  0
LINE
  8
0
 10
-228.199
 20
-23.1768
 11
-228.316
 21
-23.084
  0
LINE
  8
0
 10
-228.316
 20
-23.084
 11
-228.393
 21
-23.0195
  0
LINE
  8
0
 10
-228.393
 20
-23.0195
 11
-228.502
 21
-22.918
  0
LINE
  8
0
 10
-228.502
 20
-22.918
 11
-228.607
 21
-22.8105
  0
LINE
  8
0
 10
-228.607
 20
-22.8105
 11
-228.707
 21
-22.6992
  0
LINE
  8
0
 10
-228.707
 20
-22.6992
 11
-228.771
 21
-22.623
  0
LINE
  8
0
 10
-228.771
 20
-22.623
 11
-228.861
 21
-22.5039
  0
LINE
  8
0
 10
-228.861
 20
-22.5039
 11
-228.946
 21
-22.3809
  0
LINE
  8
0
 10
-228.946
 20
-22.3809
 11
-229
 21
-22.2969
  0
LINE
  8
0
 10
-229
 20
-22.2969
 11
-229.075
 21
-22.167
  0
LINE
  8
0
 10
-229.075
 20
-22.167
 11
-229.144
 21
-22.0342
  0
LINE
  8
0
 10
-229.144
 20
-22.0342
 11
-229.187
 21
-21.9443
  0
LINE
  8
0
 10
-229.187
 20
-21.9443
 11
-229.263
 21
-21.7598
  0
LINE
  8
0
 10
-229.263
 20
-21.7598
 11
-229.312
 21
-21.6182
  0
LINE
  8
0
 10
-229.312
 20
-21.6182
 11
-229.342
 21
-21.5234
  0
LINE
  8
0
 10
-229.342
 20
-21.5234
 11
-229.38
 21
-21.3789
  0
LINE
  8
0
 10
-229.38
 20
-21.3789
 11
-229.411
 21
-21.2324
  0
LINE
  8
0
 10
-229.411
 20
-21.2324
 11
-229.429
 21
-21.1338
  0
LINE
  8
0
 10
-229.429
 20
-21.1338
 11
-229.448
 21
-20.9863
  0
LINE
  8
0
 10
-229.448
 20
-20.9863
 11
-229.458
 21
-20.8867
  0
LINE
  8
0
 10
-229.458
 20
-20.8867
 11
-229.466
 21
-20.7373
  0
LINE
  8
0
 10
-229.466
 20
-20.7373
 11
-229.468
 21
-20.6377
  0
LINE
  8
0
 10
-229.468
 20
-20.6377
 11
-229.464
 21
-20.4883
  0
LINE
  8
0
 10
-229.464
 20
-20.4883
 11
-229.458
 21
-20.3887
  0
LINE
  8
0
 10
-229.458
 20
-20.3887
 11
-229.442
 21
-20.2393
  0
LINE
  8
0
 10
-229.442
 20
-20.2393
 11
-229.429
 21
-20.1406
  0
LINE
  8
0
 10
-229.429
 20
-20.1406
 11
-229.401
 21
-19.9932
  0
LINE
  8
0
 10
-229.401
 20
-19.9932
 11
-229.368
 21
-19.8477
  0
LINE
  8
0
 10
-229.368
 20
-19.8477
 11
-229.342
 21
-19.752
  0
LINE
  8
0
 10
-229.342
 20
-19.752
 11
-229.312
 21
-19.6562
  0
LINE
  8
0
 10
-229.312
 20
-19.6562
 11
-229.28
 21
-19.5615
  0
LINE
  8
0
 10
-229.28
 20
-19.5615
 11
-229.226
 21
-19.4229
  0
LINE
  8
0
 10
-229.226
 20
-19.4229
 11
-229.187
 21
-19.3311
  0
LINE
  8
0
 10
-229.187
 20
-19.3311
 11
-229.144
 21
-19.2402
  0
LINE
  8
0
 10
-229.144
 20
-19.2402
 11
-229.099
 21
-19.1514
  0
LINE
  8
0
 10
-229.099
 20
-19.1514
 11
-229.051
 21
-19.0645
  0
LINE
  8
0
 10
-229.051
 20
-19.0645
 11
-228.974
 21
-18.9365
  0
LINE
  8
0
 10
-228.974
 20
-18.9365
 11
-228.919
 21
-18.8525
  0
LINE
  8
0
 10
-228.919
 20
-18.8525
 11
-228.861
 21
-18.7715
  0
LINE
  8
0
 10
-228.861
 20
-18.7715
 11
-228.739
 21
-18.6133
  0
LINE
  8
0
 10
-228.739
 20
-18.6133
 11
-228.707
 21
-18.5752
  0
LINE
  8
0
 10
-228.707
 20
-18.5752
 11
-228.607
 21
-18.4639
  0
LINE
  8
0
 10
-228.607
 20
-18.4639
 11
-228.502
 21
-18.3574
  0
LINE
  8
0
 10
-228.502
 20
-18.3574
 11
-228.393
 21
-18.2559
  0
LINE
  8
0
 10
-228.393
 20
-18.2559
 11
-228.277
 21
-18.1592
  0
LINE
  8
0
 10
-228.277
 20
-18.1592
 11
-228.159
 21
-18.0693
  0
LINE
  8
0
 10
-228.159
 20
-18.0693
 11
-228.036
 21
-17.9834
  0
LINE
  8
0
 10
-228.036
 20
-17.9834
 11
-227.909
 21
-17.9043
  0
LINE
  8
0
 10
-227.909
 20
-17.9043
 11
-227.822
 21
-17.8555
  0
LINE
  8
0
 10
-227.822
 20
-17.8555
 11
-227.689
 21
-17.7861
  0
LINE
  8
0
 10
-227.689
 20
-17.7861
 11
-227.554
 21
-17.7236
  0
LINE
  8
0
 10
-227.554
 20
-17.7236
 11
-227.415
 21
-17.667
  0
LINE
  8
0
 10
-227.415
 20
-17.667
 11
-227.227
 21
-17.6025
  0
LINE
  8
0
 10
-227.227
 20
-17.6025
 11
-227.034
 21
-17.5498
  0
LINE
  8
0
 10
-227.034
 20
-17.5498
 11
-226.888
 21
-17.5186
  0
LINE
  8
0
 10
-226.888
 20
-17.5186
 11
-226.74
 21
-17.4941
  0
LINE
  8
0
 10
-226.74
 20
-17.4941
 11
-226.591
 21
-17.4766
  0
LINE
  8
0
 10
-226.591
 20
-17.4766
 11
-226.442
 21
-17.4658
  0
LINE
  8
0
 10
-226.442
 20
-17.4658
 11
-226.343
 21
-17.4629
  0
LINE
  8
0
 10
-226.343
 20
-17.4629
 11
-226.193
 21
-17.4639
  0
LINE
  8
0
 10
-226.193
 20
-17.4639
 11
-226.046
 21
-17.4717
  0
LINE
  8
0
 10
-226.046
 20
-17.4717
 11
-225.947
 21
-17.4814
  0
LINE
  8
0
 10
-225.947
 20
-17.4814
 11
-225.85
 21
-17.4932
  0
LINE
  8
0
 10
-225.85
 20
-17.4932
 11
-225.703
 21
-17.5176
  0
LINE
  8
0
 10
-225.703
 20
-17.5176
 11
-225.606
 21
-17.5371
  0
LINE
  8
0
 10
-225.606
 20
-17.5371
 11
-225.415
 21
-17.5859
  0
LINE
  8
0
 10
-225.415
 20
-17.5859
 11
-225.273
 21
-17.6299
  0
LINE
  8
0
 10
-225.273
 20
-17.6299
 11
-225.135
 21
-17.6807
  0
LINE
  8
0
 10
-225.135
 20
-17.6807
 11
-224.998
 21
-17.7383
  0
LINE
  8
0
 10
-224.998
 20
-17.7383
 11
-224.864
 21
-17.8018
  0
LINE
  8
0
 10
-224.864
 20
-17.8018
 11
-224.733
 21
-17.8711
  0
LINE
  8
0
 10
-224.733
 20
-17.8711
 11
-224.648
 21
-17.9209
  0
LINE
  8
0
 10
-224.648
 20
-17.9209
 11
-224.523
 21
-18.001
  0
LINE
  8
0
 10
-224.523
 20
-18.001
 11
-224.402
 21
-18.0859
  0
LINE
  8
0
 10
-224.402
 20
-18.0859
 11
-224.247
 21
-18.209
  0
LINE
  8
0
 10
-224.247
 20
-18.209
 11
-224.137
 21
-18.3066
  0
LINE
  8
0
 10
-224.137
 20
-18.3066
 11
-224.03
 21
-18.4102
  0
LINE
  8
0
 10
-224.03
 20
-18.4102
 11
-223.929
 21
-18.5176
  0
LINE
  8
0
 10
-223.929
 20
-18.5176
 11
-223.896
 21
-18.5547
  0
LINE
  8
0
 10
-223.896
 20
-18.5547
 11
-223.802
 21
-18.6689
  0
LINE
  8
0
 10
-223.802
 20
-18.6689
 11
-223.712
 21
-18.7871
  0
LINE
  8
0
 10
-223.712
 20
-18.7871
 11
-223.629
 21
-18.9092
  0
LINE
  8
0
 10
-223.629
 20
-18.9092
 11
-223.526
 21
-19.0781
  0
LINE
  8
0
 10
-223.526
 20
-19.0781
 11
-223.435
 21
-19.2539
  0
LINE
  8
0
 10
-223.435
 20
-19.2539
 11
-223.354
 21
-19.4336
  0
LINE
  8
0
 10
-223.354
 20
-19.4336
 11
-223.318
 21
-19.5254
  0
LINE
  8
0
 10
-223.318
 20
-19.5254
 11
-223.27
 21
-19.666
  0
LINE
  8
0
 10
-223.27
 20
-19.666
 11
-223.228
 21
-19.8076
  0
LINE
  8
0
 10
-223.228
 20
-19.8076
 11
-223.192
 21
-19.9512
  0
LINE
  8
0
 10
-223.192
 20
-19.9512
 11
-223.164
 21
-20.0967
  0
LINE
  8
0
 10
-223.164
 20
-20.0967
 11
-223.142
 21
-20.2432
  0
LINE
  8
0
 10
-223.142
 20
-20.2432
 11
-223.127
 21
-20.3906
  0
LINE
  8
0
 10
-223.127
 20
-20.3906
 11
-223.119
 21
-20.5391
  0
LINE
  8
0
 10
-223.119
 20
-20.5391
 11
-223.117
 21
-20.6377
  0
LINE
  8
0
 10
-223.117
 20
-20.6377
 11
-223.121
 21
-20.7852
  0
LINE
  8
0
 10
-223.121
 20
-20.7852
 11
-223.131
 21
-20.9336
  0
LINE
  8
0
 10
-223.131
 20
-20.9336
 11
-223.148
 21
-21.0801
  0
LINE
  8
0
 10
-223.148
 20
-21.0801
 11
-223.173
 21
-21.2266
  0
LINE
  8
0
 10
-223.173
 20
-21.2266
 11
-223.203
 21
-21.3711
  0
LINE
  8
0
 10
-223.203
 20
-21.3711
 11
-223.228
 21
-21.4668
  0
LINE
  8
0
 10
-223.228
 20
-21.4668
 11
-223.27
 21
-21.6094
  0
LINE
  8
0
 10
-223.27
 20
-21.6094
 11
-223.318
 21
-21.749
  0
LINE
  8
0
 10
-223.318
 20
-21.749
 11
-223.394
 21
-21.9316
  0
LINE
  8
0
 10
-223.394
 20
-21.9316
 11
-223.435
 21
-22.0215
  0
LINE
  8
0
 10
-223.435
 20
-22.0215
 11
-223.526
 21
-22.1963
  0
LINE
  8
0
 10
-223.526
 20
-22.1963
 11
-223.576
 21
-22.2812
  0
LINE
  8
0
 10
-223.576
 20
-22.2812
 11
-223.629
 21
-22.3652
  0
LINE
  8
0
 10
-223.629
 20
-22.3652
 11
-223.712
 21
-22.4873
  0
LINE
  8
0
 10
-223.712
 20
-22.4873
 11
-223.832
 21
-22.6445
  0
LINE
  8
0
 10
-223.832
 20
-22.6445
 11
-223.896
 21
-22.7197
  0
LINE
  8
0
 10
-223.896
 20
-22.7197
 11
-223.962
 21
-22.7939
  0
LINE
  8
0
 10
-223.962
 20
-22.7939
 11
-224.065
 21
-22.9004
  0
LINE
  8
0
 10
-224.065
 20
-22.9004
 11
-224.21
 21
-23.0342
  0
LINE
  8
0
 10
-224.21
 20
-23.0342
 11
-224.324
 21
-23.1289
  0
LINE
  8
0
 10
-224.324
 20
-23.1289
 11
-224.442
 21
-23.2178
  0
LINE
  8
0
 10
-224.442
 20
-23.2178
 11
-224.523
 21
-23.2744
  0
LINE
  8
0
 10
-224.523
 20
-23.2744
 11
-224.606
 21
-23.3281
  0
LINE
  8
0
 10
-224.606
 20
-23.3281
 11
-224.69
 21
-23.3789
  0
LINE
  8
0
 10
-224.69
 20
-23.3789
 11
-224.776
 21
-23.4277
  0
LINE
  8
0
 10
-224.776
 20
-23.4277
 11
-224.953
 21
-23.5166
  0
LINE
  8
0
 10
-224.953
 20
-23.5166
 11
-225.043
 21
-23.5566
  0
LINE
  8
0
 10
-225.043
 20
-23.5566
 11
-225.228
 21
-23.6289
  0
LINE
  8
0
 10
-225.228
 20
-23.6289
 11
-225.368
 21
-23.6748
  0
LINE
  8
0
 10
-225.368
 20
-23.6748
 11
-225.511
 21
-23.7148
  0
LINE
  8
0
 10
-225.511
 20
-23.7148
 11
-225.703
 21
-23.7578
  0
LINE
  8
0
 10
-225.703
 20
-23.7578
 11
-225.801
 21
-23.7744
  0
LINE
  8
0
 10
-225.801
 20
-23.7744
 11
-225.947
 21
-23.7939
  0
LINE
  8
0
 10
-225.947
 20
-23.7939
 11
-226.095
 21
-23.8066
  0
LINE
  8
0
 10
-226.095
 20
-23.8066
 11
-226.243
 21
-23.8125
  0
LINE
  8
0
 10
-226.243
 20
-23.8125
 11
-226.343
 21
-23.8125
  0
LINE
  8
0
 10
289.834
 20
-18.8551
 11
295.19
 21
-18.8551
  0
LINE
  8
0
 10
295.19
 20
-18.8551
 11
299.608
 21
-26.507
  0
LINE
  8
0
 10
299.608
 20
-26.507
 11
295.19
 21
-34.1589
  0
LINE
  8
0
 10
295.19
 20
-34.1589
 11
286.355
 21
-34.1589
  0
LINE
  8
0
 10
286.355
 20
-34.1589
 11
284.047
 21
-30.1621
  0
LINE
  8
0
 10
284.047
 20
-30.1621
 11
289.834
 21
-30.1621
  0
LINE
  8
0
 10
289.834
 20
-30.1621
 11
289.834
 21
-18.8551
  0
LINE
  8
0
 10
133.317
 20
-34.1589
 11
128.899
 21
-26.507
  0
LINE
  8
0
 10
128.899
 20
-26.507
 11
133.317
 21
-18.8551
  0
LINE
  8
0
 10
133.317
 20
-18.8551
 11
142.152
 21
-18.8551
  0
LINE
  8
0
 10
142.152
 20
-18.8551
 11
146.57
 21
-26.507
  0
LINE
  8
0
 10
146.57
 20
-26.507
 11
142.152
 21
-34.1589
  0
LINE
  8
0
 10
142.152
 20
-34.1589
 11
133.317
 21
-34.1589
  0
LINE
  8
0
 10
312.545
 20
-26.507
 11
316.962
 21
-18.8551
  0
LINE
  8
0
 10
316.962
 20
-18.8551
 11
325.798
 21
-18.8551
  0
LINE
  8
0
 10
325.798
 20
-18.8551
 11
326.957
 21
-20.8628
  0
LINE
  8
0
 10
326.957
 20
-20.8628
 11
321.434
 21
-27.8008
  0
LINE
  8
0
 10
321.434
 20
-27.8008
 11
316.048
 21
-32.5747
  0
LINE
  8
0
 10
316.048
 20
-32.5747
 11
312.545
 21
-26.507
  0
LINE
  8
0
 10
-142.152
 20
-34.1589
 11
-146.57
 21
-26.507
  0
LINE
  8
0
 10
-146.57
 20
-26.507
 11
-142.152
 21
-18.8551
  0
LINE
  8
0
 10
-142.152
 20
-18.8551
 11
-133.317
 21
-18.8551
  0
LINE
  8
0
 10
-133.317
 20
-18.8551
 11
-128.899
 21
-26.507
  0
LINE
  8
0
 10
-128.899
 20
-26.507
 11
-133.317
 21
-34.1589
  0
LINE
  8
0
 10
-133.317
 20
-34.1589
 11
-142.152
 21
-34.1589
  0
LINE
  8
0
 10
-111.545
 20
-34.1589
 11
-115.962
 21
-26.507
  0
LINE
  8
0
 10
-115.962
 20
-26.507
 11
-111.545
 21
-18.8551
  0
LINE
  8
0
 10
-111.545
 20
-18.8551
 11
-102.709
 21
-18.8551
  0
LINE
  8
0
 10
-102.709
 20
-18.8551
 11
-98.2911
 21
-26.507
  0
LINE
  8
0
 10
-98.2911
 20
-26.507
 11
-102.709
 21
-34.1589
  0
LINE
  8
0
 10
-102.709
 20
-34.1589
 11
-111.545
 21
-34.1589
  0
LINE
  8
0
 10
-50.3293
 20
-34.1589
 11
-54.7471
 21
-26.507
  0
LINE
  8
0
 10
-54.7471
 20
-26.507
 11
-50.3293
 21
-18.8551
  0
LINE
  8
0
 10
-50.3293
 20
-18.8551
 11
-41.4936
 21
-18.8551
  0
LINE
  8
0
 10
-41.4936
 20
-18.8551
 11
-37.0758
 21
-26.507
  0
LINE
  8
0
 10
-37.0758
 20
-26.507
 11
-41.4936
 21
-34.1589
  0
LINE
  8
0
 10
-41.4936
 20
-34.1589
 11
-50.3293
 21
-34.1589
  0
LINE
  8
0
 10
10.886
 20
-34.1589
 11
6.46815
 21
-26.507
  0
LINE
  8
0
 10
6.46815
 20
-26.507
 11
10.886
 21
-18.8551
  0
LINE
  8
0
 10
10.886
 20
-18.8551
 11
19.7216
 21
-18.8551
  0
LINE
  8
0
 10
19.7216
 20
-18.8551
 11
24.1395
 21
-26.507
  0
LINE
  8
0
 10
24.1395
 20
-26.507
 11
19.7216
 21
-34.1589
  0
LINE
  8
0
 10
19.7216
 20
-34.1589
 11
10.886
 21
-34.1589
  0
LINE
  8
0
 10
102.709
 20
-34.1589
 11
98.2911
 21
-26.507
  0
LINE
  8
0
 10
98.2911
 20
-26.507
 11
102.709
 21
-18.8551
  0
LINE
  8
0
 10
102.709
 20
-18.8551
 11
111.545
 21
-18.8551
  0
LINE
  8
0
 10
111.545
 20
-18.8551
 11
115.962
 21
-26.507
  0
LINE
  8
0
 10
115.962
 20
-26.507
 11
111.545
 21
-34.1589
  0
LINE
  8
0
 10
111.545
 20
-34.1589
 11
102.709
 21
-34.1589
  0
LINE
  8
0
 10
72.1013
 20
-34.1589
 11
67.6834
 21
-26.507
  0
LINE
  8
0
 10
67.6834
 20
-26.507
 11
72.1013
 21
-18.8551
  0
LINE
  8
0
 10
72.1013
 20
-18.8551
 11
80.9369
 21
-18.8551
  0
LINE
  8
0
 10
80.9369
 20
-18.8551
 11
85.3548
 21
-26.507
  0
LINE
  8
0
 10
85.3548
 20
-26.507
 11
80.9369
 21
-34.1589
  0
LINE
  8
0
 10
80.9369
 20
-34.1589
 11
72.1013
 21
-34.1589
  0
LINE
  8
0
 10
41.4936
 20
-34.1589
 11
37.0758
 21
-26.507
  0
LINE
  8
0
 10
37.0758
 20
-26.507
 11
41.4936
 21
-18.8551
  0
LINE
  8
0
 10
41.4936
 20
-18.8551
 11
50.3293
 21
-18.8551
  0
LINE
  8
0
 10
50.3293
 20
-18.8551
 11
54.7471
 21
-26.507
  0
LINE
  8
0
 10
54.7471
 20
-26.507
 11
50.3293
 21
-34.1589
  0
LINE
  8
0
 10
50.3293
 20
-34.1589
 11
41.4936
 21
-34.1589
  0
LINE
  8
0
 10
163.924
 20
-34.1589
 11
159.506
 21
-26.507
  0
LINE
  8
0
 10
159.506
 20
-26.507
 11
163.924
 21
-18.8551
  0
LINE
  8
0
 10
163.924
 20
-18.8551
 11
172.76
 21
-18.8551
  0
LINE
  8
0
 10
172.76
 20
-18.8551
 11
177.178
 21
-26.507
  0
LINE
  8
0
 10
177.178
 20
-26.507
 11
172.76
 21
-34.1589
  0
LINE
  8
0
 10
172.76
 20
-34.1589
 11
163.924
 21
-34.1589
  0
LINE
  8
0
 10
-19.7216
 20
-34.1589
 11
-24.1395
 21
-26.507
  0
LINE
  8
0
 10
-24.1395
 20
-26.507
 11
-19.7216
 21
-18.8551
  0
LINE
  8
0
 10
-19.7216
 20
-18.8551
 11
-10.886
 21
-18.8551
  0
LINE
  8
0
 10
-10.886
 20
-18.8551
 11
-6.46815
 21
-26.507
  0
LINE
  8
0
 10
-6.46815
 20
-26.507
 11
-10.886
 21
-34.1589
  0
LINE
  8
0
 10
-10.886
 20
-34.1589
 11
-19.7216
 21
-34.1589
  0
LINE
  8
0
 10
-80.9369
 20
-34.1589
 11
-85.3548
 21
-26.507
  0
LINE
  8
0
 10
-85.3548
 20
-26.507
 11
-80.9369
 21
-18.8551
  0
LINE
  8
0
 10
-80.9369
 20
-18.8551
 11
-72.1013
 21
-18.8551
  0
LINE
  8
0
 10
-72.1013
 20
-18.8551
 11
-67.6834
 21
-26.507
  0
LINE
  8
0
 10
-67.6834
 20
-26.507
 11
-72.1013
 21
-34.1589
  0
LINE
  8
0
 10
-72.1013
 20
-34.1589
 11
-80.9369
 21
-34.1589
  0
LINE
  8
0
 10
-153.268
 20
-27.6908
 11
-148.62
 21
-27.6908
  0
LINE
  8
0
 10
-148.62
 20
-27.6908
 11
-144.203
 21
-35.3427
  0
LINE
  8
0
 10
-144.203
 20
-35.3427
 11
-148.62
 21
-42.9946
  0
LINE
  8
0
 10
-148.62
 20
-42.9946
 11
-157.456
 21
-42.9946
  0
LINE
  8
0
 10
-157.456
 20
-42.9946
 11
-161.874
 21
-35.3427
  0
LINE
  8
0
 10
-161.874
 20
-35.3427
 11
-158.883
 21
-30.1621
  0
LINE
  8
0
 10
-158.883
 20
-30.1621
 11
-153.268
 21
-30.1621
  0
LINE
  8
0
 10
-153.268
 20
-30.1621
 11
-153.268
 21
-27.6908
  0
LINE
  8
0
 10
118.013
 20
-42.9946
 11
113.595
 21
-35.3427
  0
LINE
  8
0
 10
113.595
 20
-35.3427
 11
118.013
 21
-27.6908
  0
LINE
  8
0
 10
118.013
 20
-27.6908
 11
126.848
 21
-27.6908
  0
LINE
  8
0
 10
126.848
 20
-27.6908
 11
131.266
 21
-35.3427
  0
LINE
  8
0
 10
131.266
 20
-35.3427
 11
126.848
 21
-42.9946
  0
LINE
  8
0
 10
126.848
 20
-42.9946
 11
118.013
 21
-42.9946
  0
LINE
  8
0
 10
-35.0255
 20
-42.9946
 11
-39.4433
 21
-35.3427
  0
LINE
  8
0
 10
-39.4433
 20
-35.3427
 11
-35.0255
 21
-27.6908
  0
LINE
  8
0
 10
-35.0255
 20
-27.6908
 11
-26.1898
 21
-27.6908
  0
LINE
  8
0
 10
-26.1898
 20
-27.6908
 11
-21.772
 21
-35.3427
  0
LINE
  8
0
 10
-21.772
 20
-35.3427
 11
-26.1898
 21
-42.9946
  0
LINE
  8
0
 10
-26.1898
 20
-42.9946
 11
-35.0255
 21
-42.9946
  0
LINE
  8
0
 10
266.633
 20
-53.014
 11
271.051
 21
-45.3621
  0
LINE
  8
0
 10
271.051
 20
-45.3621
 11
279.887
 21
-45.3621
  0
LINE
  8
0
 10
279.887
 20
-45.3621
 11
283.703
 21
-51.973
  0
LINE
  8
0
 10
283.703
 20
-51.973
 11
284.912
 21
-51.4648
  0
LINE
  8
0
 10
284.912
 20
-51.4648
 11
285.862
 21
-50.9764
  0
LINE
  8
0
 10
285.862
 20
-50.9764
 11
281.937
 21
-44.1783
  0
LINE
  8
0
 10
281.937
 20
-44.1783
 11
286.355
 21
-36.5264
  0
LINE
  8
0
 10
286.355
 20
-36.5264
 11
295.19
 21
-36.5264
  0
LINE
  8
0
 10
295.19
 20
-36.5264
 11
299.487
 21
-43.9689
  0
LINE
  8
0
 10
299.487
 20
-43.9689
 11
300.695
 21
-43.3477
  0
LINE
  8
0
 10
300.695
 20
-43.3477
 11
301.542
 21
-42.7935
  0
LINE
  8
0
 10
301.542
 20
-42.7935
 11
297.241
 21
-35.3427
  0
LINE
  8
0
 10
297.241
 20
-35.3427
 11
301.659
 21
-27.6908
  0
LINE
  8
0
 10
301.659
 20
-27.6908
 11
310.494
 21
-27.6908
  0
LINE
  8
0
 10
310.494
 20
-27.6908
 11
314.239
 21
-34.1776
  0
LINE
  8
0
 10
314.239
 20
-34.1776
 11
312.906
 21
-35.3594
  0
LINE
  8
0
 10
312.906
 20
-35.3594
 11
300.695
 21
-43.3477
  0
LINE
  8
0
 10
300.695
 20
-43.3477
 11
284.912
 21
-51.4648
  0
LINE
  8
0
 10
284.912
 20
-51.4648
 11
269.484
 21
-57.9512
  0
LINE
  8
0
 10
269.484
 20
-57.9512
 11
266.633
 21
-53.014
  0
LINE
  8
0
 10
26.1898
 20
-42.9946
 11
21.772
 21
-35.3427
  0
LINE
  8
0
 10
21.772
 20
-35.3427
 11
26.1898
 21
-27.6908
  0
LINE
  8
0
 10
26.1898
 20
-27.6908
 11
35.0255
 21
-27.6908
  0
LINE
  8
0
 10
35.0255
 20
-27.6908
 11
39.4433
 21
-35.3427
  0
LINE
  8
0
 10
39.4433
 20
-35.3427
 11
35.0255
 21
-42.9946
  0
LINE
  8
0
 10
35.0255
 20
-42.9946
 11
26.1898
 21
-42.9946
  0
LINE
  8
0
 10
179.228
 20
-42.9946
 11
174.81
 21
-35.3427
  0
LINE
  8
0
 10
174.81
 20
-35.3427
 11
179.228
 21
-27.6908
  0
LINE
  8
0
 10
179.228
 20
-27.6908
 11
188.064
 21
-27.6908
  0
LINE
  8
0
 10
188.064
 20
-27.6908
 11
192.482
 21
-35.3427
  0
LINE
  8
0
 10
192.482
 20
-35.3427
 11
188.064
 21
-42.9946
  0
LINE
  8
0
 10
188.064
 20
-42.9946
 11
179.228
 21
-42.9946
  0
LINE
  8
0
 10
-65.6331
 20
-42.9946
 11
-70.0509
 21
-35.3427
  0
LINE
  8
0
 10
-70.0509
 20
-35.3427
 11
-65.6331
 21
-27.6908
  0
LINE
  8
0
 10
-65.6331
 20
-27.6908
 11
-56.7974
 21
-27.6908
  0
LINE
  8
0
 10
-56.7974
 20
-27.6908
 11
-52.3796
 21
-35.3427
  0
LINE
  8
0
 10
-52.3796
 20
-35.3427
 11
-56.7974
 21
-42.9946
  0
LINE
  8
0
 10
-56.7974
 20
-42.9946
 11
-65.6331
 21
-42.9946
  0
LINE
  8
0
 10
87.4051
 20
-42.9946
 11
82.9873
 21
-35.3427
  0
LINE
  8
0
 10
82.9873
 20
-35.3427
 11
87.4051
 21
-27.6908
  0
LINE
  8
0
 10
87.4051
 20
-27.6908
 11
96.2408
 21
-27.6908
  0
LINE
  8
0
 10
96.2408
 20
-27.6908
 11
100.659
 21
-35.3427
  0
LINE
  8
0
 10
100.659
 20
-35.3427
 11
96.2408
 21
-42.9946
  0
LINE
  8
0
 10
96.2408
 20
-42.9946
 11
87.4051
 21
-42.9946
  0
LINE
  8
0
 10
-4.41783
 20
-42.9946
 11
-8.83566
 21
-35.3427
  0
LINE
  8
0
 10
-8.83566
 20
-35.3427
 11
-4.41783
 21
-27.6908
  0
LINE
  8
0
 10
-4.41783
 20
-27.6908
 11
4.41783
 21
-27.6908
  0
LINE
  8
0
 10
4.41783
 20
-27.6908
 11
8.83566
 21
-35.3427
  0
LINE
  8
0
 10
8.83566
 20
-35.3427
 11
4.41783
 21
-42.9946
  0
LINE
  8
0
 10
4.41783
 20
-42.9946
 11
-4.41783
 21
-42.9946
  0
LINE
  8
0
 10
56.7974
 20
-42.9946
 11
52.3796
 21
-35.3427
  0
LINE
  8
0
 10
52.3796
 20
-35.3427
 11
56.7974
 21
-27.6908
  0
LINE
  8
0
 10
56.7974
 20
-27.6908
 11
65.6331
 21
-27.6908
  0
LINE
  8
0
 10
65.6331
 20
-27.6908
 11
70.0509
 21
-35.3427
  0
LINE
  8
0
 10
70.0509
 20
-35.3427
 11
65.6331
 21
-42.9946
  0
LINE
  8
0
 10
65.6331
 20
-42.9946
 11
56.7974
 21
-42.9946
  0
LINE
  8
0
 10
148.62
 20
-42.9946
 11
144.203
 21
-35.3427
  0
LINE
  8
0
 10
144.203
 20
-35.3427
 11
148.62
 21
-27.6908
  0
LINE
  8
0
 10
148.62
 20
-27.6908
 11
157.456
 21
-27.6908
  0
LINE
  8
0
 10
157.456
 20
-27.6908
 11
161.874
 21
-35.3427
  0
LINE
  8
0
 10
161.874
 20
-35.3427
 11
157.456
 21
-42.9946
  0
LINE
  8
0
 10
157.456
 20
-42.9946
 11
148.62
 21
-42.9946
  0
LINE
  8
0
 10
-96.2408
 20
-42.9946
 11
-100.659
 21
-35.3427
  0
LINE
  8
0
 10
-100.659
 20
-35.3427
 11
-96.2408
 21
-27.6908
  0
LINE
  8
0
 10
-96.2408
 20
-27.6908
 11
-87.4051
 21
-27.6908
  0
LINE
  8
0
 10
-87.4051
 20
-27.6908
 11
-82.9873
 21
-35.3427
  0
LINE
  8
0
 10
-82.9873
 20
-35.3427
 11
-87.4051
 21
-42.9946
  0
LINE
  8
0
 10
-87.4051
 20
-42.9946
 11
-96.2408
 21
-42.9946
  0
LINE
  8
0
 10
-126.848
 20
-42.9946
 11
-131.266
 21
-35.3427
  0
LINE
  8
0
 10
-131.266
 20
-35.3427
 11
-126.848
 21
-27.6908
  0
LINE
  8
0
 10
-126.848
 20
-27.6908
 11
-118.013
 21
-27.6908
  0
LINE
  8
0
 10
-118.013
 20
-27.6908
 11
-113.595
 21
-35.3427
  0
LINE
  8
0
 10
-113.595
 20
-35.3427
 11
-118.013
 21
-42.9946
  0
LINE
  8
0
 10
-118.013
 20
-42.9946
 11
-126.848
 21
-42.9946
  0
LINE
  8
0
 10
-208.346
 20
-30.2714
 11
-205.418
 21
-35.3427
  0
LINE
  8
0
 10
-205.418
 20
-35.3427
 11
-208.346
 21
-40.4139
  0
LINE
  8
0
 10
-208.346
 20
-40.4139
 11
-208.346
 21
-30.2714
  0
LINE
  8
0
 10
-142.152
 20
-51.8302
 11
-146.57
 21
-44.1783
  0
LINE
  8
0
 10
-146.57
 20
-44.1783
 11
-142.152
 21
-36.5264
  0
LINE
  8
0
 10
-142.152
 20
-36.5264
 11
-133.317
 21
-36.5264
  0
LINE
  8
0
 10
-133.317
 20
-36.5264
 11
-128.899
 21
-44.1783
  0
LINE
  8
0
 10
-128.899
 20
-44.1783
 11
-133.317
 21
-51.8302
  0
LINE
  8
0
 10
-133.317
 20
-51.8302
 11
-142.152
 21
-51.8302
  0
LINE
  8
0
 10
-50.3293
 20
-51.8302
 11
-54.7471
 21
-44.1783
  0
LINE
  8
0
 10
-54.7471
 20
-44.1783
 11
-50.3293
 21
-36.5264
  0
LINE
  8
0
 10
-50.3293
 20
-36.5264
 11
-41.4936
 21
-36.5264
  0
LINE
  8
0
 10
-41.4936
 20
-36.5264
 11
-37.0758
 21
-44.1783
  0
LINE
  8
0
 10
-37.0758
 20
-44.1783
 11
-41.4936
 21
-51.8302
  0
LINE
  8
0
 10
-41.4936
 20
-51.8302
 11
-50.3293
 21
-51.8302
  0
LINE
  8
0
 10
102.709
 20
-51.8302
 11
98.2911
 21
-44.1783
  0
LINE
  8
0
 10
98.2911
 20
-44.1783
 11
102.709
 21
-36.5264
  0
LINE
  8
0
 10
102.709
 20
-36.5264
 11
111.545
 21
-36.5264
  0
LINE
  8
0
 10
111.545
 20
-36.5264
 11
115.962
 21
-44.1783
  0
LINE
  8
0
 10
115.962
 20
-44.1783
 11
111.545
 21
-51.8302
  0
LINE
  8
0
 10
111.545
 20
-51.8302
 11
102.709
 21
-51.8302
  0
LINE
  8
0
 10
-111.545
 20
-51.8302
 11
-115.962
 21
-44.1783
  0
LINE
  8
0
 10
-115.962
 20
-44.1783
 11
-111.545
 21
-36.5264
  0
LINE
  8
0
 10
-111.545
 20
-36.5264
 11
-102.709
 21
-36.5264
  0
LINE
  8
0
 10
-102.709
 20
-36.5264
 11
-98.2911
 21
-44.1783
  0
LINE
  8
0
 10
-98.2911
 20
-44.1783
 11
-102.709
 21
-51.8302
  0
LINE
  8
0
 10
-102.709
 20
-51.8302
 11
-111.545
 21
-51.8302
  0
LINE
  8
0
 10
-19.7216
 20
-51.8302
 11
-24.1395
 21
-44.1783
  0
LINE
  8
0
 10
-24.1395
 20
-44.1783
 11
-19.7216
 21
-36.5264
  0
LINE
  8
0
 10
-19.7216
 20
-36.5264
 11
-10.886
 21
-36.5264
  0
LINE
  8
0
 10
-10.886
 20
-36.5264
 11
-6.46815
 21
-44.1783
  0
LINE
  8
0
 10
-6.46815
 20
-44.1783
 11
-10.886
 21
-51.8302
  0
LINE
  8
0
 10
-10.886
 20
-51.8302
 11
-19.7216
 21
-51.8302
  0
LINE
  8
0
 10
163.924
 20
-51.8302
 11
159.506
 21
-44.1783
  0
LINE
  8
0
 10
159.506
 20
-44.1783
 11
163.924
 21
-36.5264
  0
LINE
  8
0
 10
163.924
 20
-36.5264
 11
172.76
 21
-36.5264
  0
LINE
  8
0
 10
172.76
 20
-36.5264
 11
177.178
 21
-44.1783
  0
LINE
  8
0
 10
177.178
 20
-44.1783
 11
172.76
 21
-51.8302
  0
LINE
  8
0
 10
172.76
 20
-51.8302
 11
163.924
 21
-51.8302
  0
LINE
  8
0
 10
-80.9369
 20
-51.8302
 11
-85.3548
 21
-44.1783
  0
LINE
  8
0
 10
-85.3548
 20
-44.1783
 11
-80.9369
 21
-36.5264
  0
LINE
  8
0
 10
-80.9369
 20
-36.5264
 11
-72.1013
 21
-36.5264
  0
LINE
  8
0
 10
-72.1013
 20
-36.5264
 11
-67.6834
 21
-44.1783
  0
LINE
  8
0
 10
-67.6834
 20
-44.1783
 11
-72.1013
 21
-51.8302
  0
LINE
  8
0
 10
-72.1013
 20
-51.8302
 11
-80.9369
 21
-51.8302
  0
LINE
  8
0
 10
41.4936
 20
-51.8302
 11
37.0758
 21
-44.1783
  0
LINE
  8
0
 10
37.0758
 20
-44.1783
 11
41.4936
 21
-36.5264
  0
LINE
  8
0
 10
41.4936
 20
-36.5264
 11
50.3293
 21
-36.5264
  0
LINE
  8
0
 10
50.3293
 20
-36.5264
 11
54.7471
 21
-44.1783
  0
LINE
  8
0
 10
54.7471
 20
-44.1783
 11
50.3293
 21
-51.8302
  0
LINE
  8
0
 10
50.3293
 20
-51.8302
 11
41.4936
 21
-51.8302
  0
LINE
  8
0
 10
225.139
 20
-51.8302
 11
220.722
 21
-44.1783
  0
LINE
  8
0
 10
220.722
 20
-44.1783
 11
225.139
 21
-36.5264
  0
LINE
  8
0
 10
225.139
 20
-36.5264
 11
233.975
 21
-36.5264
  0
LINE
  8
0
 10
233.975
 20
-36.5264
 11
238.393
 21
-44.1783
  0
LINE
  8
0
 10
238.393
 20
-44.1783
 11
233.975
 21
-51.8302
  0
LINE
  8
0
 10
233.975
 20
-51.8302
 11
225.139
 21
-51.8302
  0
LINE
  8
0
 10
255.747
 20
-51.8302
 11
251.329
 21
-44.1783
  0
LINE
  8
0
 10
251.329
 20
-44.1783
 11
255.747
 21
-36.5264
  0
LINE
  8
0
 10
255.747
 20
-36.5264
 11
264.583
 21
-36.5264
  0
LINE
  8
0
 10
264.583
 20
-36.5264
 11
269.001
 21
-44.1783
  0
LINE
  8
0
 10
269.001
 20
-44.1783
 11
264.583
 21
-51.8302
  0
LINE
  8
0
 10
264.583
 20
-51.8302
 11
255.747
 21
-51.8302
  0
LINE
  8
0
 10
-172.76
 20
-51.8302
 11
-177.178
 21
-44.1783
  0
LINE
  8
0
 10
-177.178
 20
-44.1783
 11
-172.76
 21
-36.5264
  0
LINE
  8
0
 10
-172.76
 20
-36.5264
 11
-163.924
 21
-36.5264
  0
LINE
  8
0
 10
-163.924
 20
-36.5264
 11
-159.506
 21
-44.1783
  0
LINE
  8
0
 10
-159.506
 20
-44.1783
 11
-163.924
 21
-51.8302
  0
LINE
  8
0
 10
-163.924
 20
-51.8302
 11
-172.76
 21
-51.8302
  0
LINE
  8
0
 10
72.1013
 20
-51.8302
 11
67.6834
 21
-44.1783
  0
LINE
  8
0
 10
67.6834
 20
-44.1783
 11
72.1013
 21
-36.5264
  0
LINE
  8
0
 10
72.1013
 20
-36.5264
 11
80.9369
 21
-36.5264
  0
LINE
  8
0
 10
80.9369
 20
-36.5264
 11
85.3548
 21
-44.1783
  0
LINE
  8
0
 10
85.3548
 20
-44.1783
 11
80.9369
 21
-51.8302
  0
LINE
  8
0
 10
80.9369
 20
-51.8302
 11
72.1013
 21
-51.8302
  0
LINE
  8
0
 10
10.886
 20
-51.8302
 11
6.46815
 21
-44.1783
  0
LINE
  8
0
 10
6.46815
 20
-44.1783
 11
10.886
 21
-36.5264
  0
LINE
  8
0
 10
10.886
 20
-36.5264
 11
19.7216
 21
-36.5264
  0
LINE
  8
0
 10
19.7216
 20
-36.5264
 11
24.1395
 21
-44.1783
  0
LINE
  8
0
 10
24.1395
 20
-44.1783
 11
19.7216
 21
-51.8302
  0
LINE
  8
0
 10
19.7216
 20
-51.8302
 11
10.886
 21
-51.8302
  0
LINE
  8
0
 10
194.532
 20
-51.8302
 11
190.114
 21
-44.1783
  0
LINE
  8
0
 10
190.114
 20
-44.1783
 11
194.532
 21
-36.5264
  0
LINE
  8
0
 10
194.532
 20
-36.5264
 11
203.368
 21
-36.5264
  0
LINE
  8
0
 10
203.368
 20
-36.5264
 11
207.785
 21
-44.1783
  0
LINE
  8
0
 10
207.785
 20
-44.1783
 11
203.368
 21
-51.8302
  0
LINE
  8
0
 10
203.368
 20
-51.8302
 11
194.532
 21
-51.8302
  0
LINE
  8
0
 10
-203.368
 20
-51.8302
 11
-207.785
 21
-44.1783
  0
LINE
  8
0
 10
-207.785
 20
-44.1783
 11
-203.368
 21
-36.5264
  0
LINE
  8
0
 10
-203.368
 20
-36.5264
 11
-194.532
 21
-36.5264
  0
LINE
  8
0
 10
-194.532
 20
-36.5264
 11
-190.114
 21
-44.1783
  0
LINE
  8
0
 10
-190.114
 20
-44.1783
 11
-194.532
 21
-51.8302
  0
LINE
  8
0
 10
-194.532
 20
-51.8302
 11
-203.368
 21
-51.8302
  0
LINE
  8
0
 10
133.317
 20
-51.8302
 11
128.899
 21
-44.1783
  0
LINE
  8
0
 10
128.899
 20
-44.1783
 11
133.317
 21
-36.5264
  0
LINE
  8
0
 10
133.317
 20
-36.5264
 11
142.152
 21
-36.5264
  0
LINE
  8
0
 10
142.152
 20
-36.5264
 11
146.57
 21
-44.1783
  0
LINE
  8
0
 10
146.57
 20
-44.1783
 11
142.152
 21
-51.8302
  0
LINE
  8
0
 10
142.152
 20
-51.8302
 11
133.317
 21
-51.8302
  0
LINE
  8
0
 10
118.013
 20
-60.6659
 11
113.595
 21
-53.014
  0
LINE
  8
0
 10
113.595
 20
-53.014
 11
118.013
 21
-45.3621
  0
LINE
  8
0
 10
118.013
 20
-45.3621
 11
126.848
 21
-45.3621
  0
LINE
  8
0
 10
126.848
 20
-45.3621
 11
131.266
 21
-53.014
  0
LINE
  8
0
 10
131.266
 20
-53.014
 11
126.848
 21
-60.6659
  0
LINE
  8
0
 10
126.848
 20
-60.6659
 11
118.013
 21
-60.6659
  0
LINE
  8
0
 10
-96.2408
 20
-60.6659
 11
-100.659
 21
-53.014
  0
LINE
  8
0
 10
-100.659
 20
-53.014
 11
-96.2408
 21
-45.3621
  0
LINE
  8
0
 10
-96.2408
 20
-45.3621
 11
-87.4051
 21
-45.3621
  0
LINE
  8
0
 10
-87.4051
 20
-45.3621
 11
-82.9873
 21
-53.014
  0
LINE
  8
0
 10
-82.9873
 20
-53.014
 11
-87.4051
 21
-60.6659
  0
LINE
  8
0
 10
-87.4051
 20
-60.6659
 11
-96.2408
 21
-60.6659
  0
LINE
  8
0
 10
56.7974
 20
-60.6659
 11
52.3796
 21
-53.014
  0
LINE
  8
0
 10
52.3796
 20
-53.014
 11
56.7974
 21
-45.3621
  0
LINE
  8
0
 10
56.7974
 20
-45.3621
 11
65.6331
 21
-45.3621
  0
LINE
  8
0
 10
65.6331
 20
-45.3621
 11
70.0509
 21
-53.014
  0
LINE
  8
0
 10
70.0509
 20
-53.014
 11
65.6331
 21
-60.6659
  0
LINE
  8
0
 10
65.6331
 20
-60.6659
 11
56.7974
 21
-60.6659
  0
LINE
  8
0
 10
-4.41783
 20
-60.6659
 11
-8.83566
 21
-53.014
  0
LINE
  8
0
 10
-8.83566
 20
-53.014
 11
-4.41783
 21
-45.3621
  0
LINE
  8
0
 10
-4.41783
 20
-45.3621
 11
4.41783
 21
-45.3621
  0
LINE
  8
0
 10
4.41783
 20
-45.3621
 11
8.83566
 21
-53.014
  0
LINE
  8
0
 10
8.83566
 20
-53.014
 11
4.41783
 21
-60.6659
  0
LINE
  8
0
 10
4.41783
 20
-60.6659
 11
-4.41783
 21
-60.6659
  0
LINE
  8
0
 10
240.443
 20
-60.6659
 11
236.025
 21
-53.014
  0
LINE
  8
0
 10
236.025
 20
-53.014
 11
240.443
 21
-45.3621
  0
LINE
  8
0
 10
240.443
 20
-45.3621
 11
249.279
 21
-45.3621
  0
LINE
  8
0
 10
249.279
 20
-45.3621
 11
253.697
 21
-53.014
  0
LINE
  8
0
 10
253.697
 20
-53.014
 11
249.279
 21
-60.6659
  0
LINE
  8
0
 10
249.279
 20
-60.6659
 11
240.443
 21
-60.6659
  0
LINE
  8
0
 10
148.62
 20
-60.6659
 11
144.203
 21
-53.014
  0
LINE
  8
0
 10
144.203
 20
-53.014
 11
148.62
 21
-45.3621
  0
LINE
  8
0
 10
148.62
 20
-45.3621
 11
157.456
 21
-45.3621
  0
LINE
  8
0
 10
157.456
 20
-45.3621
 11
161.874
 21
-53.014
  0
LINE
  8
0
 10
161.874
 20
-53.014
 11
157.456
 21
-60.6659
  0
LINE
  8
0
 10
157.456
 20
-60.6659
 11
148.62
 21
-60.6659
  0
LINE
  8
0
 10
209.836
 20
-60.6659
 11
205.418
 21
-53.014
  0
LINE
  8
0
 10
205.418
 20
-53.014
 11
209.836
 21
-45.3621
  0
LINE
  8
0
 10
209.836
 20
-45.3621
 11
218.671
 21
-45.3621
  0
LINE
  8
0
 10
218.671
 20
-45.3621
 11
223.089
 21
-53.014
  0
LINE
  8
0
 10
223.089
 20
-53.014
 11
218.671
 21
-60.6659
  0
LINE
  8
0
 10
218.671
 20
-60.6659
 11
209.836
 21
-60.6659
  0
LINE
  8
0
 10
179.228
 20
-60.6659
 11
174.81
 21
-53.014
  0
LINE
  8
0
 10
174.81
 20
-53.014
 11
179.228
 21
-45.3621
  0
LINE
  8
0
 10
179.228
 20
-45.3621
 11
188.064
 21
-45.3621
  0
LINE
  8
0
 10
188.064
 20
-45.3621
 11
192.482
 21
-53.014
  0
LINE
  8
0
 10
192.482
 20
-53.014
 11
188.064
 21
-60.6659
  0
LINE
  8
0
 10
188.064
 20
-60.6659
 11
179.228
 21
-60.6659
  0
LINE
  8
0
 10
-65.6331
 20
-60.6659
 11
-70.0509
 21
-53.014
  0
LINE
  8
0
 10
-70.0509
 20
-53.014
 11
-65.6331
 21
-45.3621
  0
LINE
  8
0
 10
-65.6331
 20
-45.3621
 11
-56.7974
 21
-45.3621
  0
LINE
  8
0
 10
-56.7974
 20
-45.3621
 11
-52.3796
 21
-53.014
  0
LINE
  8
0
 10
-52.3796
 20
-53.014
 11
-56.7974
 21
-60.6659
  0
LINE
  8
0
 10
-56.7974
 20
-60.6659
 11
-65.6331
 21
-60.6659
  0
LINE
  8
0
 10
87.4051
 20
-60.6659
 11
82.9873
 21
-53.014
  0
LINE
  8
0
 10
82.9873
 20
-53.014
 11
87.4051
 21
-45.3621
  0
LINE
  8
0
 10
87.4051
 20
-45.3621
 11
96.2408
 21
-45.3621
  0
LINE
  8
0
 10
96.2408
 20
-45.3621
 11
100.659
 21
-53.014
  0
LINE
  8
0
 10
100.659
 20
-53.014
 11
96.2408
 21
-60.6659
  0
LINE
  8
0
 10
96.2408
 20
-60.6659
 11
87.4051
 21
-60.6659
  0
LINE
  8
0
 10
-35.0255
 20
-60.6659
 11
-39.4433
 21
-53.014
  0
LINE
  8
0
 10
-39.4433
 20
-53.014
 11
-35.0255
 21
-45.3621
  0
LINE
  8
0
 10
-35.0255
 20
-45.3621
 11
-26.1898
 21
-45.3621
  0
LINE
  8
0
 10
-26.1898
 20
-45.3621
 11
-21.772
 21
-53.014
  0
LINE
  8
0
 10
-21.772
 20
-53.014
 11
-26.1898
 21
-60.6659
  0
LINE
  8
0
 10
-26.1898
 20
-60.6659
 11
-35.0255
 21
-60.6659
  0
LINE
  8
0
 10
-188.064
 20
-60.6659
 11
-192.482
 21
-53.014
  0
LINE
  8
0
 10
-192.482
 20
-53.014
 11
-188.064
 21
-45.3621
  0
LINE
  8
0
 10
-188.064
 20
-45.3621
 11
-179.228
 21
-45.3621
  0
LINE
  8
0
 10
-179.228
 20
-45.3621
 11
-174.81
 21
-53.014
  0
LINE
  8
0
 10
-174.81
 20
-53.014
 11
-179.228
 21
-60.6659
  0
LINE
  8
0
 10
-179.228
 20
-60.6659
 11
-188.064
 21
-60.6659
  0
LINE
  8
0
 10
-126.848
 20
-60.6659
 11
-131.266
 21
-53.014
  0
LINE
  8
0
 10
-131.266
 20
-53.014
 11
-126.848
 21
-45.3621
  0
LINE
  8
0
 10
-126.848
 20
-45.3621
 11
-118.013
 21
-45.3621
  0
LINE
  8
0
 10
-118.013
 20
-45.3621
 11
-113.595
 21
-53.014
  0
LINE
  8
0
 10
-113.595
 20
-53.014
 11
-118.013
 21
-60.6659
  0
LINE
  8
0
 10
-118.013
 20
-60.6659
 11
-126.848
 21
-60.6659
  0
LINE
  8
0
 10
-157.456
 20
-60.6659
 11
-161.874
 21
-53.014
  0
LINE
  8
0
 10
-161.874
 20
-53.014
 11
-157.456
 21
-45.3621
  0
LINE
  8
0
 10
-157.456
 20
-45.3621
 11
-148.62
 21
-45.3621
  0
LINE
  8
0
 10
-148.62
 20
-45.3621
 11
-144.203
 21
-53.014
  0
LINE
  8
0
 10
-144.203
 20
-53.014
 11
-148.62
 21
-60.6659
  0
LINE
  8
0
 10
-148.62
 20
-60.6659
 11
-157.456
 21
-60.6659
  0
LINE
  8
0
 10
26.1898
 20
-60.6659
 11
21.772
 21
-53.014
  0
LINE
  8
0
 10
21.772
 20
-53.014
 11
26.1898
 21
-45.3621
  0
LINE
  8
0
 10
26.1898
 20
-45.3621
 11
35.0255
 21
-45.3621
  0
LINE
  8
0
 10
35.0255
 20
-45.3621
 11
39.4433
 21
-53.014
  0
LINE
  8
0
 10
39.4433
 20
-53.014
 11
35.0255
 21
-60.6659
  0
LINE
  8
0
 10
35.0255
 20
-60.6659
 11
26.1898
 21
-60.6659
  0
LINE
  8
0
 10
-208.346
 20
-47.9428
 11
-205.418
 21
-53.014
  0
LINE
  8
0
 10
-205.418
 20
-53.014
 11
-208.346
 21
-58.0852
  0
LINE
  8
0
 10
-208.346
 20
-58.0852
 11
-208.346
 21
-47.9428
  0
LINE
  8
0
 10
-142.152
 20
-69.5016
 11
-146.57
 21
-61.8497
  0
LINE
  8
0
 10
-146.57
 20
-61.8497
 11
-142.152
 21
-54.1977
  0
LINE
  8
0
 10
-142.152
 20
-54.1977
 11
-133.317
 21
-54.1977
  0
LINE
  8
0
 10
-133.317
 20
-54.1977
 11
-128.899
 21
-61.8497
  0
LINE
  8
0
 10
-128.899
 20
-61.8497
 11
-133.317
 21
-69.5016
  0
LINE
  8
0
 10
-133.317
 20
-69.5016
 11
-142.152
 21
-69.5016
  0
LINE
  8
0
 10
-166.432
 20
-68.6182
 11
-173.673
 21
-67.9205
  0
LINE
  8
0
 10
-173.673
 20
-67.9205
 11
-177.178
 21
-61.8497
  0
LINE
  8
0
 10
-177.178
 20
-61.8497
 11
-172.76
 21
-54.1977
  0
LINE
  8
0
 10
-172.76
 20
-54.1977
 11
-163.924
 21
-54.1977
  0
LINE
  8
0
 10
-163.924
 20
-54.1977
 11
-159.506
 21
-61.8497
  0
LINE
  8
0
 10
-159.506
 20
-61.8497
 11
-163.582
 21
-68.9081
  0
LINE
  8
0
 10
-163.582
 20
-68.9081
 11
-166.432
 21
-68.6182
  0
LINE
  8
0
 10
163.924
 20
-69.5016
 11
159.506
 21
-61.8497
  0
LINE
  8
0
 10
159.506
 20
-61.8497
 11
163.924
 21
-54.1977
  0
LINE
  8
0
 10
163.924
 20
-54.1977
 11
172.76
 21
-54.1977
  0
LINE
  8
0
 10
172.76
 20
-54.1977
 11
177.178
 21
-61.8497
  0
LINE
  8
0
 10
177.178
 20
-61.8497
 11
172.76
 21
-69.5016
  0
LINE
  8
0
 10
172.76
 20
-69.5016
 11
163.924
 21
-69.5016
  0
LINE
  8
0
 10
251.329
 20
-61.8497
 11
255.747
 21
-54.1977
  0
LINE
  8
0
 10
255.747
 20
-54.1977
 11
264.583
 21
-54.1977
  0
LINE
  8
0
 10
264.583
 20
-54.1977
 11
267.284
 21
-58.8761
  0
LINE
  8
0
 10
267.284
 20
-58.8761
 11
266.334
 21
-59.2754
  0
LINE
  8
0
 10
266.334
 20
-59.2754
 11
252.592
 21
-64.0366
  0
LINE
  8
0
 10
252.592
 20
-64.0366
 11
251.329
 21
-61.8497
  0
LINE
  8
0
 10
-80.9369
 20
-69.5016
 11
-85.3548
 21
-61.8497
  0
LINE
  8
0
 10
-85.3548
 20
-61.8497
 11
-80.9369
 21
-54.1977
  0
LINE
  8
0
 10
-80.9369
 20
-54.1977
 11
-72.1013
 21
-54.1977
  0
LINE
  8
0
 10
-72.1013
 20
-54.1977
 11
-67.6834
 21
-61.8497
  0
LINE
  8
0
 10
-67.6834
 20
-61.8497
 11
-72.1013
 21
-69.5016
  0
LINE
  8
0
 10
-72.1013
 20
-69.5016
 11
-80.9369
 21
-69.5016
  0
LINE
  8
0
 10
41.4936
 20
-69.5016
 11
37.0758
 21
-61.8497
  0
LINE
  8
0
 10
37.0758
 20
-61.8497
 11
41.4936
 21
-54.1977
  0
LINE
  8
0
 10
41.4936
 20
-54.1977
 11
50.3293
 21
-54.1977
  0
LINE
  8
0
 10
50.3293
 20
-54.1977
 11
54.7471
 21
-61.8497
  0
LINE
  8
0
 10
54.7471
 20
-61.8497
 11
50.3293
 21
-69.5016
  0
LINE
  8
0
 10
50.3293
 20
-69.5016
 11
41.4936
 21
-69.5016
  0
LINE
  8
0
 10
-111.545
 20
-69.5016
 11
-115.962
 21
-61.8497
  0
LINE
  8
0
 10
-115.962
 20
-61.8497
 11
-111.545
 21
-54.1977
  0
LINE
  8
0
 10
-111.545
 20
-54.1977
 11
-102.709
 21
-54.1977
  0
LINE
  8
0
 10
-102.709
 20
-54.1977
 11
-98.2911
 21
-61.8497
  0
LINE
  8
0
 10
-98.2911
 20
-61.8497
 11
-102.709
 21
-69.5016
  0
LINE
  8
0
 10
-102.709
 20
-69.5016
 11
-111.545
 21
-69.5016
  0
LINE
  8
0
 10
10.886
 20
-69.5016
 11
6.46815
 21
-61.8497
  0
LINE
  8
0
 10
6.46815
 20
-61.8497
 11
10.886
 21
-54.1977
  0
LINE
  8
0
 10
10.886
 20
-54.1977
 11
19.7216
 21
-54.1977
  0
LINE
  8
0
 10
19.7216
 20
-54.1977
 11
24.1395
 21
-61.8497
  0
LINE
  8
0
 10
24.1395
 20
-61.8497
 11
19.7216
 21
-69.5016
  0
LINE
  8
0
 10
19.7216
 20
-69.5016
 11
10.886
 21
-69.5016
  0
LINE
  8
0
 10
225.139
 20
-69.5016
 11
220.722
 21
-61.8497
  0
LINE
  8
0
 10
220.722
 20
-61.8497
 11
225.139
 21
-54.1977
  0
LINE
  8
0
 10
225.139
 20
-54.1977
 11
233.975
 21
-54.1977
  0
LINE
  8
0
 10
233.975
 20
-54.1977
 11
238.393
 21
-61.8497
  0
LINE
  8
0
 10
238.393
 20
-61.8497
 11
233.975
 21
-69.5016
  0
LINE
  8
0
 10
233.975
 20
-69.5016
 11
225.139
 21
-69.5016
  0
LINE
  8
0
 10
133.317
 20
-69.5016
 11
128.899
 21
-61.8497
  0
LINE
  8
0
 10
128.899
 20
-61.8497
 11
133.317
 21
-54.1977
  0
LINE
  8
0
 10
133.317
 20
-54.1977
 11
142.152
 21
-54.1977
  0
LINE
  8
0
 10
142.152
 20
-54.1977
 11
146.57
 21
-61.8497
  0
LINE
  8
0
 10
146.57
 20
-61.8497
 11
142.152
 21
-69.5016
  0
LINE
  8
0
 10
142.152
 20
-69.5016
 11
133.317
 21
-69.5016
  0
LINE
  8
0
 10
-19.7216
 20
-69.5016
 11
-24.1395
 21
-61.8497
  0
LINE
  8
0
 10
-24.1395
 20
-61.8497
 11
-19.7216
 21
-54.1977
  0
LINE
  8
0
 10
-19.7216
 20
-54.1977
 11
-10.886
 21
-54.1977
  0
LINE
  8
0
 10
-10.886
 20
-54.1977
 11
-6.46815
 21
-61.8497
  0
LINE
  8
0
 10
-6.46815
 20
-61.8497
 11
-10.886
 21
-69.5016
  0
LINE
  8
0
 10
-10.886
 20
-69.5016
 11
-19.7216
 21
-69.5016
  0
LINE
  8
0
 10
-206.083
 20
-64.7981
 11
-207.785
 21
-61.8497
  0
LINE
  8
0
 10
-207.785
 20
-61.8497
 11
-203.368
 21
-54.1977
  0
LINE
  8
0
 10
-203.368
 20
-54.1977
 11
-194.532
 21
-54.1977
  0
LINE
  8
0
 10
-194.532
 20
-54.1977
 11
-190.114
 21
-61.8497
  0
LINE
  8
0
 10
-190.114
 20
-61.8497
 11
-192.568
 21
-66.1001
  0
LINE
  8
0
 10
-192.568
 20
-66.1001
 11
-189.978
 21
-66.3496
  0
LINE
  8
0
 10
-189.978
 20
-66.3496
 11
-188.064
 21
-63.0334
  0
LINE
  8
0
 10
-188.064
 20
-63.0334
 11
-179.228
 21
-63.0334
  0
LINE
  8
0
 10
-179.228
 20
-63.0334
 11
-176.567
 21
-67.6417
  0
LINE
  8
0
 10
-176.567
 20
-67.6417
 11
-206.083
 21
-64.7981
  0
LINE
  8
0
 10
102.709
 20
-69.5016
 11
98.2911
 21
-61.8497
  0
LINE
  8
0
 10
98.2911
 20
-61.8497
 11
102.709
 21
-54.1977
  0
LINE
  8
0
 10
102.709
 20
-54.1977
 11
111.545
 21
-54.1977
  0
LINE
  8
0
 10
111.545
 20
-54.1977
 11
115.962
 21
-61.8497
  0
LINE
  8
0
 10
115.962
 20
-61.8497
 11
111.545
 21
-69.5016
  0
LINE
  8
0
 10
111.545
 20
-69.5016
 11
102.709
 21
-69.5016
  0
LINE
  8
0
 10
72.1013
 20
-69.5016
 11
67.6834
 21
-61.8497
  0
LINE
  8
0
 10
67.6834
 20
-61.8497
 11
72.1013
 21
-54.1977
  0
LINE
  8
0
 10
72.1013
 20
-54.1977
 11
80.9369
 21
-54.1977
  0
LINE
  8
0
 10
80.9369
 20
-54.1977
 11
85.3548
 21
-61.8497
  0
LINE
  8
0
 10
85.3548
 20
-61.8497
 11
80.9369
 21
-69.5016
  0
LINE
  8
0
 10
80.9369
 20
-69.5016
 11
72.1013
 21
-69.5016
  0
LINE
  8
0
 10
-50.3293
 20
-69.5016
 11
-54.7471
 21
-61.8497
  0
LINE
  8
0
 10
-54.7471
 20
-61.8497
 11
-50.3293
 21
-54.1977
  0
LINE
  8
0
 10
-50.3293
 20
-54.1977
 11
-41.4936
 21
-54.1977
  0
LINE
  8
0
 10
-41.4936
 20
-54.1977
 11
-37.0758
 21
-61.8497
  0
LINE
  8
0
 10
-37.0758
 20
-61.8497
 11
-41.4936
 21
-69.5016
  0
LINE
  8
0
 10
-41.4936
 20
-69.5016
 11
-50.3293
 21
-69.5016
  0
LINE
  8
0
 10
194.532
 20
-69.5016
 11
190.114
 21
-61.8497
  0
LINE
  8
0
 10
190.114
 20
-61.8497
 11
194.532
 21
-54.1977
  0
LINE
  8
0
 10
194.532
 20
-54.1977
 11
203.368
 21
-54.1977
  0
LINE
  8
0
 10
203.368
 20
-54.1977
 11
207.785
 21
-61.8497
  0
LINE
  8
0
 10
207.785
 20
-61.8497
 11
203.368
 21
-69.5016
  0
LINE
  8
0
 10
203.368
 20
-69.5016
 11
194.532
 21
-69.5016
  0
LINE
  8
0
 10
118.013
 20
-78.3372
 11
113.595
 21
-70.6853
  0
LINE
  8
0
 10
113.595
 20
-70.6853
 11
118.013
 21
-63.0334
  0
LINE
  8
0
 10
118.013
 20
-63.0334
 11
126.848
 21
-63.0334
  0
LINE
  8
0
 10
126.848
 20
-63.0334
 11
131.266
 21
-70.6853
  0
LINE
  8
0
 10
131.266
 20
-70.6853
 11
126.848
 21
-78.3372
  0
LINE
  8
0
 10
126.848
 20
-78.3372
 11
118.013
 21
-78.3372
  0
LINE
  8
0
 10
205.418
 20
-70.6853
 11
209.836
 21
-63.0334
  0
LINE
  8
0
 10
209.836
 20
-63.0334
 11
218.671
 21
-63.0334
  0
LINE
  8
0
 10
218.671
 20
-63.0334
 11
223.089
 21
-70.6853
  0
LINE
  8
0
 10
223.089
 20
-70.6853
 11
221.762
 21
-72.9833
  0
LINE
  8
0
 10
221.762
 20
-72.9833
 11
208.271
 21
-75.6265
  0
LINE
  8
0
 10
208.271
 20
-75.6265
 11
205.418
 21
-70.6853
  0
LINE
  8
0
 10
-65.6331
 20
-78.3372
 11
-70.0509
 21
-70.6853
  0
LINE
  8
0
 10
-70.0509
 20
-70.6853
 11
-65.6331
 21
-63.0334
  0
LINE
  8
0
 10
-65.6331
 20
-63.0334
 11
-56.7974
 21
-63.0334
  0
LINE
  8
0
 10
-56.7974
 20
-63.0334
 11
-52.3796
 21
-70.6853
  0
LINE
  8
0
 10
-52.3796
 20
-70.6853
 11
-56.7974
 21
-78.3372
  0
LINE
  8
0
 10
-56.7974
 20
-78.3372
 11
-65.6331
 21
-78.3372
  0
LINE
  8
0
 10
-160.999
 20
-69.1708
 11
-157.456
 21
-63.0334
  0
LINE
  8
0
 10
-157.456
 20
-63.0334
 11
-148.62
 21
-63.0334
  0
LINE
  8
0
 10
-148.62
 20
-63.0334
 11
-144.203
 21
-70.6853
  0
LINE
  8
0
 10
-144.203
 20
-70.6853
 11
-144.309
 21
-70.8689
  0
LINE
  8
0
 10
-144.309
 20
-70.8689
 11
-160.999
 21
-69.1708
  0
LINE
  8
0
 10
-122.785
 20
-73.0586
 11
-134.477
 21
-71.8691
  0
LINE
  8
0
 10
-134.477
 20
-71.8691
 11
-133.317
 21
-71.8691
  0
LINE
  8
0
 10
-133.317
 20
-71.8691
 11
-133.244
 21
-71.9945
  0
LINE
  8
0
 10
-133.244
 20
-71.9945
 11
-130.34
 21
-72.29
  0
LINE
  8
0
 10
-130.34
 20
-72.29
 11
-131.266
 21
-70.6853
  0
LINE
  8
0
 10
-131.266
 20
-70.6853
 11
-126.848
 21
-63.0334
  0
LINE
  8
0
 10
-126.848
 20
-63.0334
 11
-118.013
 21
-63.0334
  0
LINE
  8
0
 10
-118.013
 20
-63.0334
 11
-113.595
 21
-70.6853
  0
LINE
  8
0
 10
-113.595
 20
-70.6853
 11
-115.386
 21
-73.7879
  0
LINE
  8
0
 10
-115.386
 20
-73.7879
 11
-122.785
 21
-73.0586
  0
LINE
  8
0
 10
-35.0255
 20
-78.3372
 11
-39.4433
 21
-70.6853
  0
LINE
  8
0
 10
-39.4433
 20
-70.6853
 11
-35.0255
 21
-63.0334
  0
LINE
  8
0
 10
-35.0255
 20
-63.0334
 11
-26.1898
 21
-63.0334
  0
LINE
  8
0
 10
-26.1898
 20
-63.0334
 11
-21.772
 21
-70.6853
  0
LINE
  8
0
 10
-21.772
 20
-70.6853
 11
-26.1898
 21
-78.3372
  0
LINE
  8
0
 10
-26.1898
 20
-78.3372
 11
-35.0255
 21
-78.3372
  0
LINE
  8
0
 10
-97.8704
 20
-75.5145
 11
-100.659
 21
-70.6853
  0
LINE
  8
0
 10
-100.659
 20
-70.6853
 11
-96.2408
 21
-63.0334
  0
LINE
  8
0
 10
-96.2408
 20
-63.0334
 11
-87.4051
 21
-63.0334
  0
LINE
  8
0
 10
-87.4051
 20
-63.0334
 11
-82.9873
 21
-70.6853
  0
LINE
  8
0
 10
-82.9873
 20
-70.6853
 11
-86.4267
 21
-76.6426
  0
LINE
  8
0
 10
-86.4267
 20
-76.6426
 11
-97.8704
 21
-75.5145
  0
LINE
  8
0
 10
179.228
 20
-78.3372
 11
174.81
 21
-70.6853
  0
LINE
  8
0
 10
174.81
 20
-70.6853
 11
179.228
 21
-63.0334
  0
LINE
  8
0
 10
179.228
 20
-63.0334
 11
188.064
 21
-63.0334
  0
LINE
  8
0
 10
188.064
 20
-63.0334
 11
192.482
 21
-70.6853
  0
LINE
  8
0
 10
192.482
 20
-70.6853
 11
188.064
 21
-78.3372
  0
LINE
  8
0
 10
188.064
 20
-78.3372
 11
179.228
 21
-78.3372
  0
LINE
  8
0
 10
87.4051
 20
-78.3372
 11
82.9873
 21
-70.6853
  0
LINE
  8
0
 10
82.9873
 20
-70.6853
 11
87.4051
 21
-63.0334
  0
LINE
  8
0
 10
87.4051
 20
-63.0334
 11
96.2408
 21
-63.0334
  0
LINE
  8
0
 10
96.2408
 20
-63.0334
 11
100.659
 21
-70.6853
  0
LINE
  8
0
 10
100.659
 20
-70.6853
 11
96.2408
 21
-78.3372
  0
LINE
  8
0
 10
96.2408
 20
-78.3372
 11
87.4051
 21
-78.3372
  0
LINE
  8
0
 10
-4.41783
 20
-78.3372
 11
-8.83566
 21
-70.6853
  0
LINE
  8
0
 10
-8.83566
 20
-70.6853
 11
-4.41783
 21
-63.0334
  0
LINE
  8
0
 10
-4.41783
 20
-63.0334
 11
4.41783
 21
-63.0334
  0
LINE
  8
0
 10
4.41783
 20
-63.0334
 11
8.83566
 21
-70.6853
  0
LINE
  8
0
 10
8.83566
 20
-70.6853
 11
4.41783
 21
-78.3372
  0
LINE
  8
0
 10
4.41783
 20
-78.3372
 11
-4.41783
 21
-78.3372
  0
LINE
  8
0
 10
56.7974
 20
-78.3372
 11
52.3796
 21
-70.6853
  0
LINE
  8
0
 10
52.3796
 20
-70.6853
 11
56.7974
 21
-63.0334
  0
LINE
  8
0
 10
56.7974
 20
-63.0334
 11
65.6331
 21
-63.0334
  0
LINE
  8
0
 10
65.6331
 20
-63.0334
 11
70.0509
 21
-70.6853
  0
LINE
  8
0
 10
70.0509
 20
-70.6853
 11
65.6331
 21
-78.3372
  0
LINE
  8
0
 10
65.6331
 20
-78.3372
 11
56.7974
 21
-78.3372
  0
LINE
  8
0
 10
148.62
 20
-78.3372
 11
144.203
 21
-70.6853
  0
LINE
  8
0
 10
144.203
 20
-70.6853
 11
148.62
 21
-63.0334
  0
LINE
  8
0
 10
148.62
 20
-63.0334
 11
157.456
 21
-63.0334
  0
LINE
  8
0
 10
157.456
 20
-63.0334
 11
161.874
 21
-70.6853
  0
LINE
  8
0
 10
161.874
 20
-70.6853
 11
157.456
 21
-78.3372
  0
LINE
  8
0
 10
157.456
 20
-78.3372
 11
148.62
 21
-78.3372
  0
LINE
  8
0
 10
26.1898
 20
-78.3372
 11
21.772
 21
-70.6853
  0
LINE
  8
0
 10
21.772
 20
-70.6853
 11
26.1898
 21
-63.0334
  0
LINE
  8
0
 10
26.1898
 20
-63.0334
 11
35.0255
 21
-63.0334
  0
LINE
  8
0
 10
35.0255
 20
-63.0334
 11
39.4433
 21
-70.6853
  0
LINE
  8
0
 10
39.4433
 20
-70.6853
 11
35.0255
 21
-78.3372
  0
LINE
  8
0
 10
35.0255
 20
-78.3372
 11
26.1898
 21
-78.3372
  0
LINE
  8
0
 10
240.443
 20
-63.0334
 11
249.279
 21
-63.0334
  0
LINE
  8
0
 10
249.279
 20
-63.0334
 11
250.314
 21
-64.8259
  0
LINE
  8
0
 10
250.314
 20
-64.8259
 11
245.693
 21
-66.4268
  0
LINE
  8
0
 10
245.693
 20
-66.4268
 11
237.089
 21
-68.8434
  0
LINE
  8
0
 10
237.089
 20
-68.8434
 11
240.443
 21
-63.0334
  0
LINE
  8
0
 10
98.2911
 20
-79.521
 11
102.709
 21
-71.8691
  0
LINE
  8
0
 10
102.709
 20
-71.8691
 11
111.545
 21
-71.8691
  0
LINE
  8
0
 10
111.545
 20
-71.8691
 11
115.962
 21
-79.521
  0
LINE
  8
0
 10
115.962
 20
-79.521
 11
112.489
 21
-85.5373
  0
LINE
  8
0
 10
112.489
 20
-85.5373
 11
115.289
 21
-85.4218
  0
LINE
  8
0
 10
115.289
 20
-85.4218
 11
118.013
 21
-80.7047
  0
LINE
  8
0
 10
118.013
 20
-80.7047
 11
126.848
 21
-80.7047
  0
LINE
  8
0
 10
126.848
 20
-80.7047
 11
129.239
 21
-84.846
  0
LINE
  8
0
 10
129.239
 20
-84.846
 11
108.851
 21
-85.6875
  0
LINE
  8
0
 10
108.851
 20
-85.6875
 11
101.854
 21
-85.6919
  0
LINE
  8
0
 10
101.854
 20
-85.6919
 11
98.2911
 21
-79.521
  0
LINE
  8
0
 10
225.139
 20
-71.8691
 11
226.316
 21
-71.8691
  0
LINE
  8
0
 10
226.316
 20
-71.8691
 11
224.912
 21
-72.2635
  0
LINE
  8
0
 10
224.912
 20
-72.2635
 11
225.139
 21
-71.8691
  0
LINE
  8
0
 10
35.1279
 20
-84.915
 11
8.92224
 21
-83.7716
  0
LINE
  8
0
 10
8.92224
 20
-83.7716
 11
6.46815
 21
-79.521
  0
LINE
  8
0
 10
6.46815
 20
-79.521
 11
10.886
 21
-71.8691
  0
LINE
  8
0
 10
10.886
 20
-71.8691
 11
19.7216
 21
-71.8691
  0
LINE
  8
0
 10
19.7216
 20
-71.8691
 11
24.1395
 21
-79.521
  0
LINE
  8
0
 10
24.1395
 20
-79.521
 11
21.3718
 21
-84.3148
  0
LINE
  8
0
 10
21.3718
 20
-84.3148
 11
24.0384
 21
-84.4312
  0
LINE
  8
0
 10
24.0384
 20
-84.4312
 11
26.1898
 21
-80.7047
  0
LINE
  8
0
 10
26.1898
 20
-80.7047
 11
35.0255
 21
-80.7047
  0
LINE
  8
0
 10
35.0255
 20
-80.7047
 11
37.4862
 21
-84.9669
  0
LINE
  8
0
 10
37.4862
 20
-84.9669
 11
35.1279
 21
-84.915
  0
LINE
  8
0
 10
159.506
 20
-79.521
 11
163.924
 21
-71.8691
  0
LINE
  8
0
 10
163.924
 20
-71.8691
 11
172.76
 21
-71.8691
  0
LINE
  8
0
 10
172.76
 20
-71.8691
 11
177.178
 21
-79.521
  0
LINE
  8
0
 10
177.178
 20
-79.521
 11
176.303
 21
-81.0352
  0
LINE
  8
0
 10
176.303
 20
-81.0352
 11
161.295
 21
-82.6191
  0
LINE
  8
0
 10
161.295
 20
-82.6191
 11
159.506
 21
-79.521
  0
LINE
  8
0
 10
128.899
 20
-79.521
 11
133.317
 21
-71.8691
  0
LINE
  8
0
 10
133.317
 20
-71.8691
 11
142.152
 21
-71.8691
  0
LINE
  8
0
 10
142.152
 20
-71.8691
 11
146.57
 21
-79.521
  0
LINE
  8
0
 10
146.57
 20
-79.521
 11
143.844
 21
-84.2433
  0
LINE
  8
0
 10
143.844
 20
-84.2433
 11
146.644
 21
-84.1277
  0
LINE
  8
0
 10
146.644
 20
-84.1277
 11
148.62
 21
-80.7047
  0
LINE
  8
0
 10
148.62
 20
-80.7047
 11
157.456
 21
-80.7047
  0
LINE
  8
0
 10
157.456
 20
-80.7047
 11
158.718
 21
-82.8911
  0
LINE
  8
0
 10
158.718
 20
-82.8911
 11
147.229
 21
-84.1035
  0
LINE
  8
0
 10
147.229
 20
-84.1035
 11
131.91
 21
-84.7358
  0
LINE
  8
0
 10
131.91
 20
-84.7358
 11
128.899
 21
-79.521
  0
LINE
  8
0
 10
-112.8
 20
-74.0429
 11
-111.545
 21
-71.8691
  0
LINE
  8
0
 10
-111.545
 20
-71.8691
 11
-102.709
 21
-71.8691
  0
LINE
  8
0
 10
-102.709
 20
-71.8691
 11
-100.769
 21
-75.2288
  0
LINE
  8
0
 10
-100.769
 20
-75.2288
 11
-112.8
 21
-74.0429
  0
LINE
  8
0
 10
-79.5215
 20
-77.3232
 11
-83.8401
 21
-76.8975
  0
LINE
  8
0
 10
-83.8401
 20
-76.8975
 11
-80.9369
 21
-71.8691
  0
LINE
  8
0
 10
-80.9369
 20
-71.8691
 11
-72.1013
 21
-71.8691
  0
LINE
  8
0
 10
-72.1013
 20
-71.8691
 11
-68.3982
 21
-78.283
  0
LINE
  8
0
 10
-68.3982
 20
-78.283
 11
-79.5215
 21
-77.3232
  0
LINE
  8
0
 10
-38.7324
 20
-80.8428
 11
-54.7141
 21
-79.4638
  0
LINE
  8
0
 10
-54.7141
 20
-79.4638
 11
-50.3293
 21
-71.8691
  0
LINE
  8
0
 10
-50.3293
 20
-71.8691
 11
-41.4936
 21
-71.8691
  0
LINE
  8
0
 10
-41.4936
 20
-71.8691
 11
-37.0758
 21
-79.521
  0
LINE
  8
0
 10
-37.0758
 20
-79.521
 11
-37.8718
 21
-80.8997
  0
LINE
  8
0
 10
-37.8718
 20
-80.8997
 11
-38.7324
 21
-80.8428
  0
LINE
  8
0
 10
-22.7672
 20
-81.8979
 11
-24.1395
 21
-79.521
  0
LINE
  8
0
 10
-24.1395
 20
-79.521
 11
-19.7216
 21
-71.8691
  0
LINE
  8
0
 10
-19.7216
 20
-71.8691
 11
-10.886
 21
-71.8691
  0
LINE
  8
0
 10
-10.886
 20
-71.8691
 11
-6.46815
 21
-79.521
  0
LINE
  8
0
 10
-6.46815
 20
-79.521
 11
-8.3891
 21
-82.8482
  0
LINE
  8
0
 10
-8.3891
 20
-82.8482
 11
-22.7672
 21
-81.8979
  0
LINE
  8
0
 10
40.2551
 20
-85.0277
 11
37.0758
 21
-79.521
  0
LINE
  8
0
 10
37.0758
 20
-79.521
 11
41.4936
 21
-71.8691
  0
LINE
  8
0
 10
41.4936
 20
-71.8691
 11
50.3293
 21
-71.8691
  0
LINE
  8
0
 10
50.3293
 20
-71.8691
 11
54.7471
 21
-79.521
  0
LINE
  8
0
 10
54.7471
 20
-79.521
 11
51.426
 21
-85.2733
  0
LINE
  8
0
 10
51.426
 20
-85.2733
 11
40.2551
 21
-85.0277
  0
LINE
  8
0
 10
194.532
 20
-71.8691
 11
203.368
 21
-71.8691
  0
LINE
  8
0
 10
203.368
 20
-71.8691
 11
205.815
 21
-76.1076
  0
LINE
  8
0
 10
205.815
 20
-76.1076
 11
190.334
 21
-79.1405
  0
LINE
  8
0
 10
190.334
 20
-79.1405
 11
194.532
 21
-71.8691
  0
LINE
  8
0
 10
54.1255
 20
-85.3326
 11
56.7974
 21
-80.7047
  0
LINE
  8
0
 10
56.7974
 20
-80.7047
 11
65.6331
 21
-80.7047
  0
LINE
  8
0
 10
65.6331
 20
-80.7047
 11
68.4872
 21
-85.6482
  0
LINE
  8
0
 10
68.4872
 20
-85.6482
 11
71.2561
 21
-85.7091
  0
LINE
  8
0
 10
71.2561
 20
-85.7091
 11
67.6834
 21
-79.521
  0
LINE
  8
0
 10
67.6834
 20
-79.521
 11
72.1013
 21
-71.8691
  0
LINE
  8
0
 10
72.1013
 20
-71.8691
 11
80.9369
 21
-71.8691
  0
LINE
  8
0
 10
80.9369
 20
-71.8691
 11
85.3548
 21
-79.521
  0
LINE
  8
0
 10
85.3548
 20
-79.521
 11
81.7848
 21
-85.7044
  0
LINE
  8
0
 10
81.7848
 20
-85.7044
 11
84.5195
 21
-85.7027
  0
LINE
  8
0
 10
84.5195
 20
-85.7027
 11
87.4051
 21
-80.7047
  0
LINE
  8
0
 10
87.4051
 20
-80.7047
 11
96.2408
 21
-80.7047
  0
LINE
  8
0
 10
96.2408
 20
-80.7047
 11
99.1211
 21
-85.6936
  0
LINE
  8
0
 10
99.1211
 20
-85.6936
 11
71.3398
 21
-85.7109
  0
LINE
  8
0
 10
71.3398
 20
-85.7109
 11
54.1255
 21
-85.3326
  0
LINE
  8
0
 10
179.228
 20
-80.7047
 11
179.435
 21
-80.7047
  0
LINE
  8
0
 10
179.435
 20
-80.7047
 11
179.215
 21
-80.728
  0
LINE
  8
0
 10
179.215
 20
-80.728
 11
179.228
 21
-80.7047
  0
LINE
  8
0
 10
-35.2385
 20
-81.0737
 11
-35.0255
 21
-80.7047
  0
LINE
  8
0
 10
-35.0255
 20
-80.7047
 11
-26.1898
 21
-80.7047
  0
LINE
  8
0
 10
-26.1898
 20
-80.7047
 11
-25.6094
 21
-81.7101
  0
LINE
  8
0
 10
-25.6094
 20
-81.7101
 11
-35.2385
 21
-81.0737
  0
LINE
  8
0
 10
-0.905273
 20
-83.3428
 11
-5.75581
 21
-83.0222
  0
LINE
  8
0
 10
-5.75581
 20
-83.0222
 11
-4.41783
 21
-80.7047
  0
LINE
  8
0
 10
-4.41783
 20
-80.7047
 11
4.41783
 21
-80.7047
  0
LINE
  8
0
 10
4.41783
 20
-80.7047
 11
6.11783
 21
-83.6492
  0
LINE
  8
0
 10
6.11783
 20
-83.6492
 11
-0.905273
 21
-83.3428
  0
LINE
  8
0
 10
203.368
 20
18.8551
 11
194.532
 21
18.8551
  0
LINE
  8
0
 10
194.532
 20
18.8551
 11
190.114
 21
26.507
  0
LINE
  8
0
 10
190.114
 20
26.507
 11
194.532
 21
34.1589
  0
LINE
  8
0
 10
194.532
 20
34.1589
 11
203.368
 21
34.1589
  0
LINE
  8
0
 10
203.368
 20
34.1589
 11
207.284
 21
27.375
  0
LINE
  8
0
 10
207.284
 20
27.375
 11
207.284
 21
25.6389
  0
LINE
  8
0
 10
207.284
 20
25.6389
 11
203.368
 21
18.8551
  0
LINE
  8
0
 10
205.418
 20
35.3427
 11
209.836
 21
42.9946
  0
LINE
  8
0
 10
209.836
 20
42.9946
 11
218.671
 21
42.9946
  0
LINE
  8
0
 10
218.671
 20
42.9946
 11
223.089
 21
35.3427
  0
LINE
  8
0
 10
223.089
 20
35.3427
 11
220.098
 21
30.1621
  0
LINE
  8
0
 10
220.098
 20
30.1621
 11
222.832
 21
30.1621
  0
LINE
  8
0
 10
222.832
 20
30.1621
 11
225.139
 21
34.1589
  0
LINE
  8
0
 10
225.139
 20
34.1589
 11
233.975
 21
34.1589
  0
LINE
  8
0
 10
233.975
 20
34.1589
 11
236.283
 21
30.1621
  0
LINE
  8
0
 10
236.283
 20
30.1621
 11
239.016
 21
30.1621
  0
LINE
  8
0
 10
239.016
 20
30.1621
 11
236.025
 21
35.3427
  0
LINE
  8
0
 10
236.025
 20
35.3427
 11
240.443
 21
42.9946
  0
LINE
  8
0
 10
240.443
 20
42.9946
 11
249.279
 21
42.9946
  0
LINE
  8
0
 10
249.279
 20
42.9946
 11
253.697
 21
35.3427
  0
LINE
  8
0
 10
253.697
 20
35.3427
 11
250.706
 21
30.1621
  0
LINE
  8
0
 10
250.706
 20
30.1621
 11
253.44
 21
30.1621
  0
LINE
  8
0
 10
253.44
 20
30.1621
 11
255.747
 21
34.1589
  0
LINE
  8
0
 10
255.747
 20
34.1589
 11
264.583
 21
34.1589
  0
LINE
  8
0
 10
264.583
 20
34.1589
 11
266.89
 21
30.1621
  0
LINE
  8
0
 10
266.89
 20
30.1621
 11
269.624
 21
30.1621
  0
LINE
  8
0
 10
269.624
 20
30.1621
 11
266.633
 21
35.3427
  0
LINE
  8
0
 10
266.633
 20
35.3427
 11
271.051
 21
42.9946
  0
LINE
  8
0
 10
271.051
 20
42.9946
 11
279.887
 21
42.9946
  0
LINE
  8
0
 10
279.887
 20
42.9946
 11
284.304
 21
35.3427
  0
LINE
  8
0
 10
284.304
 20
35.3427
 11
281.313
 21
30.1621
  0
LINE
  8
0
 10
281.313
 20
30.1621
 11
208.409
 21
30.1621
  0
LINE
  8
0
 10
208.409
 20
30.1621
 11
205.418
 21
35.3427
  0
LINE
  8
0
 10
203.368
 20
1.18375
 11
194.532
 21
1.18375
  0
LINE
  8
0
 10
194.532
 20
1.18375
 11
190.114
 21
8.83566
  0
LINE
  8
0
 10
190.114
 20
8.83566
 11
194.532
 21
16.4876
  0
LINE
  8
0
 10
194.532
 20
16.4876
 11
203.368
 21
16.4876
  0
LINE
  8
0
 10
203.368
 20
16.4876
 11
207.284
 21
9.70369
  0
LINE
  8
0
 10
207.284
 20
9.70369
 11
207.284
 21
7.96762
  0
LINE
  8
0
 10
207.284
 20
7.96762
 11
203.368
 21
1.18375
  0
LINE
  8
0
 10
203.368
 20
-16.4876
 11
194.532
 21
-16.4876
  0
LINE
  8
0
 10
194.532
 20
-16.4876
 11
190.114
 21
-8.83566
  0
LINE
  8
0
 10
190.114
 20
-8.83566
 11
194.532
 21
-1.18375
  0
LINE
  8
0
 10
194.532
 20
-1.18375
 11
203.368
 21
-1.18375
  0
LINE
  8
0
 10
203.368
 20
-1.18375
 11
207.284
 21
-7.96762
  0
LINE
  8
0
 10
207.284
 20
-7.96762
 11
207.284
 21
-9.70369
  0
LINE
  8
0
 10
207.284
 20
-9.70369
 11
203.368
 21
-16.4876
  0
LINE
  8
0
 10
203.368
 20
-34.1589
 11
194.532
 21
-34.1589
  0
LINE
  8
0
 10
194.532
 20
-34.1589
 11
190.114
 21
-26.507
  0
LINE
  8
0
 10
190.114
 20
-26.507
 11
194.532
 21
-18.8551
  0
LINE
  8
0
 10
194.532
 20
-18.8551
 11
203.368
 21
-18.8551
  0
LINE
  8
0
 10
203.368
 20
-18.8551
 11
207.284
 21
-25.6389
  0
LINE
  8
0
 10
207.284
 20
-25.6389
 11
207.284
 21
-27.375
  0
LINE
  8
0
 10
207.284
 20
-27.375
 11
203.368
 21
-34.1589
  0
LINE
  8
0
 10
218.671
 20
-42.9946
 11
209.836
 21
-42.9946
  0
LINE
  8
0
 10
209.836
 20
-42.9946
 11
205.418
 21
-35.3427
  0
LINE
  8
0
 10
205.418
 20
-35.3427
 11
208.409
 21
-30.1621
  0
LINE
  8
0
 10
208.409
 20
-30.1621
 11
220.098
 21
-30.1621
  0
LINE
  8
0
 10
220.098
 20
-30.1621
 11
223.089
 21
-35.3427
  0
LINE
  8
0
 10
223.089
 20
-35.3427
 11
218.671
 21
-42.9946
  0
LINE
  8
0
 10
284.304
 20
-35.3427
 11
279.887
 21
-42.9946
  0
LINE
  8
0
 10
279.887
 20
-42.9946
 11
271.051
 21
-42.9946
  0
LINE
  8
0
 10
271.051
 20
-42.9946
 11
266.633
 21
-35.3427
  0
LINE
  8
0
 10
266.633
 20
-35.3427
 11
269.624
 21
-30.1621
  0
LINE
  8
0
 10
269.624
 20
-30.1621
 11
266.89
 21
-30.1621
  0
LINE
  8
0
 10
266.89
 20
-30.1621
 11
264.583
 21
-34.1589
  0
LINE
  8
0
 10
264.583
 20
-34.1589
 11
255.747
 21
-34.1589
  0
LINE
  8
0
 10
255.747
 20
-34.1589
 11
253.44
 21
-30.1621
  0
LINE
  8
0
 10
253.44
 20
-30.1621
 11
250.706
 21
-30.1621
  0
LINE
  8
0
 10
250.706
 20
-30.1621
 11
253.697
 21
-35.3427
  0
LINE
  8
0
 10
253.697
 20
-35.3427
 11
249.279
 21
-42.9946
  0
LINE
  8
0
 10
249.279
 20
-42.9946
 11
240.443
 21
-42.9946
  0
LINE
  8
0
 10
240.443
 20
-42.9946
 11
236.025
 21
-35.3427
  0
LINE
  8
0
 10
236.025
 20
-35.3427
 11
239.016
 21
-30.1621
  0
LINE
  8
0
 10
239.016
 20
-30.1621
 11
236.283
 21
-30.1621
  0
LINE
  8
0
 10
236.283
 20
-30.1621
 11
233.975
 21
-34.1589
  0
LINE
  8
0
 10
233.975
 20
-34.1589
 11
225.139
 21
-34.1589
  0
LINE
  8
0
 10
225.139
 20
-34.1589
 11
222.832
 21
-30.1621
  0
LINE
  8
0
 10
222.832
 20
-30.1621
 11
281.313
 21
-30.1621
  0
LINE
  8
0
 10
281.313
 20
-30.1621
 11
284.304
 21
-35.3427
  0
LINE
  8
0
 10
-203.368
 20
-34.1589
 11
-205.675
 21
-30.1621
  0
LINE
  8
0
 10
-205.675
 20
-30.1621
 11
-192.224
 21
-30.1621
  0
LINE
  8
0
 10
-192.224
 20
-30.1621
 11
-194.532
 21
-34.1589
  0
LINE
  8
0
 10
-194.532
 20
-34.1589
 11
-203.368
 21
-34.1589
  0
LINE
  8
0
 10
-174.81
 20
-35.3427
 11
-179.228
 21
-42.9946
  0
LINE
  8
0
 10
-179.228
 20
-42.9946
 11
-188.064
 21
-42.9946
  0
LINE
  8
0
 10
-188.064
 20
-42.9946
 11
-192.482
 21
-35.3427
  0
LINE
  8
0
 10
-192.482
 20
-35.3427
 11
-189.491
 21
-30.1621
  0
LINE
  8
0
 10
-189.491
 20
-30.1621
 11
-177.801
 21
-30.1621
  0
LINE
  8
0
 10
-177.801
 20
-30.1621
 11
-174.81
 21
-35.3427
  0
LINE
  8
0
 10
-163.924
 20
-34.1589
 11
-172.76
 21
-34.1589
  0
LINE
  8
0
 10
-172.76
 20
-34.1589
 11
-175.067
 21
-30.1621
  0
LINE
  8
0
 10
-175.067
 20
-30.1621
 11
-161.617
 21
-30.1621
  0
LINE
  8
0
 10
-161.617
 20
-30.1621
 11
-163.924
 21
-34.1589
  0
ENDSEC
  0
SECTION
  2
OBJECTS
  0
DICTIONARY
  0
ENDSEC
  0
EOF
