  0
SECTION
  2
BLOCKS
  0
ENDSEC
  0
SECTION
  2
ENTITIES
  0
LINE
  8
0
 10
109.014
 20
-95.2109
 11
147.888
 21
-93.6064
  0
LINE
  8
0
 10
147.888
 20
-93.6064
 11
187.131
 21
-89.4629
  0
LINE
  8
0
 10
187.131
 20
-89.4629
 11
226.003
 21
-81.8467
  0
LINE
  8
0
 10
226.003
 20
-81.8467
 11
248.541
 21
-75.5156
  0
LINE
  8
0
 10
248.541
 20
-75.5156
 11
269.732
 21
-68.1738
  0
LINE
  8
0
 10
269.732
 20
-68.1738
 11
288.92
 21
-60.1064
  0
LINE
  8
0
 10
288.92
 20
-60.1064
 11
305.449
 21
-51.6016
  0
LINE
  8
0
 10
305.449
 20
-51.6016
 11
318.666
 21
-42.9453
  0
LINE
  8
0
 10
318.666
 20
-42.9453
 11
330.276
 21
-32.2266
  0
LINE
  8
0
 10
330.276
 20
-32.2266
 11
337.52
 21
-21.7578
  0
LINE
  8
0
 10
337.52
 20
-21.7578
 11
341.58
 21
-11.4648
  0
LINE
  8
0
 10
341.58
 20
-11.4648
 11
342.9
 21
0
  0
LINE
  8
0
 10
342.9
 20
0
 11
341.58
 21
11.4648
  0
LINE
  8
0
 10
341.58
 20
11.4648
 11
337.52
 21
21.7578
  0
LINE
  8
0
 10
337.52
 20
21.7578
 11
330.276
 21
32.2266
  0
LINE
  8
0
 10
330.276
 20
32.2266
 11
318.666
 21
42.9453
  0
LINE
  8
0
 10
318.666
 20
42.9453
 11
305.449
 21
51.6016
  0
LINE
  8
0
 10
305.449
 20
51.6016
 11
288.92
 21
60.1064
  0
LINE
  8
0
 10
288.92
 20
60.1064
 11
269.732
 21
68.1738
  0
LINE
  8
0
 10
269.732
 20
68.1738
 11
248.541
 21
75.5156
  0
LINE
  8
0
 10
248.541
 20
75.5156
 11
226.003
 21
81.8467
  0
LINE
  8
0
 10
226.003
 20
81.8467
 11
187.131
 21
89.4629
  0
LINE
  8
0
 10
187.131
 20
89.4629
 11
147.888
 21
93.6064
  0
LINE
  8
0
 10
147.888
 20
93.6064
 11
109.014
 21
95.2119
  0
LINE
  8
0
 10
109.014
 20
95.2119
 11
71.2246
 21
95.2354
  0
LINE
  8
0
 10
71.2246
 20
95.2354
 11
34.8193
 21
94.4355
  0
LINE
  8
0
 10
34.8193
 20
94.4355
 11
-1.42773
 21
92.8535
  0
LINE
  8
0
 10
-1.42773
 20
92.8535
 11
-39.4609
 21
90.3389
  0
LINE
  8
0
 10
-39.4609
 20
90.3389
 11
-80.4131
 21
86.8057
  0
LINE
  8
0
 10
-80.4131
 20
86.8057
 11
-123.747
 21
82.5342
  0
LINE
  8
0
 10
-123.747
 20
82.5342
 11
-167.384
 21
78.0957
  0
LINE
  8
0
 10
-167.384
 20
78.0957
 11
-209.203
 21
74.0664
  0
LINE
  8
0
 10
-209.203
 20
74.0664
 11
-238.863
 21
71.5664
  0
LINE
  8
0
 10
-238.863
 20
71.5664
 11
-268.049
 21
69.0596
  0
LINE
  8
0
 10
-268.049
 20
69.0596
 11
-296.354
 21
65.3604
  0
LINE
  8
0
 10
-296.354
 20
65.3604
 11
-306.775
 21
63.1455
  0
LINE
  8
0
 10
-306.775
 20
63.1455
 11
-316.918
 21
60.0508
  0
LINE
  8
0
 10
-316.918
 20
60.0508
 11
-326.509
 21
55.4062
  0
LINE
  8
0
 10
-326.509
 20
55.4062
 11
-334.591
 21
48.2656
  0
LINE
  8
0
 10
-334.591
 20
48.2656
 11
-339.663
 21
38.4863
  0
LINE
  8
0
 10
-339.663
 20
38.4863
 11
-341.946
 21
27.5039
  0
LINE
  8
0
 10
-341.946
 20
27.5039
 11
-342.749
 21
16.2227
  0
LINE
  8
0
 10
-342.749
 20
16.2227
 11
-342.899
 21
4.91602
  0
LINE
  8
0
 10
-342.899
 20
4.91602
 11
-342.899
 21
-4.91602
  0
LINE
  8
0
 10
-342.899
 20
-4.91602
 11
-342.749
 21
-16.2227
  0
LINE
  8
0
 10
-342.749
 20
-16.2227
 11
-341.946
 21
-27.5039
  0
LINE
  8
0
 10
-341.946
 20
-27.5039
 11
-339.663
 21
-38.4863
  0
LINE
  8
0
 10
-339.663
 20
-38.4863
 11
-334.591
 21
-48.2656
  0
LINE
  8
0
 10
-334.591
 20
-48.2656
 11
-326.509
 21
-55.4062
  0
LINE
  8
0
 10
-326.509
 20
-55.4062
 11
-316.918
 21
-60.0508
  0
LINE
  8
0
 10
-316.918
 20
-60.0508
 11
-306.775
 21
-63.1455
  0
LINE
  8
0
 10
-306.775
 20
-63.1455
 11
-296.354
 21
-65.3604
  0
LINE
  8
0
 10
-296.354
 20
-65.3604
 11
-268.049
 21
-69.0596
  0
LINE
  8
0
 10
-268.049
 20
-69.0596
 11
-238.863
 21
-71.5664
  0
LINE
  8
0
 10
-238.863
 20
-71.5664
 11
-209.203
 21
-74.0664
  0
LINE
  8
0
 10
-209.203
 20
-74.0664
 11
-167.384
 21
-78.0947
  0
LINE
  8
0
 10
-167.384
 20
-78.0947
 11
-123.747
 21
-82.5342
  0
LINE
  8
0
 10
-123.747
 20
-82.5342
 11
-80.4131
 21
-86.8057
  0
LINE
  8
0
 10
-80.4131
 20
-86.8057
 11
-39.4609
 21
-90.3389
  0
LINE
  8
0
 10
-39.4609
 20
-90.3389
 11
-1.42773
 21
-92.8535
  0
LINE
  8
0
 10
-1.42773
 20
-92.8535
 11
34.8193
 21
-94.4355
  0
LINE
  8
0
 10
34.8193
 20
-94.4355
 11
71.2246
 21
-95.2354
  0
LINE
  8
0
 10
71.2246
 20
-95.2354
 11
109.014
 21
-95.2109
  0
LINE
  8
0
 10
54.6539
 20
-85.3442
 11
60.8747
 21
-85.0874
  0
LINE
  8
0
 10
60.8747
 20
-85.0874
 11
62.5
 21
-82.2724
  0
LINE
  8
0
 10
62.5
 20
-82.2724
 11
72.5
 21
-82.2724
  0
LINE
  8
0
 10
72.5
 20
-82.2724
 11
73.8169
 21
-84.5533
  0
LINE
  8
0
 10
73.8169
 20
-84.5533
 11
83.5841
 21
-84.1502
  0
LINE
  8
0
 10
83.5841
 20
-84.1502
 11
80
 21
-77.9423
  0
LINE
  8
0
 10
80
 20
-77.9423
 11
85
 21
-69.282
  0
LINE
  8
0
 10
85
 20
-69.282
 11
95
 21
-69.282
  0
LINE
  8
0
 10
95
 20
-69.282
 11
100
 21
-77.9423
  0
LINE
  8
0
 10
100
 20
-77.9423
 11
97.2038
 21
-82.7855
  0
LINE
  8
0
 10
97.2038
 20
-82.7855
 11
123.237
 21
-80.0381
  0
LINE
  8
0
 10
123.237
 20
-80.0381
 11
125.908
 21
-79.5149
  0
LINE
  8
0
 10
125.908
 20
-79.5149
 11
125
 21
-77.9423
  0
LINE
  8
0
 10
125
 20
-77.9423
 11
130
 21
-69.282
  0
LINE
  8
0
 10
130
 20
-69.282
 11
140
 21
-69.282
  0
LINE
  8
0
 10
140
 20
-69.282
 11
143.876
 21
-75.9948
  0
LINE
  8
0
 10
143.876
 20
-75.9948
 11
156.037
 21
-73.6122
  0
LINE
  8
0
 10
156.037
 20
-73.6122
 11
152.5
 21
-73.6122
  0
LINE
  8
0
 10
152.5
 20
-73.6122
 11
147.5
 21
-64.9519
  0
LINE
  8
0
 10
147.5
 20
-64.9519
 11
152.5
 21
-56.2916
  0
LINE
  8
0
 10
152.5
 20
-56.2916
 11
162.5
 21
-56.2916
  0
LINE
  8
0
 10
162.5
 20
-56.2916
 11
167.5
 21
-64.9519
  0
LINE
  8
0
 10
167.5
 20
-64.9519
 11
163.449
 21
-71.9677
  0
LINE
  8
0
 10
163.449
 20
-71.9677
 11
183.179
 21
-66.4268
  0
LINE
  8
0
 10
183.179
 20
-66.4268
 11
193.766
 21
-62.7584
  0
LINE
  8
0
 10
193.766
 20
-62.7584
 11
197.5
 21
-56.2916
  0
LINE
  8
0
 10
197.5
 20
-56.2916
 11
207.5
 21
-56.2916
  0
LINE
  8
0
 10
207.5
 20
-56.2916
 11
208.167
 21
-57.4474
  0
LINE
  8
0
 10
208.167
 20
-57.4474
 11
216.214
 21
-54.0644
  0
LINE
  8
0
 10
216.214
 20
-54.0644
 11
215
 21
-51.9615
  0
LINE
  8
0
 10
215
 20
-51.9615
 11
220
 21
-43.3013
  0
LINE
  8
0
 10
220
 20
-43.3013
 11
230
 21
-43.3013
  0
LINE
  8
0
 10
230
 20
-43.3013
 11
231.894
 21
-46.5811
  0
LINE
  8
0
 10
231.894
 20
-46.5811
 11
238.181
 21
-43.3477
  0
LINE
  8
0
 10
238.181
 20
-43.3477
 11
239.521
 21
-42.471
  0
LINE
  8
0
 10
239.521
 20
-42.471
 11
237.5
 21
-38.9711
  0
LINE
  8
0
 10
237.5
 20
-38.9711
 11
242.5
 21
-30.3109
  0
LINE
  8
0
 10
242.5
 20
-30.3109
 11
252.5
 21
-30.3109
  0
LINE
  8
0
 10
252.5
 20
-30.3109
 11
253.714
 21
-32.4141
  0
LINE
  8
0
 10
253.714
 20
-32.4141
 11
256.255
 21
-30.1621
  0
LINE
  8
0
 10
256.255
 20
-30.1621
 11
262.825
 21
-30.1621
  0
LINE
  8
0
 10
262.825
 20
-30.1621
 11
262.825
 21
-21.0874
  0
LINE
  8
0
 10
262.825
 20
-21.0874
 11
265
 21
-17.3205
  0
LINE
  8
0
 10
265
 20
-17.3205
 11
266.387
 21
-17.3205
  0
LINE
  8
0
 10
266.387
 20
-17.3205
 11
268.202
 21
-13.9375
  0
LINE
  8
0
 10
268.202
 20
-13.9375
 11
269.837
 21
-8.66025
  0
LINE
  8
0
 10
269.837
 20
-8.66025
 11
265
 21
-8.66025
  0
LINE
  8
0
 10
265
 20
-8.66025
 11
262.825
 21
-4.89337
  0
LINE
  8
0
 10
262.825
 20
-4.89337
 11
262.825
 21
4.89337
  0
LINE
  8
0
 10
262.825
 20
4.89337
 11
265
 21
8.66025
  0
LINE
  8
0
 10
265
 20
8.66025
 11
269.837
 21
8.66025
  0
LINE
  8
0
 10
269.837
 20
8.66025
 11
268.202
 21
13.9375
  0
LINE
  8
0
 10
268.202
 20
13.9375
 11
266.387
 21
17.3205
  0
LINE
  8
0
 10
266.387
 20
17.3205
 11
265
 21
17.3205
  0
LINE
  8
0
 10
265
 20
17.3205
 11
262.825
 21
21.0874
  0
LINE
  8
0
 10
262.825
 20
21.0874
 11
262.825
 21
30.1621
  0
LINE
  8
0
 10
262.825
 20
30.1621
 11
256.255
 21
30.1621
  0
LINE
  8
0
 10
256.255
 20
30.1621
 11
253.714
 21
32.4141
  0
LINE
  8
0
 10
253.714
 20
32.4141
 11
252.5
 21
30.3109
  0
LINE
  8
0
 10
252.5
 20
30.3109
 11
242.5
 21
30.3109
  0
LINE
  8
0
 10
242.5
 20
30.3109
 11
237.5
 21
38.9711
  0
LINE
  8
0
 10
237.5
 20
38.9711
 11
239.521
 21
42.471
  0
LINE
  8
0
 10
239.521
 20
42.471
 11
238.181
 21
43.3477
  0
LINE
  8
0
 10
238.181
 20
43.3477
 11
231.894
 21
46.5811
  0
LINE
  8
0
 10
231.894
 20
46.5811
 11
230
 21
43.3013
  0
LINE
  8
0
 10
230
 20
43.3013
 11
220
 21
43.3013
  0
LINE
  8
0
 10
220
 20
43.3013
 11
215
 21
51.9615
  0
LINE
  8
0
 10
215
 20
51.9615
 11
216.214
 21
54.0644
  0
LINE
  8
0
 10
216.214
 20
54.0644
 11
208.167
 21
57.4474
  0
LINE
  8
0
 10
208.167
 20
57.4474
 11
207.5
 21
56.2916
  0
LINE
  8
0
 10
207.5
 20
56.2916
 11
197.5
 21
56.2916
  0
LINE
  8
0
 10
197.5
 20
56.2916
 11
193.766
 21
62.7584
  0
LINE
  8
0
 10
193.766
 20
62.7584
 11
183.179
 21
66.4268
  0
LINE
  8
0
 10
183.179
 20
66.4268
 11
163.449
 21
71.9677
  0
LINE
  8
0
 10
163.449
 20
71.9677
 11
167.5
 21
64.9519
  0
LINE
  8
0
 10
167.5
 20
64.9519
 11
162.5
 21
56.2916
  0
LINE
  8
0
 10
162.5
 20
56.2916
 11
152.5
 21
56.2916
  0
LINE
  8
0
 10
152.5
 20
56.2916
 11
147.5
 21
64.9519
  0
LINE
  8
0
 10
147.5
 20
64.9519
 11
152.5
 21
73.6122
  0
LINE
  8
0
 10
152.5
 20
73.6122
 11
156.037
 21
73.6122
  0
LINE
  8
0
 10
156.037
 20
73.6122
 11
143.876
 21
75.9948
  0
LINE
  8
0
 10
143.876
 20
75.9948
 11
140
 21
69.282
  0
LINE
  8
0
 10
140
 20
69.282
 11
130
 21
69.282
  0
LINE
  8
0
 10
130
 20
69.282
 11
125
 21
77.9423
  0
LINE
  8
0
 10
125
 20
77.9423
 11
125.908
 21
79.5149
  0
LINE
  8
0
 10
125.908
 20
79.5149
 11
123.237
 21
80.0381
  0
LINE
  8
0
 10
123.237
 20
80.0381
 11
97.2038
 21
82.7855
  0
LINE
  8
0
 10
97.2038
 20
82.7855
 11
100
 21
77.9423
  0
LINE
  8
0
 10
100
 20
77.9423
 11
95
 21
69.282
  0
LINE
  8
0
 10
95
 20
69.282
 11
85
 21
69.282
  0
LINE
  8
0
 10
85
 20
69.282
 11
80
 21
77.9423
  0
LINE
  8
0
 10
80
 20
77.9423
 11
83.5842
 21
84.1502
  0
LINE
  8
0
 10
83.5842
 20
84.1502
 11
73.817
 21
84.5536
  0
LINE
  8
0
 10
73.817
 20
84.5536
 11
72.5
 21
82.2724
  0
LINE
  8
0
 10
72.5
 20
82.2724
 11
62.5
 21
82.2724
  0
LINE
  8
0
 10
62.5
 20
82.2724
 11
60.8744
 21
85.0881
  0
LINE
  8
0
 10
60.8744
 20
85.0881
 11
54.6589
 21
85.3448
  0
LINE
  8
0
 10
54.6589
 20
85.3448
 11
71.3398
 21
85.7109
  0
LINE
  8
0
 10
71.3398
 20
85.7109
 11
108.851
 21
85.6885
  0
LINE
  8
0
 10
108.851
 20
85.6885
 11
147.229
 21
84.1035
  0
LINE
  8
0
 10
147.229
 20
84.1035
 11
185.752
 21
80.0381
  0
LINE
  8
0
 10
185.752
 20
80.0381
 11
223.701
 21
72.6035
  0
LINE
  8
0
 10
223.701
 20
72.6035
 11
245.693
 21
66.4268
  0
LINE
  8
0
 10
245.693
 20
66.4268
 11
266.334
 21
59.2754
  0
LINE
  8
0
 10
266.334
 20
59.2754
 11
284.912
 21
51.4648
  0
LINE
  8
0
 10
284.912
 20
51.4648
 11
300.695
 21
43.3477
  0
LINE
  8
0
 10
300.695
 20
43.3477
 11
312.906
 21
35.3594
  0
LINE
  8
0
 10
312.906
 20
35.3594
 11
321.434
 21
27.8008
  0
LINE
  8
0
 10
321.434
 20
27.8008
 11
327.09
 21
20.6963
  0
LINE
  8
0
 10
327.09
 20
20.6963
 11
330.717
 21
13.9375
  0
LINE
  8
0
 10
330.717
 20
13.9375
 11
332.712
 21
7.49707
  0
LINE
  8
0
 10
332.712
 20
7.49707
 11
333.375
 21
0
  0
LINE
  8
0
 10
333.375
 20
0
 11
332.712
 21
-7.49707
  0
LINE
  8
0
 10
332.712
 20
-7.49707
 11
330.717
 21
-13.9375
  0
LINE
  8
0
 10
330.717
 20
-13.9375
 11
327.09
 21
-20.6963
  0
LINE
  8
0
 10
327.09
 20
-20.6963
 11
321.434
 21
-27.8008
  0
LINE
  8
0
 10
321.434
 20
-27.8008
 11
312.906
 21
-35.3594
  0
LINE
  8
0
 10
312.906
 20
-35.3594
 11
300.695
 21
-43.3477
  0
LINE
  8
0
 10
300.695
 20
-43.3477
 11
284.912
 21
-51.4648
  0
LINE
  8
0
 10
284.912
 20
-51.4648
 11
266.334
 21
-59.2754
  0
LINE
  8
0
 10
266.334
 20
-59.2754
 11
245.693
 21
-66.4268
  0
LINE
  8
0
 10
245.693
 20
-66.4268
 11
223.701
 21
-72.6035
  0
LINE
  8
0
 10
223.701
 20
-72.6035
 11
185.752
 21
-80.0381
  0
LINE
  8
0
 10
185.752
 20
-80.0381
 11
147.229
 21
-84.1035
  0
LINE
  8
0
 10
147.229
 20
-84.1035
 11
108.851
 21
-85.6875
  0
LINE
  8
0
 10
108.851
 20
-85.6875
 11
71.3398
 21
-85.7109
  0
LINE
  8
0
 10
71.3398
 20
-85.7109
 11
54.6539
 21
-85.3442
  0
LINE
  8
0
 10
40
 20
69.282
 11
35
 21
77.9423
  0
LINE
  8
0
 10
35
 20
77.9423
 11
39.0763
 21
85.0027
  0
LINE
  8
0
 10
39.0763
 20
85.0027
 11
50.7754
 21
85.2595
  0
LINE
  8
0
 10
50.7754
 20
85.2595
 11
55
 21
77.9423
  0
LINE
  8
0
 10
55
 20
77.9423
 11
50
 21
69.282
  0
LINE
  8
0
 10
50
 20
69.282
 11
40
 21
69.282
  0
LINE
  8
0
 10
17.5
 20
82.2724
 11
16.4447
 21
84.1003
  0
LINE
  8
0
 10
16.4447
 20
84.1003
 11
28.8685
 21
84.6427
  0
LINE
  8
0
 10
28.8685
 20
84.6427
 11
27.5
 21
82.2724
  0
LINE
  8
0
 10
27.5
 20
82.2724
 11
17.5
 21
82.2724
  0
LINE
  8
0
 10
-5
 20
69.282
 11
-10
 21
77.9423
  0
LINE
  8
0
 10
-10
 20
77.9423
 11
-7.1192
 21
82.9319
  0
LINE
  8
0
 10
-7.1192
 20
82.9319
 11
-0.905273
 21
83.3428
  0
LINE
  8
0
 10
-0.905273
 20
83.3428
 11
6.69055
 21
83.6744
  0
LINE
  8
0
 10
6.69055
 20
83.6744
 11
10
 21
77.9423
  0
LINE
  8
0
 10
10
 20
77.9423
 11
5
 21
69.282
  0
LINE
  8
0
 10
5
 20
69.282
 11
-5
 21
69.282
  0
LINE
  8
0
 10
-50
 20
69.282
 11
-55
 21
77.9423
  0
LINE
  8
0
 10
-55
 20
77.9423
 11
-54.0909
 21
79.5169
  0
LINE
  8
0
 10
-54.0909
 20
79.5169
 11
-38.7324
 21
80.8418
  0
LINE
  8
0
 10
-38.7324
 20
80.8418
 11
-36.7497
 21
80.9729
  0
LINE
  8
0
 10
-36.7497
 20
80.9729
 11
-35
 21
77.9423
  0
LINE
  8
0
 10
-35
 20
77.9423
 11
-40
 21
69.282
  0
LINE
  8
0
 10
-40
 20
69.282
 11
-50
 21
69.282
  0
LINE
  8
0
 10
-95
 20
69.282
 11
-98.5591
 21
75.4466
  0
LINE
  8
0
 10
-98.5591
 20
75.4466
 11
-80.4078
 21
77.2359
  0
LINE
  8
0
 10
-80.4078
 20
77.2359
 11
-85
 21
69.282
  0
LINE
  8
0
 10
-85
 20
69.282
 11
-95
 21
69.282
  0
LINE
  8
0
 10
-117.5
 20
56.2916
 11
-122.5
 21
64.9519
  0
LINE
  8
0
 10
-122.5
 20
64.9519
 11
-117.52
 21
73.5776
  0
LINE
  8
0
 10
-117.52
 20
73.5776
 11
-117.169
 21
73.6122
  0
LINE
  8
0
 10
-117.169
 20
73.6122
 11
-107.5
 21
73.6122
  0
LINE
  8
0
 10
-107.5
 20
73.6122
 11
-102.5
 21
64.9519
  0
LINE
  8
0
 10
-102.5
 20
64.9519
 11
-107.5
 21
56.2916
  0
LINE
  8
0
 10
-107.5
 20
56.2916
 11
-117.5
 21
56.2916
  0
LINE
  8
0
 10
107.5
 20
56.2916
 11
102.5
 21
64.9519
  0
LINE
  8
0
 10
102.5
 20
64.9519
 11
107.5
 21
73.6122
  0
LINE
  8
0
 10
107.5
 20
73.6122
 11
117.5
 21
73.6122
  0
LINE
  8
0
 10
117.5
 20
73.6122
 11
122.5
 21
64.9519
  0
LINE
  8
0
 10
122.5
 20
64.9519
 11
117.5
 21
56.2916
  0
LINE
  8
0
 10
117.5
 20
56.2916
 11
107.5
 21
56.2916
  0
LINE
  8
0
 10
17.5
 20
56.2916
 11
12.5
 21
64.9519
  0
LINE
  8
0
 10
12.5
 20
64.9519
 11
17.5
 21
73.6122
  0
LINE
  8
0
 10
17.5
 20
73.6122
 11
27.5
 21
73.6122
  0
LINE
  8
0
 10
27.5
 20
73.6122
 11
32.5
 21
64.9519
  0
LINE
  8
0
 10
32.5
 20
64.9519
 11
27.5
 21
56.2916
  0
LINE
  8
0
 10
27.5
 20
56.2916
 11
17.5
 21
56.2916
  0
LINE
  8
0
 10
-72.5
 20
56.2916
 11
-77.5
 21
64.9519
  0
LINE
  8
0
 10
-77.5
 20
64.9519
 11
-72.5
 21
73.6122
  0
LINE
  8
0
 10
-72.5
 20
73.6122
 11
-62.5
 21
73.6122
  0
LINE
  8
0
 10
-62.5
 20
73.6122
 11
-57.5
 21
64.9519
  0
LINE
  8
0
 10
-57.5
 20
64.9519
 11
-62.5
 21
56.2916
  0
LINE
  8
0
 10
-62.5
 20
56.2916
 11
-72.5
 21
56.2916
  0
LINE
  8
0
 10
62.5
 20
56.2916
 11
57.5
 21
64.9519
  0
LINE
  8
0
 10
57.5
 20
64.9519
 11
62.5
 21
73.6122
  0
LINE
  8
0
 10
62.5
 20
73.6122
 11
72.5
 21
73.6122
  0
LINE
  8
0
 10
72.5
 20
73.6122
 11
77.5
 21
64.9519
  0
LINE
  8
0
 10
77.5
 20
64.9519
 11
72.5
 21
56.2916
  0
LINE
  8
0
 10
72.5
 20
56.2916
 11
62.5
 21
56.2916
  0
LINE
  8
0
 10
-27.5
 20
56.2916
 11
-32.5
 21
64.9519
  0
LINE
  8
0
 10
-32.5
 20
64.9519
 11
-27.5
 21
73.6122
  0
LINE
  8
0
 10
-27.5
 20
73.6122
 11
-17.5
 21
73.6122
  0
LINE
  8
0
 10
-17.5
 20
73.6122
 11
-12.5
 21
64.9519
  0
LINE
  8
0
 10
-12.5
 20
64.9519
 11
-17.5
 21
56.2916
  0
LINE
  8
0
 10
-17.5
 20
56.2916
 11
-27.5
 21
56.2916
  0
LINE
  8
0
 10
-140
 20
69.282
 11
-141.104
 21
71.1949
  0
LINE
  8
0
 10
-141.104
 20
71.1949
 11
-128.134
 21
72.5145
  0
LINE
  8
0
 10
-128.134
 20
72.5145
 11
-130
 21
69.282
  0
LINE
  8
0
 10
-130
 20
69.282
 11
-140
 21
69.282
  0
LINE
  8
0
 10
-162.5
 20
56.2916
 11
-167.5
 21
64.9519
  0
LINE
  8
0
 10
-167.5
 20
64.9519
 11
-165.318
 21
68.7315
  0
LINE
  8
0
 10
-165.318
 20
68.7315
 11
-150.55
 21
70.2339
  0
LINE
  8
0
 10
-150.55
 20
70.2339
 11
-147.5
 21
64.9519
  0
LINE
  8
0
 10
-147.5
 20
64.9519
 11
-152.5
 21
56.2916
  0
LINE
  8
0
 10
-152.5
 20
56.2916
 11
-162.5
 21
56.2916
  0
LINE
  8
0
 10
-207.5
 20
56.2916
 11
-208.346
 21
57.7564
  0
LINE
  8
0
 10
-208.346
 20
57.7564
 11
-208.346
 21
64.5801
  0
LINE
  8
0
 10
-208.346
 20
64.5801
 11
-193.132
 21
66.0458
  0
LINE
  8
0
 10
-193.132
 20
66.0458
 11
-192.5
 21
64.9519
  0
LINE
  8
0
 10
-192.5
 20
64.9519
 11
-197.5
 21
56.2916
  0
LINE
  8
0
 10
-197.5
 20
56.2916
 11
-207.5
 21
56.2916
  0
LINE
  8
0
 10
-5
 20
43.3013
 11
-10
 21
51.9615
  0
LINE
  8
0
 10
-10
 20
51.9615
 11
-4.99998
 21
60.6218
  0
LINE
  8
0
 10
-4.99998
 20
60.6218
 11
5
 21
60.6218
  0
LINE
  8
0
 10
5
 20
60.6218
 11
10
 21
51.9615
  0
LINE
  8
0
 10
10
 20
51.9615
 11
5
 21
43.3013
  0
LINE
  8
0
 10
5
 20
43.3013
 11
-5
 21
43.3013
  0
LINE
  8
0
 10
-95
 20
43.3013
 11
-100
 21
51.9615
  0
LINE
  8
0
 10
-100
 20
51.9615
 11
-95
 21
60.6218
  0
LINE
  8
0
 10
-95
 20
60.6218
 11
-85
 21
60.6218
  0
LINE
  8
0
 10
-85
 20
60.6218
 11
-80
 21
51.9615
  0
LINE
  8
0
 10
-80
 20
51.9615
 11
-85
 21
43.3013
  0
LINE
  8
0
 10
-85
 20
43.3013
 11
-95
 21
43.3013
  0
LINE
  8
0
 10
40
 20
43.3013
 11
35
 21
51.9615
  0
LINE
  8
0
 10
35
 20
51.9615
 11
40
 21
60.6218
  0
LINE
  8
0
 10
40
 20
60.6218
 11
50
 21
60.6218
  0
LINE
  8
0
 10
50
 20
60.6218
 11
55
 21
51.9615
  0
LINE
  8
0
 10
55
 20
51.9615
 11
50
 21
43.3013
  0
LINE
  8
0
 10
50
 20
43.3013
 11
40
 21
43.3013
  0
LINE
  8
0
 10
-185
 20
43.3013
 11
-190
 21
51.9615
  0
LINE
  8
0
 10
-190
 20
51.9615
 11
-185
 21
60.6218
  0
LINE
  8
0
 10
-185
 20
60.6218
 11
-175
 21
60.6218
  0
LINE
  8
0
 10
-175
 20
60.6218
 11
-170
 21
51.9615
  0
LINE
  8
0
 10
-170
 20
51.9615
 11
-175
 21
43.3013
  0
LINE
  8
0
 10
-175
 20
43.3013
 11
-185
 21
43.3013
  0
LINE
  8
0
 10
-50
 20
43.3013
 11
-55
 21
51.9615
  0
LINE
  8
0
 10
-55
 20
51.9615
 11
-50
 21
60.6218
  0
LINE
  8
0
 10
-50
 20
60.6218
 11
-40
 21
60.6218
  0
LINE
  8
0
 10
-40
 20
60.6218
 11
-35
 21
51.9615
  0
LINE
  8
0
 10
-35
 20
51.9615
 11
-40
 21
43.3013
  0
LINE
  8
0
 10
-40
 20
43.3013
 11
-50
 21
43.3013
  0
LINE
  8
0
 10
175
 20
43.3013
 11
170
 21
51.9615
  0
LINE
  8
0
 10
170
 20
51.9615
 11
175
 21
60.6218
  0
LINE
  8
0
 10
175
 20
60.6218
 11
185
 21
60.6218
  0
LINE
  8
0
 10
185
 20
60.6218
 11
190
 21
51.9615
  0
LINE
  8
0
 10
190
 20
51.9615
 11
185
 21
43.3013
  0
LINE
  8
0
 10
185
 20
43.3013
 11
175
 21
43.3013
  0
LINE
  8
0
 10
85
 20
43.3013
 11
80
 21
51.9615
  0
LINE
  8
0
 10
80
 20
51.9615
 11
85
 21
60.6218
  0
LINE
  8
0
 10
85
 20
60.6218
 11
95
 21
60.6218
  0
LINE
  8
0
 10
95
 20
60.6218
 11
100
 21
51.9615
  0
LINE
  8
0
 10
100
 20
51.9615
 11
95
 21
43.3013
  0
LINE
  8
0
 10
95
 20
43.3013
 11
85
 21
43.3013
  0
LINE
  8
0
 10
-140
 20
43.3013
 11
-145
 21
51.9615
  0
LINE
  8
0
 10
-145
 20
51.9615
 11
-140
 21
60.6218
  0
LINE
  8
0
 10
-140
 20
60.6218
 11
-130
 21
60.6218
  0
LINE
  8
0
 10
-130
 20
60.6218
 11
-125
 21
51.9615
  0
LINE
  8
0
 10
-125
 20
51.9615
 11
-130
 21
43.3013
  0
LINE
  8
0
 10
-130
 20
43.3013
 11
-140
 21
43.3013
  0
LINE
  8
0
 10
130
 20
43.3013
 11
125
 21
51.9615
  0
LINE
  8
0
 10
125
 20
51.9615
 11
130
 21
60.6218
  0
LINE
  8
0
 10
130
 20
60.6218
 11
140
 21
60.6218
  0
LINE
  8
0
 10
140
 20
60.6218
 11
145
 21
51.9615
  0
LINE
  8
0
 10
145
 20
51.9615
 11
140
 21
43.3013
  0
LINE
  8
0
 10
140
 20
43.3013
 11
130
 21
43.3013
  0
LINE
  8
0
 10
152.5
 20
30.3109
 11
147.5
 21
38.9711
  0
LINE
  8
0
 10
147.5
 20
38.9711
 11
152.5
 21
47.6314
  0
LINE
  8
0
 10
152.5
 20
47.6314
 11
162.5
 21
47.6314
  0
LINE
  8
0
 10
162.5
 20
47.6314
 11
167.5
 21
38.9711
  0
LINE
  8
0
 10
167.5
 20
38.9711
 11
162.5
 21
30.3109
  0
LINE
  8
0
 10
162.5
 20
30.3109
 11
152.5
 21
30.3109
  0
LINE
  8
0
 10
62.5
 20
30.3109
 11
57.5
 21
38.9711
  0
LINE
  8
0
 10
57.5
 20
38.9711
 11
62.5
 21
47.6314
  0
LINE
  8
0
 10
62.5
 20
47.6314
 11
72.5
 21
47.6314
  0
LINE
  8
0
 10
72.5
 20
47.6314
 11
77.5
 21
38.9711
  0
LINE
  8
0
 10
77.5
 20
38.9711
 11
72.5
 21
30.3109
  0
LINE
  8
0
 10
72.5
 20
30.3109
 11
62.5
 21
30.3109
  0
LINE
  8
0
 10
-27.5
 20
30.3109
 11
-32.5
 21
38.9711
  0
LINE
  8
0
 10
-32.5
 20
38.9711
 11
-27.5
 21
47.6314
  0
LINE
  8
0
 10
-27.5
 20
47.6314
 11
-17.5
 21
47.6314
  0
LINE
  8
0
 10
-17.5
 20
47.6314
 11
-12.5
 21
38.9711
  0
LINE
  8
0
 10
-12.5
 20
38.9711
 11
-17.5
 21
30.3109
  0
LINE
  8
0
 10
-17.5
 20
30.3109
 11
-27.5
 21
30.3109
  0
LINE
  8
0
 10
-162.5
 20
30.3109
 11
-167.5
 21
38.9711
  0
LINE
  8
0
 10
-167.5
 20
38.9711
 11
-162.5
 21
47.6314
  0
LINE
  8
0
 10
-162.5
 20
47.6314
 11
-152.5
 21
47.6314
  0
LINE
  8
0
 10
-152.5
 20
47.6314
 11
-147.5
 21
38.9711
  0
LINE
  8
0
 10
-147.5
 20
38.9711
 11
-152.5
 21
30.3109
  0
LINE
  8
0
 10
-152.5
 20
30.3109
 11
-162.5
 21
30.3109
  0
LINE
  8
0
 10
107.5
 20
30.3109
 11
102.5
 21
38.9711
  0
LINE
  8
0
 10
102.5
 20
38.9711
 11
107.5
 21
47.6314
  0
LINE
  8
0
 10
107.5
 20
47.6314
 11
117.5
 21
47.6314
  0
LINE
  8
0
 10
117.5
 20
47.6314
 11
122.5
 21
38.9711
  0
LINE
  8
0
 10
122.5
 20
38.9711
 11
117.5
 21
30.3109
  0
LINE
  8
0
 10
117.5
 20
30.3109
 11
107.5
 21
30.3109
  0
LINE
  8
0
 10
-117.5
 20
30.3109
 11
-122.5
 21
38.9711
  0
LINE
  8
0
 10
-122.5
 20
38.9711
 11
-117.5
 21
47.6314
  0
LINE
  8
0
 10
-117.5
 20
47.6314
 11
-107.5
 21
47.6314
  0
LINE
  8
0
 10
-107.5
 20
47.6314
 11
-102.5
 21
38.9711
  0
LINE
  8
0
 10
-102.5
 20
38.9711
 11
-107.5
 21
30.3109
  0
LINE
  8
0
 10
-107.5
 20
30.3109
 11
-117.5
 21
30.3109
  0
LINE
  8
0
 10
17.5
 20
30.3109
 11
12.5
 21
38.9711
  0
LINE
  8
0
 10
12.5
 20
38.9711
 11
17.5
 21
47.6314
  0
LINE
  8
0
 10
17.5
 20
47.6314
 11
27.5
 21
47.6314
  0
LINE
  8
0
 10
27.5
 20
47.6314
 11
32.5
 21
38.9711
  0
LINE
  8
0
 10
32.5
 20
38.9711
 11
27.5
 21
30.3109
  0
LINE
  8
0
 10
27.5
 20
30.3109
 11
17.5
 21
30.3109
  0
LINE
  8
0
 10
-207.5
 20
30.3109
 11
-208.346
 21
31.7757
  0
LINE
  8
0
 10
-208.346
 20
31.7757
 11
-208.346
 21
46.1666
  0
LINE
  8
0
 10
-208.346
 20
46.1666
 11
-207.5
 21
47.6314
  0
LINE
  8
0
 10
-207.5
 20
47.6314
 11
-197.5
 21
47.6314
  0
LINE
  8
0
 10
-197.5
 20
47.6314
 11
-192.5
 21
38.9711
  0
LINE
  8
0
 10
-192.5
 20
38.9711
 11
-197.5
 21
30.3109
  0
LINE
  8
0
 10
-197.5
 20
30.3109
 11
-207.5
 21
30.3109
  0
LINE
  8
0
 10
197.5
 20
30.3109
 11
192.5
 21
38.9711
  0
LINE
  8
0
 10
192.5
 20
38.9711
 11
197.5
 21
47.6314
  0
LINE
  8
0
 10
197.5
 20
47.6314
 11
207.5
 21
47.6314
  0
LINE
  8
0
 10
207.5
 20
47.6314
 11
212.5
 21
38.9711
  0
LINE
  8
0
 10
212.5
 20
38.9711
 11
207.5
 21
30.3109
  0
LINE
  8
0
 10
207.5
 20
30.3109
 11
197.5
 21
30.3109
  0
LINE
  8
0
 10
-72.5
 20
30.3109
 11
-77.5
 21
38.9711
  0
LINE
  8
0
 10
-77.5
 20
38.9711
 11
-72.5
 21
47.6314
  0
LINE
  8
0
 10
-72.5
 20
47.6314
 11
-62.5
 21
47.6314
  0
LINE
  8
0
 10
-62.5
 20
47.6314
 11
-57.5
 21
38.9711
  0
LINE
  8
0
 10
-57.5
 20
38.9711
 11
-62.5
 21
30.3109
  0
LINE
  8
0
 10
-62.5
 20
30.3109
 11
-72.5
 21
30.3109
  0
LINE
  8
0
 10
230
 20
34.641
 11
232.586
 21
30.1621
  0
LINE
  8
0
 10
232.586
 20
30.1621
 11
217.414
 21
30.1621
  0
LINE
  8
0
 10
217.414
 20
30.1621
 11
220
 21
34.641
  0
LINE
  8
0
 10
220
 20
34.641
 11
230
 21
34.641
  0
LINE
  8
0
 10
40
 20
17.3205
 11
35
 21
25.9808
  0
LINE
  8
0
 10
35
 20
25.9808
 11
40
 21
34.641
  0
LINE
  8
0
 10
40
 20
34.641
 11
50
 21
34.641
  0
LINE
  8
0
 10
50
 20
34.641
 11
55
 21
25.9808
  0
LINE
  8
0
 10
55
 20
25.9808
 11
50
 21
17.3205
  0
LINE
  8
0
 10
50
 20
17.3205
 11
40
 21
17.3205
  0
LINE
  8
0
 10
-5
 20
17.3205
 11
-10
 21
25.9808
  0
LINE
  8
0
 10
-10
 20
25.9808
 11
-4.99998
 21
34.641
  0
LINE
  8
0
 10
-4.99998
 20
34.641
 11
5
 21
34.641
  0
LINE
  8
0
 10
5
 20
34.641
 11
10
 21
25.9808
  0
LINE
  8
0
 10
10
 20
25.9808
 11
5
 21
17.3205
  0
LINE
  8
0
 10
5
 20
17.3205
 11
-5
 21
17.3205
  0
LINE
  8
0
 10
85
 20
17.3205
 11
80
 21
25.9808
  0
LINE
  8
0
 10
80
 20
25.9808
 11
85
 21
34.641
  0
LINE
  8
0
 10
85
 20
34.641
 11
95
 21
34.641
  0
LINE
  8
0
 10
95
 20
34.641
 11
100
 21
25.9808
  0
LINE
  8
0
 10
100
 20
25.9808
 11
95
 21
17.3205
  0
LINE
  8
0
 10
95
 20
17.3205
 11
85
 21
17.3205
  0
LINE
  8
0
 10
-140
 20
17.3205
 11
-145
 21
25.9808
  0
LINE
  8
0
 10
-145
 20
25.9808
 11
-140
 21
34.641
  0
LINE
  8
0
 10
-140
 20
34.641
 11
-130
 21
34.641
  0
LINE
  8
0
 10
-130
 20
34.641
 11
-125
 21
25.9808
  0
LINE
  8
0
 10
-125
 20
25.9808
 11
-130
 21
17.3205
  0
LINE
  8
0
 10
-130
 20
17.3205
 11
-140
 21
17.3205
  0
LINE
  8
0
 10
-95
 20
17.3205
 11
-100
 21
25.9808
  0
LINE
  8
0
 10
-100
 20
25.9808
 11
-95
 21
34.641
  0
LINE
  8
0
 10
-95
 20
34.641
 11
-85
 21
34.641
  0
LINE
  8
0
 10
-85
 20
34.641
 11
-80
 21
25.9808
  0
LINE
  8
0
 10
-80
 20
25.9808
 11
-85
 21
17.3205
  0
LINE
  8
0
 10
-85
 20
17.3205
 11
-95
 21
17.3205
  0
LINE
  8
0
 10
-50
 20
17.3205
 11
-55
 21
25.9808
  0
LINE
  8
0
 10
-55
 20
25.9808
 11
-50
 21
34.641
  0
LINE
  8
0
 10
-50
 20
34.641
 11
-40
 21
34.641
  0
LINE
  8
0
 10
-40
 20
34.641
 11
-35
 21
25.9808
  0
LINE
  8
0
 10
-35
 20
25.9808
 11
-40
 21
17.3205
  0
LINE
  8
0
 10
-40
 20
17.3205
 11
-50
 21
17.3205
  0
LINE
  8
0
 10
-180.275
 20
17.3205
 11
-180.275
 21
30.1621
  0
LINE
  8
0
 10
-180.275
 20
30.1621
 11
-187.586
 21
30.1621
  0
LINE
  8
0
 10
-187.586
 20
30.1621
 11
-185
 21
34.641
  0
LINE
  8
0
 10
-185
 20
34.641
 11
-175
 21
34.641
  0
LINE
  8
0
 10
-175
 20
34.641
 11
-170
 21
25.9808
  0
LINE
  8
0
 10
-170
 20
25.9808
 11
-175
 21
17.3205
  0
LINE
  8
0
 10
-175
 20
17.3205
 11
-180.275
 21
17.3205
  0
LINE
  8
0
 10
189.701
 20
17.4639
 11
189.602
 21
17.4688
  0
LINE
  8
0
 10
189.602
 20
17.4688
 11
189.452
 21
17.4814
  0
LINE
  8
0
 10
189.452
 20
17.4814
 11
189.255
 21
17.5098
  0
LINE
  8
0
 10
189.255
 20
17.5098
 11
189.156
 21
17.5283
  0
LINE
  8
0
 10
189.156
 20
17.5283
 11
189.06
 21
17.5498
  0
LINE
  8
0
 10
189.06
 20
17.5498
 11
188.963
 21
17.5752
  0
LINE
  8
0
 10
188.963
 20
17.5752
 11
188.867
 21
17.6025
  0
LINE
  8
0
 10
188.867
 20
17.6025
 11
188.679
 21
17.667
  0
LINE
  8
0
 10
188.679
 20
17.667
 11
188.54
 21
17.7236
  0
LINE
  8
0
 10
188.54
 20
17.7236
 11
188.403
 21
17.7861
  0
LINE
  8
0
 10
188.403
 20
17.7861
 11
188.228
 21
17.8799
  0
LINE
  8
0
 10
188.228
 20
17.8799
 11
188.142
 21
17.9307
  0
LINE
  8
0
 10
188.142
 20
17.9307
 11
188.058
 21
17.9834
  0
LINE
  8
0
 10
188.058
 20
17.9834
 11
187.975
 21
18.04
  0
LINE
  8
0
 10
187.975
 20
18.04
 11
187.815
 21
18.1592
  0
LINE
  8
0
 10
187.815
 20
18.1592
 11
187.701
 21
18.2559
  0
LINE
  8
0
 10
187.701
 20
18.2559
 11
187.591
 21
18.3574
  0
LINE
  8
0
 10
187.591
 20
18.3574
 11
187.486
 21
18.4639
  0
LINE
  8
0
 10
187.486
 20
18.4639
 11
187.387
 21
18.5752
  0
LINE
  8
0
 10
187.387
 20
18.5752
 11
187.322
 21
18.6523
  0
LINE
  8
0
 10
187.322
 20
18.6523
 11
187.262
 21
18.7314
  0
LINE
  8
0
 10
187.262
 20
18.7314
 11
187.175
 21
18.8525
  0
LINE
  8
0
 10
187.175
 20
18.8525
 11
187.146
 21
18.8945
  0
LINE
  8
0
 10
187.146
 20
18.8945
 11
187.067
 21
19.0215
  0
LINE
  8
0
 10
187.067
 20
19.0215
 11
186.995
 21
19.1514
  0
LINE
  8
0
 10
186.995
 20
19.1514
 11
186.949
 21
19.2402
  0
LINE
  8
0
 10
186.949
 20
19.2402
 11
186.867
 21
19.4229
  0
LINE
  8
0
 10
186.867
 20
19.4229
 11
186.813
 21
19.5615
  0
LINE
  8
0
 10
186.813
 20
19.5615
 11
186.766
 21
19.7041
  0
LINE
  8
0
 10
186.766
 20
19.7041
 11
186.713
 21
19.8965
  0
LINE
  8
0
 10
186.713
 20
19.8965
 11
186.682
 21
20.043
  0
LINE
  8
0
 10
186.682
 20
20.043
 11
186.65
 21
20.2393
  0
LINE
  8
0
 10
186.65
 20
20.2393
 11
186.64
 21
20.3389
  0
LINE
  8
0
 10
186.64
 20
20.3389
 11
186.629
 21
20.4883
  0
LINE
  8
0
 10
186.629
 20
20.4883
 11
186.626
 21
20.5879
  0
LINE
  8
0
 10
186.626
 20
20.5879
 11
186.627
 21
20.7373
  0
LINE
  8
0
 10
186.627
 20
20.7373
 11
186.632
 21
20.8369
  0
LINE
  8
0
 10
186.632
 20
20.8369
 11
186.645
 21
20.9863
  0
LINE
  8
0
 10
186.645
 20
20.9863
 11
186.657
 21
21.085
  0
LINE
  8
0
 10
186.657
 20
21.085
 11
186.682
 21
21.2324
  0
LINE
  8
0
 10
186.682
 20
21.2324
 11
186.713
 21
21.3789
  0
LINE
  8
0
 10
186.713
 20
21.3789
 11
186.738
 21
21.4756
  0
LINE
  8
0
 10
186.738
 20
21.4756
 11
186.766
 21
21.5713
  0
LINE
  8
0
 10
186.766
 20
21.5713
 11
186.813
 21
21.7129
  0
LINE
  8
0
 10
186.813
 20
21.7129
 11
186.867
 21
21.8525
  0
LINE
  8
0
 10
186.867
 20
21.8525
 11
186.928
 21
21.9893
  0
LINE
  8
0
 10
186.928
 20
21.9893
 11
186.972
 21
22.0791
  0
LINE
  8
0
 10
186.972
 20
22.0791
 11
187.067
 21
22.2539
  0
LINE
  8
0
 10
187.067
 20
22.2539
 11
187.146
 21
22.3809
  0
LINE
  8
0
 10
187.146
 20
22.3809
 11
187.262
 21
22.5439
  0
LINE
  8
0
 10
187.262
 20
22.5439
 11
187.322
 21
22.623
  0
LINE
  8
0
 10
187.322
 20
22.623
 11
187.419
 21
22.7373
  0
LINE
  8
0
 10
187.419
 20
22.7373
 11
187.556
 21
22.8828
  0
LINE
  8
0
 10
187.556
 20
22.8828
 11
187.627
 21
22.9521
  0
LINE
  8
0
 10
187.627
 20
22.9521
 11
187.738
 21
23.0518
  0
LINE
  8
0
 10
187.738
 20
23.0518
 11
187.854
 21
23.1465
  0
LINE
  8
0
 10
187.854
 20
23.1465
 11
187.975
 21
23.2354
  0
LINE
  8
0
 10
187.975
 20
23.2354
 11
188.142
 21
23.3447
  0
LINE
  8
0
 10
188.142
 20
23.3447
 11
188.314
 21
23.4434
  0
LINE
  8
0
 10
188.314
 20
23.4434
 11
188.449
 21
23.5107
  0
LINE
  8
0
 10
188.449
 20
23.5107
 11
188.586
 21
23.5713
  0
LINE
  8
0
 10
188.586
 20
23.5713
 11
188.725
 21
23.625
  0
LINE
  8
0
 10
188.725
 20
23.625
 11
188.819
 21
23.6572
  0
LINE
  8
0
 10
188.819
 20
23.6572
 11
188.963
 21
23.7002
  0
LINE
  8
0
 10
188.963
 20
23.7002
 11
189.108
 21
23.7363
  0
LINE
  8
0
 10
189.108
 20
23.7363
 11
189.255
 21
23.7656
  0
LINE
  8
0
 10
189.255
 20
23.7656
 11
189.354
 21
23.7812
  0
LINE
  8
0
 10
189.354
 20
23.7812
 11
189.502
 21
23.7988
  0
LINE
  8
0
 10
189.502
 20
23.7988
 11
189.602
 21
23.8066
  0
LINE
  8
0
 10
189.602
 20
23.8066
 11
189.751
 21
23.8125
  0
LINE
  8
0
 10
189.751
 20
23.8125
 11
189.85
 21
23.8125
  0
LINE
  8
0
 10
189.85
 20
23.8125
 11
189.998
 21
23.8066
  0
LINE
  8
0
 10
189.998
 20
23.8066
 11
190.146
 21
23.7939
  0
LINE
  8
0
 10
190.146
 20
23.7939
 11
190.341
 21
23.7666
  0
LINE
  8
0
 10
190.341
 20
23.7666
 11
190.438
 21
23.748
  0
LINE
  8
0
 10
190.438
 20
23.748
 11
190.583
 21
23.7148
  0
LINE
  8
0
 10
190.583
 20
23.7148
 11
190.726
 21
23.6748
  0
LINE
  8
0
 10
190.726
 20
23.6748
 11
190.866
 21
23.6289
  0
LINE
  8
0
 10
190.866
 20
23.6289
 11
191.05
 21
23.5566
  0
LINE
  8
0
 10
191.05
 20
23.5566
 11
191.185
 21
23.4951
  0
LINE
  8
0
 10
191.185
 20
23.4951
 11
191.316
 21
23.4277
  0
LINE
  8
0
 10
191.316
 20
23.4277
 11
191.402
 21
23.3789
  0
LINE
  8
0
 10
191.402
 20
23.3789
 11
191.486
 21
23.3281
  0
LINE
  8
0
 10
191.486
 20
23.3281
 11
191.61
 21
23.2461
  0
LINE
  8
0
 10
191.61
 20
23.2461
 11
191.73
 21
23.1592
  0
LINE
  8
0
 10
191.73
 20
23.1592
 11
191.846
 21
23.0664
  0
LINE
  8
0
 10
191.846
 20
23.0664
 11
191.993
 21
22.9346
  0
LINE
  8
0
 10
191.993
 20
22.9346
 11
192.063
 21
22.8652
  0
LINE
  8
0
 10
192.063
 20
22.8652
 11
192.131
 21
22.7939
  0
LINE
  8
0
 10
192.131
 20
22.7939
 11
192.229
 21
22.6826
  0
LINE
  8
0
 10
192.229
 20
22.6826
 11
192.322
 21
22.5674
  0
LINE
  8
0
 10
192.322
 20
22.5674
 11
192.438
 21
22.4062
  0
LINE
  8
0
 10
192.438
 20
22.4062
 11
192.491
 21
22.3232
  0
LINE
  8
0
 10
192.491
 20
22.3232
 11
192.542
 21
22.2393
  0
LINE
  8
0
 10
192.542
 20
22.2393
 11
192.591
 21
22.1533
  0
LINE
  8
0
 10
192.591
 20
22.1533
 11
192.68
 21
21.9766
  0
LINE
  8
0
 10
192.68
 20
21.9766
 11
192.72
 21
21.8867
  0
LINE
  8
0
 10
192.72
 20
21.8867
 11
192.792
 21
21.7031
  0
LINE
  8
0
 10
192.792
 20
21.7031
 11
192.838
 21
21.5625
  0
LINE
  8
0
 10
192.838
 20
21.5625
 11
192.878
 21
21.4189
  0
LINE
  8
0
 10
192.878
 20
21.4189
 11
192.911
 21
21.2754
  0
LINE
  8
0
 10
192.911
 20
21.2754
 11
192.938
 21
21.1289
  0
LINE
  8
0
 10
192.938
 20
21.1289
 11
192.957
 21
20.9824
  0
LINE
  8
0
 10
192.957
 20
20.9824
 11
192.97
 21
20.835
  0
LINE
  8
0
 10
192.97
 20
20.835
 11
192.976
 21
20.6865
  0
LINE
  8
0
 10
192.976
 20
20.6865
 11
192.976
 21
20.5879
  0
LINE
  8
0
 10
192.976
 20
20.5879
 11
192.97
 21
20.4404
  0
LINE
  8
0
 10
192.97
 20
20.4404
 11
192.957
 21
20.293
  0
LINE
  8
0
 10
192.957
 20
20.293
 11
192.938
 21
20.1455
  0
LINE
  8
0
 10
192.938
 20
20.1455
 11
192.911
 21
20
  0
LINE
  8
0
 10
192.911
 20
20
 11
192.878
 21
19.8555
  0
LINE
  8
0
 10
192.878
 20
19.8555
 11
192.838
 21
19.7129
  0
LINE
  8
0
 10
192.838
 20
19.7129
 11
192.792
 21
19.5723
  0
LINE
  8
0
 10
192.792
 20
19.5723
 11
192.72
 21
19.3887
  0
LINE
  8
0
 10
192.72
 20
19.3887
 11
192.68
 21
19.2979
  0
LINE
  8
0
 10
192.68
 20
19.2979
 11
192.637
 21
19.209
  0
LINE
  8
0
 10
192.637
 20
19.209
 11
192.566
 21
19.0781
  0
LINE
  8
0
 10
192.566
 20
19.0781
 11
192.491
 21
18.9512
  0
LINE
  8
0
 10
192.491
 20
18.9512
 11
192.438
 21
18.8682
  0
LINE
  8
0
 10
192.438
 20
18.8682
 11
192.322
 21
18.708
  0
LINE
  8
0
 10
192.322
 20
18.708
 11
192.197
 21
18.5547
  0
LINE
  8
0
 10
192.197
 20
18.5547
 11
192.098
 21
18.4453
  0
LINE
  8
0
 10
192.098
 20
18.4453
 11
191.993
 21
18.3408
  0
LINE
  8
0
 10
191.993
 20
18.3408
 11
191.92
 21
18.2734
  0
LINE
  8
0
 10
191.92
 20
18.2734
 11
191.846
 21
18.209
  0
LINE
  8
0
 10
191.846
 20
18.209
 11
191.73
 21
18.1162
  0
LINE
  8
0
 10
191.73
 20
18.1162
 11
191.69
 21
18.0859
  0
LINE
  8
0
 10
191.69
 20
18.0859
 11
191.528
 21
17.9736
  0
LINE
  8
0
 10
191.528
 20
17.9736
 11
191.444
 21
17.9209
  0
LINE
  8
0
 10
191.444
 20
17.9209
 11
191.359
 21
17.8711
  0
LINE
  8
0
 10
191.359
 20
17.8711
 11
191.229
 21
17.8018
  0
LINE
  8
0
 10
191.229
 20
17.8018
 11
191.095
 21
17.7383
  0
LINE
  8
0
 10
191.095
 20
17.7383
 11
190.958
 21
17.6807
  0
LINE
  8
0
 10
190.958
 20
17.6807
 11
190.819
 21
17.6299
  0
LINE
  8
0
 10
190.819
 20
17.6299
 11
190.678
 21
17.5859
  0
LINE
  8
0
 10
190.678
 20
17.5859
 11
190.486
 21
17.5371
  0
LINE
  8
0
 10
190.486
 20
17.5371
 11
190.341
 21
17.5088
  0
LINE
  8
0
 10
190.341
 20
17.5088
 11
190.243
 21
17.4932
  0
LINE
  8
0
 10
190.243
 20
17.4932
 11
190.047
 21
17.4717
  0
LINE
  8
0
 10
190.047
 20
17.4717
 11
189.899
 21
17.4639
  0
LINE
  8
0
 10
189.899
 20
17.4639
 11
189.701
 21
17.4639
  0
LINE
  8
0
 10
-188.616
 20
23.5827
 11
-188.586
 21
23.5713
  0
LINE
  8
0
 10
-188.586
 20
23.5713
 11
-188.449
 21
23.5107
  0
LINE
  8
0
 10
-188.449
 20
23.5107
 11
-188.314
 21
23.4434
  0
LINE
  8
0
 10
-188.314
 20
23.4434
 11
-188.228
 21
23.3955
  0
LINE
  8
0
 10
-188.228
 20
23.3955
 11
-188.1
 21
23.3184
  0
LINE
  8
0
 10
-188.1
 20
23.3184
 11
-187.975
 21
23.2354
  0
LINE
  8
0
 10
-187.975
 20
23.2354
 11
-187.854
 21
23.1465
  0
LINE
  8
0
 10
-187.854
 20
23.1465
 11
-187.738
 21
23.0518
  0
LINE
  8
0
 10
-187.738
 20
23.0518
 11
-187.627
 21
22.9521
  0
LINE
  8
0
 10
-187.627
 20
22.9521
 11
-187.521
 21
22.8467
  0
LINE
  8
0
 10
-187.521
 20
22.8467
 11
-187.419
 21
22.7373
  0
LINE
  8
0
 10
-187.419
 20
22.7373
 11
-187.322
 21
22.623
  0
LINE
  8
0
 10
-187.322
 20
22.623
 11
-187.203
 21
22.4629
  0
LINE
  8
0
 10
-187.203
 20
22.4629
 11
-187.146
 21
22.3809
  0
LINE
  8
0
 10
-187.146
 20
22.3809
 11
-187.067
 21
22.2539
  0
LINE
  8
0
 10
-187.067
 20
22.2539
 11
-187.019
 21
22.167
  0
LINE
  8
0
 10
-187.019
 20
22.167
 11
-186.949
 21
22.0342
  0
LINE
  8
0
 10
-186.949
 20
22.0342
 11
-186.887
 21
21.8984
  0
LINE
  8
0
 10
-186.887
 20
21.8984
 11
-186.849
 21
21.8066
  0
LINE
  8
0
 10
-186.849
 20
21.8066
 11
-186.797
 21
21.666
  0
LINE
  8
0
 10
-186.797
 20
21.666
 11
-186.766
 21
21.5713
  0
LINE
  8
0
 10
-186.766
 20
21.5713
 11
-186.713
 21
21.3789
  0
LINE
  8
0
 10
-186.713
 20
21.3789
 11
-186.682
 21
21.2324
  0
LINE
  8
0
 10
-186.682
 20
21.2324
 11
-186.657
 21
21.085
  0
LINE
  8
0
 10
-186.657
 20
21.085
 11
-186.645
 21
20.9863
  0
LINE
  8
0
 10
-186.645
 20
20.9863
 11
-186.629
 21
20.7871
  0
LINE
  8
0
 10
-186.629
 20
20.7871
 11
-186.626
 21
20.6875
  0
LINE
  8
0
 10
-186.626
 20
20.6875
 11
-186.627
 21
20.5381
  0
LINE
  8
0
 10
-186.627
 20
20.5381
 11
-186.632
 21
20.4385
  0
LINE
  8
0
 10
-186.632
 20
20.4385
 11
-186.645
 21
20.2891
  0
LINE
  8
0
 10
-186.645
 20
20.2891
 11
-186.658
 21
20.1928
  0
LINE
  8
0
 10
-186.658
 20
20.1928
 11
-188.616
 21
23.5827
  0
LINE
  8
0
 10
17.5
 20
4.33012
 11
12.5
 21
12.9904
  0
LINE
  8
0
 10
12.5
 20
12.9904
 11
17.5
 21
21.6506
  0
LINE
  8
0
 10
17.5
 20
21.6506
 11
27.5
 21
21.6506
  0
LINE
  8
0
 10
27.5
 20
21.6506
 11
32.5
 21
12.9904
  0
LINE
  8
0
 10
32.5
 20
12.9904
 11
27.5
 21
4.33012
  0
LINE
  8
0
 10
27.5
 20
4.33012
 11
17.5
 21
4.33012
  0
LINE
  8
0
 10
-72.5
 20
4.33012
 11
-77.5
 21
12.9904
  0
LINE
  8
0
 10
-77.5
 20
12.9904
 11
-72.5
 21
21.6506
  0
LINE
  8
0
 10
-72.5
 20
21.6506
 11
-62.5
 21
21.6506
  0
LINE
  8
0
 10
-62.5
 20
21.6506
 11
-57.5
 21
12.9904
  0
LINE
  8
0
 10
-57.5
 20
12.9904
 11
-62.5
 21
4.33012
  0
LINE
  8
0
 10
-62.5
 20
4.33012
 11
-72.5
 21
4.33012
  0
LINE
  8
0
 10
107.5
 20
4.33012
 11
102.5
 21
12.9904
  0
LINE
  8
0
 10
102.5
 20
12.9904
 11
107.5
 21
21.6506
  0
LINE
  8
0
 10
107.5
 20
21.6506
 11
117.5
 21
21.6506
  0
LINE
  8
0
 10
117.5
 20
21.6506
 11
122.5
 21
12.9904
  0
LINE
  8
0
 10
122.5
 20
12.9904
 11
117.5
 21
4.33012
  0
LINE
  8
0
 10
117.5
 20
4.33012
 11
107.5
 21
4.33012
  0
LINE
  8
0
 10
-162.5
 20
4.33012
 11
-167.5
 21
12.9904
  0
LINE
  8
0
 10
-167.5
 20
12.9904
 11
-162.5
 21
21.6506
  0
LINE
  8
0
 10
-162.5
 20
21.6506
 11
-152.5
 21
21.6506
  0
LINE
  8
0
 10
-152.5
 20
21.6506
 11
-147.5
 21
12.9904
  0
LINE
  8
0
 10
-147.5
 20
12.9904
 11
-152.5
 21
4.33012
  0
LINE
  8
0
 10
-152.5
 20
4.33012
 11
-162.5
 21
4.33012
  0
LINE
  8
0
 10
-117.5
 20
4.33012
 11
-122.5
 21
12.9904
  0
LINE
  8
0
 10
-122.5
 20
12.9904
 11
-117.5
 21
21.6506
  0
LINE
  8
0
 10
-117.5
 20
21.6506
 11
-107.5
 21
21.6506
  0
LINE
  8
0
 10
-107.5
 20
21.6506
 11
-102.5
 21
12.9904
  0
LINE
  8
0
 10
-102.5
 20
12.9904
 11
-107.5
 21
4.33012
  0
LINE
  8
0
 10
-107.5
 20
4.33012
 11
-117.5
 21
4.33012
  0
LINE
  8
0
 10
62.5
 20
4.33012
 11
57.5
 21
12.9904
  0
LINE
  8
0
 10
57.5
 20
12.9904
 11
62.5
 21
21.6506
  0
LINE
  8
0
 10
62.5
 20
21.6506
 11
72.5
 21
21.6506
  0
LINE
  8
0
 10
72.5
 20
21.6506
 11
77.5
 21
12.9904
  0
LINE
  8
0
 10
77.5
 20
12.9904
 11
72.5
 21
4.33012
  0
LINE
  8
0
 10
72.5
 20
4.33012
 11
62.5
 21
4.33012
  0
LINE
  8
0
 10
-27.5
 20
4.33012
 11
-32.5
 21
12.9904
  0
LINE
  8
0
 10
-32.5
 20
12.9904
 11
-27.5
 21
21.6506
  0
LINE
  8
0
 10
-27.5
 20
21.6506
 11
-17.5
 21
21.6506
  0
LINE
  8
0
 10
-17.5
 20
21.6506
 11
-12.5
 21
12.9904
  0
LINE
  8
0
 10
-12.5
 20
12.9904
 11
-17.5
 21
4.33012
  0
LINE
  8
0
 10
-17.5
 20
4.33012
 11
-27.5
 21
4.33012
  0
LINE
  8
0
 10
253.201
 20
17.4639
 11
253.102
 21
17.4688
  0
LINE
  8
0
 10
253.102
 20
17.4688
 11
252.952
 21
17.4814
  0
LINE
  8
0
 10
252.952
 20
17.4814
 11
252.755
 21
17.5098
  0
LINE
  8
0
 10
252.755
 20
17.5098
 11
252.656
 21
17.5283
  0
LINE
  8
0
 10
252.656
 20
17.5283
 11
252.56
 21
17.5498
  0
LINE
  8
0
 10
252.56
 20
17.5498
 11
252.463
 21
17.5752
  0
LINE
  8
0
 10
252.463
 20
17.5752
 11
252.367
 21
17.6025
  0
LINE
  8
0
 10
252.367
 20
17.6025
 11
252.179
 21
17.667
  0
LINE
  8
0
 10
252.179
 20
17.667
 11
252.04
 21
17.7236
  0
LINE
  8
0
 10
252.04
 20
17.7236
 11
251.903
 21
17.7861
  0
LINE
  8
0
 10
251.903
 20
17.7861
 11
251.728
 21
17.8799
  0
LINE
  8
0
 10
251.728
 20
17.8799
 11
251.642
 21
17.9307
  0
LINE
  8
0
 10
251.642
 20
17.9307
 11
251.558
 21
17.9834
  0
LINE
  8
0
 10
251.558
 20
17.9834
 11
251.475
 21
18.04
  0
LINE
  8
0
 10
251.475
 20
18.04
 11
251.315
 21
18.1592
  0
LINE
  8
0
 10
251.315
 20
18.1592
 11
251.201
 21
18.2559
  0
LINE
  8
0
 10
251.201
 20
18.2559
 11
251.091
 21
18.3574
  0
LINE
  8
0
 10
251.091
 20
18.3574
 11
250.986
 21
18.4639
  0
LINE
  8
0
 10
250.986
 20
18.4639
 11
250.887
 21
18.5752
  0
LINE
  8
0
 10
250.887
 20
18.5752
 11
250.822
 21
18.6523
  0
LINE
  8
0
 10
250.822
 20
18.6523
 11
250.762
 21
18.7314
  0
LINE
  8
0
 10
250.762
 20
18.7314
 11
250.675
 21
18.8525
  0
LINE
  8
0
 10
250.675
 20
18.8525
 11
250.646
 21
18.8945
  0
LINE
  8
0
 10
250.646
 20
18.8945
 11
250.567
 21
19.0215
  0
LINE
  8
0
 10
250.567
 20
19.0215
 11
250.495
 21
19.1514
  0
LINE
  8
0
 10
250.495
 20
19.1514
 11
250.449
 21
19.2402
  0
LINE
  8
0
 10
250.449
 20
19.2402
 11
250.367
 21
19.4229
  0
LINE
  8
0
 10
250.367
 20
19.4229
 11
250.313
 21
19.5615
  0
LINE
  8
0
 10
250.313
 20
19.5615
 11
250.266
 21
19.7041
  0
LINE
  8
0
 10
250.266
 20
19.7041
 11
250.213
 21
19.8965
  0
LINE
  8
0
 10
250.213
 20
19.8965
 11
250.182
 21
20.043
  0
LINE
  8
0
 10
250.182
 20
20.043
 11
250.15
 21
20.2393
  0
LINE
  8
0
 10
250.15
 20
20.2393
 11
250.14
 21
20.3389
  0
LINE
  8
0
 10
250.14
 20
20.3389
 11
250.129
 21
20.4883
  0
LINE
  8
0
 10
250.129
 20
20.4883
 11
250.126
 21
20.5879
  0
LINE
  8
0
 10
250.126
 20
20.5879
 11
250.127
 21
20.7373
  0
LINE
  8
0
 10
250.127
 20
20.7373
 11
250.132
 21
20.8369
  0
LINE
  8
0
 10
250.132
 20
20.8369
 11
250.145
 21
20.9863
  0
LINE
  8
0
 10
250.145
 20
20.9863
 11
250.157
 21
21.085
  0
LINE
  8
0
 10
250.157
 20
21.085
 11
250.182
 21
21.2324
  0
LINE
  8
0
 10
250.182
 20
21.2324
 11
250.213
 21
21.3789
  0
LINE
  8
0
 10
250.213
 20
21.3789
 11
250.238
 21
21.4756
  0
LINE
  8
0
 10
250.238
 20
21.4756
 11
250.266
 21
21.5713
  0
LINE
  8
0
 10
250.266
 20
21.5713
 11
250.292
 21
21.6506
  0
LINE
  8
0
 10
250.292
 20
21.6506
 11
252.5
 21
21.6506
  0
LINE
  8
0
 10
252.5
 20
21.6506
 11
254.724
 21
17.7994
  0
LINE
  8
0
 10
254.724
 20
17.7994
 11
254.595
 21
17.7383
  0
LINE
  8
0
 10
254.595
 20
17.7383
 11
254.458
 21
17.6807
  0
LINE
  8
0
 10
254.458
 20
17.6807
 11
254.319
 21
17.6299
  0
LINE
  8
0
 10
254.319
 20
17.6299
 11
254.178
 21
17.5859
  0
LINE
  8
0
 10
254.178
 20
17.5859
 11
253.986
 21
17.5371
  0
LINE
  8
0
 10
253.986
 20
17.5371
 11
253.841
 21
17.5088
  0
LINE
  8
0
 10
253.841
 20
17.5088
 11
253.743
 21
17.4932
  0
LINE
  8
0
 10
253.743
 20
17.4932
 11
253.547
 21
17.4717
  0
LINE
  8
0
 10
253.547
 20
17.4717
 11
253.399
 21
17.4639
  0
LINE
  8
0
 10
253.399
 20
17.4639
 11
253.201
 21
17.4639
  0
LINE
  8
0
 10
-140
 20
-8.66025
 11
-145
 21
0
  0
LINE
  8
0
 10
-145
 20
0
 11
-140
 21
8.66025
  0
LINE
  8
0
 10
-140
 20
8.66025
 11
-130
 21
8.66025
  0
LINE
  8
0
 10
-130
 20
8.66025
 11
-125
 21
0
  0
LINE
  8
0
 10
-125
 20
0
 11
-130
 21
-8.66025
  0
LINE
  8
0
 10
-130
 20
-8.66025
 11
-140
 21
-8.66025
  0
LINE
  8
0
 10
-5
 20
-8.66025
 11
-10
 21
0
  0
LINE
  8
0
 10
-10
 20
0
 11
-4.99998
 21
8.66025
  0
LINE
  8
0
 10
-4.99998
 20
8.66025
 11
5
 21
8.66025
  0
LINE
  8
0
 10
5
 20
8.66025
 11
10
 21
0
  0
LINE
  8
0
 10
10
 20
0
 11
5
 21
-8.66025
  0
LINE
  8
0
 10
5
 20
-8.66025
 11
-5
 21
-8.66025
  0
LINE
  8
0
 10
40
 20
-8.66025
 11
35
 21
0
  0
LINE
  8
0
 10
35
 20
0
 11
40
 21
8.66025
  0
LINE
  8
0
 10
40
 20
8.66025
 11
50
 21
8.66025
  0
LINE
  8
0
 10
50
 20
8.66025
 11
55
 21
0
  0
LINE
  8
0
 10
55
 20
0
 11
50
 21
-8.66025
  0
LINE
  8
0
 10
50
 20
-8.66025
 11
40
 21
-8.66025
  0
LINE
  8
0
 10
-50
 20
-8.66025
 11
-55
 21
0
  0
LINE
  8
0
 10
-55
 20
0
 11
-50
 21
8.66025
  0
LINE
  8
0
 10
-50
 20
8.66025
 11
-40
 21
8.66025
  0
LINE
  8
0
 10
-40
 20
8.66025
 11
-35
 21
0
  0
LINE
  8
0
 10
-35
 20
0
 11
-40
 21
-8.66025
  0
LINE
  8
0
 10
-40
 20
-8.66025
 11
-50
 21
-8.66025
  0
LINE
  8
0
 10
-95
 20
-8.66025
 11
-100
 21
0
  0
LINE
  8
0
 10
-100
 20
0
 11
-95
 21
8.66025
  0
LINE
  8
0
 10
-95
 20
8.66025
 11
-85
 21
8.66025
  0
LINE
  8
0
 10
-85
 20
8.66025
 11
-80
 21
0
  0
LINE
  8
0
 10
-80
 20
0
 11
-85
 21
-8.66025
  0
LINE
  8
0
 10
-85
 20
-8.66025
 11
-95
 21
-8.66025
  0
LINE
  8
0
 10
85
 20
-8.66025
 11
80
 21
0
  0
LINE
  8
0
 10
80
 20
0
 11
85
 21
8.66025
  0
LINE
  8
0
 10
85
 20
8.66025
 11
95
 21
8.66025
  0
LINE
  8
0
 10
95
 20
8.66025
 11
100
 21
0
  0
LINE
  8
0
 10
100
 20
0
 11
95
 21
-8.66025
  0
LINE
  8
0
 10
95
 20
-8.66025
 11
85
 21
-8.66025
  0
LINE
  8
0
 10
-180.275
 20
-8.66025
 11
-180.275
 21
8.66025
  0
LINE
  8
0
 10
-180.275
 20
8.66025
 11
-175
 21
8.66025
  0
LINE
  8
0
 10
-175
 20
8.66025
 11
-170
 21
0
  0
LINE
  8
0
 10
-170
 20
0
 11
-175
 21
-8.66025
  0
LINE
  8
0
 10
-175
 20
-8.66025
 11
-180.275
 21
-8.66025
  0
LINE
  8
0
 10
-117.5
 20
-21.6506
 11
-122.5
 21
-12.9904
  0
LINE
  8
0
 10
-122.5
 20
-12.9904
 11
-117.5
 21
-4.33012
  0
LINE
  8
0
 10
-117.5
 20
-4.33012
 11
-107.5
 21
-4.33012
  0
LINE
  8
0
 10
-107.5
 20
-4.33012
 11
-102.5
 21
-12.9904
  0
LINE
  8
0
 10
-102.5
 20
-12.9904
 11
-107.5
 21
-21.6506
  0
LINE
  8
0
 10
-107.5
 20
-21.6506
 11
-117.5
 21
-21.6506
  0
LINE
  8
0
 10
-72.5
 20
-21.6506
 11
-77.5
 21
-12.9904
  0
LINE
  8
0
 10
-77.5
 20
-12.9904
 11
-72.5
 21
-4.33012
  0
LINE
  8
0
 10
-72.5
 20
-4.33012
 11
-62.5
 21
-4.33012
  0
LINE
  8
0
 10
-62.5
 20
-4.33012
 11
-57.5
 21
-12.9904
  0
LINE
  8
0
 10
-57.5
 20
-12.9904
 11
-62.5
 21
-21.6506
  0
LINE
  8
0
 10
-62.5
 20
-21.6506
 11
-72.5
 21
-21.6506
  0
LINE
  8
0
 10
107.5
 20
-21.6506
 11
102.5
 21
-12.9904
  0
LINE
  8
0
 10
102.5
 20
-12.9904
 11
107.5
 21
-4.33012
  0
LINE
  8
0
 10
107.5
 20
-4.33012
 11
117.5
 21
-4.33012
  0
LINE
  8
0
 10
117.5
 20
-4.33012
 11
122.5
 21
-12.9904
  0
LINE
  8
0
 10
122.5
 20
-12.9904
 11
117.5
 21
-21.6506
  0
LINE
  8
0
 10
117.5
 20
-21.6506
 11
107.5
 21
-21.6506
  0
LINE
  8
0
 10
-162.5
 20
-21.6506
 11
-167.5
 21
-12.9904
  0
LINE
  8
0
 10
-167.5
 20
-12.9904
 11
-162.5
 21
-4.33012
  0
LINE
  8
0
 10
-162.5
 20
-4.33012
 11
-152.5
 21
-4.33012
  0
LINE
  8
0
 10
-152.5
 20
-4.33012
 11
-147.5
 21
-12.9904
  0
LINE
  8
0
 10
-147.5
 20
-12.9904
 11
-152.5
 21
-21.6506
  0
LINE
  8
0
 10
-152.5
 20
-21.6506
 11
-162.5
 21
-21.6506
  0
LINE
  8
0
 10
17.5
 20
-21.6506
 11
12.5
 21
-12.9904
  0
LINE
  8
0
 10
12.5
 20
-12.9904
 11
17.5
 21
-4.33012
  0
LINE
  8
0
 10
17.5
 20
-4.33012
 11
27.5
 21
-4.33012
  0
LINE
  8
0
 10
27.5
 20
-4.33012
 11
32.5
 21
-12.9904
  0
LINE
  8
0
 10
32.5
 20
-12.9904
 11
27.5
 21
-21.6506
  0
LINE
  8
0
 10
27.5
 20
-21.6506
 11
17.5
 21
-21.6506
  0
LINE
  8
0
 10
-27.5
 20
-21.6506
 11
-32.5
 21
-12.9904
  0
LINE
  8
0
 10
-32.5
 20
-12.9904
 11
-27.5
 21
-4.33012
  0
LINE
  8
0
 10
-27.5
 20
-4.33012
 11
-17.5
 21
-4.33012
  0
LINE
  8
0
 10
-17.5
 20
-4.33012
 11
-12.5
 21
-12.9904
  0
LINE
  8
0
 10
-12.5
 20
-12.9904
 11
-17.5
 21
-21.6506
  0
LINE
  8
0
 10
-17.5
 20
-21.6506
 11
-27.5
 21
-21.6506
  0
LINE
  8
0
 10
62.5
 20
-21.6506
 11
57.5
 21
-12.9904
  0
LINE
  8
0
 10
57.5
 20
-12.9904
 11
62.5
 21
-4.33012
  0
LINE
  8
0
 10
62.5
 20
-4.33012
 11
72.5
 21
-4.33012
  0
LINE
  8
0
 10
72.5
 20
-4.33012
 11
77.5
 21
-12.9904
  0
LINE
  8
0
 10
77.5
 20
-12.9904
 11
72.5
 21
-21.6506
  0
LINE
  8
0
 10
72.5
 20
-21.6506
 11
62.5
 21
-21.6506
  0
LINE
  8
0
 10
-50
 20
-34.641
 11
-55
 21
-25.9808
  0
LINE
  8
0
 10
-55
 20
-25.9808
 11
-50
 21
-17.3205
  0
LINE
  8
0
 10
-50
 20
-17.3205
 11
-40
 21
-17.3205
  0
LINE
  8
0
 10
-40
 20
-17.3205
 11
-35
 21
-25.9808
  0
LINE
  8
0
 10
-35
 20
-25.9808
 11
-40
 21
-34.641
  0
LINE
  8
0
 10
-40
 20
-34.641
 11
-50
 21
-34.641
  0
LINE
  8
0
 10
85
 20
-34.641
 11
80
 21
-25.9808
  0
LINE
  8
0
 10
80
 20
-25.9808
 11
85
 21
-17.3205
  0
LINE
  8
0
 10
85
 20
-17.3205
 11
95
 21
-17.3205
  0
LINE
  8
0
 10
95
 20
-17.3205
 11
100
 21
-25.9808
  0
LINE
  8
0
 10
100
 20
-25.9808
 11
95
 21
-34.641
  0
LINE
  8
0
 10
95
 20
-34.641
 11
85
 21
-34.641
  0
LINE
  8
0
 10
40
 20
-34.641
 11
35
 21
-25.9808
  0
LINE
  8
0
 10
35
 20
-25.9808
 11
40
 21
-17.3205
  0
LINE
  8
0
 10
40
 20
-17.3205
 11
50
 21
-17.3205
  0
LINE
  8
0
 10
50
 20
-17.3205
 11
55
 21
-25.9808
  0
LINE
  8
0
 10
55
 20
-25.9808
 11
50
 21
-34.641
  0
LINE
  8
0
 10
50
 20
-34.641
 11
40
 21
-34.641
  0
LINE
  8
0
 10
-140
 20
-34.641
 11
-145
 21
-25.9808
  0
LINE
  8
0
 10
-145
 20
-25.9808
 11
-140
 21
-17.3205
  0
LINE
  8
0
 10
-140
 20
-17.3205
 11
-130
 21
-17.3205
  0
LINE
  8
0
 10
-130
 20
-17.3205
 11
-125
 21
-25.9808
  0
LINE
  8
0
 10
-125
 20
-25.9808
 11
-130
 21
-34.641
  0
LINE
  8
0
 10
-130
 20
-34.641
 11
-140
 21
-34.641
  0
LINE
  8
0
 10
-5
 20
-34.641
 11
-10
 21
-25.9808
  0
LINE
  8
0
 10
-10
 20
-25.9808
 11
-4.99998
 21
-17.3205
  0
LINE
  8
0
 10
-4.99998
 20
-17.3205
 11
5
 21
-17.3205
  0
LINE
  8
0
 10
5
 20
-17.3205
 11
10
 21
-25.9808
  0
LINE
  8
0
 10
10
 20
-25.9808
 11
5
 21
-34.641
  0
LINE
  8
0
 10
5
 20
-34.641
 11
-5
 21
-34.641
  0
LINE
  8
0
 10
-95
 20
-34.641
 11
-100
 21
-25.9808
  0
LINE
  8
0
 10
-100
 20
-25.9808
 11
-95
 21
-17.3205
  0
LINE
  8
0
 10
-95
 20
-17.3205
 11
-85
 21
-17.3205
  0
LINE
  8
0
 10
-85
 20
-17.3205
 11
-80
 21
-25.9808
  0
LINE
  8
0
 10
-80
 20
-25.9808
 11
-85
 21
-34.641
  0
LINE
  8
0
 10
-85
 20
-34.641
 11
-95
 21
-34.641
  0
LINE
  8
0
 10
-185
 20
-34.641
 11
-187.586
 21
-30.1621
  0
LINE
  8
0
 10
-187.586
 20
-30.1621
 11
-180.275
 21
-30.1621
  0
LINE
  8
0
 10
-180.275
 20
-30.1621
 11
-180.275
 21
-17.3205
  0
LINE
  8
0
 10
-180.275
 20
-17.3205
 11
-175
 21
-17.3205
  0
LINE
  8
0
 10
-175
 20
-17.3205
 11
-170
 21
-25.9808
  0
LINE
  8
0
 10
-170
 20
-25.9808
 11
-175
 21
-34.641
  0
LINE
  8
0
 10
-175
 20
-34.641
 11
-185
 21
-34.641
  0
LINE
  8
0
 10
189.751
 20
-23.8125
 11
189.602
 21
-23.8066
  0
LINE
  8
0
 10
189.602
 20
-23.8066
 11
189.502
 21
-23.7988
  0
LINE
  8
0
 10
189.502
 20
-23.7988
 11
189.354
 21
-23.7812
  0
LINE
  8
0
 10
189.354
 20
-23.7812
 11
189.255
 21
-23.7656
  0
LINE
  8
0
 10
189.255
 20
-23.7656
 11
189.108
 21
-23.7363
  0
LINE
  8
0
 10
189.108
 20
-23.7363
 11
188.963
 21
-23.7002
  0
LINE
  8
0
 10
188.963
 20
-23.7002
 11
188.819
 21
-23.6572
  0
LINE
  8
0
 10
188.819
 20
-23.6572
 11
188.725
 21
-23.625
  0
LINE
  8
0
 10
188.725
 20
-23.625
 11
188.586
 21
-23.5713
  0
LINE
  8
0
 10
188.586
 20
-23.5713
 11
188.449
 21
-23.5107
  0
LINE
  8
0
 10
188.449
 20
-23.5107
 11
188.314
 21
-23.4434
  0
LINE
  8
0
 10
188.314
 20
-23.4434
 11
188.228
 21
-23.3955
  0
LINE
  8
0
 10
188.228
 20
-23.3955
 11
188.1
 21
-23.3184
  0
LINE
  8
0
 10
188.1
 20
-23.3184
 11
187.975
 21
-23.2354
  0
LINE
  8
0
 10
187.975
 20
-23.2354
 11
187.854
 21
-23.1465
  0
LINE
  8
0
 10
187.854
 20
-23.1465
 11
187.738
 21
-23.0518
  0
LINE
  8
0
 10
187.738
 20
-23.0518
 11
187.627
 21
-22.9521
  0
LINE
  8
0
 10
187.627
 20
-22.9521
 11
187.521
 21
-22.8467
  0
LINE
  8
0
 10
187.521
 20
-22.8467
 11
187.419
 21
-22.7373
  0
LINE
  8
0
 10
187.419
 20
-22.7373
 11
187.322
 21
-22.623
  0
LINE
  8
0
 10
187.322
 20
-22.623
 11
187.203
 21
-22.4629
  0
LINE
  8
0
 10
187.203
 20
-22.4629
 11
187.146
 21
-22.3809
  0
LINE
  8
0
 10
187.146
 20
-22.3809
 11
187.067
 21
-22.2539
  0
LINE
  8
0
 10
187.067
 20
-22.2539
 11
187.019
 21
-22.167
  0
LINE
  8
0
 10
187.019
 20
-22.167
 11
186.949
 21
-22.0342
  0
LINE
  8
0
 10
186.949
 20
-22.0342
 11
186.887
 21
-21.8984
  0
LINE
  8
0
 10
186.887
 20
-21.8984
 11
186.849
 21
-21.8066
  0
LINE
  8
0
 10
186.849
 20
-21.8066
 11
186.797
 21
-21.666
  0
LINE
  8
0
 10
186.797
 20
-21.666
 11
186.766
 21
-21.5713
  0
LINE
  8
0
 10
186.766
 20
-21.5713
 11
186.713
 21
-21.3789
  0
LINE
  8
0
 10
186.713
 20
-21.3789
 11
186.682
 21
-21.2324
  0
LINE
  8
0
 10
186.682
 20
-21.2324
 11
186.657
 21
-21.085
  0
LINE
  8
0
 10
186.657
 20
-21.085
 11
186.645
 21
-20.9863
  0
LINE
  8
0
 10
186.645
 20
-20.9863
 11
186.629
 21
-20.7871
  0
LINE
  8
0
 10
186.629
 20
-20.7871
 11
186.626
 21
-20.6875
  0
LINE
  8
0
 10
186.626
 20
-20.6875
 11
186.627
 21
-20.5381
  0
LINE
  8
0
 10
186.627
 20
-20.5381
 11
186.632
 21
-20.4385
  0
LINE
  8
0
 10
186.632
 20
-20.4385
 11
186.645
 21
-20.2891
  0
LINE
  8
0
 10
186.645
 20
-20.2891
 11
186.673
 21
-20.0918
  0
LINE
  8
0
 10
186.673
 20
-20.0918
 11
186.691
 21
-19.9932
  0
LINE
  8
0
 10
186.691
 20
-19.9932
 11
186.713
 21
-19.8965
  0
LINE
  8
0
 10
186.713
 20
-19.8965
 11
186.738
 21
-19.7998
  0
LINE
  8
0
 10
186.738
 20
-19.7998
 11
186.766
 21
-19.7041
  0
LINE
  8
0
 10
186.766
 20
-19.7041
 11
186.813
 21
-19.5615
  0
LINE
  8
0
 10
186.813
 20
-19.5615
 11
186.867
 21
-19.4229
  0
LINE
  8
0
 10
186.867
 20
-19.4229
 11
186.928
 21
-19.2852
  0
LINE
  8
0
 10
186.928
 20
-19.2852
 11
186.995
 21
-19.1514
  0
LINE
  8
0
 10
186.995
 20
-19.1514
 11
187.067
 21
-19.0215
  0
LINE
  8
0
 10
187.067
 20
-19.0215
 11
187.146
 21
-18.8945
  0
LINE
  8
0
 10
187.146
 20
-18.8945
 11
187.203
 21
-18.8115
  0
LINE
  8
0
 10
187.203
 20
-18.8115
 11
187.322
 21
-18.6523
  0
LINE
  8
0
 10
187.322
 20
-18.6523
 11
187.419
 21
-18.5381
  0
LINE
  8
0
 10
187.419
 20
-18.5381
 11
187.521
 21
-18.4277
  0
LINE
  8
0
 10
187.521
 20
-18.4277
 11
187.627
 21
-18.3232
  0
LINE
  8
0
 10
187.627
 20
-18.3232
 11
187.738
 21
-18.2236
  0
LINE
  8
0
 10
187.738
 20
-18.2236
 11
187.815
 21
-18.1592
  0
LINE
  8
0
 10
187.815
 20
-18.1592
 11
187.895
 21
-18.0986
  0
LINE
  8
0
 10
187.895
 20
-18.0986
 11
188.016
 21
-18.0117
  0
LINE
  8
0
 10
188.016
 20
-18.0117
 11
188.058
 21
-17.9834
  0
LINE
  8
0
 10
188.058
 20
-17.9834
 11
188.185
 21
-17.9043
  0
LINE
  8
0
 10
188.185
 20
-17.9043
 11
188.314
 21
-17.832
  0
LINE
  8
0
 10
188.314
 20
-17.832
 11
188.403
 21
-17.7861
  0
LINE
  8
0
 10
188.403
 20
-17.7861
 11
188.586
 21
-17.7041
  0
LINE
  8
0
 10
188.586
 20
-17.7041
 11
188.679
 21
-17.667
  0
LINE
  8
0
 10
188.679
 20
-17.667
 11
188.867
 21
-17.6025
  0
LINE
  8
0
 10
188.867
 20
-17.6025
 11
189.06
 21
-17.5498
  0
LINE
  8
0
 10
189.06
 20
-17.5498
 11
189.206
 21
-17.5186
  0
LINE
  8
0
 10
189.206
 20
-17.5186
 11
189.402
 21
-17.4873
  0
LINE
  8
0
 10
189.402
 20
-17.4873
 11
189.502
 21
-17.4766
  0
LINE
  8
0
 10
189.502
 20
-17.4766
 11
189.651
 21
-17.4658
  0
LINE
  8
0
 10
189.651
 20
-17.4658
 11
189.751
 21
-17.4629
  0
LINE
  8
0
 10
189.751
 20
-17.4629
 11
189.899
 21
-17.4639
  0
LINE
  8
0
 10
189.899
 20
-17.4639
 11
190.047
 21
-17.4717
  0
LINE
  8
0
 10
190.047
 20
-17.4717
 11
190.146
 21
-17.4814
  0
LINE
  8
0
 10
190.146
 20
-17.4814
 11
190.243
 21
-17.4932
  0
LINE
  8
0
 10
190.243
 20
-17.4932
 11
190.39
 21
-17.5176
  0
LINE
  8
0
 10
190.39
 20
-17.5176
 11
190.486
 21
-17.5371
  0
LINE
  8
0
 10
190.486
 20
-17.5371
 11
190.678
 21
-17.5859
  0
LINE
  8
0
 10
190.678
 20
-17.5859
 11
190.819
 21
-17.6299
  0
LINE
  8
0
 10
190.819
 20
-17.6299
 11
190.958
 21
-17.6807
  0
LINE
  8
0
 10
190.958
 20
-17.6807
 11
191.095
 21
-17.7383
  0
LINE
  8
0
 10
191.095
 20
-17.7383
 11
191.229
 21
-17.8018
  0
LINE
  8
0
 10
191.229
 20
-17.8018
 11
191.359
 21
-17.8711
  0
LINE
  8
0
 10
191.359
 20
-17.8711
 11
191.444
 21
-17.9209
  0
LINE
  8
0
 10
191.444
 20
-17.9209
 11
191.569
 21
-18.001
  0
LINE
  8
0
 10
191.569
 20
-18.001
 11
191.69
 21
-18.0859
  0
LINE
  8
0
 10
191.69
 20
-18.0859
 11
191.77
 21
-18.1465
  0
LINE
  8
0
 10
191.77
 20
-18.1465
 11
191.846
 21
-18.209
  0
LINE
  8
0
 10
191.846
 20
-18.209
 11
191.957
 21
-18.3066
  0
LINE
  8
0
 10
191.957
 20
-18.3066
 11
192.063
 21
-18.4102
  0
LINE
  8
0
 10
192.063
 20
-18.4102
 11
192.197
 21
-18.5547
  0
LINE
  8
0
 10
192.197
 20
-18.5547
 11
192.292
 21
-18.6689
  0
LINE
  8
0
 10
192.292
 20
-18.6689
 11
192.381
 21
-18.7871
  0
LINE
  8
0
 10
192.381
 20
-18.7871
 11
192.438
 21
-18.8682
  0
LINE
  8
0
 10
192.438
 20
-18.8682
 11
192.517
 21
-18.9932
  0
LINE
  8
0
 10
192.517
 20
-18.9932
 11
192.591
 21
-19.1221
  0
LINE
  8
0
 10
192.591
 20
-19.1221
 11
192.637
 21
-19.209
  0
LINE
  8
0
 10
192.637
 20
-19.209
 11
192.7
 21
-19.3428
  0
LINE
  8
0
 10
192.7
 20
-19.3428
 11
192.774
 21
-19.5254
  0
LINE
  8
0
 10
192.774
 20
-19.5254
 11
192.792
 21
-19.5723
  0
LINE
  8
0
 10
192.792
 20
-19.5723
 11
192.838
 21
-19.7129
  0
LINE
  8
0
 10
192.838
 20
-19.7129
 11
192.878
 21
-19.8555
  0
LINE
  8
0
 10
192.878
 20
-19.8555
 11
192.911
 21
-20
  0
LINE
  8
0
 10
192.911
 20
-20
 11
192.93
 21
-20.0967
  0
LINE
  8
0
 10
192.93
 20
-20.0967
 11
192.951
 21
-20.2432
  0
LINE
  8
0
 10
192.951
 20
-20.2432
 11
192.97
 21
-20.4404
  0
LINE
  8
0
 10
192.97
 20
-20.4404
 11
192.976
 21
-20.5879
  0
LINE
  8
0
 10
192.976
 20
-20.5879
 11
192.976
 21
-20.6865
  0
LINE
  8
0
 10
192.976
 20
-20.6865
 11
192.97
 21
-20.835
  0
LINE
  8
0
 10
192.97
 20
-20.835
 11
192.957
 21
-20.9824
  0
LINE
  8
0
 10
192.957
 20
-20.9824
 11
192.93
 21
-21.1777
  0
LINE
  8
0
 10
192.93
 20
-21.1777
 11
192.911
 21
-21.2754
  0
LINE
  8
0
 10
192.911
 20
-21.2754
 11
192.878
 21
-21.4189
  0
LINE
  8
0
 10
192.878
 20
-21.4189
 11
192.838
 21
-21.5625
  0
LINE
  8
0
 10
192.838
 20
-21.5625
 11
192.792
 21
-21.7031
  0
LINE
  8
0
 10
192.792
 20
-21.7031
 11
192.72
 21
-21.8867
  0
LINE
  8
0
 10
192.72
 20
-21.8867
 11
192.637
 21
-22.0654
  0
LINE
  8
0
 10
192.637
 20
-22.0654
 11
192.591
 21
-22.1533
  0
LINE
  8
0
 10
192.591
 20
-22.1533
 11
192.542
 21
-22.2393
  0
LINE
  8
0
 10
192.542
 20
-22.2393
 11
192.491
 21
-22.3232
  0
LINE
  8
0
 10
192.491
 20
-22.3232
 11
192.409
 21
-22.4473
  0
LINE
  8
0
 10
192.409
 20
-22.4473
 11
192.322
 21
-22.5674
  0
LINE
  8
0
 10
192.322
 20
-22.5674
 11
192.229
 21
-22.6826
  0
LINE
  8
0
 10
192.229
 20
-22.6826
 11
192.131
 21
-22.7939
  0
LINE
  8
0
 10
192.131
 20
-22.7939
 11
192.028
 21
-22.9004
  0
LINE
  8
0
 10
192.028
 20
-22.9004
 11
191.957
 21
-22.9678
  0
LINE
  8
0
 10
191.957
 20
-22.9678
 11
191.846
 21
-23.0664
  0
LINE
  8
0
 10
191.846
 20
-23.0664
 11
191.73
 21
-23.1592
  0
LINE
  8
0
 10
191.73
 20
-23.1592
 11
191.569
 21
-23.2744
  0
LINE
  8
0
 10
191.569
 20
-23.2744
 11
191.486
 21
-23.3281
  0
LINE
  8
0
 10
191.486
 20
-23.3281
 11
191.402
 21
-23.3789
  0
LINE
  8
0
 10
191.402
 20
-23.3789
 11
191.316
 21
-23.4277
  0
LINE
  8
0
 10
191.316
 20
-23.4277
 11
191.14
 21
-23.5166
  0
LINE
  8
0
 10
191.14
 20
-23.5166
 11
191.05
 21
-23.5566
  0
LINE
  8
0
 10
191.05
 20
-23.5566
 11
190.866
 21
-23.6289
  0
LINE
  8
0
 10
190.866
 20
-23.6289
 11
190.726
 21
-23.6748
  0
LINE
  8
0
 10
190.726
 20
-23.6748
 11
190.583
 21
-23.7148
  0
LINE
  8
0
 10
190.583
 20
-23.7148
 11
190.438
 21
-23.748
  0
LINE
  8
0
 10
190.438
 20
-23.748
 11
190.292
 21
-23.7744
  0
LINE
  8
0
 10
190.292
 20
-23.7744
 11
190.146
 21
-23.7939
  0
LINE
  8
0
 10
190.146
 20
-23.7939
 11
189.998
 21
-23.8066
  0
LINE
  8
0
 10
189.998
 20
-23.8066
 11
189.85
 21
-23.8125
  0
LINE
  8
0
 10
189.85
 20
-23.8125
 11
189.751
 21
-23.8125
  0
LINE
  8
0
 10
250.292
 20
-21.6506
 11
250.266
 21
-21.5713
  0
LINE
  8
0
 10
250.266
 20
-21.5713
 11
250.213
 21
-21.3789
  0
LINE
  8
0
 10
250.213
 20
-21.3789
 11
250.182
 21
-21.2324
  0
LINE
  8
0
 10
250.182
 20
-21.2324
 11
250.157
 21
-21.085
  0
LINE
  8
0
 10
250.157
 20
-21.085
 11
250.145
 21
-20.9863
  0
LINE
  8
0
 10
250.145
 20
-20.9863
 11
250.129
 21
-20.7871
  0
LINE
  8
0
 10
250.129
 20
-20.7871
 11
250.126
 21
-20.6875
  0
LINE
  8
0
 10
250.126
 20
-20.6875
 11
250.127
 21
-20.5381
  0
LINE
  8
0
 10
250.127
 20
-20.5381
 11
250.132
 21
-20.4385
  0
LINE
  8
0
 10
250.132
 20
-20.4385
 11
250.145
 21
-20.2891
  0
LINE
  8
0
 10
250.145
 20
-20.2891
 11
250.173
 21
-20.0918
  0
LINE
  8
0
 10
250.173
 20
-20.0918
 11
250.191
 21
-19.9932
  0
LINE
  8
0
 10
250.191
 20
-19.9932
 11
250.213
 21
-19.8965
  0
LINE
  8
0
 10
250.213
 20
-19.8965
 11
250.238
 21
-19.7998
  0
LINE
  8
0
 10
250.238
 20
-19.7998
 11
250.266
 21
-19.7041
  0
LINE
  8
0
 10
250.266
 20
-19.7041
 11
250.313
 21
-19.5615
  0
LINE
  8
0
 10
250.313
 20
-19.5615
 11
250.367
 21
-19.4229
  0
LINE
  8
0
 10
250.367
 20
-19.4229
 11
250.428
 21
-19.2852
  0
LINE
  8
0
 10
250.428
 20
-19.2852
 11
250.495
 21
-19.1514
  0
LINE
  8
0
 10
250.495
 20
-19.1514
 11
250.567
 21
-19.0215
  0
LINE
  8
0
 10
250.567
 20
-19.0215
 11
250.646
 21
-18.8945
  0
LINE
  8
0
 10
250.646
 20
-18.8945
 11
250.703
 21
-18.8115
  0
LINE
  8
0
 10
250.703
 20
-18.8115
 11
250.822
 21
-18.6523
  0
LINE
  8
0
 10
250.822
 20
-18.6523
 11
250.919
 21
-18.5381
  0
LINE
  8
0
 10
250.919
 20
-18.5381
 11
251.021
 21
-18.4277
  0
LINE
  8
0
 10
251.021
 20
-18.4277
 11
251.127
 21
-18.3232
  0
LINE
  8
0
 10
251.127
 20
-18.3232
 11
251.238
 21
-18.2236
  0
LINE
  8
0
 10
251.238
 20
-18.2236
 11
251.315
 21
-18.1592
  0
LINE
  8
0
 10
251.315
 20
-18.1592
 11
251.395
 21
-18.0986
  0
LINE
  8
0
 10
251.395
 20
-18.0986
 11
251.516
 21
-18.0117
  0
LINE
  8
0
 10
251.516
 20
-18.0117
 11
251.558
 21
-17.9834
  0
LINE
  8
0
 10
251.558
 20
-17.9834
 11
251.685
 21
-17.9043
  0
LINE
  8
0
 10
251.685
 20
-17.9043
 11
251.814
 21
-17.832
  0
LINE
  8
0
 10
251.814
 20
-17.832
 11
251.903
 21
-17.7861
  0
LINE
  8
0
 10
251.903
 20
-17.7861
 11
252.086
 21
-17.7041
  0
LINE
  8
0
 10
252.086
 20
-17.7041
 11
252.179
 21
-17.667
  0
LINE
  8
0
 10
252.179
 20
-17.667
 11
252.367
 21
-17.6025
  0
LINE
  8
0
 10
252.367
 20
-17.6025
 11
252.56
 21
-17.5498
  0
LINE
  8
0
 10
252.56
 20
-17.5498
 11
252.706
 21
-17.5186
  0
LINE
  8
0
 10
252.706
 20
-17.5186
 11
252.902
 21
-17.4873
  0
LINE
  8
0
 10
252.902
 20
-17.4873
 11
253.002
 21
-17.4766
  0
LINE
  8
0
 10
253.002
 20
-17.4766
 11
253.151
 21
-17.4658
  0
LINE
  8
0
 10
253.151
 20
-17.4658
 11
253.251
 21
-17.4629
  0
LINE
  8
0
 10
253.251
 20
-17.4629
 11
253.399
 21
-17.4639
  0
LINE
  8
0
 10
253.399
 20
-17.4639
 11
253.547
 21
-17.4717
  0
LINE
  8
0
 10
253.547
 20
-17.4717
 11
253.646
 21
-17.4814
  0
LINE
  8
0
 10
253.646
 20
-17.4814
 11
253.743
 21
-17.4932
  0
LINE
  8
0
 10
253.743
 20
-17.4932
 11
253.89
 21
-17.5176
  0
LINE
  8
0
 10
253.89
 20
-17.5176
 11
253.986
 21
-17.5371
  0
LINE
  8
0
 10
253.986
 20
-17.5371
 11
254.178
 21
-17.5859
  0
LINE
  8
0
 10
254.178
 20
-17.5859
 11
254.319
 21
-17.6299
  0
LINE
  8
0
 10
254.319
 20
-17.6299
 11
254.458
 21
-17.6807
  0
LINE
  8
0
 10
254.458
 20
-17.6807
 11
254.595
 21
-17.7383
  0
LINE
  8
0
 10
254.595
 20
-17.7383
 11
254.724
 21
-17.7994
  0
LINE
  8
0
 10
254.724
 20
-17.7994
 11
252.5
 21
-21.6506
  0
LINE
  8
0
 10
252.5
 20
-21.6506
 11
250.292
 21
-21.6506
  0
LINE
  8
0
 10
-186.658
 20
-20.1921
 11
-186.65
 21
-20.2393
  0
LINE
  8
0
 10
-186.65
 20
-20.2393
 11
-186.64
 21
-20.3389
  0
LINE
  8
0
 10
-186.64
 20
-20.3389
 11
-186.629
 21
-20.4883
  0
LINE
  8
0
 10
-186.629
 20
-20.4883
 11
-186.626
 21
-20.5879
  0
LINE
  8
0
 10
-186.626
 20
-20.5879
 11
-186.627
 21
-20.7373
  0
LINE
  8
0
 10
-186.627
 20
-20.7373
 11
-186.632
 21
-20.8369
  0
LINE
  8
0
 10
-186.632
 20
-20.8369
 11
-186.645
 21
-20.9863
  0
LINE
  8
0
 10
-186.645
 20
-20.9863
 11
-186.657
 21
-21.085
  0
LINE
  8
0
 10
-186.657
 20
-21.085
 11
-186.682
 21
-21.2324
  0
LINE
  8
0
 10
-186.682
 20
-21.2324
 11
-186.713
 21
-21.3789
  0
LINE
  8
0
 10
-186.713
 20
-21.3789
 11
-186.738
 21
-21.4756
  0
LINE
  8
0
 10
-186.738
 20
-21.4756
 11
-186.766
 21
-21.5713
  0
LINE
  8
0
 10
-186.766
 20
-21.5713
 11
-186.813
 21
-21.7129
  0
LINE
  8
0
 10
-186.813
 20
-21.7129
 11
-186.867
 21
-21.8525
  0
LINE
  8
0
 10
-186.867
 20
-21.8525
 11
-186.928
 21
-21.9893
  0
LINE
  8
0
 10
-186.928
 20
-21.9893
 11
-186.972
 21
-22.0791
  0
LINE
  8
0
 10
-186.972
 20
-22.0791
 11
-187.067
 21
-22.2539
  0
LINE
  8
0
 10
-187.067
 20
-22.2539
 11
-187.146
 21
-22.3809
  0
LINE
  8
0
 10
-187.146
 20
-22.3809
 11
-187.262
 21
-22.5439
  0
LINE
  8
0
 10
-187.262
 20
-22.5439
 11
-187.322
 21
-22.623
  0
LINE
  8
0
 10
-187.322
 20
-22.623
 11
-187.419
 21
-22.7373
  0
LINE
  8
0
 10
-187.419
 20
-22.7373
 11
-187.556
 21
-22.8828
  0
LINE
  8
0
 10
-187.556
 20
-22.8828
 11
-187.627
 21
-22.9521
  0
LINE
  8
0
 10
-187.627
 20
-22.9521
 11
-187.738
 21
-23.0518
  0
LINE
  8
0
 10
-187.738
 20
-23.0518
 11
-187.854
 21
-23.1465
  0
LINE
  8
0
 10
-187.854
 20
-23.1465
 11
-187.975
 21
-23.2354
  0
LINE
  8
0
 10
-187.975
 20
-23.2354
 11
-188.142
 21
-23.3447
  0
LINE
  8
0
 10
-188.142
 20
-23.3447
 11
-188.314
 21
-23.4434
  0
LINE
  8
0
 10
-188.314
 20
-23.4434
 11
-188.449
 21
-23.5107
  0
LINE
  8
0
 10
-188.449
 20
-23.5107
 11
-188.586
 21
-23.5713
  0
LINE
  8
0
 10
-188.586
 20
-23.5713
 11
-188.616
 21
-23.5827
  0
LINE
  8
0
 10
-188.616
 20
-23.5827
 11
-186.658
 21
-20.1921
  0
LINE
  8
0
 10
152.5
 20
-47.6314
 11
147.5
 21
-38.9711
  0
LINE
  8
0
 10
147.5
 20
-38.9711
 11
152.5
 21
-30.3109
  0
LINE
  8
0
 10
152.5
 20
-30.3109
 11
162.5
 21
-30.3109
  0
LINE
  8
0
 10
162.5
 20
-30.3109
 11
167.5
 21
-38.9711
  0
LINE
  8
0
 10
167.5
 20
-38.9711
 11
162.5
 21
-47.6314
  0
LINE
  8
0
 10
162.5
 20
-47.6314
 11
152.5
 21
-47.6314
  0
LINE
  8
0
 10
107.5
 20
-47.6314
 11
102.5
 21
-38.9711
  0
LINE
  8
0
 10
102.5
 20
-38.9711
 11
107.5
 21
-30.3109
  0
LINE
  8
0
 10
107.5
 20
-30.3109
 11
117.5
 21
-30.3109
  0
LINE
  8
0
 10
117.5
 20
-30.3109
 11
122.5
 21
-38.9711
  0
LINE
  8
0
 10
122.5
 20
-38.9711
 11
117.5
 21
-47.6314
  0
LINE
  8
0
 10
117.5
 20
-47.6314
 11
107.5
 21
-47.6314
  0
LINE
  8
0
 10
62.5
 20
-47.6314
 11
57.5
 21
-38.9711
  0
LINE
  8
0
 10
57.5
 20
-38.9711
 11
62.5
 21
-30.3109
  0
LINE
  8
0
 10
62.5
 20
-30.3109
 11
72.5
 21
-30.3109
  0
LINE
  8
0
 10
72.5
 20
-30.3109
 11
77.5
 21
-38.9711
  0
LINE
  8
0
 10
77.5
 20
-38.9711
 11
72.5
 21
-47.6314
  0
LINE
  8
0
 10
72.5
 20
-47.6314
 11
62.5
 21
-47.6314
  0
LINE
  8
0
 10
17.5
 20
-47.6314
 11
12.5
 21
-38.9711
  0
LINE
  8
0
 10
12.5
 20
-38.9711
 11
17.5
 21
-30.3109
  0
LINE
  8
0
 10
17.5
 20
-30.3109
 11
27.5
 21
-30.3109
  0
LINE
  8
0
 10
27.5
 20
-30.3109
 11
32.5
 21
-38.9711
  0
LINE
  8
0
 10
32.5
 20
-38.9711
 11
27.5
 21
-47.6314
  0
LINE
  8
0
 10
27.5
 20
-47.6314
 11
17.5
 21
-47.6314
  0
LINE
  8
0
 10
-72.5
 20
-47.6314
 11
-77.5
 21
-38.9711
  0
LINE
  8
0
 10
-77.5
 20
-38.9711
 11
-72.5
 21
-30.3109
  0
LINE
  8
0
 10
-72.5
 20
-30.3109
 11
-62.5
 21
-30.3109
  0
LINE
  8
0
 10
-62.5
 20
-30.3109
 11
-57.5
 21
-38.9711
  0
LINE
  8
0
 10
-57.5
 20
-38.9711
 11
-62.5
 21
-47.6314
  0
LINE
  8
0
 10
-62.5
 20
-47.6314
 11
-72.5
 21
-47.6314
  0
LINE
  8
0
 10
-27.5
 20
-47.6314
 11
-32.5
 21
-38.9711
  0
LINE
  8
0
 10
-32.5
 20
-38.9711
 11
-27.5
 21
-30.3109
  0
LINE
  8
0
 10
-27.5
 20
-30.3109
 11
-17.5
 21
-30.3109
  0
LINE
  8
0
 10
-17.5
 20
-30.3109
 11
-12.5
 21
-38.9711
  0
LINE
  8
0
 10
-12.5
 20
-38.9711
 11
-17.5
 21
-47.6314
  0
LINE
  8
0
 10
-17.5
 20
-47.6314
 11
-27.5
 21
-47.6314
  0
LINE
  8
0
 10
-117.5
 20
-47.6314
 11
-122.5
 21
-38.9711
  0
LINE
  8
0
 10
-122.5
 20
-38.9711
 11
-117.5
 21
-30.3109
  0
LINE
  8
0
 10
-117.5
 20
-30.3109
 11
-107.5
 21
-30.3109
  0
LINE
  8
0
 10
-107.5
 20
-30.3109
 11
-102.5
 21
-38.9711
  0
LINE
  8
0
 10
-102.5
 20
-38.9711
 11
-107.5
 21
-47.6314
  0
LINE
  8
0
 10
-107.5
 20
-47.6314
 11
-117.5
 21
-47.6314
  0
LINE
  8
0
 10
-162.5
 20
-47.6314
 11
-167.5
 21
-38.9711
  0
LINE
  8
0
 10
-167.5
 20
-38.9711
 11
-162.5
 21
-30.3109
  0
LINE
  8
0
 10
-162.5
 20
-30.3109
 11
-152.5
 21
-30.3109
  0
LINE
  8
0
 10
-152.5
 20
-30.3109
 11
-147.5
 21
-38.9711
  0
LINE
  8
0
 10
-147.5
 20
-38.9711
 11
-152.5
 21
-47.6314
  0
LINE
  8
0
 10
-152.5
 20
-47.6314
 11
-162.5
 21
-47.6314
  0
LINE
  8
0
 10
-207.5
 20
-47.6314
 11
-208.346
 21
-46.1666
  0
LINE
  8
0
 10
-208.346
 20
-46.1666
 11
-208.346
 21
-31.7757
  0
LINE
  8
0
 10
-208.346
 20
-31.7757
 11
-207.5
 21
-30.3109
  0
LINE
  8
0
 10
-207.5
 20
-30.3109
 11
-197.5
 21
-30.3109
  0
LINE
  8
0
 10
-197.5
 20
-30.3109
 11
-192.5
 21
-38.9711
  0
LINE
  8
0
 10
-192.5
 20
-38.9711
 11
-197.5
 21
-47.6314
  0
LINE
  8
0
 10
-197.5
 20
-47.6314
 11
-207.5
 21
-47.6314
  0
LINE
  8
0
 10
197.5
 20
-47.6314
 11
192.5
 21
-38.9711
  0
LINE
  8
0
 10
192.5
 20
-38.9711
 11
197.5
 21
-30.3109
  0
LINE
  8
0
 10
197.5
 20
-30.3109
 11
207.5
 21
-30.3109
  0
LINE
  8
0
 10
207.5
 20
-30.3109
 11
212.5
 21
-38.9711
  0
LINE
  8
0
 10
212.5
 20
-38.9711
 11
207.5
 21
-47.6314
  0
LINE
  8
0
 10
207.5
 20
-47.6314
 11
197.5
 21
-47.6314
  0
LINE
  8
0
 10
-185
 20
-60.6218
 11
-190
 21
-51.9615
  0
LINE
  8
0
 10
-190
 20
-51.9615
 11
-185
 21
-43.3013
  0
LINE
  8
0
 10
-185
 20
-43.3013
 11
-175
 21
-43.3013
  0
LINE
  8
0
 10
-175
 20
-43.3013
 11
-170
 21
-51.9615
  0
LINE
  8
0
 10
-170
 20
-51.9615
 11
-175
 21
-60.6218
  0
LINE
  8
0
 10
-175
 20
-60.6218
 11
-185
 21
-60.6218
  0
LINE
  8
0
 10
175
 20
-60.6218
 11
170
 21
-51.9615
  0
LINE
  8
0
 10
170
 20
-51.9615
 11
175
 21
-43.3013
  0
LINE
  8
0
 10
175
 20
-43.3013
 11
185
 21
-43.3013
  0
LINE
  8
0
 10
185
 20
-43.3013
 11
190
 21
-51.9615
  0
LINE
  8
0
 10
190
 20
-51.9615
 11
185
 21
-60.6218
  0
LINE
  8
0
 10
185
 20
-60.6218
 11
175
 21
-60.6218
  0
LINE
  8
0
 10
-50
 20
-60.6218
 11
-55
 21
-51.9615
  0
LINE
  8
0
 10
-55
 20
-51.9615
 11
-50
 21
-43.3013
  0
LINE
  8
0
 10
-50
 20
-43.3013
 11
-40
 21
-43.3013
  0
LINE
  8
0
 10
-40
 20
-43.3013
 11
-35
 21
-51.9615
  0
LINE
  8
0
 10
-35
 20
-51.9615
 11
-40
 21
-60.6218
  0
LINE
  8
0
 10
-40
 20
-60.6218
 11
-50
 21
-60.6218
  0
LINE
  8
0
 10
-95
 20
-60.6218
 11
-100
 21
-51.9615
  0
LINE
  8
0
 10
-100
 20
-51.9615
 11
-95
 21
-43.3013
  0
LINE
  8
0
 10
-95
 20
-43.3013
 11
-85
 21
-43.3013
  0
LINE
  8
0
 10
-85
 20
-43.3013
 11
-80
 21
-51.9615
  0
LINE
  8
0
 10
-80
 20
-51.9615
 11
-85
 21
-60.6218
  0
LINE
  8
0
 10
-85
 20
-60.6218
 11
-95
 21
-60.6218
  0
LINE
  8
0
 10
130
 20
-60.6218
 11
125
 21
-51.9615
  0
LINE
  8
0
 10
125
 20
-51.9615
 11
130
 21
-43.3013
  0
LINE
  8
0
 10
130
 20
-43.3013
 11
140
 21
-43.3013
  0
LINE
  8
0
 10
140
 20
-43.3013
 11
145
 21
-51.9615
  0
LINE
  8
0
 10
145
 20
-51.9615
 11
140
 21
-60.6218
  0
LINE
  8
0
 10
140
 20
-60.6218
 11
130
 21
-60.6218
  0
LINE
  8
0
 10
40
 20
-60.6218
 11
35
 21
-51.9615
  0
LINE
  8
0
 10
35
 20
-51.9615
 11
40
 21
-43.3013
  0
LINE
  8
0
 10
40
 20
-43.3013
 11
50
 21
-43.3013
  0
LINE
  8
0
 10
50
 20
-43.3013
 11
55
 21
-51.9615
  0
LINE
  8
0
 10
55
 20
-51.9615
 11
50
 21
-60.6218
  0
LINE
  8
0
 10
50
 20
-60.6218
 11
40
 21
-60.6218
  0
LINE
  8
0
 10
-5
 20
-60.6218
 11
-10
 21
-51.9615
  0
LINE
  8
0
 10
-10
 20
-51.9615
 11
-4.99998
 21
-43.3013
  0
LINE
  8
0
 10
-4.99998
 20
-43.3013
 11
5
 21
-43.3013
  0
LINE
  8
0
 10
5
 20
-43.3013
 11
10
 21
-51.9615
  0
LINE
  8
0
 10
10
 20
-51.9615
 11
5
 21
-60.6218
  0
LINE
  8
0
 10
5
 20
-60.6218
 11
-5
 21
-60.6218
  0
LINE
  8
0
 10
-140
 20
-60.6218
 11
-145
 21
-51.9615
  0
LINE
  8
0
 10
-145
 20
-51.9615
 11
-140
 21
-43.3013
  0
LINE
  8
0
 10
-140
 20
-43.3013
 11
-130
 21
-43.3013
  0
LINE
  8
0
 10
-130
 20
-43.3013
 11
-125
 21
-51.9615
  0
LINE
  8
0
 10
-125
 20
-51.9615
 11
-130
 21
-60.6218
  0
LINE
  8
0
 10
-130
 20
-60.6218
 11
-140
 21
-60.6218
  0
LINE
  8
0
 10
85
 20
-60.6218
 11
80
 21
-51.9615
  0
LINE
  8
0
 10
80
 20
-51.9615
 11
85
 21
-43.3013
  0
LINE
  8
0
 10
85
 20
-43.3013
 11
95
 21
-43.3013
  0
LINE
  8
0
 10
95
 20
-43.3013
 11
100
 21
-51.9615
  0
LINE
  8
0
 10
100
 20
-51.9615
 11
95
 21
-60.6218
  0
LINE
  8
0
 10
95
 20
-60.6218
 11
85
 21
-60.6218
  0
LINE
  8
0
 10
62.5
 20
-73.6122
 11
57.5
 21
-64.9519
  0
LINE
  8
0
 10
57.5
 20
-64.9519
 11
62.5
 21
-56.2916
  0
LINE
  8
0
 10
62.5
 20
-56.2916
 11
72.5
 21
-56.2916
  0
LINE
  8
0
 10
72.5
 20
-56.2916
 11
77.5
 21
-64.9519
  0
LINE
  8
0
 10
77.5
 20
-64.9519
 11
72.5
 21
-73.6122
  0
LINE
  8
0
 10
72.5
 20
-73.6122
 11
62.5
 21
-73.6122
  0
LINE
  8
0
 10
-208.346
 20
-64.5801
 11
-208.346
 21
-57.7564
  0
LINE
  8
0
 10
-208.346
 20
-57.7564
 11
-207.5
 21
-56.2916
  0
LINE
  8
0
 10
-207.5
 20
-56.2916
 11
-197.5
 21
-56.2916
  0
LINE
  8
0
 10
-197.5
 20
-56.2916
 11
-192.5
 21
-64.9519
  0
LINE
  8
0
 10
-192.5
 20
-64.9519
 11
-193.132
 21
-66.0458
  0
LINE
  8
0
 10
-193.132
 20
-66.0458
 11
-208.346
 21
-64.5801
  0
LINE
  8
0
 10
-27.5
 20
-73.6122
 11
-32.5
 21
-64.9519
  0
LINE
  8
0
 10
-32.5
 20
-64.9519
 11
-27.5
 21
-56.2916
  0
LINE
  8
0
 10
-27.5
 20
-56.2916
 11
-17.5
 21
-56.2916
  0
LINE
  8
0
 10
-17.5
 20
-56.2916
 11
-12.5
 21
-64.9519
  0
LINE
  8
0
 10
-12.5
 20
-64.9519
 11
-17.5
 21
-73.6122
  0
LINE
  8
0
 10
-17.5
 20
-73.6122
 11
-27.5
 21
-73.6122
  0
LINE
  8
0
 10
17.5
 20
-73.6122
 11
12.5
 21
-64.9519
  0
LINE
  8
0
 10
12.5
 20
-64.9519
 11
17.5
 21
-56.2916
  0
LINE
  8
0
 10
17.5
 20
-56.2916
 11
27.5
 21
-56.2916
  0
LINE
  8
0
 10
27.5
 20
-56.2916
 11
32.5
 21
-64.9519
  0
LINE
  8
0
 10
32.5
 20
-64.9519
 11
27.5
 21
-73.6122
  0
LINE
  8
0
 10
27.5
 20
-73.6122
 11
17.5
 21
-73.6122
  0
LINE
  8
0
 10
107.5
 20
-73.6122
 11
102.5
 21
-64.9519
  0
LINE
  8
0
 10
102.5
 20
-64.9519
 11
107.5
 21
-56.2916
  0
LINE
  8
0
 10
107.5
 20
-56.2916
 11
117.5
 21
-56.2916
  0
LINE
  8
0
 10
117.5
 20
-56.2916
 11
122.5
 21
-64.9519
  0
LINE
  8
0
 10
122.5
 20
-64.9519
 11
117.5
 21
-73.6122
  0
LINE
  8
0
 10
117.5
 20
-73.6122
 11
107.5
 21
-73.6122
  0
LINE
  8
0
 10
-117.169
 20
-73.6122
 11
-117.52
 21
-73.5776
  0
LINE
  8
0
 10
-117.52
 20
-73.5776
 11
-122.5
 21
-64.9519
  0
LINE
  8
0
 10
-122.5
 20
-64.9519
 11
-117.5
 21
-56.2916
  0
LINE
  8
0
 10
-117.5
 20
-56.2916
 11
-107.5
 21
-56.2916
  0
LINE
  8
0
 10
-107.5
 20
-56.2916
 11
-102.5
 21
-64.9519
  0
LINE
  8
0
 10
-102.5
 20
-64.9519
 11
-107.5
 21
-73.6122
  0
LINE
  8
0
 10
-107.5
 20
-73.6122
 11
-117.169
 21
-73.6122
  0
LINE
  8
0
 10
-165.318
 20
-68.7315
 11
-167.5
 21
-64.9519
  0
LINE
  8
0
 10
-167.5
 20
-64.9519
 11
-162.5
 21
-56.2916
  0
LINE
  8
0
 10
-162.5
 20
-56.2916
 11
-152.5
 21
-56.2916
  0
LINE
  8
0
 10
-152.5
 20
-56.2916
 11
-147.5
 21
-64.9519
  0
LINE
  8
0
 10
-147.5
 20
-64.9519
 11
-150.55
 21
-70.2339
  0
LINE
  8
0
 10
-150.55
 20
-70.2339
 11
-165.318
 21
-68.7315
  0
LINE
  8
0
 10
-72.5
 20
-73.6122
 11
-77.5
 21
-64.9519
  0
LINE
  8
0
 10
-77.5
 20
-64.9519
 11
-72.5
 21
-56.2916
  0
LINE
  8
0
 10
-72.5
 20
-56.2916
 11
-62.5
 21
-56.2916
  0
LINE
  8
0
 10
-62.5
 20
-56.2916
 11
-57.5
 21
-64.9519
  0
LINE
  8
0
 10
-57.5
 20
-64.9519
 11
-62.5
 21
-73.6122
  0
LINE
  8
0
 10
-62.5
 20
-73.6122
 11
-72.5
 21
-73.6122
  0
LINE
  8
0
 10
-0.905273
 20
-83.3428
 11
-7.11913
 21
-82.9321
  0
LINE
  8
0
 10
-7.11913
 20
-82.9321
 11
-10
 21
-77.9423
  0
LINE
  8
0
 10
-10
 20
-77.9423
 11
-4.99998
 21
-69.282
  0
LINE
  8
0
 10
-4.99998
 20
-69.282
 11
5
 21
-69.282
  0
LINE
  8
0
 10
5
 20
-69.282
 11
10
 21
-77.9423
  0
LINE
  8
0
 10
10
 20
-77.9423
 11
6.69066
 21
-83.6742
  0
LINE
  8
0
 10
6.69066
 20
-83.6742
 11
-0.905273
 21
-83.3428
  0
LINE
  8
0
 10
-38.7324
 20
-80.8428
 11
-54.0905
 21
-79.5176
  0
LINE
  8
0
 10
-54.0905
 20
-79.5176
 11
-55
 21
-77.9423
  0
LINE
  8
0
 10
-55
 20
-77.9423
 11
-50
 21
-69.282
  0
LINE
  8
0
 10
-50
 20
-69.282
 11
-40
 21
-69.282
  0
LINE
  8
0
 10
-40
 20
-69.282
 11
-35
 21
-77.9423
  0
LINE
  8
0
 10
-35
 20
-77.9423
 11
-36.7502
 21
-80.9738
  0
LINE
  8
0
 10
-36.7502
 20
-80.9738
 11
-38.7324
 21
-80.8428
  0
LINE
  8
0
 10
-98.5591
 20
-75.4466
 11
-95
 21
-69.282
  0
LINE
  8
0
 10
-95
 20
-69.282
 11
-85
 21
-69.282
  0
LINE
  8
0
 10
-85
 20
-69.282
 11
-80.4078
 21
-77.2359
  0
LINE
  8
0
 10
-80.4078
 20
-77.2359
 11
-98.5591
 21
-75.4466
  0
LINE
  8
0
 10
-141.104
 20
-71.1949
 11
-140
 21
-69.282
  0
LINE
  8
0
 10
-140
 20
-69.282
 11
-130
 21
-69.282
  0
LINE
  8
0
 10
-130
 20
-69.282
 11
-128.134
 21
-72.5145
  0
LINE
  8
0
 10
-128.134
 20
-72.5145
 11
-141.104
 21
-71.1949
  0
LINE
  8
0
 10
39.0758
 20
-85.0018
 11
35
 21
-77.9423
  0
LINE
  8
0
 10
35
 20
-77.9423
 11
40
 21
-69.282
  0
LINE
  8
0
 10
40
 20
-69.282
 11
50
 21
-69.282
  0
LINE
  8
0
 10
50
 20
-69.282
 11
55
 21
-77.9423
  0
LINE
  8
0
 10
55
 20
-77.9423
 11
50.7757
 21
-85.259
  0
LINE
  8
0
 10
50.7757
 20
-85.259
 11
39.0758
 21
-85.0018
  0
LINE
  8
0
 10
16.4449
 20
-84.0998
 11
17.5
 21
-82.2724
  0
LINE
  8
0
 10
17.5
 20
-82.2724
 11
27.5
 21
-82.2724
  0
LINE
  8
0
 10
27.5
 20
-82.2724
 11
28.868
 21
-84.6419
  0
LINE
  8
0
 10
28.868
 20
-84.6419
 11
16.4449
 21
-84.0998
  0
LINE
  8
0
 10
180.275
 20
-30.1621
 11
232.586
 21
-30.1621
  0
LINE
  8
0
 10
232.586
 20
-30.1621
 11
230
 21
-34.641
  0
LINE
  8
0
 10
230
 20
-34.641
 11
220
 21
-34.641
  0
LINE
  8
0
 10
220
 20
-34.641
 11
217.414
 21
-30.1621
  0
LINE
  8
0
 10
217.414
 20
-30.1621
 11
187.586
 21
-30.1621
  0
LINE
  8
0
 10
187.586
 20
-30.1621
 11
185
 21
-34.641
  0
LINE
  8
0
 10
185
 20
-34.641
 11
175
 21
-34.641
  0
LINE
  8
0
 10
175
 20
-34.641
 11
172.414
 21
-30.1621
  0
LINE
  8
0
 10
172.414
 20
-30.1621
 11
144.77
 21
-30.1621
  0
LINE
  8
0
 10
144.77
 20
-30.1621
 11
144.77
 21
-26.3799
  0
LINE
  8
0
 10
144.77
 20
-26.3799
 11
140
 21
-34.641
  0
LINE
  8
0
 10
140
 20
-34.641
 11
130
 21
-34.641
  0
LINE
  8
0
 10
130
 20
-34.641
 11
125
 21
-25.9808
  0
LINE
  8
0
 10
125
 20
-25.9808
 11
130
 21
-17.3205
  0
LINE
  8
0
 10
130
 20
-17.3205
 11
140
 21
-17.3205
  0
LINE
  8
0
 10
140
 20
-17.3205
 11
144.77
 21
-25.5816
  0
LINE
  8
0
 10
144.77
 20
-25.5816
 11
144.77
 21
-0.399185
  0
LINE
  8
0
 10
144.77
 20
-0.399185
 11
140
 21
-8.66025
  0
LINE
  8
0
 10
140
 20
-8.66025
 11
130
 21
-8.66025
  0
LINE
  8
0
 10
130
 20
-8.66025
 11
125
 21
0
  0
LINE
  8
0
 10
125
 20
0
 11
130
 21
8.66025
  0
LINE
  8
0
 10
130
 20
8.66025
 11
140
 21
8.66025
  0
LINE
  8
0
 10
140
 20
8.66025
 11
144.77
 21
0.399185
  0
LINE
  8
0
 10
144.77
 20
0.399185
 11
144.77
 21
25.5816
  0
LINE
  8
0
 10
144.77
 20
25.5816
 11
140
 21
17.3205
  0
LINE
  8
0
 10
140
 20
17.3205
 11
130
 21
17.3205
  0
LINE
  8
0
 10
130
 20
17.3205
 11
125
 21
25.9808
  0
LINE
  8
0
 10
125
 20
25.9808
 11
130
 21
34.641
  0
LINE
  8
0
 10
130
 20
34.641
 11
140
 21
34.641
  0
LINE
  8
0
 10
140
 20
34.641
 11
144.77
 21
26.3799
  0
LINE
  8
0
 10
144.77
 20
26.3799
 11
144.77
 21
30.1621
  0
LINE
  8
0
 10
144.77
 20
30.1621
 11
172.414
 21
30.1621
  0
LINE
  8
0
 10
172.414
 20
30.1621
 11
175
 21
34.641
  0
LINE
  8
0
 10
175
 20
34.641
 11
185
 21
34.641
  0
LINE
  8
0
 10
185
 20
34.641
 11
187.586
 21
30.1621
  0
LINE
  8
0
 10
187.586
 20
30.1621
 11
180.275
 21
30.1621
  0
LINE
  8
0
 10
180.275
 20
30.1621
 11
180.275
 21
-30.1621
  0
ENDSEC
  0
SECTION
  2
OBJECTS
  0
DICTIONARY
  0
ENDSEC
  0
EOF
