  0
SECTION
  2
BLOCKS
  0
ENDSEC
  0
SECTION
  2
ENTITIES
  0
LINE
  8
0
 10
109.014
 20
-95.2109
 11
147.888
 21
-93.6064
  0
LINE
  8
0
 10
147.888
 20
-93.6064
 11
187.131
 21
-89.4629
  0
LINE
  8
0
 10
187.131
 20
-89.4629
 11
226.003
 21
-81.8467
  0
LINE
  8
0
 10
226.003
 20
-81.8467
 11
248.541
 21
-75.5156
  0
LINE
  8
0
 10
248.541
 20
-75.5156
 11
269.732
 21
-68.1738
  0
LINE
  8
0
 10
269.732
 20
-68.1738
 11
288.92
 21
-60.1064
  0
LINE
  8
0
 10
288.92
 20
-60.1064
 11
305.449
 21
-51.6016
  0
LINE
  8
0
 10
305.449
 20
-51.6016
 11
318.666
 21
-42.9453
  0
LINE
  8
0
 10
318.666
 20
-42.9453
 11
330.276
 21
-32.2266
  0
LINE
  8
0
 10
330.276
 20
-32.2266
 11
337.52
 21
-21.7578
  0
LINE
  8
0
 10
337.52
 20
-21.7578
 11
341.58
 21
-11.4648
  0
LINE
  8
0
 10
341.58
 20
-11.4648
 11
342.9
 21
0
  0
LINE
  8
0
 10
342.9
 20
0
 11
341.58
 21
11.4648
  0
LINE
  8
0
 10
341.58
 20
11.4648
 11
337.52
 21
21.7578
  0
LINE
  8
0
 10
337.52
 20
21.7578
 11
330.276
 21
32.2266
  0
LINE
  8
0
 10
330.276
 20
32.2266
 11
318.666
 21
42.9453
  0
LINE
  8
0
 10
318.666
 20
42.9453
 11
305.449
 21
51.6016
  0
LINE
  8
0
 10
305.449
 20
51.6016
 11
288.92
 21
60.1064
  0
LINE
  8
0
 10
288.92
 20
60.1064
 11
269.732
 21
68.1738
  0
LINE
  8
0
 10
269.732
 20
68.1738
 11
248.541
 21
75.5156
  0
LINE
  8
0
 10
248.541
 20
75.5156
 11
226.003
 21
81.8467
  0
LINE
  8
0
 10
226.003
 20
81.8467
 11
187.131
 21
89.4629
  0
LINE
  8
0
 10
187.131
 20
89.4629
 11
147.888
 21
93.6064
  0
LINE
  8
0
 10
147.888
 20
93.6064
 11
109.014
 21
95.2119
  0
LINE
  8
0
 10
109.014
 20
95.2119
 11
71.2246
 21
95.2354
  0
LINE
  8
0
 10
71.2246
 20
95.2354
 11
34.8193
 21
94.4355
  0
LINE
  8
0
 10
34.8193
 20
94.4355
 11
-1.42773
 21
92.8535
  0
LINE
  8
0
 10
-1.42773
 20
92.8535
 11
-39.4609
 21
90.3389
  0
LINE
  8
0
 10
-39.4609
 20
90.3389
 11
-80.4131
 21
86.8057
  0
LINE
  8
0
 10
-80.4131
 20
86.8057
 11
-123.747
 21
82.5342
  0
LINE
  8
0
 10
-123.747
 20
82.5342
 11
-167.384
 21
78.0957
  0
LINE
  8
0
 10
-167.384
 20
78.0957
 11
-209.203
 21
74.0664
  0
LINE
  8
0
 10
-209.203
 20
74.0664
 11
-238.863
 21
71.5664
  0
LINE
  8
0
 10
-238.863
 20
71.5664
 11
-268.049
 21
69.0596
  0
LINE
  8
0
 10
-268.049
 20
69.0596
 11
-296.354
 21
65.3604
  0
LINE
  8
0
 10
-296.354
 20
65.3604
 11
-306.775
 21
63.1455
  0
LINE
  8
0
 10
-306.775
 20
63.1455
 11
-316.918
 21
60.0508
  0
LINE
  8
0
 10
-316.918
 20
60.0508
 11
-326.509
 21
55.4062
  0
LINE
  8
0
 10
-326.509
 20
55.4062
 11
-334.591
 21
48.2656
  0
LINE
  8
0
 10
-334.591
 20
48.2656
 11
-339.663
 21
38.4863
  0
LINE
  8
0
 10
-339.663
 20
38.4863
 11
-341.946
 21
27.5039
  0
LINE
  8
0
 10
-341.946
 20
27.5039
 11
-342.749
 21
16.2227
  0
LINE
  8
0
 10
-342.749
 20
16.2227
 11
-342.899
 21
4.91602
  0
LINE
  8
0
 10
-342.899
 20
4.91602
 11
-342.899
 21
-4.91602
  0
LINE
  8
0
 10
-342.899
 20
-4.91602
 11
-342.749
 21
-16.2227
  0
LINE
  8
0
 10
-342.749
 20
-16.2227
 11
-341.946
 21
-27.5039
  0
LINE
  8
0
 10
-341.946
 20
-27.5039
 11
-339.663
 21
-38.4863
  0
LINE
  8
0
 10
-339.663
 20
-38.4863
 11
-334.591
 21
-48.2656
  0
LINE
  8
0
 10
-334.591
 20
-48.2656
 11
-326.509
 21
-55.4062
  0
LINE
  8
0
 10
-326.509
 20
-55.4062
 11
-316.918
 21
-60.0508
  0
LINE
  8
0
 10
-316.918
 20
-60.0508
 11
-306.775
 21
-63.1455
  0
LINE
  8
0
 10
-306.775
 20
-63.1455
 11
-296.354
 21
-65.3604
  0
LINE
  8
0
 10
-296.354
 20
-65.3604
 11
-268.049
 21
-69.0596
  0
LINE
  8
0
 10
-268.049
 20
-69.0596
 11
-238.863
 21
-71.5664
  0
LINE
  8
0
 10
-238.863
 20
-71.5664
 11
-209.203
 21
-74.0664
  0
LINE
  8
0
 10
-209.203
 20
-74.0664
 11
-167.384
 21
-78.0947
  0
LINE
  8
0
 10
-167.384
 20
-78.0947
 11
-123.747
 21
-82.5342
  0
LINE
  8
0
 10
-123.747
 20
-82.5342
 11
-80.4131
 21
-86.8057
  0
LINE
  8
0
 10
-80.4131
 20
-86.8057
 11
-39.4609
 21
-90.3389
  0
LINE
  8
0
 10
-39.4609
 20
-90.3389
 11
-1.42773
 21
-92.8535
  0
LINE
  8
0
 10
-1.42773
 20
-92.8535
 11
34.8193
 21
-94.4355
  0
LINE
  8
0
 10
34.8193
 20
-94.4355
 11
71.2246
 21
-95.2354
  0
LINE
  8
0
 10
71.2246
 20
-95.2354
 11
109.014
 21
-95.2109
  0
LINE
  8
0
 10
65.5086
 20
85.5654
 11
65.4987
 21
85.5827
  0
LINE
  8
0
 10
65.4987
 20
85.5827
 11
71.3398
 21
85.7109
  0
LINE
  8
0
 10
71.3398
 20
85.7109
 11
79.5392
 21
85.706
  0
LINE
  8
0
 10
79.5392
 20
85.706
 11
79.4581
 21
85.5654
  0
LINE
  8
0
 10
79.4581
 20
85.5654
 11
65.5086
 21
85.5654
  0
LINE
  8
0
 10
162.153
 20
57.6666
 11
155.178
 21
69.7471
  0
LINE
  8
0
 10
155.178
 20
69.7471
 11
162.153
 21
81.8277
  0
LINE
  8
0
 10
162.153
 20
81.8277
 11
168.794
 21
81.8277
  0
LINE
  8
0
 10
168.794
 20
81.8277
 11
158.466
 21
82.9176
  0
LINE
  8
0
 10
158.466
 20
82.9176
 11
151.941
 21
71.616
  0
LINE
  8
0
 10
151.941
 20
71.616
 11
137.992
 21
71.616
  0
LINE
  8
0
 10
137.992
 20
71.616
 11
131.017
 21
83.6966
  0
LINE
  8
0
 10
131.017
 20
83.6966
 11
131.624
 21
84.748
  0
LINE
  8
0
 10
131.624
 20
84.748
 11
109.458
 21
85.6634
  0
LINE
  8
0
 10
109.458
 20
85.6634
 11
110.594
 21
83.6966
  0
LINE
  8
0
 10
110.594
 20
83.6966
 11
103.619
 21
71.616
  0
LINE
  8
0
 10
103.619
 20
71.616
 11
89.6698
 21
71.616
  0
LINE
  8
0
 10
89.6698
 20
71.616
 11
82.695
 21
83.6966
  0
LINE
  8
0
 10
82.695
 20
83.6966
 11
83.8537
 21
85.7034
  0
LINE
  8
0
 10
83.8537
 20
85.7034
 11
108.851
 21
85.6885
  0
LINE
  8
0
 10
108.851
 20
85.6885
 11
147.229
 21
84.1035
  0
LINE
  8
0
 10
147.229
 20
84.1035
 11
176.577
 21
81.0064
  0
LINE
  8
0
 10
176.577
 20
81.0064
 11
183.077
 21
69.7471
  0
LINE
  8
0
 10
183.077
 20
69.7471
 11
176.103
 21
57.6666
  0
LINE
  8
0
 10
176.103
 20
57.6666
 11
162.153
 21
57.6666
  0
LINE
  8
0
 10
41.3475
 20
71.616
 11
34.3728
 21
83.6966
  0
LINE
  8
0
 10
34.3728
 20
83.6966
 11
35.0755
 21
84.9137
  0
LINE
  8
0
 10
35.0755
 20
84.9137
 11
35.1279
 21
84.916
  0
LINE
  8
0
 10
35.1279
 20
84.916
 11
61.2367
 21
85.4892
  0
LINE
  8
0
 10
61.2367
 20
85.4892
 11
62.2717
 21
83.6966
  0
LINE
  8
0
 10
62.2717
 20
83.6966
 11
55.2969
 21
71.616
  0
LINE
  8
0
 10
55.2969
 20
71.616
 11
41.3475
 21
71.616
  0
LINE
  8
0
 10
-6.9747
 20
71.616
 11
-13.2731
 21
82.5251
  0
LINE
  8
0
 10
-13.2731
 20
82.5251
 11
-0.905273
 21
83.3428
  0
LINE
  8
0
 10
-0.905273
 20
83.3428
 11
13.7834
 21
83.9841
  0
LINE
  8
0
 10
13.7834
 20
83.9841
 11
13.9494
 21
83.6966
  0
LINE
  8
0
 10
13.9494
 20
83.6966
 11
6.9747
 21
71.616
  0
LINE
  8
0
 10
6.9747
 20
71.616
 11
-6.9747
 21
71.616
  0
LINE
  8
0
 10
-31.1358
 20
57.6666
 11
-38.1105
 21
69.7471
  0
LINE
  8
0
 10
-38.1105
 20
69.7471
 11
-31.4261
 21
81.3249
  0
LINE
  8
0
 10
-31.4261
 20
81.3249
 11
-23.8207
 21
81.8277
  0
LINE
  8
0
 10
-23.8207
 20
81.8277
 11
-17.1864
 21
81.8277
  0
LINE
  8
0
 10
-17.1864
 20
81.8277
 11
-10.2117
 21
69.7471
  0
LINE
  8
0
 10
-10.2117
 20
69.7471
 11
-17.1864
 21
57.6666
  0
LINE
  8
0
 10
-17.1864
 20
57.6666
 11
-31.1358
 21
57.6666
  0
LINE
  8
0
 10
113.831
 20
57.6666
 11
106.856
 21
69.7471
  0
LINE
  8
0
 10
106.856
 20
69.7471
 11
113.831
 21
81.8277
  0
LINE
  8
0
 10
113.831
 20
81.8277
 11
127.78
 21
81.8277
  0
LINE
  8
0
 10
127.78
 20
81.8277
 11
134.755
 21
69.7471
  0
LINE
  8
0
 10
134.755
 20
69.7471
 11
127.78
 21
57.6666
  0
LINE
  8
0
 10
127.78
 20
57.6666
 11
113.831
 21
57.6666
  0
LINE
  8
0
 10
65.5086
 20
57.6666
 11
58.5339
 21
69.7471
  0
LINE
  8
0
 10
58.5339
 20
69.7471
 11
65.5086
 21
81.8277
  0
LINE
  8
0
 10
65.5086
 20
81.8277
 11
79.4581
 21
81.8277
  0
LINE
  8
0
 10
79.4581
 20
81.8277
 11
86.4328
 21
69.7471
  0
LINE
  8
0
 10
86.4328
 20
69.7471
 11
79.4581
 21
57.6666
  0
LINE
  8
0
 10
79.4581
 20
57.6666
 11
65.5086
 21
57.6666
  0
LINE
  8
0
 10
17.1864
 20
57.6666
 11
10.2117
 21
69.7471
  0
LINE
  8
0
 10
10.2117
 20
69.7471
 11
17.1864
 21
81.8277
  0
LINE
  8
0
 10
17.1864
 20
81.8277
 11
31.1358
 21
81.8277
  0
LINE
  8
0
 10
31.1358
 20
81.8277
 11
38.1105
 21
69.7471
  0
LINE
  8
0
 10
38.1105
 20
69.7471
 11
31.1358
 21
57.6666
  0
LINE
  8
0
 10
31.1358
 20
57.6666
 11
17.1864
 21
57.6666
  0
LINE
  8
0
 10
-55.2969
 20
71.616
 11
-59.5849
 21
79.043
  0
LINE
  8
0
 10
-59.5849
 20
79.043
 11
-38.7324
 21
80.8418
  0
LINE
  8
0
 10
-38.7324
 20
80.8418
 11
-35.9134
 21
81.0282
  0
LINE
  8
0
 10
-35.9134
 20
81.0282
 11
-41.3475
 21
71.616
  0
LINE
  8
0
 10
-41.3475
 20
71.616
 11
-55.2969
 21
71.616
  0
LINE
  8
0
 10
186.314
 20
71.616
 11
181.173
 21
80.5213
  0
LINE
  8
0
 10
181.173
 20
80.5213
 11
185.752
 21
80.0381
  0
LINE
  8
0
 10
185.752
 20
80.0381
 11
203.157
 21
76.6282
  0
LINE
  8
0
 10
203.157
 20
76.6282
 11
200.264
 21
71.616
  0
LINE
  8
0
 10
200.264
 20
71.616
 11
186.314
 21
71.616
  0
LINE
  8
0
 10
-127.78
 20
57.6666
 11
-134.755
 21
69.7471
  0
LINE
  8
0
 10
-134.755
 20
69.7471
 11
-133.471
 21
71.9715
  0
LINE
  8
0
 10
-133.471
 20
71.9715
 11
-122.785
 21
73.0586
  0
LINE
  8
0
 10
-122.785
 20
73.0586
 11
-79.5215
 21
77.3232
  0
LINE
  8
0
 10
-79.5215
 20
77.3232
 11
-63.6962
 21
78.6884
  0
LINE
  8
0
 10
-63.6962
 20
78.6884
 11
-58.5339
 21
69.7471
  0
LINE
  8
0
 10
-58.5339
 20
69.7471
 11
-65.5086
 21
57.6666
  0
LINE
  8
0
 10
-65.5086
 20
57.6666
 11
-79.4581
 21
57.6666
  0
LINE
  8
0
 10
-79.4581
 20
57.6666
 11
-86.4328
 21
69.7471
  0
LINE
  8
0
 10
-86.4328
 20
69.7471
 11
-82.2118
 21
77.058
  0
LINE
  8
0
 10
-82.2118
 20
77.058
 11
-86.7882
 21
76.6069
  0
LINE
  8
0
 10
-86.7882
 20
76.6069
 11
-89.6698
 21
71.616
  0
LINE
  8
0
 10
-89.6698
 20
71.616
 11
-103.619
 21
71.616
  0
LINE
  8
0
 10
-103.619
 20
71.616
 11
-105.439
 21
74.7684
  0
LINE
  8
0
 10
-105.439
 20
74.7684
 11
-109.523
 21
74.3659
  0
LINE
  8
0
 10
-109.523
 20
74.3659
 11
-106.856
 21
69.7471
  0
LINE
  8
0
 10
-106.856
 20
69.7471
 11
-113.831
 21
57.6666
  0
LINE
  8
0
 10
-113.831
 20
57.6666
 11
-127.78
 21
57.6666
  0
LINE
  8
0
 10
234.636
 20
43.7171
 11
227.662
 21
55.7977
  0
LINE
  8
0
 10
227.662
 20
55.7977
 11
234.636
 21
67.8783
  0
LINE
  8
0
 10
234.636
 20
67.8783
 11
240.525
 21
67.8783
  0
LINE
  8
0
 10
240.525
 20
67.8783
 11
230.921
 21
70.5757
  0
LINE
  8
0
 10
230.921
 20
70.5757
 11
231.399
 21
69.7471
  0
LINE
  8
0
 10
231.399
 20
69.7471
 11
224.425
 21
57.6666
  0
LINE
  8
0
 10
224.425
 20
57.6666
 11
210.475
 21
57.6666
  0
LINE
  8
0
 10
210.475
 20
57.6666
 11
203.501
 21
69.7471
  0
LINE
  8
0
 10
203.501
 20
69.7471
 11
207.035
 21
75.8686
  0
LINE
  8
0
 10
207.035
 20
75.8686
 11
223.701
 21
72.6035
  0
LINE
  8
0
 10
223.701
 20
72.6035
 11
245.693
 21
66.4268
  0
LINE
  8
0
 10
245.693
 20
66.4268
 11
250.357
 21
64.811
  0
LINE
  8
0
 10
250.357
 20
64.811
 11
255.561
 21
55.7977
  0
LINE
  8
0
 10
255.561
 20
55.7977
 11
248.586
 21
43.7171
  0
LINE
  8
0
 10
248.586
 20
43.7171
 11
234.636
 21
43.7171
  0
LINE
  8
0
 10
-200.264
 20
43.7171
 11
-207.238
 21
55.7977
  0
LINE
  8
0
 10
-207.238
 20
55.7977
 11
-201.804
 21
65.2103
  0
LINE
  8
0
 10
-201.804
 20
65.2103
 11
-166.432
 21
68.6182
  0
LINE
  8
0
 10
-166.432
 20
68.6182
 11
-155.187
 21
69.7621
  0
LINE
  8
0
 10
-155.187
 20
69.7621
 11
-155.178
 21
69.7471
  0
LINE
  8
0
 10
-155.178
 20
69.7471
 11
-162.153
 21
57.6666
  0
LINE
  8
0
 10
-162.153
 20
57.6666
 11
-176.103
 21
57.6666
  0
LINE
  8
0
 10
-176.103
 20
57.6666
 11
-181.583
 21
67.1585
  0
LINE
  8
0
 10
-181.583
 20
67.1585
 11
-185.671
 21
66.7646
  0
LINE
  8
0
 10
-185.671
 20
66.7646
 11
-179.34
 21
55.7977
  0
LINE
  8
0
 10
-179.34
 20
55.7977
 11
-186.314
 21
43.7171
  0
LINE
  8
0
 10
-186.314
 20
43.7171
 11
-200.264
 21
43.7171
  0
LINE
  8
0
 10
-55.2969
 20
43.7171
 11
-62.2717
 21
55.7977
  0
LINE
  8
0
 10
-62.2717
 20
55.7977
 11
-55.2969
 21
67.8783
  0
LINE
  8
0
 10
-55.2969
 20
67.8783
 11
-41.3475
 21
67.8783
  0
LINE
  8
0
 10
-41.3475
 20
67.8783
 11
-34.3728
 21
55.7977
  0
LINE
  8
0
 10
-34.3728
 20
55.7977
 11
-41.3475
 21
43.7171
  0
LINE
  8
0
 10
-41.3475
 20
43.7171
 11
-55.2969
 21
43.7171
  0
LINE
  8
0
 10
-151.941
 20
43.7171
 11
-158.916
 21
55.7977
  0
LINE
  8
0
 10
-158.916
 20
55.7977
 11
-151.941
 21
67.8783
  0
LINE
  8
0
 10
-151.941
 20
67.8783
 11
-137.992
 21
67.8783
  0
LINE
  8
0
 10
-137.992
 20
67.8783
 11
-131.017
 21
55.7977
  0
LINE
  8
0
 10
-131.017
 20
55.7977
 11
-137.992
 21
43.7171
  0
LINE
  8
0
 10
-137.992
 20
43.7171
 11
-151.941
 21
43.7171
  0
LINE
  8
0
 10
41.3475
 20
43.7171
 11
34.3728
 21
55.7977
  0
LINE
  8
0
 10
34.3728
 20
55.7977
 11
41.3475
 21
67.8783
  0
LINE
  8
0
 10
41.3475
 20
67.8783
 11
55.2969
 21
67.8783
  0
LINE
  8
0
 10
55.2969
 20
67.8783
 11
62.2717
 21
55.7977
  0
LINE
  8
0
 10
62.2717
 20
55.7977
 11
55.2969
 21
43.7171
  0
LINE
  8
0
 10
55.2969
 20
43.7171
 11
41.3475
 21
43.7171
  0
LINE
  8
0
 10
186.314
 20
43.7171
 11
179.34
 21
55.7977
  0
LINE
  8
0
 10
179.34
 20
55.7977
 11
186.314
 21
67.8783
  0
LINE
  8
0
 10
186.314
 20
67.8783
 11
200.264
 21
67.8783
  0
LINE
  8
0
 10
200.264
 20
67.8783
 11
207.238
 21
55.7977
  0
LINE
  8
0
 10
207.238
 20
55.7977
 11
200.264
 21
43.7171
  0
LINE
  8
0
 10
200.264
 20
43.7171
 11
186.314
 21
43.7171
  0
LINE
  8
0
 10
-6.9747
 20
43.7171
 11
-13.9494
 21
55.7977
  0
LINE
  8
0
 10
-13.9494
 20
55.7977
 11
-6.9747
 21
67.8783
  0
LINE
  8
0
 10
-6.9747
 20
67.8783
 11
6.9747
 21
67.8783
  0
LINE
  8
0
 10
6.9747
 20
67.8783
 11
13.9494
 21
55.7977
  0
LINE
  8
0
 10
13.9494
 20
55.7977
 11
6.9747
 21
43.7171
  0
LINE
  8
0
 10
6.9747
 20
43.7171
 11
-6.9747
 21
43.7171
  0
LINE
  8
0
 10
-103.619
 20
43.7171
 11
-110.594
 21
55.7977
  0
LINE
  8
0
 10
-110.594
 20
55.7977
 11
-103.619
 21
67.8783
  0
LINE
  8
0
 10
-103.619
 20
67.8783
 11
-89.6698
 21
67.8783
  0
LINE
  8
0
 10
-89.6698
 20
67.8783
 11
-82.695
 21
55.7977
  0
LINE
  8
0
 10
-82.695
 20
55.7977
 11
-89.6698
 21
43.7171
  0
LINE
  8
0
 10
-89.6698
 20
43.7171
 11
-103.619
 21
43.7171
  0
LINE
  8
0
 10
137.992
 20
43.7171
 11
131.017
 21
55.7977
  0
LINE
  8
0
 10
131.017
 20
55.7977
 11
137.992
 21
67.8783
  0
LINE
  8
0
 10
137.992
 20
67.8783
 11
151.941
 21
67.8783
  0
LINE
  8
0
 10
151.941
 20
67.8783
 11
158.916
 21
55.7977
  0
LINE
  8
0
 10
158.916
 20
55.7977
 11
151.941
 21
43.7171
  0
LINE
  8
0
 10
151.941
 20
43.7171
 11
137.992
 21
43.7171
  0
LINE
  8
0
 10
89.6698
 20
43.7171
 11
82.695
 21
55.7977
  0
LINE
  8
0
 10
82.695
 20
55.7977
 11
89.6698
 21
67.8783
  0
LINE
  8
0
 10
89.6698
 20
67.8783
 11
103.619
 21
67.8783
  0
LINE
  8
0
 10
103.619
 20
67.8783
 11
110.594
 21
55.7977
  0
LINE
  8
0
 10
110.594
 20
55.7977
 11
103.619
 21
43.7171
  0
LINE
  8
0
 10
103.619
 20
43.7171
 11
89.6698
 21
43.7171
  0
LINE
  8
0
 10
-208.346
 20
64.5801
 11
-206.374
 21
64.77
  0
LINE
  8
0
 10
-206.374
 20
64.77
 11
-208.346
 21
61.3552
  0
LINE
  8
0
 10
-208.346
 20
61.3552
 11
-208.346
 21
64.5801
  0
LINE
  8
0
 10
282.959
 20
43.7171
 11
276.426
 21
55.0327
  0
LINE
  8
0
 10
276.426
 20
55.0327
 11
270.161
 21
57.6666
  0
LINE
  8
0
 10
270.161
 20
57.6666
 11
258.798
 21
57.6666
  0
LINE
  8
0
 10
258.798
 20
57.6666
 11
255.752
 21
62.9418
  0
LINE
  8
0
 10
255.752
 20
62.9418
 11
266.334
 21
59.2754
  0
LINE
  8
0
 10
266.334
 20
59.2754
 11
284.912
 21
51.4648
  0
LINE
  8
0
 10
284.912
 20
51.4648
 11
297.611
 21
44.9341
  0
LINE
  8
0
 10
297.611
 20
44.9341
 11
296.908
 21
43.7171
  0
LINE
  8
0
 10
296.908
 20
43.7171
 11
282.959
 21
43.7171
  0
LINE
  8
0
 10
162.153
 20
29.7677
 11
155.178
 21
41.8483
  0
LINE
  8
0
 10
155.178
 20
41.8483
 11
162.153
 21
53.9288
  0
LINE
  8
0
 10
162.153
 20
53.9288
 11
176.103
 21
53.9288
  0
LINE
  8
0
 10
176.103
 20
53.9288
 11
183.077
 21
41.8483
  0
LINE
  8
0
 10
183.077
 20
41.8483
 11
176.103
 21
29.7677
  0
LINE
  8
0
 10
176.103
 20
29.7677
 11
162.153
 21
29.7677
  0
LINE
  8
0
 10
-79.4581
 20
29.7677
 11
-86.4328
 21
41.8483
  0
LINE
  8
0
 10
-86.4328
 20
41.8483
 11
-79.4581
 21
53.9288
  0
LINE
  8
0
 10
-79.4581
 20
53.9288
 11
-65.5086
 21
53.9288
  0
LINE
  8
0
 10
-65.5086
 20
53.9288
 11
-58.5339
 21
41.8483
  0
LINE
  8
0
 10
-58.5339
 20
41.8483
 11
-65.5086
 21
29.7677
  0
LINE
  8
0
 10
-65.5086
 20
29.7677
 11
-79.4581
 21
29.7677
  0
LINE
  8
0
 10
-127.78
 20
29.7677
 11
-134.755
 21
41.8483
  0
LINE
  8
0
 10
-134.755
 20
41.8483
 11
-127.78
 21
53.9288
  0
LINE
  8
0
 10
-127.78
 20
53.9288
 11
-113.831
 21
53.9288
  0
LINE
  8
0
 10
-113.831
 20
53.9288
 11
-106.856
 21
41.8483
  0
LINE
  8
0
 10
-106.856
 20
41.8483
 11
-113.831
 21
29.7677
  0
LINE
  8
0
 10
-113.831
 20
29.7677
 11
-127.78
 21
29.7677
  0
LINE
  8
0
 10
282.959
 20
39.9794
 11
296.908
 21
39.9794
  0
LINE
  8
0
 10
296.908
 20
39.9794
 11
303.883
 21
27.8988
  0
LINE
  8
0
 10
303.883
 20
27.8988
 11
296.908
 21
15.8183
  0
LINE
  8
0
 10
296.908
 20
15.8183
 11
289.834
 21
15.8183
  0
LINE
  8
0
 10
289.834
 20
15.8183
 11
289.834
 21
30.1621
  0
LINE
  8
0
 10
289.834
 20
30.1621
 11
277.291
 21
30.1621
  0
LINE
  8
0
 10
277.291
 20
30.1621
 11
282.959
 21
39.9794
  0
LINE
  8
0
 10
-200.264
 20
39.9794
 11
-186.314
 21
39.9794
  0
LINE
  8
0
 10
-186.314
 20
39.9794
 11
-180.646
 21
30.1621
  0
LINE
  8
0
 10
-180.646
 20
30.1621
 11
-176.33
 21
30.1621
  0
LINE
  8
0
 10
-176.33
 20
30.1621
 11
-183.077
 21
41.8483
  0
LINE
  8
0
 10
-183.077
 20
41.8483
 11
-176.103
 21
53.9288
  0
LINE
  8
0
 10
-176.103
 20
53.9288
 11
-162.153
 21
53.9288
  0
LINE
  8
0
 10
-162.153
 20
53.9288
 11
-155.178
 21
41.8483
  0
LINE
  8
0
 10
-155.178
 20
41.8483
 11
-161.925
 21
30.1621
  0
LINE
  8
0
 10
-161.925
 20
30.1621
 11
-157.609
 21
30.1621
  0
LINE
  8
0
 10
-157.609
 20
30.1621
 11
-151.941
 21
39.9794
  0
LINE
  8
0
 10
-151.941
 20
39.9794
 11
-137.992
 21
39.9794
  0
LINE
  8
0
 10
-137.992
 20
39.9794
 11
-131.017
 21
27.8988
  0
LINE
  8
0
 10
-131.017
 20
27.8988
 11
-137.992
 21
15.8183
  0
LINE
  8
0
 10
-137.992
 20
15.8183
 11
-151.941
 21
15.8183
  0
LINE
  8
0
 10
-151.941
 20
15.8183
 11
-153.268
 21
18.1153
  0
LINE
  8
0
 10
-153.268
 20
18.1153
 11
-153.268
 21
30.1621
  0
LINE
  8
0
 10
-153.268
 20
30.1621
 11
-205.932
 21
30.1621
  0
LINE
  8
0
 10
-205.932
 20
30.1621
 11
-200.264
 21
39.9794
  0
LINE
  8
0
 10
17.1864
 20
29.7677
 11
10.2117
 21
41.8483
  0
LINE
  8
0
 10
10.2117
 20
41.8483
 11
17.1864
 21
53.9288
  0
LINE
  8
0
 10
17.1864
 20
53.9288
 11
31.1358
 21
53.9288
  0
LINE
  8
0
 10
31.1358
 20
53.9288
 11
38.1105
 21
41.8483
  0
LINE
  8
0
 10
38.1105
 20
41.8483
 11
31.1358
 21
29.7677
  0
LINE
  8
0
 10
31.1358
 20
29.7677
 11
17.1864
 21
29.7677
  0
LINE
  8
0
 10
113.831
 20
29.7677
 11
106.856
 21
41.8483
  0
LINE
  8
0
 10
106.856
 20
41.8483
 11
113.831
 21
53.9288
  0
LINE
  8
0
 10
113.831
 20
53.9288
 11
127.78
 21
53.9288
  0
LINE
  8
0
 10
127.78
 20
53.9288
 11
134.755
 21
41.8483
  0
LINE
  8
0
 10
134.755
 20
41.8483
 11
127.78
 21
29.7677
  0
LINE
  8
0
 10
127.78
 20
29.7677
 11
113.831
 21
29.7677
  0
LINE
  8
0
 10
65.5086
 20
29.7677
 11
58.5339
 21
41.8483
  0
LINE
  8
0
 10
58.5339
 20
41.8483
 11
65.5086
 21
53.9288
  0
LINE
  8
0
 10
65.5086
 20
53.9288
 11
79.4581
 21
53.9288
  0
LINE
  8
0
 10
79.4581
 20
53.9288
 11
86.4328
 21
41.8483
  0
LINE
  8
0
 10
86.4328
 20
41.8483
 11
79.4581
 21
29.7677
  0
LINE
  8
0
 10
79.4581
 20
29.7677
 11
65.5086
 21
29.7677
  0
LINE
  8
0
 10
-31.1358
 20
29.7677
 11
-38.1105
 21
41.8483
  0
LINE
  8
0
 10
-38.1105
 20
41.8483
 11
-31.1358
 21
53.9288
  0
LINE
  8
0
 10
-31.1358
 20
53.9288
 11
-17.1864
 21
53.9288
  0
LINE
  8
0
 10
-17.1864
 20
53.9288
 11
-10.2117
 21
41.8483
  0
LINE
  8
0
 10
-10.2117
 20
41.8483
 11
-17.1864
 21
29.7677
  0
LINE
  8
0
 10
-17.1864
 20
29.7677
 11
-31.1358
 21
29.7677
  0
LINE
  8
0
 10
-208.346
 20
50.2402
 11
-203.501
 21
41.8483
  0
LINE
  8
0
 10
-203.501
 20
41.8483
 11
-208.346
 21
33.4564
  0
LINE
  8
0
 10
-208.346
 20
33.4564
 11
-208.346
 21
50.2402
  0
LINE
  8
0
 10
307.12
 20
29.7677
 11
300.145
 21
41.8483
  0
LINE
  8
0
 10
300.145
 20
41.8483
 11
300.924
 21
43.1979
  0
LINE
  8
0
 10
300.924
 20
43.1979
 11
312.906
 21
35.3594
  0
LINE
  8
0
 10
312.906
 20
35.3594
 11
319.215
 21
29.7677
  0
LINE
  8
0
 10
319.215
 20
29.7677
 11
307.12
 21
29.7677
  0
LINE
  8
0
 10
-103.619
 20
15.8183
 11
-110.594
 21
27.8988
  0
LINE
  8
0
 10
-110.594
 20
27.8988
 11
-103.619
 21
39.9794
  0
LINE
  8
0
 10
-103.619
 20
39.9794
 11
-89.6698
 21
39.9794
  0
LINE
  8
0
 10
-89.6698
 20
39.9794
 11
-82.695
 21
27.8988
  0
LINE
  8
0
 10
-82.695
 20
27.8988
 11
-89.6698
 21
15.8183
  0
LINE
  8
0
 10
-89.6698
 20
15.8183
 11
-103.619
 21
15.8183
  0
LINE
  8
0
 10
186.314
 20
15.8183
 11
179.34
 21
27.8988
  0
LINE
  8
0
 10
179.34
 20
27.8988
 11
186.314
 21
39.9794
  0
LINE
  8
0
 10
186.314
 20
39.9794
 11
200.264
 21
39.9794
  0
LINE
  8
0
 10
200.264
 20
39.9794
 11
207.238
 21
27.8988
  0
LINE
  8
0
 10
207.238
 20
27.8988
 11
200.264
 21
15.8183
  0
LINE
  8
0
 10
200.264
 20
15.8183
 11
186.314
 21
15.8183
  0
LINE
  8
0
 10
89.6698
 20
15.8183
 11
82.695
 21
27.8988
  0
LINE
  8
0
 10
82.695
 20
27.8988
 11
89.6698
 21
39.9794
  0
LINE
  8
0
 10
89.6698
 20
39.9794
 11
103.619
 21
39.9794
  0
LINE
  8
0
 10
103.619
 20
39.9794
 11
110.594
 21
27.8988
  0
LINE
  8
0
 10
110.594
 20
27.8988
 11
103.619
 21
15.8183
  0
LINE
  8
0
 10
103.619
 20
15.8183
 11
89.6698
 21
15.8183
  0
LINE
  8
0
 10
41.3475
 20
15.8183
 11
34.3728
 21
27.8988
  0
LINE
  8
0
 10
34.3728
 20
27.8988
 11
41.3475
 21
39.9794
  0
LINE
  8
0
 10
41.3475
 20
39.9794
 11
55.2969
 21
39.9794
  0
LINE
  8
0
 10
55.2969
 20
39.9794
 11
62.2717
 21
27.8988
  0
LINE
  8
0
 10
62.2717
 20
27.8988
 11
55.2969
 21
15.8183
  0
LINE
  8
0
 10
55.2969
 20
15.8183
 11
41.3475
 21
15.8183
  0
LINE
  8
0
 10
-6.9747
 20
15.8183
 11
-13.9494
 21
27.8988
  0
LINE
  8
0
 10
-13.9494
 20
27.8988
 11
-6.9747
 21
39.9794
  0
LINE
  8
0
 10
-6.9747
 20
39.9794
 11
6.9747
 21
39.9794
  0
LINE
  8
0
 10
6.9747
 20
39.9794
 11
13.9494
 21
27.8988
  0
LINE
  8
0
 10
13.9494
 20
27.8988
 11
6.9747
 21
15.8183
  0
LINE
  8
0
 10
6.9747
 20
15.8183
 11
-6.9747
 21
15.8183
  0
LINE
  8
0
 10
137.992
 20
15.8183
 11
131.017
 21
27.8988
  0
LINE
  8
0
 10
131.017
 20
27.8988
 11
137.992
 21
39.9794
  0
LINE
  8
0
 10
137.992
 20
39.9794
 11
151.941
 21
39.9794
  0
LINE
  8
0
 10
151.941
 20
39.9794
 11
158.916
 21
27.8988
  0
LINE
  8
0
 10
158.916
 20
27.8988
 11
151.941
 21
15.8183
  0
LINE
  8
0
 10
151.941
 20
15.8183
 11
137.992
 21
15.8183
  0
LINE
  8
0
 10
-55.2969
 20
15.8183
 11
-62.2717
 21
27.8988
  0
LINE
  8
0
 10
-62.2717
 20
27.8988
 11
-55.2969
 21
39.9794
  0
LINE
  8
0
 10
-55.2969
 20
39.9794
 11
-41.3475
 21
39.9794
  0
LINE
  8
0
 10
-41.3475
 20
39.9794
 11
-34.3728
 21
27.8988
  0
LINE
  8
0
 10
-34.3728
 20
27.8988
 11
-41.3475
 21
15.8183
  0
LINE
  8
0
 10
-41.3475
 20
15.8183
 11
-55.2969
 21
15.8183
  0
LINE
  8
0
 10
307.12
 20
1.86887
 11
300.145
 21
13.9494
  0
LINE
  8
0
 10
300.145
 20
13.9494
 11
307.12
 21
26.03
  0
LINE
  8
0
 10
307.12
 20
26.03
 11
321.069
 21
26.03
  0
LINE
  8
0
 10
321.069
 20
26.03
 11
328.044
 21
13.9494
  0
LINE
  8
0
 10
328.044
 20
13.9494
 11
321.069
 21
1.86887
  0
LINE
  8
0
 10
321.069
 20
1.86887
 11
307.12
 21
1.86887
  0
LINE
  8
0
 10
-79.4581
 20
1.86887
 11
-86.4328
 21
13.9494
  0
LINE
  8
0
 10
-86.4328
 20
13.9494
 11
-79.4581
 21
26.03
  0
LINE
  8
0
 10
-79.4581
 20
26.03
 11
-65.5086
 21
26.03
  0
LINE
  8
0
 10
-65.5086
 20
26.03
 11
-58.5339
 21
13.9494
  0
LINE
  8
0
 10
-58.5339
 20
13.9494
 11
-65.5086
 21
1.86887
  0
LINE
  8
0
 10
-65.5086
 20
1.86887
 11
-79.4581
 21
1.86887
  0
LINE
  8
0
 10
65.5086
 20
1.86887
 11
58.5339
 21
13.9494
  0
LINE
  8
0
 10
58.5339
 20
13.9494
 11
65.5086
 21
26.03
  0
LINE
  8
0
 10
65.5086
 20
26.03
 11
79.4581
 21
26.03
  0
LINE
  8
0
 10
79.4581
 20
26.03
 11
86.4328
 21
13.9494
  0
LINE
  8
0
 10
86.4328
 20
13.9494
 11
79.4581
 21
1.86887
  0
LINE
  8
0
 10
79.4581
 20
1.86887
 11
65.5086
 21
1.86887
  0
LINE
  8
0
 10
162.153
 20
1.86887
 11
155.178
 21
13.9494
  0
LINE
  8
0
 10
155.178
 20
13.9494
 11
162.153
 21
26.03
  0
LINE
  8
0
 10
162.153
 20
26.03
 11
176.103
 21
26.03
  0
LINE
  8
0
 10
176.103
 20
26.03
 11
183.077
 21
13.9494
  0
LINE
  8
0
 10
183.077
 20
13.9494
 11
176.103
 21
1.86887
  0
LINE
  8
0
 10
176.103
 20
1.86887
 11
162.153
 21
1.86887
  0
LINE
  8
0
 10
-31.1358
 20
1.86887
 11
-38.1105
 21
13.9494
  0
LINE
  8
0
 10
-38.1105
 20
13.9494
 11
-31.1358
 21
26.03
  0
LINE
  8
0
 10
-31.1358
 20
26.03
 11
-17.1864
 21
26.03
  0
LINE
  8
0
 10
-17.1864
 20
26.03
 11
-10.2117
 21
13.9494
  0
LINE
  8
0
 10
-10.2117
 20
13.9494
 11
-17.1864
 21
1.86887
  0
LINE
  8
0
 10
-17.1864
 20
1.86887
 11
-31.1358
 21
1.86887
  0
LINE
  8
0
 10
-127.78
 20
1.86887
 11
-134.755
 21
13.9494
  0
LINE
  8
0
 10
-134.755
 20
13.9494
 11
-127.78
 21
26.03
  0
LINE
  8
0
 10
-127.78
 20
26.03
 11
-113.831
 21
26.03
  0
LINE
  8
0
 10
-113.831
 20
26.03
 11
-106.856
 21
13.9494
  0
LINE
  8
0
 10
-106.856
 20
13.9494
 11
-113.831
 21
1.86887
  0
LINE
  8
0
 10
-113.831
 20
1.86887
 11
-127.78
 21
1.86887
  0
LINE
  8
0
 10
113.831
 20
1.86887
 11
106.856
 21
13.9494
  0
LINE
  8
0
 10
106.856
 20
13.9494
 11
113.831
 21
26.03
  0
LINE
  8
0
 10
113.831
 20
26.03
 11
127.78
 21
26.03
  0
LINE
  8
0
 10
127.78
 20
26.03
 11
134.755
 21
13.9494
  0
LINE
  8
0
 10
134.755
 20
13.9494
 11
127.78
 21
1.86887
  0
LINE
  8
0
 10
127.78
 20
1.86887
 11
113.831
 21
1.86887
  0
LINE
  8
0
 10
17.1864
 20
1.86887
 11
10.2117
 21
13.9494
  0
LINE
  8
0
 10
10.2117
 20
13.9494
 11
17.1864
 21
26.03
  0
LINE
  8
0
 10
17.1864
 20
26.03
 11
31.1358
 21
26.03
  0
LINE
  8
0
 10
31.1358
 20
26.03
 11
38.1105
 21
13.9494
  0
LINE
  8
0
 10
38.1105
 20
13.9494
 11
31.1358
 21
1.86887
  0
LINE
  8
0
 10
31.1358
 20
1.86887
 11
17.1864
 21
1.86887
  0
LINE
  8
0
 10
216.709
 20
17.4639
 11
216.609
 21
17.4688
  0
LINE
  8
0
 10
216.609
 20
17.4688
 11
216.46
 21
17.4814
  0
LINE
  8
0
 10
216.46
 20
17.4814
 11
216.361
 21
17.4941
  0
LINE
  8
0
 10
216.361
 20
17.4941
 11
216.214
 21
17.5186
  0
LINE
  8
0
 10
216.214
 20
17.5186
 11
216.067
 21
17.5498
  0
LINE
  8
0
 10
216.067
 20
17.5498
 11
215.971
 21
17.5752
  0
LINE
  8
0
 10
215.971
 20
17.5752
 11
215.875
 21
17.6025
  0
LINE
  8
0
 10
215.875
 20
17.6025
 11
215.78
 21
17.6338
  0
LINE
  8
0
 10
215.78
 20
17.6338
 11
215.687
 21
17.667
  0
LINE
  8
0
 10
215.687
 20
17.667
 11
215.548
 21
17.7236
  0
LINE
  8
0
 10
215.548
 20
17.7236
 11
215.412
 21
17.7861
  0
LINE
  8
0
 10
215.412
 20
17.7861
 11
215.235
 21
17.8799
  0
LINE
  8
0
 10
215.235
 20
17.8799
 11
215.149
 21
17.9307
  0
LINE
  8
0
 10
215.149
 20
17.9307
 11
215.065
 21
17.9834
  0
LINE
  8
0
 10
215.065
 20
17.9834
 11
214.902
 21
18.0986
  0
LINE
  8
0
 10
214.902
 20
18.0986
 11
214.823
 21
18.1592
  0
LINE
  8
0
 10
214.823
 20
18.1592
 11
214.709
 21
18.2559
  0
LINE
  8
0
 10
214.709
 20
18.2559
 11
214.563
 21
18.3926
  0
LINE
  8
0
 10
214.563
 20
18.3926
 11
214.494
 21
18.4639
  0
LINE
  8
0
 10
214.494
 20
18.4639
 11
214.395
 21
18.5752
  0
LINE
  8
0
 10
214.395
 20
18.5752
 11
214.3
 21
18.6914
  0
LINE
  8
0
 10
214.3
 20
18.6914
 11
214.211
 21
18.8115
  0
LINE
  8
0
 10
214.211
 20
18.8115
 11
214.102
 21
18.9785
  0
LINE
  8
0
 10
214.102
 20
18.9785
 11
214.003
 21
19.1514
  0
LINE
  8
0
 10
214.003
 20
19.1514
 11
213.936
 21
19.2861
  0
LINE
  8
0
 10
213.936
 20
19.2861
 11
213.875
 21
19.4229
  0
LINE
  8
0
 10
213.875
 20
19.4229
 11
213.821
 21
19.5615
  0
LINE
  8
0
 10
213.821
 20
19.5615
 11
213.789
 21
19.6562
  0
LINE
  8
0
 10
213.789
 20
19.6562
 11
213.746
 21
19.7998
  0
LINE
  8
0
 10
213.746
 20
19.7998
 11
213.71
 21
19.9453
  0
LINE
  8
0
 10
213.71
 20
19.9453
 11
213.681
 21
20.0918
  0
LINE
  8
0
 10
213.681
 20
20.0918
 11
213.665
 21
20.1904
  0
LINE
  8
0
 10
213.665
 20
20.1904
 11
213.647
 21
20.3389
  0
LINE
  8
0
 10
213.647
 20
20.3389
 11
213.64
 21
20.4385
  0
LINE
  8
0
 10
213.64
 20
20.4385
 11
213.634
 21
20.5879
  0
LINE
  8
0
 10
213.634
 20
20.5879
 11
213.634
 21
20.6875
  0
LINE
  8
0
 10
213.634
 20
20.6875
 11
213.64
 21
20.8369
  0
LINE
  8
0
 10
213.64
 20
20.8369
 11
213.647
 21
20.9365
  0
LINE
  8
0
 10
213.647
 20
20.9365
 11
213.665
 21
21.085
  0
LINE
  8
0
 10
213.665
 20
21.085
 11
213.681
 21
21.1836
  0
LINE
  8
0
 10
213.681
 20
21.1836
 11
213.71
 21
21.3301
  0
LINE
  8
0
 10
213.71
 20
21.3301
 11
213.746
 21
21.4756
  0
LINE
  8
0
 10
213.746
 20
21.4756
 11
213.805
 21
21.666
  0
LINE
  8
0
 10
213.805
 20
21.666
 11
213.856
 21
21.8066
  0
LINE
  8
0
 10
213.856
 20
21.8066
 11
213.936
 21
21.9893
  0
LINE
  8
0
 10
213.936
 20
21.9893
 11
213.979
 21
22.0791
  0
LINE
  8
0
 10
213.979
 20
22.0791
 11
214.051
 21
22.2109
  0
LINE
  8
0
 10
214.051
 20
22.2109
 11
214.128
 21
22.3389
  0
LINE
  8
0
 10
214.128
 20
22.3389
 11
214.211
 21
22.4629
  0
LINE
  8
0
 10
214.211
 20
22.4629
 11
214.27
 21
22.5439
  0
LINE
  8
0
 10
214.27
 20
22.5439
 11
214.362
 21
22.6611
  0
LINE
  8
0
 10
214.362
 20
22.6611
 11
214.427
 21
22.7373
  0
LINE
  8
0
 10
214.427
 20
22.7373
 11
214.563
 21
22.8828
  0
LINE
  8
0
 10
214.563
 20
22.8828
 11
214.709
 21
23.0195
  0
LINE
  8
0
 10
214.709
 20
23.0195
 11
214.823
 21
23.1152
  0
LINE
  8
0
 10
214.823
 20
23.1152
 11
214.942
 21
23.2061
  0
LINE
  8
0
 10
214.942
 20
23.2061
 11
215.065
 21
23.291
  0
LINE
  8
0
 10
215.065
 20
23.291
 11
215.149
 21
23.3447
  0
LINE
  8
0
 10
215.149
 20
23.3447
 11
215.279
 21
23.4199
  0
LINE
  8
0
 10
215.279
 20
23.4199
 11
215.367
 21
23.4668
  0
LINE
  8
0
 10
215.367
 20
23.4668
 11
215.548
 21
23.5518
  0
LINE
  8
0
 10
215.548
 20
23.5518
 11
215.64
 21
23.5898
  0
LINE
  8
0
 10
215.64
 20
23.5898
 11
215.78
 21
23.6416
  0
LINE
  8
0
 10
215.78
 20
23.6416
 11
215.923
 21
23.6865
  0
LINE
  8
0
 10
215.923
 20
23.6865
 11
216.116
 21
23.7363
  0
LINE
  8
0
 10
216.116
 20
23.7363
 11
216.263
 21
23.7656
  0
LINE
  8
0
 10
216.263
 20
23.7656
 11
216.361
 21
23.7812
  0
LINE
  8
0
 10
216.361
 20
23.7812
 11
216.51
 21
23.7988
  0
LINE
  8
0
 10
216.51
 20
23.7988
 11
216.609
 21
23.8066
  0
LINE
  8
0
 10
216.609
 20
23.8066
 11
216.759
 21
23.8125
  0
LINE
  8
0
 10
216.759
 20
23.8125
 11
216.858
 21
23.8125
  0
LINE
  8
0
 10
216.858
 20
23.8125
 11
217.006
 21
23.8066
  0
LINE
  8
0
 10
217.006
 20
23.8066
 11
217.153
 21
23.7939
  0
LINE
  8
0
 10
217.153
 20
23.7939
 11
217.301
 21
23.7744
  0
LINE
  8
0
 10
217.301
 20
23.7744
 11
217.446
 21
23.748
  0
LINE
  8
0
 10
217.446
 20
23.748
 11
217.591
 21
23.7148
  0
LINE
  8
0
 10
217.591
 20
23.7148
 11
217.733
 21
23.6748
  0
LINE
  8
0
 10
217.733
 20
23.6748
 11
217.874
 21
23.6289
  0
LINE
  8
0
 10
217.874
 20
23.6289
 11
218.058
 21
23.5566
  0
LINE
  8
0
 10
218.058
 20
23.5566
 11
218.148
 21
23.5166
  0
LINE
  8
0
 10
218.148
 20
23.5166
 11
218.324
 21
23.4277
  0
LINE
  8
0
 10
218.324
 20
23.4277
 11
218.495
 21
23.3281
  0
LINE
  8
0
 10
218.495
 20
23.3281
 11
218.578
 21
23.2744
  0
LINE
  8
0
 10
218.578
 20
23.2744
 11
218.738
 21
23.1592
  0
LINE
  8
0
 10
218.738
 20
23.1592
 11
218.892
 21
23.0342
  0
LINE
  8
0
 10
218.892
 20
23.0342
 11
219.001
 21
22.9346
  0
LINE
  8
0
 10
219.001
 20
22.9346
 11
219.071
 21
22.8652
  0
LINE
  8
0
 10
219.071
 20
22.8652
 11
219.14
 21
22.7939
  0
LINE
  8
0
 10
219.14
 20
22.7939
 11
219.237
 21
22.6826
  0
LINE
  8
0
 10
219.237
 20
22.6826
 11
219.33
 21
22.5674
  0
LINE
  8
0
 10
219.33
 20
22.5674
 11
219.36
 21
22.5273
  0
LINE
  8
0
 10
219.36
 20
22.5273
 11
219.473
 21
22.3652
  0
LINE
  8
0
 10
219.473
 20
22.3652
 11
219.525
 21
22.2812
  0
LINE
  8
0
 10
219.525
 20
22.2812
 11
219.575
 21
22.1963
  0
LINE
  8
0
 10
219.575
 20
22.1963
 11
219.645
 21
22.0654
  0
LINE
  8
0
 10
219.645
 20
22.0654
 11
219.708
 21
21.9316
  0
LINE
  8
0
 10
219.708
 20
21.9316
 11
219.766
 21
21.7949
  0
LINE
  8
0
 10
219.766
 20
21.7949
 11
219.816
 21
21.6562
  0
LINE
  8
0
 10
219.816
 20
21.6562
 11
219.86
 21
21.5146
  0
LINE
  8
0
 10
219.86
 20
21.5146
 11
219.909
 21
21.3232
  0
LINE
  8
0
 10
219.909
 20
21.3232
 11
219.938
 21
21.1777
  0
LINE
  8
0
 10
219.938
 20
21.1777
 11
219.953
 21
21.0801
  0
LINE
  8
0
 10
219.953
 20
21.0801
 11
219.975
 21
20.8838
  0
LINE
  8
0
 10
219.975
 20
20.8838
 11
219.982
 21
20.7363
  0
LINE
  8
0
 10
219.982
 20
20.7363
 11
219.982
 21
20.5391
  0
LINE
  8
0
 10
219.982
 20
20.5391
 11
219.975
 21
20.3906
  0
LINE
  8
0
 10
219.975
 20
20.3906
 11
219.953
 21
20.1943
  0
LINE
  8
0
 10
219.953
 20
20.1943
 11
219.929
 21
20.0488
  0
LINE
  8
0
 10
219.929
 20
20.0488
 11
219.909
 21
19.9512
  0
LINE
  8
0
 10
219.909
 20
19.9512
 11
219.86
 21
19.7598
  0
LINE
  8
0
 10
219.86
 20
19.7598
 11
219.816
 21
19.6191
  0
LINE
  8
0
 10
219.816
 20
19.6191
 11
219.766
 21
19.4795
  0
LINE
  8
0
 10
219.766
 20
19.4795
 11
219.708
 21
19.3428
  0
LINE
  8
0
 10
219.708
 20
19.3428
 11
219.645
 21
19.209
  0
LINE
  8
0
 10
219.645
 20
19.209
 11
219.575
 21
19.0781
  0
LINE
  8
0
 10
219.575
 20
19.0781
 11
219.525
 21
18.9932
  0
LINE
  8
0
 10
219.525
 20
18.9932
 11
219.445
 21
18.8682
  0
LINE
  8
0
 10
219.445
 20
18.8682
 11
219.36
 21
18.7471
  0
LINE
  8
0
 10
219.36
 20
18.7471
 11
219.3
 21
18.6689
  0
LINE
  8
0
 10
219.3
 20
18.6689
 11
219.173
 21
18.5176
  0
LINE
  8
0
 10
219.173
 20
18.5176
 11
219.071
 21
18.4102
  0
LINE
  8
0
 10
219.071
 20
18.4102
 11
218.965
 21
18.3066
  0
LINE
  8
0
 10
218.965
 20
18.3066
 11
218.854
 21
18.209
  0
LINE
  8
0
 10
218.854
 20
18.209
 11
218.777
 21
18.1465
  0
LINE
  8
0
 10
218.777
 20
18.1465
 11
218.699
 21
18.0859
  0
LINE
  8
0
 10
218.699
 20
18.0859
 11
218.537
 21
17.9736
  0
LINE
  8
0
 10
218.537
 20
17.9736
 11
218.453
 21
17.9209
  0
LINE
  8
0
 10
218.453
 20
17.9209
 11
218.368
 21
17.8711
  0
LINE
  8
0
 10
218.368
 20
17.8711
 11
218.237
 21
17.8018
  0
LINE
  8
0
 10
218.237
 20
17.8018
 11
218.104
 21
17.7383
  0
LINE
  8
0
 10
218.104
 20
17.7383
 11
217.967
 21
17.6807
  0
LINE
  8
0
 10
217.967
 20
17.6807
 11
217.827
 21
17.6299
  0
LINE
  8
0
 10
217.827
 20
17.6299
 11
217.687
 21
17.5859
  0
LINE
  8
0
 10
217.687
 20
17.5859
 11
217.495
 21
17.5371
  0
LINE
  8
0
 10
217.495
 20
17.5371
 11
217.35
 21
17.5088
  0
LINE
  8
0
 10
217.35
 20
17.5088
 11
217.252
 21
17.4932
  0
LINE
  8
0
 10
217.252
 20
17.4932
 11
217.056
 21
17.4717
  0
LINE
  8
0
 10
217.056
 20
17.4717
 11
216.907
 21
17.4639
  0
LINE
  8
0
 10
216.907
 20
17.4639
 11
216.709
 21
17.4639
  0
LINE
  8
0
 10
280.209
 20
17.4639
 11
280.109
 21
17.4688
  0
LINE
  8
0
 10
280.109
 20
17.4688
 11
279.96
 21
17.4814
  0
LINE
  8
0
 10
279.96
 20
17.4814
 11
279.861
 21
17.4941
  0
LINE
  8
0
 10
279.861
 20
17.4941
 11
279.714
 21
17.5186
  0
LINE
  8
0
 10
279.714
 20
17.5186
 11
279.567
 21
17.5498
  0
LINE
  8
0
 10
279.567
 20
17.5498
 11
279.471
 21
17.5752
  0
LINE
  8
0
 10
279.471
 20
17.5752
 11
279.375
 21
17.6025
  0
LINE
  8
0
 10
279.375
 20
17.6025
 11
279.28
 21
17.6338
  0
LINE
  8
0
 10
279.28
 20
17.6338
 11
279.187
 21
17.667
  0
LINE
  8
0
 10
279.187
 20
17.667
 11
279.048
 21
17.7236
  0
LINE
  8
0
 10
279.048
 20
17.7236
 11
278.912
 21
17.7861
  0
LINE
  8
0
 10
278.912
 20
17.7861
 11
278.735
 21
17.8799
  0
LINE
  8
0
 10
278.735
 20
17.8799
 11
278.649
 21
17.9307
  0
LINE
  8
0
 10
278.649
 20
17.9307
 11
278.565
 21
17.9834
  0
LINE
  8
0
 10
278.565
 20
17.9834
 11
278.402
 21
18.0986
  0
LINE
  8
0
 10
278.402
 20
18.0986
 11
278.323
 21
18.1592
  0
LINE
  8
0
 10
278.323
 20
18.1592
 11
278.209
 21
18.2559
  0
LINE
  8
0
 10
278.209
 20
18.2559
 11
278.063
 21
18.3926
  0
LINE
  8
0
 10
278.063
 20
18.3926
 11
277.994
 21
18.4639
  0
LINE
  8
0
 10
277.994
 20
18.4639
 11
277.895
 21
18.5752
  0
LINE
  8
0
 10
277.895
 20
18.5752
 11
277.8
 21
18.6914
  0
LINE
  8
0
 10
277.8
 20
18.6914
 11
277.711
 21
18.8115
  0
LINE
  8
0
 10
277.711
 20
18.8115
 11
277.602
 21
18.9785
  0
LINE
  8
0
 10
277.602
 20
18.9785
 11
277.503
 21
19.1514
  0
LINE
  8
0
 10
277.503
 20
19.1514
 11
277.436
 21
19.2861
  0
LINE
  8
0
 10
277.436
 20
19.2861
 11
277.375
 21
19.4229
  0
LINE
  8
0
 10
277.375
 20
19.4229
 11
277.321
 21
19.5615
  0
LINE
  8
0
 10
277.321
 20
19.5615
 11
277.289
 21
19.6562
  0
LINE
  8
0
 10
277.289
 20
19.6562
 11
277.246
 21
19.7998
  0
LINE
  8
0
 10
277.246
 20
19.7998
 11
277.21
 21
19.9453
  0
LINE
  8
0
 10
277.21
 20
19.9453
 11
277.181
 21
20.0918
  0
LINE
  8
0
 10
277.181
 20
20.0918
 11
277.165
 21
20.1904
  0
LINE
  8
0
 10
277.165
 20
20.1904
 11
277.147
 21
20.3389
  0
LINE
  8
0
 10
277.147
 20
20.3389
 11
277.14
 21
20.4385
  0
LINE
  8
0
 10
277.14
 20
20.4385
 11
277.134
 21
20.5879
  0
LINE
  8
0
 10
277.134
 20
20.5879
 11
277.134
 21
20.6875
  0
LINE
  8
0
 10
277.134
 20
20.6875
 11
277.14
 21
20.8369
  0
LINE
  8
0
 10
277.14
 20
20.8369
 11
277.147
 21
20.9365
  0
LINE
  8
0
 10
277.147
 20
20.9365
 11
277.165
 21
21.085
  0
LINE
  8
0
 10
277.165
 20
21.085
 11
277.181
 21
21.1836
  0
LINE
  8
0
 10
277.181
 20
21.1836
 11
277.21
 21
21.3301
  0
LINE
  8
0
 10
277.21
 20
21.3301
 11
277.246
 21
21.4756
  0
LINE
  8
0
 10
277.246
 20
21.4756
 11
277.305
 21
21.666
  0
LINE
  8
0
 10
277.305
 20
21.666
 11
277.356
 21
21.8066
  0
LINE
  8
0
 10
277.356
 20
21.8066
 11
277.436
 21
21.9893
  0
LINE
  8
0
 10
277.436
 20
21.9893
 11
277.479
 21
22.0791
  0
LINE
  8
0
 10
277.479
 20
22.0791
 11
277.551
 21
22.2109
  0
LINE
  8
0
 10
277.551
 20
22.2109
 11
277.628
 21
22.3389
  0
LINE
  8
0
 10
277.628
 20
22.3389
 11
277.711
 21
22.4629
  0
LINE
  8
0
 10
277.711
 20
22.4629
 11
277.77
 21
22.5439
  0
LINE
  8
0
 10
277.77
 20
22.5439
 11
277.862
 21
22.6611
  0
LINE
  8
0
 10
277.862
 20
22.6611
 11
277.927
 21
22.7373
  0
LINE
  8
0
 10
277.927
 20
22.7373
 11
278.063
 21
22.8828
  0
LINE
  8
0
 10
278.063
 20
22.8828
 11
278.209
 21
23.0195
  0
LINE
  8
0
 10
278.209
 20
23.0195
 11
278.323
 21
23.1152
  0
LINE
  8
0
 10
278.323
 20
23.1152
 11
278.442
 21
23.2061
  0
LINE
  8
0
 10
278.442
 20
23.2061
 11
278.565
 21
23.291
  0
LINE
  8
0
 10
278.565
 20
23.291
 11
278.649
 21
23.3447
  0
LINE
  8
0
 10
278.649
 20
23.3447
 11
278.779
 21
23.4199
  0
LINE
  8
0
 10
278.779
 20
23.4199
 11
278.867
 21
23.4668
  0
LINE
  8
0
 10
278.867
 20
23.4668
 11
279.048
 21
23.5518
  0
LINE
  8
0
 10
279.048
 20
23.5518
 11
279.14
 21
23.5898
  0
LINE
  8
0
 10
279.14
 20
23.5898
 11
279.28
 21
23.6416
  0
LINE
  8
0
 10
279.28
 20
23.6416
 11
279.423
 21
23.6865
  0
LINE
  8
0
 10
279.423
 20
23.6865
 11
279.616
 21
23.7363
  0
LINE
  8
0
 10
279.616
 20
23.7363
 11
279.763
 21
23.7656
  0
LINE
  8
0
 10
279.763
 20
23.7656
 11
279.861
 21
23.7812
  0
LINE
  8
0
 10
279.861
 20
23.7812
 11
280.01
 21
23.7988
  0
LINE
  8
0
 10
280.01
 20
23.7988
 11
280.109
 21
23.8066
  0
LINE
  8
0
 10
280.109
 20
23.8066
 11
280.259
 21
23.8125
  0
LINE
  8
0
 10
280.259
 20
23.8125
 11
280.358
 21
23.8125
  0
LINE
  8
0
 10
280.358
 20
23.8125
 11
280.506
 21
23.8066
  0
LINE
  8
0
 10
280.506
 20
23.8066
 11
280.653
 21
23.7939
  0
LINE
  8
0
 10
280.653
 20
23.7939
 11
280.801
 21
23.7744
  0
LINE
  8
0
 10
280.801
 20
23.7744
 11
280.946
 21
23.748
  0
LINE
  8
0
 10
280.946
 20
23.748
 11
281.091
 21
23.7148
  0
LINE
  8
0
 10
281.091
 20
23.7148
 11
281.233
 21
23.6748
  0
LINE
  8
0
 10
281.233
 20
23.6748
 11
281.374
 21
23.6289
  0
LINE
  8
0
 10
281.374
 20
23.6289
 11
281.558
 21
23.5566
  0
LINE
  8
0
 10
281.558
 20
23.5566
 11
281.648
 21
23.5166
  0
LINE
  8
0
 10
281.648
 20
23.5166
 11
281.824
 21
23.4277
  0
LINE
  8
0
 10
281.824
 20
23.4277
 11
281.995
 21
23.3281
  0
LINE
  8
0
 10
281.995
 20
23.3281
 11
282.078
 21
23.2744
  0
LINE
  8
0
 10
282.078
 20
23.2744
 11
282.238
 21
23.1592
  0
LINE
  8
0
 10
282.238
 20
23.1592
 11
282.392
 21
23.0342
  0
LINE
  8
0
 10
282.392
 20
23.0342
 11
282.501
 21
22.9346
  0
LINE
  8
0
 10
282.501
 20
22.9346
 11
282.571
 21
22.8652
  0
LINE
  8
0
 10
282.571
 20
22.8652
 11
282.64
 21
22.7939
  0
LINE
  8
0
 10
282.64
 20
22.7939
 11
282.737
 21
22.6826
  0
LINE
  8
0
 10
282.737
 20
22.6826
 11
282.83
 21
22.5674
  0
LINE
  8
0
 10
282.83
 20
22.5674
 11
282.86
 21
22.5273
  0
LINE
  8
0
 10
282.86
 20
22.5273
 11
282.973
 21
22.3652
  0
LINE
  8
0
 10
282.973
 20
22.3652
 11
283.025
 21
22.2812
  0
LINE
  8
0
 10
283.025
 20
22.2812
 11
283.075
 21
22.1963
  0
LINE
  8
0
 10
283.075
 20
22.1963
 11
283.145
 21
22.0654
  0
LINE
  8
0
 10
283.145
 20
22.0654
 11
283.208
 21
21.9316
  0
LINE
  8
0
 10
283.208
 20
21.9316
 11
283.266
 21
21.7949
  0
LINE
  8
0
 10
283.266
 20
21.7949
 11
283.316
 21
21.6562
  0
LINE
  8
0
 10
283.316
 20
21.6562
 11
283.36
 21
21.5146
  0
LINE
  8
0
 10
283.36
 20
21.5146
 11
283.409
 21
21.3232
  0
LINE
  8
0
 10
283.409
 20
21.3232
 11
283.438
 21
21.1777
  0
LINE
  8
0
 10
283.438
 20
21.1777
 11
283.453
 21
21.0801
  0
LINE
  8
0
 10
283.453
 20
21.0801
 11
283.475
 21
20.8838
  0
LINE
  8
0
 10
283.475
 20
20.8838
 11
283.482
 21
20.7363
  0
LINE
  8
0
 10
283.482
 20
20.7363
 11
283.482
 21
20.5391
  0
LINE
  8
0
 10
283.482
 20
20.5391
 11
283.475
 21
20.3906
  0
LINE
  8
0
 10
283.475
 20
20.3906
 11
283.453
 21
20.1943
  0
LINE
  8
0
 10
283.453
 20
20.1943
 11
283.429
 21
20.0488
  0
LINE
  8
0
 10
283.429
 20
20.0488
 11
283.409
 21
19.9512
  0
LINE
  8
0
 10
283.409
 20
19.9512
 11
283.36
 21
19.7598
  0
LINE
  8
0
 10
283.36
 20
19.7598
 11
283.316
 21
19.6191
  0
LINE
  8
0
 10
283.316
 20
19.6191
 11
283.266
 21
19.4795
  0
LINE
  8
0
 10
283.266
 20
19.4795
 11
283.208
 21
19.3428
  0
LINE
  8
0
 10
283.208
 20
19.3428
 11
283.145
 21
19.209
  0
LINE
  8
0
 10
283.145
 20
19.209
 11
283.075
 21
19.0781
  0
LINE
  8
0
 10
283.075
 20
19.0781
 11
283.025
 21
18.9932
  0
LINE
  8
0
 10
283.025
 20
18.9932
 11
282.945
 21
18.8682
  0
LINE
  8
0
 10
282.945
 20
18.8682
 11
282.86
 21
18.7471
  0
LINE
  8
0
 10
282.86
 20
18.7471
 11
282.8
 21
18.6689
  0
LINE
  8
0
 10
282.8
 20
18.6689
 11
282.673
 21
18.5176
  0
LINE
  8
0
 10
282.673
 20
18.5176
 11
282.571
 21
18.4102
  0
LINE
  8
0
 10
282.571
 20
18.4102
 11
282.465
 21
18.3066
  0
LINE
  8
0
 10
282.465
 20
18.3066
 11
282.354
 21
18.209
  0
LINE
  8
0
 10
282.354
 20
18.209
 11
282.277
 21
18.1465
  0
LINE
  8
0
 10
282.277
 20
18.1465
 11
282.199
 21
18.0859
  0
LINE
  8
0
 10
282.199
 20
18.0859
 11
282.037
 21
17.9736
  0
LINE
  8
0
 10
282.037
 20
17.9736
 11
281.953
 21
17.9209
  0
LINE
  8
0
 10
281.953
 20
17.9209
 11
281.868
 21
17.8711
  0
LINE
  8
0
 10
281.868
 20
17.8711
 11
281.737
 21
17.8018
  0
LINE
  8
0
 10
281.737
 20
17.8018
 11
281.604
 21
17.7383
  0
LINE
  8
0
 10
281.604
 20
17.7383
 11
281.467
 21
17.6807
  0
LINE
  8
0
 10
281.467
 20
17.6807
 11
281.327
 21
17.6299
  0
LINE
  8
0
 10
281.327
 20
17.6299
 11
281.187
 21
17.5859
  0
LINE
  8
0
 10
281.187
 20
17.5859
 11
280.995
 21
17.5371
  0
LINE
  8
0
 10
280.995
 20
17.5371
 11
280.85
 21
17.5088
  0
LINE
  8
0
 10
280.85
 20
17.5088
 11
280.752
 21
17.4932
  0
LINE
  8
0
 10
280.752
 20
17.4932
 11
280.556
 21
17.4717
  0
LINE
  8
0
 10
280.556
 20
17.4717
 11
280.407
 21
17.4639
  0
LINE
  8
0
 10
280.407
 20
17.4639
 11
280.209
 21
17.4639
  0
LINE
  8
0
 10
-226.393
 20
17.4639
 11
-226.591
 21
17.4766
  0
LINE
  8
0
 10
-226.591
 20
17.4766
 11
-226.74
 21
17.4941
  0
LINE
  8
0
 10
-226.74
 20
17.4941
 11
-226.888
 21
17.5186
  0
LINE
  8
0
 10
-226.888
 20
17.5186
 11
-227.034
 21
17.5498
  0
LINE
  8
0
 10
-227.034
 20
17.5498
 11
-227.227
 21
17.6025
  0
LINE
  8
0
 10
-227.227
 20
17.6025
 11
-227.321
 21
17.6338
  0
LINE
  8
0
 10
-227.321
 20
17.6338
 11
-227.415
 21
17.667
  0
LINE
  8
0
 10
-227.415
 20
17.667
 11
-227.554
 21
17.7236
  0
LINE
  8
0
 10
-227.554
 20
17.7236
 11
-227.689
 21
17.7861
  0
LINE
  8
0
 10
-227.689
 20
17.7861
 11
-227.822
 21
17.8555
  0
LINE
  8
0
 10
-227.822
 20
17.8555
 11
-227.909
 21
17.9043
  0
LINE
  8
0
 10
-227.909
 20
17.9043
 11
-228.036
 21
17.9834
  0
LINE
  8
0
 10
-228.036
 20
17.9834
 11
-228.199
 21
18.0986
  0
LINE
  8
0
 10
-228.199
 20
18.0986
 11
-228.277
 21
18.1592
  0
LINE
  8
0
 10
-228.277
 20
18.1592
 11
-228.393
 21
18.2559
  0
LINE
  8
0
 10
-228.393
 20
18.2559
 11
-228.502
 21
18.3574
  0
LINE
  8
0
 10
-228.502
 20
18.3574
 11
-228.607
 21
18.4639
  0
LINE
  8
0
 10
-228.607
 20
18.4639
 11
-228.707
 21
18.5752
  0
LINE
  8
0
 10
-228.707
 20
18.5752
 11
-228.801
 21
18.6914
  0
LINE
  8
0
 10
-228.801
 20
18.6914
 11
-228.861
 21
18.7715
  0
LINE
  8
0
 10
-228.861
 20
18.7715
 11
-228.919
 21
18.8525
  0
LINE
  8
0
 10
-228.919
 20
18.8525
 11
-229
 21
18.9785
  0
LINE
  8
0
 10
-229
 20
18.9785
 11
-229.099
 21
19.1514
  0
LINE
  8
0
 10
-229.099
 20
19.1514
 11
-229.144
 21
19.2402
  0
LINE
  8
0
 10
-229.144
 20
19.2402
 11
-229.187
 21
19.3311
  0
LINE
  8
0
 10
-229.187
 20
19.3311
 11
-229.263
 21
19.5156
  0
LINE
  8
0
 10
-229.263
 20
19.5156
 11
-229.28
 21
19.5615
  0
LINE
  8
0
 10
-229.28
 20
19.5615
 11
-229.312
 21
19.6562
  0
LINE
  8
0
 10
-229.312
 20
19.6562
 11
-229.342
 21
19.752
  0
LINE
  8
0
 10
-229.342
 20
19.752
 11
-229.368
 21
19.8477
  0
LINE
  8
0
 10
-229.368
 20
19.8477
 11
-229.401
 21
19.9932
  0
LINE
  8
0
 10
-229.401
 20
19.9932
 11
-229.429
 21
20.1406
  0
LINE
  8
0
 10
-229.429
 20
20.1406
 11
-229.448
 21
20.2891
  0
LINE
  8
0
 10
-229.448
 20
20.2891
 11
-229.458
 21
20.3887
  0
LINE
  8
0
 10
-229.458
 20
20.3887
 11
-229.466
 21
20.5381
  0
LINE
  8
0
 10
-229.466
 20
20.5381
 11
-229.468
 21
20.6377
  0
LINE
  8
0
 10
-229.468
 20
20.6377
 11
-229.464
 21
20.7871
  0
LINE
  8
0
 10
-229.464
 20
20.7871
 11
-229.458
 21
20.8867
  0
LINE
  8
0
 10
-229.458
 20
20.8867
 11
-229.442
 21
21.0352
  0
LINE
  8
0
 10
-229.442
 20
21.0352
 11
-229.429
 21
21.1338
  0
LINE
  8
0
 10
-229.429
 20
21.1338
 11
-229.401
 21
21.2812
  0
LINE
  8
0
 10
-229.401
 20
21.2812
 11
-229.368
 21
21.4268
  0
LINE
  8
0
 10
-229.368
 20
21.4268
 11
-229.342
 21
21.5234
  0
LINE
  8
0
 10
-229.342
 20
21.5234
 11
-229.312
 21
21.6182
  0
LINE
  8
0
 10
-229.312
 20
21.6182
 11
-229.28
 21
21.7129
  0
LINE
  8
0
 10
-229.28
 20
21.7129
 11
-229.226
 21
21.8525
  0
LINE
  8
0
 10
-229.226
 20
21.8525
 11
-229.187
 21
21.9443
  0
LINE
  8
0
 10
-229.187
 20
21.9443
 11
-229.099
 21
22.123
  0
LINE
  8
0
 10
-229.099
 20
22.123
 11
-229.051
 21
22.2109
  0
LINE
  8
0
 10
-229.051
 20
22.2109
 11
-228.974
 21
22.3389
  0
LINE
  8
0
 10
-228.974
 20
22.3389
 11
-228.919
 21
22.4219
  0
LINE
  8
0
 10
-228.919
 20
22.4219
 11
-228.861
 21
22.5039
  0
LINE
  8
0
 10
-228.861
 20
22.5039
 11
-228.771
 21
22.623
  0
LINE
  8
0
 10
-228.771
 20
22.623
 11
-228.674
 21
22.7373
  0
LINE
  8
0
 10
-228.674
 20
22.7373
 11
-228.607
 21
22.8105
  0
LINE
  8
0
 10
-228.607
 20
22.8105
 11
-228.502
 21
22.918
  0
LINE
  8
0
 10
-228.502
 20
22.918
 11
-228.393
 21
23.0195
  0
LINE
  8
0
 10
-228.393
 20
23.0195
 11
-228.316
 21
23.084
  0
LINE
  8
0
 10
-228.316
 20
23.084
 11
-228.199
 21
23.1768
  0
LINE
  8
0
 10
-228.199
 20
23.1768
 11
-228.077
 21
23.2637
  0
LINE
  8
0
 10
-228.077
 20
23.2637
 11
-227.994
 21
23.3184
  0
LINE
  8
0
 10
-227.994
 20
23.3184
 11
-227.822
 21
23.4199
  0
LINE
  8
0
 10
-227.822
 20
23.4199
 11
-227.734
 21
23.4668
  0
LINE
  8
0
 10
-227.734
 20
23.4668
 11
-227.645
 21
23.5107
  0
LINE
  8
0
 10
-227.645
 20
23.5107
 11
-227.508
 21
23.5713
  0
LINE
  8
0
 10
-227.508
 20
23.5713
 11
-227.321
 21
23.6416
  0
LINE
  8
0
 10
-227.321
 20
23.6416
 11
-227.179
 21
23.6865
  0
LINE
  8
0
 10
-227.179
 20
23.6865
 11
-226.985
 21
23.7363
  0
LINE
  8
0
 10
-226.985
 20
23.7363
 11
-226.839
 21
23.7656
  0
LINE
  8
0
 10
-226.839
 20
23.7656
 11
-226.74
 21
23.7812
  0
LINE
  8
0
 10
-226.74
 20
23.7812
 11
-226.591
 21
23.7988
  0
LINE
  8
0
 10
-226.591
 20
23.7988
 11
-226.492
 21
23.8066
  0
LINE
  8
0
 10
-226.492
 20
23.8066
 11
-226.343
 21
23.8125
  0
LINE
  8
0
 10
-226.343
 20
23.8125
 11
-226.243
 21
23.8125
  0
LINE
  8
0
 10
-226.243
 20
23.8125
 11
-226.095
 21
23.8066
  0
LINE
  8
0
 10
-226.095
 20
23.8066
 11
-225.947
 21
23.7939
  0
LINE
  8
0
 10
-225.947
 20
23.7939
 11
-225.752
 21
23.7666
  0
LINE
  8
0
 10
-225.752
 20
23.7666
 11
-225.559
 21
23.7266
  0
LINE
  8
0
 10
-225.559
 20
23.7266
 11
-225.368
 21
23.6748
  0
LINE
  8
0
 10
-225.368
 20
23.6748
 11
-225.228
 21
23.6289
  0
LINE
  8
0
 10
-225.228
 20
23.6289
 11
-225.135
 21
23.5938
  0
LINE
  8
0
 10
-225.135
 20
23.5938
 11
-224.998
 21
23.5371
  0
LINE
  8
0
 10
-224.998
 20
23.5371
 11
-224.908
 21
23.4951
  0
LINE
  8
0
 10
-224.908
 20
23.4951
 11
-224.776
 21
23.4277
  0
LINE
  8
0
 10
-224.776
 20
23.4277
 11
-224.69
 21
23.3789
  0
LINE
  8
0
 10
-224.69
 20
23.3789
 11
-224.606
 21
23.3281
  0
LINE
  8
0
 10
-224.606
 20
23.3281
 11
-224.482
 21
23.2461
  0
LINE
  8
0
 10
-224.482
 20
23.2461
 11
-224.363
 21
23.1592
  0
LINE
  8
0
 10
-224.363
 20
23.1592
 11
-224.247
 21
23.0664
  0
LINE
  8
0
 10
-224.247
 20
23.0664
 11
-224.173
 21
23.001
  0
LINE
  8
0
 10
-224.173
 20
23.001
 11
-224.065
 21
22.9004
  0
LINE
  8
0
 10
-224.065
 20
22.9004
 11
-223.962
 21
22.7939
  0
LINE
  8
0
 10
-223.962
 20
22.7939
 11
-223.832
 21
22.6445
  0
LINE
  8
0
 10
-223.832
 20
22.6445
 11
-223.741
 21
22.5273
  0
LINE
  8
0
 10
-223.741
 20
22.5273
 11
-223.684
 21
22.4473
  0
LINE
  8
0
 10
-223.684
 20
22.4473
 11
-223.629
 21
22.3652
  0
LINE
  8
0
 10
-223.629
 20
22.3652
 11
-223.551
 21
22.2393
  0
LINE
  8
0
 10
-223.551
 20
22.2393
 11
-223.479
 21
22.1094
  0
LINE
  8
0
 10
-223.479
 20
22.1094
 11
-223.435
 21
22.0215
  0
LINE
  8
0
 10
-223.435
 20
22.0215
 11
-223.354
 21
21.8408
  0
LINE
  8
0
 10
-223.354
 20
21.8408
 11
-223.285
 21
21.6562
  0
LINE
  8
0
 10
-223.285
 20
21.6562
 11
-223.255
 21
21.5625
  0
LINE
  8
0
 10
-223.255
 20
21.5625
 11
-223.215
 21
21.4189
  0
LINE
  8
0
 10
-223.215
 20
21.4189
 11
-223.173
 21
21.2266
  0
LINE
  8
0
 10
-223.173
 20
21.2266
 11
-223.142
 21
21.0312
  0
LINE
  8
0
 10
-223.142
 20
21.0312
 11
-223.131
 21
20.9336
  0
LINE
  8
0
 10
-223.131
 20
20.9336
 11
-223.119
 21
20.7363
  0
LINE
  8
0
 10
-223.119
 20
20.7363
 11
-223.117
 21
20.6377
  0
LINE
  8
0
 10
-223.117
 20
20.6377
 11
-223.121
 21
20.4893
  0
LINE
  8
0
 10
-223.121
 20
20.4893
 11
-223.131
 21
20.3418
  0
LINE
  8
0
 10
-223.131
 20
20.3418
 11
-223.142
 21
20.2432
  0
LINE
  8
0
 10
-223.142
 20
20.2432
 11
-223.164
 21
20.0967
  0
LINE
  8
0
 10
-223.164
 20
20.0967
 11
-223.192
 21
19.9512
  0
LINE
  8
0
 10
-223.192
 20
19.9512
 11
-223.228
 21
19.8076
  0
LINE
  8
0
 10
-223.228
 20
19.8076
 11
-223.27
 21
19.666
  0
LINE
  8
0
 10
-223.27
 20
19.666
 11
-223.318
 21
19.5254
  0
LINE
  8
0
 10
-223.318
 20
19.5254
 11
-223.354
 21
19.4336
  0
LINE
  8
0
 10
-223.354
 20
19.4336
 11
-223.435
 21
19.2539
  0
LINE
  8
0
 10
-223.435
 20
19.2539
 11
-223.479
 21
19.165
  0
LINE
  8
0
 10
-223.479
 20
19.165
 11
-223.526
 21
19.0781
  0
LINE
  8
0
 10
-223.526
 20
19.0781
 11
-223.576
 21
18.9932
  0
LINE
  8
0
 10
-223.576
 20
18.9932
 11
-223.656
 21
18.8682
  0
LINE
  8
0
 10
-223.656
 20
18.8682
 11
-223.741
 21
18.7471
  0
LINE
  8
0
 10
-223.741
 20
18.7471
 11
-223.832
 21
18.6309
  0
LINE
  8
0
 10
-223.832
 20
18.6309
 11
-223.896
 21
18.5547
  0
LINE
  8
0
 10
-223.896
 20
18.5547
 11
-223.996
 21
18.4453
  0
LINE
  8
0
 10
-223.996
 20
18.4453
 11
-224.101
 21
18.3408
  0
LINE
  8
0
 10
-224.101
 20
18.3408
 11
-224.173
 21
18.2734
  0
LINE
  8
0
 10
-224.173
 20
18.2734
 11
-224.285
 21
18.1777
  0
LINE
  8
0
 10
-224.285
 20
18.1777
 11
-224.402
 21
18.0859
  0
LINE
  8
0
 10
-224.402
 20
18.0859
 11
-224.564
 21
17.9736
  0
LINE
  8
0
 10
-224.564
 20
17.9736
 11
-224.648
 21
17.9209
  0
LINE
  8
0
 10
-224.648
 20
17.9209
 11
-224.733
 21
17.8711
  0
LINE
  8
0
 10
-224.733
 20
17.8711
 11
-224.864
 21
17.8018
  0
LINE
  8
0
 10
-224.864
 20
17.8018
 11
-224.998
 21
17.7383
  0
LINE
  8
0
 10
-224.998
 20
17.7383
 11
-225.135
 21
17.6807
  0
LINE
  8
0
 10
-225.135
 20
17.6807
 11
-225.273
 21
17.6299
  0
LINE
  8
0
 10
-225.273
 20
17.6299
 11
-225.415
 21
17.5859
  0
LINE
  8
0
 10
-225.415
 20
17.5859
 11
-225.606
 21
17.5371
  0
LINE
  8
0
 10
-225.606
 20
17.5371
 11
-225.752
 21
17.5088
  0
LINE
  8
0
 10
-225.752
 20
17.5088
 11
-225.85
 21
17.4932
  0
LINE
  8
0
 10
-225.85
 20
17.4932
 11
-226.046
 21
17.4717
  0
LINE
  8
0
 10
-226.046
 20
17.4717
 11
-226.193
 21
17.4639
  0
LINE
  8
0
 10
-226.193
 20
17.4639
 11
-226.393
 21
17.4639
  0
LINE
  8
0
 10
-162.893
 20
17.4639
 11
-163.091
 21
17.4766
  0
LINE
  8
0
 10
-163.091
 20
17.4766
 11
-163.24
 21
17.4941
  0
LINE
  8
0
 10
-163.24
 20
17.4941
 11
-163.388
 21
17.5186
  0
LINE
  8
0
 10
-163.388
 20
17.5186
 11
-163.534
 21
17.5498
  0
LINE
  8
0
 10
-163.534
 20
17.5498
 11
-163.727
 21
17.6025
  0
LINE
  8
0
 10
-163.727
 20
17.6025
 11
-163.821
 21
17.6338
  0
LINE
  8
0
 10
-163.821
 20
17.6338
 11
-163.915
 21
17.667
  0
LINE
  8
0
 10
-163.915
 20
17.667
 11
-164.054
 21
17.7236
  0
LINE
  8
0
 10
-164.054
 20
17.7236
 11
-164.189
 21
17.7861
  0
LINE
  8
0
 10
-164.189
 20
17.7861
 11
-164.322
 21
17.8555
  0
LINE
  8
0
 10
-164.322
 20
17.8555
 11
-164.409
 21
17.9043
  0
LINE
  8
0
 10
-164.409
 20
17.9043
 11
-164.536
 21
17.9834
  0
LINE
  8
0
 10
-164.536
 20
17.9834
 11
-164.699
 21
18.0986
  0
LINE
  8
0
 10
-164.699
 20
18.0986
 11
-164.777
 21
18.1592
  0
LINE
  8
0
 10
-164.777
 20
18.1592
 11
-164.893
 21
18.2559
  0
LINE
  8
0
 10
-164.893
 20
18.2559
 11
-165.002
 21
18.3574
  0
LINE
  8
0
 10
-165.002
 20
18.3574
 11
-165.107
 21
18.4639
  0
LINE
  8
0
 10
-165.107
 20
18.4639
 11
-165.207
 21
18.5752
  0
LINE
  8
0
 10
-165.207
 20
18.5752
 11
-165.301
 21
18.6914
  0
LINE
  8
0
 10
-165.301
 20
18.6914
 11
-165.361
 21
18.7715
  0
LINE
  8
0
 10
-165.361
 20
18.7715
 11
-165.419
 21
18.8525
  0
LINE
  8
0
 10
-165.419
 20
18.8525
 11
-165.5
 21
18.9785
  0
LINE
  8
0
 10
-165.5
 20
18.9785
 11
-165.599
 21
19.1514
  0
LINE
  8
0
 10
-165.599
 20
19.1514
 11
-165.644
 21
19.2402
  0
LINE
  8
0
 10
-165.644
 20
19.2402
 11
-165.687
 21
19.3311
  0
LINE
  8
0
 10
-165.687
 20
19.3311
 11
-165.763
 21
19.5156
  0
LINE
  8
0
 10
-165.763
 20
19.5156
 11
-165.78
 21
19.5615
  0
LINE
  8
0
 10
-165.78
 20
19.5615
 11
-165.812
 21
19.6562
  0
LINE
  8
0
 10
-165.812
 20
19.6562
 11
-165.842
 21
19.752
  0
LINE
  8
0
 10
-165.842
 20
19.752
 11
-165.868
 21
19.8477
  0
LINE
  8
0
 10
-165.868
 20
19.8477
 11
-165.901
 21
19.9932
  0
LINE
  8
0
 10
-165.901
 20
19.9932
 11
-165.929
 21
20.1406
  0
LINE
  8
0
 10
-165.929
 20
20.1406
 11
-165.948
 21
20.2891
  0
LINE
  8
0
 10
-165.948
 20
20.2891
 11
-165.958
 21
20.3887
  0
LINE
  8
0
 10
-165.958
 20
20.3887
 11
-165.966
 21
20.5381
  0
LINE
  8
0
 10
-165.966
 20
20.5381
 11
-165.968
 21
20.6377
  0
LINE
  8
0
 10
-165.968
 20
20.6377
 11
-165.964
 21
20.7871
  0
LINE
  8
0
 10
-165.964
 20
20.7871
 11
-165.958
 21
20.8867
  0
LINE
  8
0
 10
-165.958
 20
20.8867
 11
-165.942
 21
21.0352
  0
LINE
  8
0
 10
-165.942
 20
21.0352
 11
-165.929
 21
21.1338
  0
LINE
  8
0
 10
-165.929
 20
21.1338
 11
-165.901
 21
21.2812
  0
LINE
  8
0
 10
-165.901
 20
21.2812
 11
-165.868
 21
21.4268
  0
LINE
  8
0
 10
-165.868
 20
21.4268
 11
-165.842
 21
21.5234
  0
LINE
  8
0
 10
-165.842
 20
21.5234
 11
-165.812
 21
21.6182
  0
LINE
  8
0
 10
-165.812
 20
21.6182
 11
-165.78
 21
21.7129
  0
LINE
  8
0
 10
-165.78
 20
21.7129
 11
-165.726
 21
21.8525
  0
LINE
  8
0
 10
-165.726
 20
21.8525
 11
-165.687
 21
21.9443
  0
LINE
  8
0
 10
-165.687
 20
21.9443
 11
-165.599
 21
22.123
  0
LINE
  8
0
 10
-165.599
 20
22.123
 11
-165.551
 21
22.2109
  0
LINE
  8
0
 10
-165.551
 20
22.2109
 11
-165.474
 21
22.3389
  0
LINE
  8
0
 10
-165.474
 20
22.3389
 11
-165.419
 21
22.4219
  0
LINE
  8
0
 10
-165.419
 20
22.4219
 11
-165.361
 21
22.5039
  0
LINE
  8
0
 10
-165.361
 20
22.5039
 11
-165.271
 21
22.623
  0
LINE
  8
0
 10
-165.271
 20
22.623
 11
-165.174
 21
22.7373
  0
LINE
  8
0
 10
-165.174
 20
22.7373
 11
-165.107
 21
22.8105
  0
LINE
  8
0
 10
-165.107
 20
22.8105
 11
-165.002
 21
22.918
  0
LINE
  8
0
 10
-165.002
 20
22.918
 11
-164.893
 21
23.0195
  0
LINE
  8
0
 10
-164.893
 20
23.0195
 11
-164.816
 21
23.084
  0
LINE
  8
0
 10
-164.816
 20
23.084
 11
-164.699
 21
23.1768
  0
LINE
  8
0
 10
-164.699
 20
23.1768
 11
-164.577
 21
23.2637
  0
LINE
  8
0
 10
-164.577
 20
23.2637
 11
-164.494
 21
23.3184
  0
LINE
  8
0
 10
-164.494
 20
23.3184
 11
-164.322
 21
23.4199
  0
LINE
  8
0
 10
-164.322
 20
23.4199
 11
-164.234
 21
23.4668
  0
LINE
  8
0
 10
-164.234
 20
23.4668
 11
-164.145
 21
23.5107
  0
LINE
  8
0
 10
-164.145
 20
23.5107
 11
-164.008
 21
23.5713
  0
LINE
  8
0
 10
-164.008
 20
23.5713
 11
-163.821
 21
23.6416
  0
LINE
  8
0
 10
-163.821
 20
23.6416
 11
-163.679
 21
23.6865
  0
LINE
  8
0
 10
-163.679
 20
23.6865
 11
-163.485
 21
23.7363
  0
LINE
  8
0
 10
-163.485
 20
23.7363
 11
-163.339
 21
23.7656
  0
LINE
  8
0
 10
-163.339
 20
23.7656
 11
-163.24
 21
23.7812
  0
LINE
  8
0
 10
-163.24
 20
23.7812
 11
-163.091
 21
23.7988
  0
LINE
  8
0
 10
-163.091
 20
23.7988
 11
-162.992
 21
23.8066
  0
LINE
  8
0
 10
-162.992
 20
23.8066
 11
-162.843
 21
23.8125
  0
LINE
  8
0
 10
-162.843
 20
23.8125
 11
-162.743
 21
23.8125
  0
LINE
  8
0
 10
-162.743
 20
23.8125
 11
-162.595
 21
23.8066
  0
LINE
  8
0
 10
-162.595
 20
23.8066
 11
-162.447
 21
23.7939
  0
LINE
  8
0
 10
-162.447
 20
23.7939
 11
-162.252
 21
23.7666
  0
LINE
  8
0
 10
-162.252
 20
23.7666
 11
-162.059
 21
23.7266
  0
LINE
  8
0
 10
-162.059
 20
23.7266
 11
-161.868
 21
23.6748
  0
LINE
  8
0
 10
-161.868
 20
23.6748
 11
-161.728
 21
23.6289
  0
LINE
  8
0
 10
-161.728
 20
23.6289
 11
-161.635
 21
23.5938
  0
LINE
  8
0
 10
-161.635
 20
23.5938
 11
-161.498
 21
23.5371
  0
LINE
  8
0
 10
-161.498
 20
23.5371
 11
-161.408
 21
23.4951
  0
LINE
  8
0
 10
-161.408
 20
23.4951
 11
-161.276
 21
23.4277
  0
LINE
  8
0
 10
-161.276
 20
23.4277
 11
-161.19
 21
23.3789
  0
LINE
  8
0
 10
-161.19
 20
23.3789
 11
-161.106
 21
23.3281
  0
LINE
  8
0
 10
-161.106
 20
23.3281
 11
-160.982
 21
23.2461
  0
LINE
  8
0
 10
-160.982
 20
23.2461
 11
-160.863
 21
23.1592
  0
LINE
  8
0
 10
-160.863
 20
23.1592
 11
-160.747
 21
23.0664
  0
LINE
  8
0
 10
-160.747
 20
23.0664
 11
-160.673
 21
23.001
  0
LINE
  8
0
 10
-160.673
 20
23.001
 11
-160.565
 21
22.9004
  0
LINE
  8
0
 10
-160.565
 20
22.9004
 11
-160.462
 21
22.7939
  0
LINE
  8
0
 10
-160.462
 20
22.7939
 11
-160.332
 21
22.6445
  0
LINE
  8
0
 10
-160.332
 20
22.6445
 11
-160.241
 21
22.5273
  0
LINE
  8
0
 10
-160.241
 20
22.5273
 11
-160.184
 21
22.4473
  0
LINE
  8
0
 10
-160.184
 20
22.4473
 11
-160.129
 21
22.3652
  0
LINE
  8
0
 10
-160.129
 20
22.3652
 11
-160.051
 21
22.2393
  0
LINE
  8
0
 10
-160.051
 20
22.2393
 11
-159.979
 21
22.1094
  0
LINE
  8
0
 10
-159.979
 20
22.1094
 11
-159.935
 21
22.0215
  0
LINE
  8
0
 10
-159.935
 20
22.0215
 11
-159.854
 21
21.8408
  0
LINE
  8
0
 10
-159.854
 20
21.8408
 11
-159.785
 21
21.6562
  0
LINE
  8
0
 10
-159.785
 20
21.6562
 11
-159.755
 21
21.5625
  0
LINE
  8
0
 10
-159.755
 20
21.5625
 11
-159.715
 21
21.4189
  0
LINE
  8
0
 10
-159.715
 20
21.4189
 11
-159.673
 21
21.2266
  0
LINE
  8
0
 10
-159.673
 20
21.2266
 11
-159.642
 21
21.0312
  0
LINE
  8
0
 10
-159.642
 20
21.0312
 11
-159.631
 21
20.9336
  0
LINE
  8
0
 10
-159.631
 20
20.9336
 11
-159.619
 21
20.7363
  0
LINE
  8
0
 10
-159.619
 20
20.7363
 11
-159.617
 21
20.6377
  0
LINE
  8
0
 10
-159.617
 20
20.6377
 11
-159.621
 21
20.4893
  0
LINE
  8
0
 10
-159.621
 20
20.4893
 11
-159.631
 21
20.3418
  0
LINE
  8
0
 10
-159.631
 20
20.3418
 11
-159.642
 21
20.2432
  0
LINE
  8
0
 10
-159.642
 20
20.2432
 11
-159.664
 21
20.0967
  0
LINE
  8
0
 10
-159.664
 20
20.0967
 11
-159.692
 21
19.9512
  0
LINE
  8
0
 10
-159.692
 20
19.9512
 11
-159.728
 21
19.8076
  0
LINE
  8
0
 10
-159.728
 20
19.8076
 11
-159.77
 21
19.666
  0
LINE
  8
0
 10
-159.77
 20
19.666
 11
-159.818
 21
19.5254
  0
LINE
  8
0
 10
-159.818
 20
19.5254
 11
-159.854
 21
19.4336
  0
LINE
  8
0
 10
-159.854
 20
19.4336
 11
-159.935
 21
19.2539
  0
LINE
  8
0
 10
-159.935
 20
19.2539
 11
-159.979
 21
19.165
  0
LINE
  8
0
 10
-159.979
 20
19.165
 11
-160.026
 21
19.0781
  0
LINE
  8
0
 10
-160.026
 20
19.0781
 11
-160.076
 21
18.9932
  0
LINE
  8
0
 10
-160.076
 20
18.9932
 11
-160.156
 21
18.8682
  0
LINE
  8
0
 10
-160.156
 20
18.8682
 11
-160.241
 21
18.7471
  0
LINE
  8
0
 10
-160.241
 20
18.7471
 11
-160.332
 21
18.6309
  0
LINE
  8
0
 10
-160.332
 20
18.6309
 11
-160.396
 21
18.5547
  0
LINE
  8
0
 10
-160.396
 20
18.5547
 11
-160.496
 21
18.4453
  0
LINE
  8
0
 10
-160.496
 20
18.4453
 11
-160.601
 21
18.3408
  0
LINE
  8
0
 10
-160.601
 20
18.3408
 11
-160.673
 21
18.2734
  0
LINE
  8
0
 10
-160.673
 20
18.2734
 11
-160.785
 21
18.1777
  0
LINE
  8
0
 10
-160.785
 20
18.1777
 11
-160.902
 21
18.0859
  0
LINE
  8
0
 10
-160.902
 20
18.0859
 11
-161.064
 21
17.9736
  0
LINE
  8
0
 10
-161.064
 20
17.9736
 11
-161.148
 21
17.9209
  0
LINE
  8
0
 10
-161.148
 20
17.9209
 11
-161.233
 21
17.8711
  0
LINE
  8
0
 10
-161.233
 20
17.8711
 11
-161.364
 21
17.8018
  0
LINE
  8
0
 10
-161.364
 20
17.8018
 11
-161.498
 21
17.7383
  0
LINE
  8
0
 10
-161.498
 20
17.7383
 11
-161.635
 21
17.6807
  0
LINE
  8
0
 10
-161.635
 20
17.6807
 11
-161.773
 21
17.6299
  0
LINE
  8
0
 10
-161.773
 20
17.6299
 11
-161.915
 21
17.5859
  0
LINE
  8
0
 10
-161.915
 20
17.5859
 11
-162.106
 21
17.5371
  0
LINE
  8
0
 10
-162.106
 20
17.5371
 11
-162.252
 21
17.5088
  0
LINE
  8
0
 10
-162.252
 20
17.5088
 11
-162.35
 21
17.4932
  0
LINE
  8
0
 10
-162.35
 20
17.4932
 11
-162.546
 21
17.4717
  0
LINE
  8
0
 10
-162.546
 20
17.4717
 11
-162.693
 21
17.4639
  0
LINE
  8
0
 10
-162.693
 20
17.4639
 11
-162.893
 21
17.4639
  0
LINE
  8
0
 10
289.834
 20
12.0806
 11
296.908
 21
12.0806
  0
LINE
  8
0
 10
296.908
 20
12.0806
 11
303.883
 21
0
  0
LINE
  8
0
 10
303.883
 20
0
 11
296.908
 21
-12.0806
  0
LINE
  8
0
 10
296.908
 20
-12.0806
 11
289.834
 21
-12.0806
  0
LINE
  8
0
 10
289.834
 20
-12.0806
 11
289.834
 21
12.0806
  0
LINE
  8
0
 10
-103.619
 20
-12.0806
 11
-110.594
 21
0
  0
LINE
  8
0
 10
-110.594
 20
0
 11
-103.619
 21
12.0806
  0
LINE
  8
0
 10
-103.619
 20
12.0806
 11
-89.6698
 21
12.0806
  0
LINE
  8
0
 10
-89.6698
 20
12.0806
 11
-82.695
 21
0
  0
LINE
  8
0
 10
-82.695
 20
0
 11
-89.6698
 21
-12.0806
  0
LINE
  8
0
 10
-89.6698
 20
-12.0806
 11
-103.619
 21
-12.0806
  0
LINE
  8
0
 10
137.992
 20
-12.0806
 11
131.017
 21
0
  0
LINE
  8
0
 10
131.017
 20
0
 11
137.992
 21
12.0806
  0
LINE
  8
0
 10
137.992
 20
12.0806
 11
151.941
 21
12.0806
  0
LINE
  8
0
 10
151.941
 20
12.0806
 11
158.916
 21
0
  0
LINE
  8
0
 10
158.916
 20
0
 11
151.941
 21
-12.0806
  0
LINE
  8
0
 10
151.941
 20
-12.0806
 11
137.992
 21
-12.0806
  0
LINE
  8
0
 10
41.3475
 20
-12.0806
 11
34.3728
 21
0
  0
LINE
  8
0
 10
34.3728
 20
0
 11
41.3475
 21
12.0806
  0
LINE
  8
0
 10
41.3475
 20
12.0806
 11
55.2969
 21
12.0806
  0
LINE
  8
0
 10
55.2969
 20
12.0806
 11
62.2717
 21
0
  0
LINE
  8
0
 10
62.2717
 20
0
 11
55.2969
 21
-12.0806
  0
LINE
  8
0
 10
55.2969
 20
-12.0806
 11
41.3475
 21
-12.0806
  0
LINE
  8
0
 10
-55.2969
 20
-12.0806
 11
-62.2717
 21
0
  0
LINE
  8
0
 10
-62.2717
 20
0
 11
-55.2969
 21
12.0806
  0
LINE
  8
0
 10
-55.2969
 20
12.0806
 11
-41.3475
 21
12.0806
  0
LINE
  8
0
 10
-41.3475
 20
12.0806
 11
-34.3728
 21
0
  0
LINE
  8
0
 10
-34.3728
 20
0
 11
-41.3475
 21
-12.0806
  0
LINE
  8
0
 10
-41.3475
 20
-12.0806
 11
-55.2969
 21
-12.0806
  0
LINE
  8
0
 10
89.6698
 20
-12.0806
 11
82.695
 21
0
  0
LINE
  8
0
 10
82.695
 20
0
 11
89.6698
 21
12.0806
  0
LINE
  8
0
 10
89.6698
 20
12.0806
 11
103.619
 21
12.0806
  0
LINE
  8
0
 10
103.619
 20
12.0806
 11
110.594
 21
0
  0
LINE
  8
0
 10
110.594
 20
0
 11
103.619
 21
-12.0806
  0
LINE
  8
0
 10
103.619
 20
-12.0806
 11
89.6698
 21
-12.0806
  0
LINE
  8
0
 10
-6.9747
 20
-12.0806
 11
-13.9494
 21
0
  0
LINE
  8
0
 10
-13.9494
 20
0
 11
-6.9747
 21
12.0806
  0
LINE
  8
0
 10
-6.9747
 20
12.0806
 11
6.9747
 21
12.0806
  0
LINE
  8
0
 10
6.9747
 20
12.0806
 11
13.9494
 21
0
  0
LINE
  8
0
 10
13.9494
 20
0
 11
6.9747
 21
-12.0806
  0
LINE
  8
0
 10
6.9747
 20
-12.0806
 11
-6.9747
 21
-12.0806
  0
LINE
  8
0
 10
331.281
 20
-12.0806
 11
324.306
 21
0
  0
LINE
  8
0
 10
324.306
 20
0
 11
331.281
 21
12.0806
  0
LINE
  8
0
 10
331.281
 20
12.0806
 11
331.292
 21
12.0806
  0
LINE
  8
0
 10
331.292
 20
12.0806
 11
332.712
 21
7.49707
  0
LINE
  8
0
 10
332.712
 20
7.49707
 11
333.375
 21
0
  0
LINE
  8
0
 10
333.375
 20
0
 11
332.712
 21
-7.49707
  0
LINE
  8
0
 10
332.712
 20
-7.49707
 11
331.292
 21
-12.0806
  0
LINE
  8
0
 10
331.292
 20
-12.0806
 11
331.281
 21
-12.0806
  0
LINE
  8
0
 10
186.314
 20
-12.0806
 11
179.34
 21
0
  0
LINE
  8
0
 10
179.34
 20
0
 11
186.314
 21
12.0806
  0
LINE
  8
0
 10
186.314
 20
12.0806
 11
200.264
 21
12.0806
  0
LINE
  8
0
 10
200.264
 20
12.0806
 11
207.238
 21
0
  0
LINE
  8
0
 10
207.238
 20
0
 11
200.264
 21
-12.0806
  0
LINE
  8
0
 10
200.264
 20
-12.0806
 11
186.314
 21
-12.0806
  0
LINE
  8
0
 10
65.5086
 20
-26.03
 11
58.5339
 21
-13.9494
  0
LINE
  8
0
 10
58.5339
 20
-13.9494
 11
65.5086
 21
-1.86887
  0
LINE
  8
0
 10
65.5086
 20
-1.86887
 11
79.4581
 21
-1.86887
  0
LINE
  8
0
 10
79.4581
 20
-1.86887
 11
86.4328
 21
-13.9494
  0
LINE
  8
0
 10
86.4328
 20
-13.9494
 11
79.4581
 21
-26.03
  0
LINE
  8
0
 10
79.4581
 20
-26.03
 11
65.5086
 21
-26.03
  0
LINE
  8
0
 10
-31.1358
 20
-26.03
 11
-38.1105
 21
-13.9494
  0
LINE
  8
0
 10
-38.1105
 20
-13.9494
 11
-31.1358
 21
-1.86887
  0
LINE
  8
0
 10
-31.1358
 20
-1.86887
 11
-17.1864
 21
-1.86887
  0
LINE
  8
0
 10
-17.1864
 20
-1.86887
 11
-10.2117
 21
-13.9494
  0
LINE
  8
0
 10
-10.2117
 20
-13.9494
 11
-17.1864
 21
-26.03
  0
LINE
  8
0
 10
-17.1864
 20
-26.03
 11
-31.1358
 21
-26.03
  0
LINE
  8
0
 10
113.831
 20
-26.03
 11
106.856
 21
-13.9494
  0
LINE
  8
0
 10
106.856
 20
-13.9494
 11
113.831
 21
-1.86887
  0
LINE
  8
0
 10
113.831
 20
-1.86887
 11
127.78
 21
-1.86887
  0
LINE
  8
0
 10
127.78
 20
-1.86887
 11
134.755
 21
-13.9494
  0
LINE
  8
0
 10
134.755
 20
-13.9494
 11
127.78
 21
-26.03
  0
LINE
  8
0
 10
127.78
 20
-26.03
 11
113.831
 21
-26.03
  0
LINE
  8
0
 10
307.12
 20
-26.03
 11
300.145
 21
-13.9494
  0
LINE
  8
0
 10
300.145
 20
-13.9494
 11
307.12
 21
-1.86887
  0
LINE
  8
0
 10
307.12
 20
-1.86887
 11
321.069
 21
-1.86887
  0
LINE
  8
0
 10
321.069
 20
-1.86887
 11
328.044
 21
-13.9494
  0
LINE
  8
0
 10
328.044
 20
-13.9494
 11
321.069
 21
-26.03
  0
LINE
  8
0
 10
321.069
 20
-26.03
 11
307.12
 21
-26.03
  0
LINE
  8
0
 10
17.1864
 20
-26.03
 11
10.2117
 21
-13.9494
  0
LINE
  8
0
 10
10.2117
 20
-13.9494
 11
17.1864
 21
-1.86887
  0
LINE
  8
0
 10
17.1864
 20
-1.86887
 11
31.1358
 21
-1.86887
  0
LINE
  8
0
 10
31.1358
 20
-1.86887
 11
38.1105
 21
-13.9494
  0
LINE
  8
0
 10
38.1105
 20
-13.9494
 11
31.1358
 21
-26.03
  0
LINE
  8
0
 10
31.1358
 20
-26.03
 11
17.1864
 21
-26.03
  0
LINE
  8
0
 10
-127.78
 20
-26.03
 11
-134.755
 21
-13.9494
  0
LINE
  8
0
 10
-134.755
 20
-13.9494
 11
-127.78
 21
-1.86887
  0
LINE
  8
0
 10
-127.78
 20
-1.86887
 11
-113.831
 21
-1.86887
  0
LINE
  8
0
 10
-113.831
 20
-1.86887
 11
-106.856
 21
-13.9494
  0
LINE
  8
0
 10
-106.856
 20
-13.9494
 11
-113.831
 21
-26.03
  0
LINE
  8
0
 10
-113.831
 20
-26.03
 11
-127.78
 21
-26.03
  0
LINE
  8
0
 10
-79.4581
 20
-26.03
 11
-86.4328
 21
-13.9494
  0
LINE
  8
0
 10
-86.4328
 20
-13.9494
 11
-79.4581
 21
-1.86887
  0
LINE
  8
0
 10
-79.4581
 20
-1.86887
 11
-65.5086
 21
-1.86887
  0
LINE
  8
0
 10
-65.5086
 20
-1.86887
 11
-58.5339
 21
-13.9494
  0
LINE
  8
0
 10
-58.5339
 20
-13.9494
 11
-65.5086
 21
-26.03
  0
LINE
  8
0
 10
-65.5086
 20
-26.03
 11
-79.4581
 21
-26.03
  0
LINE
  8
0
 10
162.153
 20
-26.03
 11
155.178
 21
-13.9494
  0
LINE
  8
0
 10
155.178
 20
-13.9494
 11
162.153
 21
-1.86887
  0
LINE
  8
0
 10
162.153
 20
-1.86887
 11
176.103
 21
-1.86887
  0
LINE
  8
0
 10
176.103
 20
-1.86887
 11
183.077
 21
-13.9494
  0
LINE
  8
0
 10
183.077
 20
-13.9494
 11
176.103
 21
-26.03
  0
LINE
  8
0
 10
176.103
 20
-26.03
 11
162.153
 21
-26.03
  0
LINE
  8
0
 10
89.6698
 20
-39.9794
 11
82.695
 21
-27.8988
  0
LINE
  8
0
 10
82.695
 20
-27.8988
 11
89.6698
 21
-15.8183
  0
LINE
  8
0
 10
89.6698
 20
-15.8183
 11
103.619
 21
-15.8183
  0
LINE
  8
0
 10
103.619
 20
-15.8183
 11
110.594
 21
-27.8988
  0
LINE
  8
0
 10
110.594
 20
-27.8988
 11
103.619
 21
-39.9794
  0
LINE
  8
0
 10
103.619
 20
-39.9794
 11
89.6698
 21
-39.9794
  0
LINE
  8
0
 10
-55.2969
 20
-39.9794
 11
-62.2717
 21
-27.8988
  0
LINE
  8
0
 10
-62.2717
 20
-27.8988
 11
-55.2969
 21
-15.8183
  0
LINE
  8
0
 10
-55.2969
 20
-15.8183
 11
-41.3475
 21
-15.8183
  0
LINE
  8
0
 10
-41.3475
 20
-15.8183
 11
-34.3728
 21
-27.8988
  0
LINE
  8
0
 10
-34.3728
 20
-27.8988
 11
-41.3475
 21
-39.9794
  0
LINE
  8
0
 10
-41.3475
 20
-39.9794
 11
-55.2969
 21
-39.9794
  0
LINE
  8
0
 10
137.992
 20
-39.9794
 11
131.017
 21
-27.8988
  0
LINE
  8
0
 10
131.017
 20
-27.8988
 11
137.992
 21
-15.8183
  0
LINE
  8
0
 10
137.992
 20
-15.8183
 11
151.941
 21
-15.8183
  0
LINE
  8
0
 10
151.941
 20
-15.8183
 11
158.916
 21
-27.8988
  0
LINE
  8
0
 10
158.916
 20
-27.8988
 11
151.941
 21
-39.9794
  0
LINE
  8
0
 10
151.941
 20
-39.9794
 11
137.992
 21
-39.9794
  0
LINE
  8
0
 10
-6.9747
 20
-39.9794
 11
-13.9494
 21
-27.8988
  0
LINE
  8
0
 10
-13.9494
 20
-27.8988
 11
-6.9747
 21
-15.8183
  0
LINE
  8
0
 10
-6.9747
 20
-15.8183
 11
6.9747
 21
-15.8183
  0
LINE
  8
0
 10
6.9747
 20
-15.8183
 11
13.9494
 21
-27.8988
  0
LINE
  8
0
 10
13.9494
 20
-27.8988
 11
6.9747
 21
-39.9794
  0
LINE
  8
0
 10
6.9747
 20
-39.9794
 11
-6.9747
 21
-39.9794
  0
LINE
  8
0
 10
186.314
 20
-39.9794
 11
179.34
 21
-27.8988
  0
LINE
  8
0
 10
179.34
 20
-27.8988
 11
186.314
 21
-15.8183
  0
LINE
  8
0
 10
186.314
 20
-15.8183
 11
200.264
 21
-15.8183
  0
LINE
  8
0
 10
200.264
 20
-15.8183
 11
207.238
 21
-27.8988
  0
LINE
  8
0
 10
207.238
 20
-27.8988
 11
200.264
 21
-39.9794
  0
LINE
  8
0
 10
200.264
 20
-39.9794
 11
186.314
 21
-39.9794
  0
LINE
  8
0
 10
41.3475
 20
-39.9794
 11
34.3728
 21
-27.8988
  0
LINE
  8
0
 10
34.3728
 20
-27.8988
 11
41.3475
 21
-15.8183
  0
LINE
  8
0
 10
41.3475
 20
-15.8183
 11
55.2969
 21
-15.8183
  0
LINE
  8
0
 10
55.2969
 20
-15.8183
 11
62.2717
 21
-27.8988
  0
LINE
  8
0
 10
62.2717
 20
-27.8988
 11
55.2969
 21
-39.9794
  0
LINE
  8
0
 10
55.2969
 20
-39.9794
 11
41.3475
 21
-39.9794
  0
LINE
  8
0
 10
-103.619
 20
-39.9794
 11
-110.594
 21
-27.8988
  0
LINE
  8
0
 10
-110.594
 20
-27.8988
 11
-103.619
 21
-15.8183
  0
LINE
  8
0
 10
-103.619
 20
-15.8183
 11
-89.6698
 21
-15.8183
  0
LINE
  8
0
 10
-89.6698
 20
-15.8183
 11
-82.695
 21
-27.8988
  0
LINE
  8
0
 10
-82.695
 20
-27.8988
 11
-89.6698
 21
-39.9794
  0
LINE
  8
0
 10
-89.6698
 20
-39.9794
 11
-103.619
 21
-39.9794
  0
LINE
  8
0
 10
216.759
 20
-23.8125
 11
216.609
 21
-23.8066
  0
LINE
  8
0
 10
216.609
 20
-23.8066
 11
216.51
 21
-23.7988
  0
LINE
  8
0
 10
216.51
 20
-23.7988
 11
216.361
 21
-23.7812
  0
LINE
  8
0
 10
216.361
 20
-23.7812
 11
216.263
 21
-23.7656
  0
LINE
  8
0
 10
216.263
 20
-23.7656
 11
216.116
 21
-23.7363
  0
LINE
  8
0
 10
216.116
 20
-23.7363
 11
215.971
 21
-23.7002
  0
LINE
  8
0
 10
215.971
 20
-23.7002
 11
215.78
 21
-23.6416
  0
LINE
  8
0
 10
215.78
 20
-23.6416
 11
215.64
 21
-23.5898
  0
LINE
  8
0
 10
215.64
 20
-23.5898
 11
215.457
 21
-23.5107
  0
LINE
  8
0
 10
215.457
 20
-23.5107
 11
215.367
 21
-23.4668
  0
LINE
  8
0
 10
215.367
 20
-23.4668
 11
215.235
 21
-23.3955
  0
LINE
  8
0
 10
215.235
 20
-23.3955
 11
215.107
 21
-23.3184
  0
LINE
  8
0
 10
215.107
 20
-23.3184
 11
214.983
 21
-23.2354
  0
LINE
  8
0
 10
214.983
 20
-23.2354
 11
214.902
 21
-23.1768
  0
LINE
  8
0
 10
214.902
 20
-23.1768
 11
214.785
 21
-23.084
  0
LINE
  8
0
 10
214.785
 20
-23.084
 11
214.709
 21
-23.0195
  0
LINE
  8
0
 10
214.709
 20
-23.0195
 11
214.563
 21
-22.8828
  0
LINE
  8
0
 10
214.563
 20
-22.8828
 11
214.427
 21
-22.7373
  0
LINE
  8
0
 10
214.427
 20
-22.7373
 11
214.331
 21
-22.623
  0
LINE
  8
0
 10
214.331
 20
-22.623
 11
214.24
 21
-22.5039
  0
LINE
  8
0
 10
214.24
 20
-22.5039
 11
214.155
 21
-22.3809
  0
LINE
  8
0
 10
214.155
 20
-22.3809
 11
214.102
 21
-22.2969
  0
LINE
  8
0
 10
214.102
 20
-22.2969
 11
214.026
 21
-22.167
  0
LINE
  8
0
 10
214.026
 20
-22.167
 11
213.979
 21
-22.0791
  0
LINE
  8
0
 10
213.979
 20
-22.0791
 11
213.895
 21
-21.8984
  0
LINE
  8
0
 10
213.895
 20
-21.8984
 11
213.856
 21
-21.8066
  0
LINE
  8
0
 10
213.856
 20
-21.8066
 11
213.805
 21
-21.666
  0
LINE
  8
0
 10
213.805
 20
-21.666
 11
213.76
 21
-21.5234
  0
LINE
  8
0
 10
213.76
 20
-21.5234
 11
213.71
 21
-21.3301
  0
LINE
  8
0
 10
213.71
 20
-21.3301
 11
213.681
 21
-21.1836
  0
LINE
  8
0
 10
213.681
 20
-21.1836
 11
213.665
 21
-21.085
  0
LINE
  8
0
 10
213.665
 20
-21.085
 11
213.647
 21
-20.9365
  0
LINE
  8
0
 10
213.647
 20
-20.9365
 11
213.64
 21
-20.8369
  0
LINE
  8
0
 10
213.64
 20
-20.8369
 11
213.634
 21
-20.6875
  0
LINE
  8
0
 10
213.634
 20
-20.6875
 11
213.634
 21
-20.5879
  0
LINE
  8
0
 10
213.634
 20
-20.5879
 11
213.64
 21
-20.4385
  0
LINE
  8
0
 10
213.64
 20
-20.4385
 11
213.647
 21
-20.3389
  0
LINE
  8
0
 10
213.647
 20
-20.3389
 11
213.665
 21
-20.1904
  0
LINE
  8
0
 10
213.665
 20
-20.1904
 11
213.681
 21
-20.0918
  0
LINE
  8
0
 10
213.681
 20
-20.0918
 11
213.71
 21
-19.9453
  0
LINE
  8
0
 10
213.71
 20
-19.9453
 11
213.746
 21
-19.7998
  0
LINE
  8
0
 10
213.746
 20
-19.7998
 11
213.789
 21
-19.6562
  0
LINE
  8
0
 10
213.789
 20
-19.6562
 11
213.821
 21
-19.5615
  0
LINE
  8
0
 10
213.821
 20
-19.5615
 11
213.875
 21
-19.4229
  0
LINE
  8
0
 10
213.875
 20
-19.4229
 11
213.936
 21
-19.2861
  0
LINE
  8
0
 10
213.936
 20
-19.2861
 11
214.003
 21
-19.1514
  0
LINE
  8
0
 10
214.003
 20
-19.1514
 11
214.051
 21
-19.0645
  0
LINE
  8
0
 10
214.051
 20
-19.0645
 11
214.128
 21
-18.9365
  0
LINE
  8
0
 10
214.128
 20
-18.9365
 11
214.211
 21
-18.8115
  0
LINE
  8
0
 10
214.211
 20
-18.8115
 11
214.3
 21
-18.6914
  0
LINE
  8
0
 10
214.3
 20
-18.6914
 11
214.395
 21
-18.5752
  0
LINE
  8
0
 10
214.395
 20
-18.5752
 11
214.494
 21
-18.4639
  0
LINE
  8
0
 10
214.494
 20
-18.4639
 11
214.6
 21
-18.3574
  0
LINE
  8
0
 10
214.6
 20
-18.3574
 11
214.709
 21
-18.2559
  0
LINE
  8
0
 10
214.709
 20
-18.2559
 11
214.823
 21
-18.1592
  0
LINE
  8
0
 10
214.823
 20
-18.1592
 11
214.983
 21
-18.04
  0
LINE
  8
0
 10
214.983
 20
-18.04
 11
215.065
 21
-17.9834
  0
LINE
  8
0
 10
215.065
 20
-17.9834
 11
215.192
 21
-17.9043
  0
LINE
  8
0
 10
215.192
 20
-17.9043
 11
215.279
 21
-17.8555
  0
LINE
  8
0
 10
215.279
 20
-17.8555
 11
215.412
 21
-17.7861
  0
LINE
  8
0
 10
215.412
 20
-17.7861
 11
215.548
 21
-17.7236
  0
LINE
  8
0
 10
215.548
 20
-17.7236
 11
215.687
 21
-17.667
  0
LINE
  8
0
 10
215.687
 20
-17.667
 11
215.875
 21
-17.6025
  0
LINE
  8
0
 10
215.875
 20
-17.6025
 11
216.067
 21
-17.5498
  0
LINE
  8
0
 10
216.067
 20
-17.5498
 11
216.214
 21
-17.5186
  0
LINE
  8
0
 10
216.214
 20
-17.5186
 11
216.361
 21
-17.4941
  0
LINE
  8
0
 10
216.361
 20
-17.4941
 11
216.46
 21
-17.4814
  0
LINE
  8
0
 10
216.46
 20
-17.4814
 11
216.659
 21
-17.4658
  0
LINE
  8
0
 10
216.659
 20
-17.4658
 11
216.759
 21
-17.4629
  0
LINE
  8
0
 10
216.759
 20
-17.4629
 11
216.907
 21
-17.4639
  0
LINE
  8
0
 10
216.907
 20
-17.4639
 11
217.056
 21
-17.4717
  0
LINE
  8
0
 10
217.056
 20
-17.4717
 11
217.252
 21
-17.4932
  0
LINE
  8
0
 10
217.252
 20
-17.4932
 11
217.397
 21
-17.5176
  0
LINE
  8
0
 10
217.397
 20
-17.5176
 11
217.495
 21
-17.5371
  0
LINE
  8
0
 10
217.495
 20
-17.5371
 11
217.687
 21
-17.5859
  0
LINE
  8
0
 10
217.687
 20
-17.5859
 11
217.827
 21
-17.6299
  0
LINE
  8
0
 10
217.827
 20
-17.6299
 11
217.967
 21
-17.6807
  0
LINE
  8
0
 10
217.967
 20
-17.6807
 11
218.104
 21
-17.7383
  0
LINE
  8
0
 10
218.104
 20
-17.7383
 11
218.237
 21
-17.8018
  0
LINE
  8
0
 10
218.237
 20
-17.8018
 11
218.368
 21
-17.8711
  0
LINE
  8
0
 10
218.368
 20
-17.8711
 11
218.453
 21
-17.9209
  0
LINE
  8
0
 10
218.453
 20
-17.9209
 11
218.578
 21
-18.001
  0
LINE
  8
0
 10
218.578
 20
-18.001
 11
218.699
 21
-18.0859
  0
LINE
  8
0
 10
218.699
 20
-18.0859
 11
218.777
 21
-18.1465
  0
LINE
  8
0
 10
218.777
 20
-18.1465
 11
218.929
 21
-18.2734
  0
LINE
  8
0
 10
218.929
 20
-18.2734
 11
219.036
 21
-18.375
  0
LINE
  8
0
 10
219.036
 20
-18.375
 11
219.14
 21
-18.4814
  0
LINE
  8
0
 10
219.14
 20
-18.4814
 11
219.237
 21
-18.5928
  0
LINE
  8
0
 10
219.237
 20
-18.5928
 11
219.3
 21
-18.6689
  0
LINE
  8
0
 10
219.3
 20
-18.6689
 11
219.36
 21
-18.7471
  0
LINE
  8
0
 10
219.36
 20
-18.7471
 11
219.473
 21
-18.9092
  0
LINE
  8
0
 10
219.473
 20
-18.9092
 11
219.525
 21
-18.9932
  0
LINE
  8
0
 10
219.525
 20
-18.9932
 11
219.575
 21
-19.0781
  0
LINE
  8
0
 10
219.575
 20
-19.0781
 11
219.645
 21
-19.209
  0
LINE
  8
0
 10
219.645
 20
-19.209
 11
219.708
 21
-19.3428
  0
LINE
  8
0
 10
219.708
 20
-19.3428
 11
219.766
 21
-19.4795
  0
LINE
  8
0
 10
219.766
 20
-19.4795
 11
219.816
 21
-19.6191
  0
LINE
  8
0
 10
219.816
 20
-19.6191
 11
219.86
 21
-19.7598
  0
LINE
  8
0
 10
219.86
 20
-19.7598
 11
219.909
 21
-19.9512
  0
LINE
  8
0
 10
219.909
 20
-19.9512
 11
219.938
 21
-20.0967
  0
LINE
  8
0
 10
219.938
 20
-20.0967
 11
219.953
 21
-20.1943
  0
LINE
  8
0
 10
219.953
 20
-20.1943
 11
219.975
 21
-20.3906
  0
LINE
  8
0
 10
219.975
 20
-20.3906
 11
219.982
 21
-20.5391
  0
LINE
  8
0
 10
219.982
 20
-20.5391
 11
219.982
 21
-20.7363
  0
LINE
  8
0
 10
219.982
 20
-20.7363
 11
219.975
 21
-20.8838
  0
LINE
  8
0
 10
219.975
 20
-20.8838
 11
219.965
 21
-20.9824
  0
LINE
  8
0
 10
219.965
 20
-20.9824
 11
219.953
 21
-21.0801
  0
LINE
  8
0
 10
219.953
 20
-21.0801
 11
219.929
 21
-21.2266
  0
LINE
  8
0
 10
219.929
 20
-21.2266
 11
219.909
 21
-21.3232
  0
LINE
  8
0
 10
219.909
 20
-21.3232
 11
219.86
 21
-21.5146
  0
LINE
  8
0
 10
219.86
 20
-21.5146
 11
219.816
 21
-21.6562
  0
LINE
  8
0
 10
219.816
 20
-21.6562
 11
219.766
 21
-21.7949
  0
LINE
  8
0
 10
219.766
 20
-21.7949
 11
219.708
 21
-21.9316
  0
LINE
  8
0
 10
219.708
 20
-21.9316
 11
219.645
 21
-22.0654
  0
LINE
  8
0
 10
219.645
 20
-22.0654
 11
219.575
 21
-22.1963
  0
LINE
  8
0
 10
219.575
 20
-22.1963
 11
219.525
 21
-22.2812
  0
LINE
  8
0
 10
219.525
 20
-22.2812
 11
219.445
 21
-22.4062
  0
LINE
  8
0
 10
219.445
 20
-22.4062
 11
219.36
 21
-22.5273
  0
LINE
  8
0
 10
219.36
 20
-22.5273
 11
219.3
 21
-22.6064
  0
LINE
  8
0
 10
219.3
 20
-22.6064
 11
219.237
 21
-22.6826
  0
LINE
  8
0
 10
219.237
 20
-22.6826
 11
219.14
 21
-22.7939
  0
LINE
  8
0
 10
219.14
 20
-22.7939
 11
219.036
 21
-22.9004
  0
LINE
  8
0
 10
219.036
 20
-22.9004
 11
218.892
 21
-23.0342
  0
LINE
  8
0
 10
218.892
 20
-23.0342
 11
218.777
 21
-23.1289
  0
LINE
  8
0
 10
218.777
 20
-23.1289
 11
218.659
 21
-23.2178
  0
LINE
  8
0
 10
218.659
 20
-23.2178
 11
218.578
 21
-23.2744
  0
LINE
  8
0
 10
218.578
 20
-23.2744
 11
218.453
 21
-23.3535
  0
LINE
  8
0
 10
218.453
 20
-23.3535
 11
218.324
 21
-23.4277
  0
LINE
  8
0
 10
218.324
 20
-23.4277
 11
218.148
 21
-23.5166
  0
LINE
  8
0
 10
218.148
 20
-23.5166
 11
217.967
 21
-23.5938
  0
LINE
  8
0
 10
217.967
 20
-23.5938
 11
217.874
 21
-23.6289
  0
LINE
  8
0
 10
217.874
 20
-23.6289
 11
217.733
 21
-23.6748
  0
LINE
  8
0
 10
217.733
 20
-23.6748
 11
217.591
 21
-23.7148
  0
LINE
  8
0
 10
217.591
 20
-23.7148
 11
217.446
 21
-23.748
  0
LINE
  8
0
 10
217.446
 20
-23.748
 11
217.35
 21
-23.7666
  0
LINE
  8
0
 10
217.35
 20
-23.7666
 11
217.203
 21
-23.7881
  0
LINE
  8
0
 10
217.203
 20
-23.7881
 11
217.006
 21
-23.8066
  0
LINE
  8
0
 10
217.006
 20
-23.8066
 11
216.858
 21
-23.8125
  0
LINE
  8
0
 10
216.858
 20
-23.8125
 11
216.759
 21
-23.8125
  0
LINE
  8
0
 10
280.259
 20
-23.8125
 11
280.109
 21
-23.8066
  0
LINE
  8
0
 10
280.109
 20
-23.8066
 11
280.01
 21
-23.7988
  0
LINE
  8
0
 10
280.01
 20
-23.7988
 11
279.861
 21
-23.7812
  0
LINE
  8
0
 10
279.861
 20
-23.7812
 11
279.763
 21
-23.7656
  0
LINE
  8
0
 10
279.763
 20
-23.7656
 11
279.616
 21
-23.7363
  0
LINE
  8
0
 10
279.616
 20
-23.7363
 11
279.471
 21
-23.7002
  0
LINE
  8
0
 10
279.471
 20
-23.7002
 11
279.28
 21
-23.6416
  0
LINE
  8
0
 10
279.28
 20
-23.6416
 11
279.14
 21
-23.5898
  0
LINE
  8
0
 10
279.14
 20
-23.5898
 11
278.957
 21
-23.5107
  0
LINE
  8
0
 10
278.957
 20
-23.5107
 11
278.867
 21
-23.4668
  0
LINE
  8
0
 10
278.867
 20
-23.4668
 11
278.735
 21
-23.3955
  0
LINE
  8
0
 10
278.735
 20
-23.3955
 11
278.607
 21
-23.3184
  0
LINE
  8
0
 10
278.607
 20
-23.3184
 11
278.483
 21
-23.2354
  0
LINE
  8
0
 10
278.483
 20
-23.2354
 11
278.402
 21
-23.1768
  0
LINE
  8
0
 10
278.402
 20
-23.1768
 11
278.285
 21
-23.084
  0
LINE
  8
0
 10
278.285
 20
-23.084
 11
278.209
 21
-23.0195
  0
LINE
  8
0
 10
278.209
 20
-23.0195
 11
278.063
 21
-22.8828
  0
LINE
  8
0
 10
278.063
 20
-22.8828
 11
277.927
 21
-22.7373
  0
LINE
  8
0
 10
277.927
 20
-22.7373
 11
277.831
 21
-22.623
  0
LINE
  8
0
 10
277.831
 20
-22.623
 11
277.74
 21
-22.5039
  0
LINE
  8
0
 10
277.74
 20
-22.5039
 11
277.655
 21
-22.3809
  0
LINE
  8
0
 10
277.655
 20
-22.3809
 11
277.602
 21
-22.2969
  0
LINE
  8
0
 10
277.602
 20
-22.2969
 11
277.526
 21
-22.167
  0
LINE
  8
0
 10
277.526
 20
-22.167
 11
277.479
 21
-22.0791
  0
LINE
  8
0
 10
277.479
 20
-22.0791
 11
277.395
 21
-21.8984
  0
LINE
  8
0
 10
277.395
 20
-21.8984
 11
277.356
 21
-21.8066
  0
LINE
  8
0
 10
277.356
 20
-21.8066
 11
277.305
 21
-21.666
  0
LINE
  8
0
 10
277.305
 20
-21.666
 11
277.26
 21
-21.5234
  0
LINE
  8
0
 10
277.26
 20
-21.5234
 11
277.21
 21
-21.3301
  0
LINE
  8
0
 10
277.21
 20
-21.3301
 11
277.181
 21
-21.1836
  0
LINE
  8
0
 10
277.181
 20
-21.1836
 11
277.165
 21
-21.085
  0
LINE
  8
0
 10
277.165
 20
-21.085
 11
277.147
 21
-20.9365
  0
LINE
  8
0
 10
277.147
 20
-20.9365
 11
277.14
 21
-20.8369
  0
LINE
  8
0
 10
277.14
 20
-20.8369
 11
277.134
 21
-20.6875
  0
LINE
  8
0
 10
277.134
 20
-20.6875
 11
277.134
 21
-20.5879
  0
LINE
  8
0
 10
277.134
 20
-20.5879
 11
277.14
 21
-20.4385
  0
LINE
  8
0
 10
277.14
 20
-20.4385
 11
277.147
 21
-20.3389
  0
LINE
  8
0
 10
277.147
 20
-20.3389
 11
277.165
 21
-20.1904
  0
LINE
  8
0
 10
277.165
 20
-20.1904
 11
277.181
 21
-20.0918
  0
LINE
  8
0
 10
277.181
 20
-20.0918
 11
277.21
 21
-19.9453
  0
LINE
  8
0
 10
277.21
 20
-19.9453
 11
277.246
 21
-19.7998
  0
LINE
  8
0
 10
277.246
 20
-19.7998
 11
277.289
 21
-19.6562
  0
LINE
  8
0
 10
277.289
 20
-19.6562
 11
277.321
 21
-19.5615
  0
LINE
  8
0
 10
277.321
 20
-19.5615
 11
277.375
 21
-19.4229
  0
LINE
  8
0
 10
277.375
 20
-19.4229
 11
277.436
 21
-19.2861
  0
LINE
  8
0
 10
277.436
 20
-19.2861
 11
277.503
 21
-19.1514
  0
LINE
  8
0
 10
277.503
 20
-19.1514
 11
277.551
 21
-19.0645
  0
LINE
  8
0
 10
277.551
 20
-19.0645
 11
277.628
 21
-18.9365
  0
LINE
  8
0
 10
277.628
 20
-18.9365
 11
277.711
 21
-18.8115
  0
LINE
  8
0
 10
277.711
 20
-18.8115
 11
277.8
 21
-18.6914
  0
LINE
  8
0
 10
277.8
 20
-18.6914
 11
277.895
 21
-18.5752
  0
LINE
  8
0
 10
277.895
 20
-18.5752
 11
277.994
 21
-18.4639
  0
LINE
  8
0
 10
277.994
 20
-18.4639
 11
278.1
 21
-18.3574
  0
LINE
  8
0
 10
278.1
 20
-18.3574
 11
278.209
 21
-18.2559
  0
LINE
  8
0
 10
278.209
 20
-18.2559
 11
278.323
 21
-18.1592
  0
LINE
  8
0
 10
278.323
 20
-18.1592
 11
278.483
 21
-18.04
  0
LINE
  8
0
 10
278.483
 20
-18.04
 11
278.565
 21
-17.9834
  0
LINE
  8
0
 10
278.565
 20
-17.9834
 11
278.692
 21
-17.9043
  0
LINE
  8
0
 10
278.692
 20
-17.9043
 11
278.779
 21
-17.8555
  0
LINE
  8
0
 10
278.779
 20
-17.8555
 11
278.912
 21
-17.7861
  0
LINE
  8
0
 10
278.912
 20
-17.7861
 11
279.048
 21
-17.7236
  0
LINE
  8
0
 10
279.048
 20
-17.7236
 11
279.187
 21
-17.667
  0
LINE
  8
0
 10
279.187
 20
-17.667
 11
279.375
 21
-17.6025
  0
LINE
  8
0
 10
279.375
 20
-17.6025
 11
279.567
 21
-17.5498
  0
LINE
  8
0
 10
279.567
 20
-17.5498
 11
279.714
 21
-17.5186
  0
LINE
  8
0
 10
279.714
 20
-17.5186
 11
279.861
 21
-17.4941
  0
LINE
  8
0
 10
279.861
 20
-17.4941
 11
279.96
 21
-17.4814
  0
LINE
  8
0
 10
279.96
 20
-17.4814
 11
280.159
 21
-17.4658
  0
LINE
  8
0
 10
280.159
 20
-17.4658
 11
280.259
 21
-17.4629
  0
LINE
  8
0
 10
280.259
 20
-17.4629
 11
280.407
 21
-17.4639
  0
LINE
  8
0
 10
280.407
 20
-17.4639
 11
280.556
 21
-17.4717
  0
LINE
  8
0
 10
280.556
 20
-17.4717
 11
280.752
 21
-17.4932
  0
LINE
  8
0
 10
280.752
 20
-17.4932
 11
280.897
 21
-17.5176
  0
LINE
  8
0
 10
280.897
 20
-17.5176
 11
280.995
 21
-17.5371
  0
LINE
  8
0
 10
280.995
 20
-17.5371
 11
281.187
 21
-17.5859
  0
LINE
  8
0
 10
281.187
 20
-17.5859
 11
281.327
 21
-17.6299
  0
LINE
  8
0
 10
281.327
 20
-17.6299
 11
281.467
 21
-17.6807
  0
LINE
  8
0
 10
281.467
 20
-17.6807
 11
281.604
 21
-17.7383
  0
LINE
  8
0
 10
281.604
 20
-17.7383
 11
281.737
 21
-17.8018
  0
LINE
  8
0
 10
281.737
 20
-17.8018
 11
281.868
 21
-17.8711
  0
LINE
  8
0
 10
281.868
 20
-17.8711
 11
281.953
 21
-17.9209
  0
LINE
  8
0
 10
281.953
 20
-17.9209
 11
282.078
 21
-18.001
  0
LINE
  8
0
 10
282.078
 20
-18.001
 11
282.199
 21
-18.0859
  0
LINE
  8
0
 10
282.199
 20
-18.0859
 11
282.277
 21
-18.1465
  0
LINE
  8
0
 10
282.277
 20
-18.1465
 11
282.429
 21
-18.2734
  0
LINE
  8
0
 10
282.429
 20
-18.2734
 11
282.536
 21
-18.375
  0
LINE
  8
0
 10
282.536
 20
-18.375
 11
282.64
 21
-18.4814
  0
LINE
  8
0
 10
282.64
 20
-18.4814
 11
282.737
 21
-18.5928
  0
LINE
  8
0
 10
282.737
 20
-18.5928
 11
282.8
 21
-18.6689
  0
LINE
  8
0
 10
282.8
 20
-18.6689
 11
282.86
 21
-18.7471
  0
LINE
  8
0
 10
282.86
 20
-18.7471
 11
282.973
 21
-18.9092
  0
LINE
  8
0
 10
282.973
 20
-18.9092
 11
283.025
 21
-18.9932
  0
LINE
  8
0
 10
283.025
 20
-18.9932
 11
283.075
 21
-19.0781
  0
LINE
  8
0
 10
283.075
 20
-19.0781
 11
283.145
 21
-19.209
  0
LINE
  8
0
 10
283.145
 20
-19.209
 11
283.208
 21
-19.3428
  0
LINE
  8
0
 10
283.208
 20
-19.3428
 11
283.266
 21
-19.4795
  0
LINE
  8
0
 10
283.266
 20
-19.4795
 11
283.316
 21
-19.6191
  0
LINE
  8
0
 10
283.316
 20
-19.6191
 11
283.36
 21
-19.7598
  0
LINE
  8
0
 10
283.36
 20
-19.7598
 11
283.409
 21
-19.9512
  0
LINE
  8
0
 10
283.409
 20
-19.9512
 11
283.438
 21
-20.0967
  0
LINE
  8
0
 10
283.438
 20
-20.0967
 11
283.453
 21
-20.1943
  0
LINE
  8
0
 10
283.453
 20
-20.1943
 11
283.475
 21
-20.3906
  0
LINE
  8
0
 10
283.475
 20
-20.3906
 11
283.482
 21
-20.5391
  0
LINE
  8
0
 10
283.482
 20
-20.5391
 11
283.482
 21
-20.7363
  0
LINE
  8
0
 10
283.482
 20
-20.7363
 11
283.475
 21
-20.8838
  0
LINE
  8
0
 10
283.475
 20
-20.8838
 11
283.465
 21
-20.9824
  0
LINE
  8
0
 10
283.465
 20
-20.9824
 11
283.453
 21
-21.0801
  0
LINE
  8
0
 10
283.453
 20
-21.0801
 11
283.429
 21
-21.2266
  0
LINE
  8
0
 10
283.429
 20
-21.2266
 11
283.409
 21
-21.3232
  0
LINE
  8
0
 10
283.409
 20
-21.3232
 11
283.36
 21
-21.5146
  0
LINE
  8
0
 10
283.36
 20
-21.5146
 11
283.316
 21
-21.6562
  0
LINE
  8
0
 10
283.316
 20
-21.6562
 11
283.266
 21
-21.7949
  0
LINE
  8
0
 10
283.266
 20
-21.7949
 11
283.208
 21
-21.9316
  0
LINE
  8
0
 10
283.208
 20
-21.9316
 11
283.145
 21
-22.0654
  0
LINE
  8
0
 10
283.145
 20
-22.0654
 11
283.075
 21
-22.1963
  0
LINE
  8
0
 10
283.075
 20
-22.1963
 11
283.025
 21
-22.2812
  0
LINE
  8
0
 10
283.025
 20
-22.2812
 11
282.945
 21
-22.4062
  0
LINE
  8
0
 10
282.945
 20
-22.4062
 11
282.86
 21
-22.5273
  0
LINE
  8
0
 10
282.86
 20
-22.5273
 11
282.8
 21
-22.6064
  0
LINE
  8
0
 10
282.8
 20
-22.6064
 11
282.737
 21
-22.6826
  0
LINE
  8
0
 10
282.737
 20
-22.6826
 11
282.64
 21
-22.7939
  0
LINE
  8
0
 10
282.64
 20
-22.7939
 11
282.536
 21
-22.9004
  0
LINE
  8
0
 10
282.536
 20
-22.9004
 11
282.392
 21
-23.0342
  0
LINE
  8
0
 10
282.392
 20
-23.0342
 11
282.277
 21
-23.1289
  0
LINE
  8
0
 10
282.277
 20
-23.1289
 11
282.159
 21
-23.2178
  0
LINE
  8
0
 10
282.159
 20
-23.2178
 11
282.078
 21
-23.2744
  0
LINE
  8
0
 10
282.078
 20
-23.2744
 11
281.953
 21
-23.3535
  0
LINE
  8
0
 10
281.953
 20
-23.3535
 11
281.824
 21
-23.4277
  0
LINE
  8
0
 10
281.824
 20
-23.4277
 11
281.648
 21
-23.5166
  0
LINE
  8
0
 10
281.648
 20
-23.5166
 11
281.467
 21
-23.5938
  0
LINE
  8
0
 10
281.467
 20
-23.5938
 11
281.374
 21
-23.6289
  0
LINE
  8
0
 10
281.374
 20
-23.6289
 11
281.233
 21
-23.6748
  0
LINE
  8
0
 10
281.233
 20
-23.6748
 11
281.091
 21
-23.7148
  0
LINE
  8
0
 10
281.091
 20
-23.7148
 11
280.946
 21
-23.748
  0
LINE
  8
0
 10
280.946
 20
-23.748
 11
280.85
 21
-23.7666
  0
LINE
  8
0
 10
280.85
 20
-23.7666
 11
280.703
 21
-23.7881
  0
LINE
  8
0
 10
280.703
 20
-23.7881
 11
280.506
 21
-23.8066
  0
LINE
  8
0
 10
280.506
 20
-23.8066
 11
280.358
 21
-23.8125
  0
LINE
  8
0
 10
280.358
 20
-23.8125
 11
280.259
 21
-23.8125
  0
LINE
  8
0
 10
-162.843
 20
-23.8125
 11
-162.992
 21
-23.8066
  0
LINE
  8
0
 10
-162.992
 20
-23.8066
 11
-163.091
 21
-23.7988
  0
LINE
  8
0
 10
-163.091
 20
-23.7988
 11
-163.24
 21
-23.7812
  0
LINE
  8
0
 10
-163.24
 20
-23.7812
 11
-163.339
 21
-23.7656
  0
LINE
  8
0
 10
-163.339
 20
-23.7656
 11
-163.485
 21
-23.7363
  0
LINE
  8
0
 10
-163.485
 20
-23.7363
 11
-163.63
 21
-23.7002
  0
LINE
  8
0
 10
-163.63
 20
-23.7002
 11
-163.821
 21
-23.6416
  0
LINE
  8
0
 10
-163.821
 20
-23.6416
 11
-164.008
 21
-23.5713
  0
LINE
  8
0
 10
-164.008
 20
-23.5713
 11
-164.145
 21
-23.5107
  0
LINE
  8
0
 10
-164.145
 20
-23.5107
 11
-164.234
 21
-23.4668
  0
LINE
  8
0
 10
-164.234
 20
-23.4668
 11
-164.409
 21
-23.3701
  0
LINE
  8
0
 10
-164.409
 20
-23.3701
 11
-164.494
 21
-23.3184
  0
LINE
  8
0
 10
-164.494
 20
-23.3184
 11
-164.618
 21
-23.2354
  0
LINE
  8
0
 10
-164.618
 20
-23.2354
 11
-164.699
 21
-23.1768
  0
LINE
  8
0
 10
-164.699
 20
-23.1768
 11
-164.816
 21
-23.084
  0
LINE
  8
0
 10
-164.816
 20
-23.084
 11
-164.893
 21
-23.0195
  0
LINE
  8
0
 10
-164.893
 20
-23.0195
 11
-165.002
 21
-22.918
  0
LINE
  8
0
 10
-165.002
 20
-22.918
 11
-165.107
 21
-22.8105
  0
LINE
  8
0
 10
-165.107
 20
-22.8105
 11
-165.207
 21
-22.6992
  0
LINE
  8
0
 10
-165.207
 20
-22.6992
 11
-165.271
 21
-22.623
  0
LINE
  8
0
 10
-165.271
 20
-22.623
 11
-165.361
 21
-22.5039
  0
LINE
  8
0
 10
-165.361
 20
-22.5039
 11
-165.446
 21
-22.3809
  0
LINE
  8
0
 10
-165.446
 20
-22.3809
 11
-165.5
 21
-22.2969
  0
LINE
  8
0
 10
-165.5
 20
-22.2969
 11
-165.575
 21
-22.167
  0
LINE
  8
0
 10
-165.575
 20
-22.167
 11
-165.644
 21
-22.0342
  0
LINE
  8
0
 10
-165.644
 20
-22.0342
 11
-165.687
 21
-21.9443
  0
LINE
  8
0
 10
-165.687
 20
-21.9443
 11
-165.763
 21
-21.7598
  0
LINE
  8
0
 10
-165.763
 20
-21.7598
 11
-165.812
 21
-21.6182
  0
LINE
  8
0
 10
-165.812
 20
-21.6182
 11
-165.842
 21
-21.5234
  0
LINE
  8
0
 10
-165.842
 20
-21.5234
 11
-165.88
 21
-21.3789
  0
LINE
  8
0
 10
-165.88
 20
-21.3789
 11
-165.911
 21
-21.2324
  0
LINE
  8
0
 10
-165.911
 20
-21.2324
 11
-165.929
 21
-21.1338
  0
LINE
  8
0
 10
-165.929
 20
-21.1338
 11
-165.948
 21
-20.9863
  0
LINE
  8
0
 10
-165.948
 20
-20.9863
 11
-165.958
 21
-20.8867
  0
LINE
  8
0
 10
-165.958
 20
-20.8867
 11
-165.966
 21
-20.7373
  0
LINE
  8
0
 10
-165.966
 20
-20.7373
 11
-165.968
 21
-20.6377
  0
LINE
  8
0
 10
-165.968
 20
-20.6377
 11
-165.964
 21
-20.4883
  0
LINE
  8
0
 10
-165.964
 20
-20.4883
 11
-165.958
 21
-20.3887
  0
LINE
  8
0
 10
-165.958
 20
-20.3887
 11
-165.942
 21
-20.2393
  0
LINE
  8
0
 10
-165.942
 20
-20.2393
 11
-165.929
 21
-20.1406
  0
LINE
  8
0
 10
-165.929
 20
-20.1406
 11
-165.901
 21
-19.9932
  0
LINE
  8
0
 10
-165.901
 20
-19.9932
 11
-165.868
 21
-19.8477
  0
LINE
  8
0
 10
-165.868
 20
-19.8477
 11
-165.842
 21
-19.752
  0
LINE
  8
0
 10
-165.842
 20
-19.752
 11
-165.812
 21
-19.6562
  0
LINE
  8
0
 10
-165.812
 20
-19.6562
 11
-165.78
 21
-19.5615
  0
LINE
  8
0
 10
-165.78
 20
-19.5615
 11
-165.726
 21
-19.4229
  0
LINE
  8
0
 10
-165.726
 20
-19.4229
 11
-165.687
 21
-19.3311
  0
LINE
  8
0
 10
-165.687
 20
-19.3311
 11
-165.644
 21
-19.2402
  0
LINE
  8
0
 10
-165.644
 20
-19.2402
 11
-165.599
 21
-19.1514
  0
LINE
  8
0
 10
-165.599
 20
-19.1514
 11
-165.551
 21
-19.0645
  0
LINE
  8
0
 10
-165.551
 20
-19.0645
 11
-165.474
 21
-18.9365
  0
LINE
  8
0
 10
-165.474
 20
-18.9365
 11
-165.419
 21
-18.8525
  0
LINE
  8
0
 10
-165.419
 20
-18.8525
 11
-165.361
 21
-18.7715
  0
LINE
  8
0
 10
-165.361
 20
-18.7715
 11
-165.239
 21
-18.6133
  0
LINE
  8
0
 10
-165.239
 20
-18.6133
 11
-165.207
 21
-18.5752
  0
LINE
  8
0
 10
-165.207
 20
-18.5752
 11
-165.107
 21
-18.4639
  0
LINE
  8
0
 10
-165.107
 20
-18.4639
 11
-165.002
 21
-18.3574
  0
LINE
  8
0
 10
-165.002
 20
-18.3574
 11
-164.893
 21
-18.2559
  0
LINE
  8
0
 10
-164.893
 20
-18.2559
 11
-164.777
 21
-18.1592
  0
LINE
  8
0
 10
-164.777
 20
-18.1592
 11
-164.659
 21
-18.0693
  0
LINE
  8
0
 10
-164.659
 20
-18.0693
 11
-164.536
 21
-17.9834
  0
LINE
  8
0
 10
-164.536
 20
-17.9834
 11
-164.409
 21
-17.9043
  0
LINE
  8
0
 10
-164.409
 20
-17.9043
 11
-164.322
 21
-17.8555
  0
LINE
  8
0
 10
-164.322
 20
-17.8555
 11
-164.189
 21
-17.7861
  0
LINE
  8
0
 10
-164.189
 20
-17.7861
 11
-164.054
 21
-17.7236
  0
LINE
  8
0
 10
-164.054
 20
-17.7236
 11
-163.915
 21
-17.667
  0
LINE
  8
0
 10
-163.915
 20
-17.667
 11
-163.727
 21
-17.6025
  0
LINE
  8
0
 10
-163.727
 20
-17.6025
 11
-163.534
 21
-17.5498
  0
LINE
  8
0
 10
-163.534
 20
-17.5498
 11
-163.388
 21
-17.5186
  0
LINE
  8
0
 10
-163.388
 20
-17.5186
 11
-163.24
 21
-17.4941
  0
LINE
  8
0
 10
-163.24
 20
-17.4941
 11
-163.091
 21
-17.4766
  0
LINE
  8
0
 10
-163.091
 20
-17.4766
 11
-162.942
 21
-17.4658
  0
LINE
  8
0
 10
-162.942
 20
-17.4658
 11
-162.843
 21
-17.4629
  0
LINE
  8
0
 10
-162.843
 20
-17.4629
 11
-162.693
 21
-17.4639
  0
LINE
  8
0
 10
-162.693
 20
-17.4639
 11
-162.546
 21
-17.4717
  0
LINE
  8
0
 10
-162.546
 20
-17.4717
 11
-162.447
 21
-17.4814
  0
LINE
  8
0
 10
-162.447
 20
-17.4814
 11
-162.35
 21
-17.4932
  0
LINE
  8
0
 10
-162.35
 20
-17.4932
 11
-162.203
 21
-17.5176
  0
LINE
  8
0
 10
-162.203
 20
-17.5176
 11
-162.106
 21
-17.5371
  0
LINE
  8
0
 10
-162.106
 20
-17.5371
 11
-161.915
 21
-17.5859
  0
LINE
  8
0
 10
-161.915
 20
-17.5859
 11
-161.773
 21
-17.6299
  0
LINE
  8
0
 10
-161.773
 20
-17.6299
 11
-161.635
 21
-17.6807
  0
LINE
  8
0
 10
-161.635
 20
-17.6807
 11
-161.498
 21
-17.7383
  0
LINE
  8
0
 10
-161.498
 20
-17.7383
 11
-161.364
 21
-17.8018
  0
LINE
  8
0
 10
-161.364
 20
-17.8018
 11
-161.233
 21
-17.8711
  0
LINE
  8
0
 10
-161.233
 20
-17.8711
 11
-161.148
 21
-17.9209
  0
LINE
  8
0
 10
-161.148
 20
-17.9209
 11
-161.023
 21
-18.001
  0
LINE
  8
0
 10
-161.023
 20
-18.001
 11
-160.902
 21
-18.0859
  0
LINE
  8
0
 10
-160.902
 20
-18.0859
 11
-160.747
 21
-18.209
  0
LINE
  8
0
 10
-160.747
 20
-18.209
 11
-160.637
 21
-18.3066
  0
LINE
  8
0
 10
-160.637
 20
-18.3066
 11
-160.53
 21
-18.4102
  0
LINE
  8
0
 10
-160.53
 20
-18.4102
 11
-160.429
 21
-18.5176
  0
LINE
  8
0
 10
-160.429
 20
-18.5176
 11
-160.396
 21
-18.5547
  0
LINE
  8
0
 10
-160.396
 20
-18.5547
 11
-160.302
 21
-18.6689
  0
LINE
  8
0
 10
-160.302
 20
-18.6689
 11
-160.212
 21
-18.7871
  0
LINE
  8
0
 10
-160.212
 20
-18.7871
 11
-160.129
 21
-18.9092
  0
LINE
  8
0
 10
-160.129
 20
-18.9092
 11
-160.026
 21
-19.0781
  0
LINE
  8
0
 10
-160.026
 20
-19.0781
 11
-159.935
 21
-19.2539
  0
LINE
  8
0
 10
-159.935
 20
-19.2539
 11
-159.854
 21
-19.4336
  0
LINE
  8
0
 10
-159.854
 20
-19.4336
 11
-159.818
 21
-19.5254
  0
LINE
  8
0
 10
-159.818
 20
-19.5254
 11
-159.77
 21
-19.666
  0
LINE
  8
0
 10
-159.77
 20
-19.666
 11
-159.728
 21
-19.8076
  0
LINE
  8
0
 10
-159.728
 20
-19.8076
 11
-159.692
 21
-19.9512
  0
LINE
  8
0
 10
-159.692
 20
-19.9512
 11
-159.664
 21
-20.0967
  0
LINE
  8
0
 10
-159.664
 20
-20.0967
 11
-159.642
 21
-20.2432
  0
LINE
  8
0
 10
-159.642
 20
-20.2432
 11
-159.627
 21
-20.3906
  0
LINE
  8
0
 10
-159.627
 20
-20.3906
 11
-159.619
 21
-20.5391
  0
LINE
  8
0
 10
-159.619
 20
-20.5391
 11
-159.617
 21
-20.6377
  0
LINE
  8
0
 10
-159.617
 20
-20.6377
 11
-159.621
 21
-20.7852
  0
LINE
  8
0
 10
-159.621
 20
-20.7852
 11
-159.631
 21
-20.9336
  0
LINE
  8
0
 10
-159.631
 20
-20.9336
 11
-159.648
 21
-21.0801
  0
LINE
  8
0
 10
-159.648
 20
-21.0801
 11
-159.673
 21
-21.2266
  0
LINE
  8
0
 10
-159.673
 20
-21.2266
 11
-159.703
 21
-21.3711
  0
LINE
  8
0
 10
-159.703
 20
-21.3711
 11
-159.728
 21
-21.4668
  0
LINE
  8
0
 10
-159.728
 20
-21.4668
 11
-159.77
 21
-21.6094
  0
LINE
  8
0
 10
-159.77
 20
-21.6094
 11
-159.818
 21
-21.749
  0
LINE
  8
0
 10
-159.818
 20
-21.749
 11
-159.894
 21
-21.9316
  0
LINE
  8
0
 10
-159.894
 20
-21.9316
 11
-159.935
 21
-22.0215
  0
LINE
  8
0
 10
-159.935
 20
-22.0215
 11
-160.026
 21
-22.1963
  0
LINE
  8
0
 10
-160.026
 20
-22.1963
 11
-160.076
 21
-22.2812
  0
LINE
  8
0
 10
-160.076
 20
-22.2812
 11
-160.129
 21
-22.3652
  0
LINE
  8
0
 10
-160.129
 20
-22.3652
 11
-160.212
 21
-22.4873
  0
LINE
  8
0
 10
-160.212
 20
-22.4873
 11
-160.332
 21
-22.6445
  0
LINE
  8
0
 10
-160.332
 20
-22.6445
 11
-160.396
 21
-22.7197
  0
LINE
  8
0
 10
-160.396
 20
-22.7197
 11
-160.462
 21
-22.7939
  0
LINE
  8
0
 10
-160.462
 20
-22.7939
 11
-160.565
 21
-22.9004
  0
LINE
  8
0
 10
-160.565
 20
-22.9004
 11
-160.71
 21
-23.0342
  0
LINE
  8
0
 10
-160.71
 20
-23.0342
 11
-160.824
 21
-23.1289
  0
LINE
  8
0
 10
-160.824
 20
-23.1289
 11
-160.942
 21
-23.2178
  0
LINE
  8
0
 10
-160.942
 20
-23.2178
 11
-161.023
 21
-23.2744
  0
LINE
  8
0
 10
-161.023
 20
-23.2744
 11
-161.106
 21
-23.3281
  0
LINE
  8
0
 10
-161.106
 20
-23.3281
 11
-161.19
 21
-23.3789
  0
LINE
  8
0
 10
-161.19
 20
-23.3789
 11
-161.276
 21
-23.4277
  0
LINE
  8
0
 10
-161.276
 20
-23.4277
 11
-161.453
 21
-23.5166
  0
LINE
  8
0
 10
-161.453
 20
-23.5166
 11
-161.543
 21
-23.5566
  0
LINE
  8
0
 10
-161.543
 20
-23.5566
 11
-161.728
 21
-23.6289
  0
LINE
  8
0
 10
-161.728
 20
-23.6289
 11
-161.868
 21
-23.6748
  0
LINE
  8
0
 10
-161.868
 20
-23.6748
 11
-162.011
 21
-23.7148
  0
LINE
  8
0
 10
-162.011
 20
-23.7148
 11
-162.203
 21
-23.7578
  0
LINE
  8
0
 10
-162.203
 20
-23.7578
 11
-162.301
 21
-23.7744
  0
LINE
  8
0
 10
-162.301
 20
-23.7744
 11
-162.447
 21
-23.7939
  0
LINE
  8
0
 10
-162.447
 20
-23.7939
 11
-162.595
 21
-23.8066
  0
LINE
  8
0
 10
-162.595
 20
-23.8066
 11
-162.743
 21
-23.8125
  0
LINE
  8
0
 10
-162.743
 20
-23.8125
 11
-162.843
 21
-23.8125
  0
LINE
  8
0
 10
-226.343
 20
-23.8125
 11
-226.492
 21
-23.8066
  0
LINE
  8
0
 10
-226.492
 20
-23.8066
 11
-226.591
 21
-23.7988
  0
LINE
  8
0
 10
-226.591
 20
-23.7988
 11
-226.74
 21
-23.7812
  0
LINE
  8
0
 10
-226.74
 20
-23.7812
 11
-226.839
 21
-23.7656
  0
LINE
  8
0
 10
-226.839
 20
-23.7656
 11
-226.985
 21
-23.7363
  0
LINE
  8
0
 10
-226.985
 20
-23.7363
 11
-227.13
 21
-23.7002
  0
LINE
  8
0
 10
-227.13
 20
-23.7002
 11
-227.321
 21
-23.6416
  0
LINE
  8
0
 10
-227.321
 20
-23.6416
 11
-227.508
 21
-23.5713
  0
LINE
  8
0
 10
-227.508
 20
-23.5713
 11
-227.645
 21
-23.5107
  0
LINE
  8
0
 10
-227.645
 20
-23.5107
 11
-227.734
 21
-23.4668
  0
LINE
  8
0
 10
-227.734
 20
-23.4668
 11
-227.909
 21
-23.3701
  0
LINE
  8
0
 10
-227.909
 20
-23.3701
 11
-227.994
 21
-23.3184
  0
LINE
  8
0
 10
-227.994
 20
-23.3184
 11
-228.118
 21
-23.2354
  0
LINE
  8
0
 10
-228.118
 20
-23.2354
 11
-228.199
 21
-23.1768
  0
LINE
  8
0
 10
-228.199
 20
-23.1768
 11
-228.316
 21
-23.084
  0
LINE
  8
0
 10
-228.316
 20
-23.084
 11
-228.393
 21
-23.0195
  0
LINE
  8
0
 10
-228.393
 20
-23.0195
 11
-228.502
 21
-22.918
  0
LINE
  8
0
 10
-228.502
 20
-22.918
 11
-228.607
 21
-22.8105
  0
LINE
  8
0
 10
-228.607
 20
-22.8105
 11
-228.707
 21
-22.6992
  0
LINE
  8
0
 10
-228.707
 20
-22.6992
 11
-228.771
 21
-22.623
  0
LINE
  8
0
 10
-228.771
 20
-22.623
 11
-228.861
 21
-22.5039
  0
LINE
  8
0
 10
-228.861
 20
-22.5039
 11
-228.946
 21
-22.3809
  0
LINE
  8
0
 10
-228.946
 20
-22.3809
 11
-229
 21
-22.2969
  0
LINE
  8
0
 10
-229
 20
-22.2969
 11
-229.075
 21
-22.167
  0
LINE
  8
0
 10
-229.075
 20
-22.167
 11
-229.144
 21
-22.0342
  0
LINE
  8
0
 10
-229.144
 20
-22.0342
 11
-229.187
 21
-21.9443
  0
LINE
  8
0
 10
-229.187
 20
-21.9443
 11
-229.263
 21
-21.7598
  0
LINE
  8
0
 10
-229.263
 20
-21.7598
 11
-229.312
 21
-21.6182
  0
LINE
  8
0
 10
-229.312
 20
-21.6182
 11
-229.342
 21
-21.5234
  0
LINE
  8
0
 10
-229.342
 20
-21.5234
 11
-229.38
 21
-21.3789
  0
LINE
  8
0
 10
-229.38
 20
-21.3789
 11
-229.411
 21
-21.2324
  0
LINE
  8
0
 10
-229.411
 20
-21.2324
 11
-229.429
 21
-21.1338
  0
LINE
  8
0
 10
-229.429
 20
-21.1338
 11
-229.448
 21
-20.9863
  0
LINE
  8
0
 10
-229.448
 20
-20.9863
 11
-229.458
 21
-20.8867
  0
LINE
  8
0
 10
-229.458
 20
-20.8867
 11
-229.466
 21
-20.7373
  0
LINE
  8
0
 10
-229.466
 20
-20.7373
 11
-229.468
 21
-20.6377
  0
LINE
  8
0
 10
-229.468
 20
-20.6377
 11
-229.464
 21
-20.4883
  0
LINE
  8
0
 10
-229.464
 20
-20.4883
 11
-229.458
 21
-20.3887
  0
LINE
  8
0
 10
-229.458
 20
-20.3887
 11
-229.442
 21
-20.2393
  0
LINE
  8
0
 10
-229.442
 20
-20.2393
 11
-229.429
 21
-20.1406
  0
LINE
  8
0
 10
-229.429
 20
-20.1406
 11
-229.401
 21
-19.9932
  0
LINE
  8
0
 10
-229.401
 20
-19.9932
 11
-229.368
 21
-19.8477
  0
LINE
  8
0
 10
-229.368
 20
-19.8477
 11
-229.342
 21
-19.752
  0
LINE
  8
0
 10
-229.342
 20
-19.752
 11
-229.312
 21
-19.6562
  0
LINE
  8
0
 10
-229.312
 20
-19.6562
 11
-229.28
 21
-19.5615
  0
LINE
  8
0
 10
-229.28
 20
-19.5615
 11
-229.226
 21
-19.4229
  0
LINE
  8
0
 10
-229.226
 20
-19.4229
 11
-229.187
 21
-19.3311
  0
LINE
  8
0
 10
-229.187
 20
-19.3311
 11
-229.144
 21
-19.2402
  0
LINE
  8
0
 10
-229.144
 20
-19.2402
 11
-229.099
 21
-19.1514
  0
LINE
  8
0
 10
-229.099
 20
-19.1514
 11
-229.051
 21
-19.0645
  0
LINE
  8
0
 10
-229.051
 20
-19.0645
 11
-228.974
 21
-18.9365
  0
LINE
  8
0
 10
-228.974
 20
-18.9365
 11
-228.919
 21
-18.8525
  0
LINE
  8
0
 10
-228.919
 20
-18.8525
 11
-228.861
 21
-18.7715
  0
LINE
  8
0
 10
-228.861
 20
-18.7715
 11
-228.739
 21
-18.6133
  0
LINE
  8
0
 10
-228.739
 20
-18.6133
 11
-228.707
 21
-18.5752
  0
LINE
  8
0
 10
-228.707
 20
-18.5752
 11
-228.607
 21
-18.4639
  0
LINE
  8
0
 10
-228.607
 20
-18.4639
 11
-228.502
 21
-18.3574
  0
LINE
  8
0
 10
-228.502
 20
-18.3574
 11
-228.393
 21
-18.2559
  0
LINE
  8
0
 10
-228.393
 20
-18.2559
 11
-228.277
 21
-18.1592
  0
LINE
  8
0
 10
-228.277
 20
-18.1592
 11
-228.159
 21
-18.0693
  0
LINE
  8
0
 10
-228.159
 20
-18.0693
 11
-228.036
 21
-17.9834
  0
LINE
  8
0
 10
-228.036
 20
-17.9834
 11
-227.909
 21
-17.9043
  0
LINE
  8
0
 10
-227.909
 20
-17.9043
 11
-227.822
 21
-17.8555
  0
LINE
  8
0
 10
-227.822
 20
-17.8555
 11
-227.689
 21
-17.7861
  0
LINE
  8
0
 10
-227.689
 20
-17.7861
 11
-227.554
 21
-17.7236
  0
LINE
  8
0
 10
-227.554
 20
-17.7236
 11
-227.415
 21
-17.667
  0
LINE
  8
0
 10
-227.415
 20
-17.667
 11
-227.227
 21
-17.6025
  0
LINE
  8
0
 10
-227.227
 20
-17.6025
 11
-227.034
 21
-17.5498
  0
LINE
  8
0
 10
-227.034
 20
-17.5498
 11
-226.888
 21
-17.5186
  0
LINE
  8
0
 10
-226.888
 20
-17.5186
 11
-226.74
 21
-17.4941
  0
LINE
  8
0
 10
-226.74
 20
-17.4941
 11
-226.591
 21
-17.4766
  0
LINE
  8
0
 10
-226.591
 20
-17.4766
 11
-226.442
 21
-17.4658
  0
LINE
  8
0
 10
-226.442
 20
-17.4658
 11
-226.343
 21
-17.4629
  0
LINE
  8
0
 10
-226.343
 20
-17.4629
 11
-226.193
 21
-17.4639
  0
LINE
  8
0
 10
-226.193
 20
-17.4639
 11
-226.046
 21
-17.4717
  0
LINE
  8
0
 10
-226.046
 20
-17.4717
 11
-225.947
 21
-17.4814
  0
LINE
  8
0
 10
-225.947
 20
-17.4814
 11
-225.85
 21
-17.4932
  0
LINE
  8
0
 10
-225.85
 20
-17.4932
 11
-225.703
 21
-17.5176
  0
LINE
  8
0
 10
-225.703
 20
-17.5176
 11
-225.606
 21
-17.5371
  0
LINE
  8
0
 10
-225.606
 20
-17.5371
 11
-225.415
 21
-17.5859
  0
LINE
  8
0
 10
-225.415
 20
-17.5859
 11
-225.273
 21
-17.6299
  0
LINE
  8
0
 10
-225.273
 20
-17.6299
 11
-225.135
 21
-17.6807
  0
LINE
  8
0
 10
-225.135
 20
-17.6807
 11
-224.998
 21
-17.7383
  0
LINE
  8
0
 10
-224.998
 20
-17.7383
 11
-224.864
 21
-17.8018
  0
LINE
  8
0
 10
-224.864
 20
-17.8018
 11
-224.733
 21
-17.8711
  0
LINE
  8
0
 10
-224.733
 20
-17.8711
 11
-224.648
 21
-17.9209
  0
LINE
  8
0
 10
-224.648
 20
-17.9209
 11
-224.523
 21
-18.001
  0
LINE
  8
0
 10
-224.523
 20
-18.001
 11
-224.402
 21
-18.0859
  0
LINE
  8
0
 10
-224.402
 20
-18.0859
 11
-224.247
 21
-18.209
  0
LINE
  8
0
 10
-224.247
 20
-18.209
 11
-224.137
 21
-18.3066
  0
LINE
  8
0
 10
-224.137
 20
-18.3066
 11
-224.03
 21
-18.4102
  0
LINE
  8
0
 10
-224.03
 20
-18.4102
 11
-223.929
 21
-18.5176
  0
LINE
  8
0
 10
-223.929
 20
-18.5176
 11
-223.896
 21
-18.5547
  0
LINE
  8
0
 10
-223.896
 20
-18.5547
 11
-223.802
 21
-18.6689
  0
LINE
  8
0
 10
-223.802
 20
-18.6689
 11
-223.712
 21
-18.7871
  0
LINE
  8
0
 10
-223.712
 20
-18.7871
 11
-223.629
 21
-18.9092
  0
LINE
  8
0
 10
-223.629
 20
-18.9092
 11
-223.526
 21
-19.0781
  0
LINE
  8
0
 10
-223.526
 20
-19.0781
 11
-223.435
 21
-19.2539
  0
LINE
  8
0
 10
-223.435
 20
-19.2539
 11
-223.354
 21
-19.4336
  0
LINE
  8
0
 10
-223.354
 20
-19.4336
 11
-223.318
 21
-19.5254
  0
LINE
  8
0
 10
-223.318
 20
-19.5254
 11
-223.27
 21
-19.666
  0
LINE
  8
0
 10
-223.27
 20
-19.666
 11
-223.228
 21
-19.8076
  0
LINE
  8
0
 10
-223.228
 20
-19.8076
 11
-223.192
 21
-19.9512
  0
LINE
  8
0
 10
-223.192
 20
-19.9512
 11
-223.164
 21
-20.0967
  0
LINE
  8
0
 10
-223.164
 20
-20.0967
 11
-223.142
 21
-20.2432
  0
LINE
  8
0
 10
-223.142
 20
-20.2432
 11
-223.127
 21
-20.3906
  0
LINE
  8
0
 10
-223.127
 20
-20.3906
 11
-223.119
 21
-20.5391
  0
LINE
  8
0
 10
-223.119
 20
-20.5391
 11
-223.117
 21
-20.6377
  0
LINE
  8
0
 10
-223.117
 20
-20.6377
 11
-223.121
 21
-20.7852
  0
LINE
  8
0
 10
-223.121
 20
-20.7852
 11
-223.131
 21
-20.9336
  0
LINE
  8
0
 10
-223.131
 20
-20.9336
 11
-223.148
 21
-21.0801
  0
LINE
  8
0
 10
-223.148
 20
-21.0801
 11
-223.173
 21
-21.2266
  0
LINE
  8
0
 10
-223.173
 20
-21.2266
 11
-223.203
 21
-21.3711
  0
LINE
  8
0
 10
-223.203
 20
-21.3711
 11
-223.228
 21
-21.4668
  0
LINE
  8
0
 10
-223.228
 20
-21.4668
 11
-223.27
 21
-21.6094
  0
LINE
  8
0
 10
-223.27
 20
-21.6094
 11
-223.318
 21
-21.749
  0
LINE
  8
0
 10
-223.318
 20
-21.749
 11
-223.394
 21
-21.9316
  0
LINE
  8
0
 10
-223.394
 20
-21.9316
 11
-223.435
 21
-22.0215
  0
LINE
  8
0
 10
-223.435
 20
-22.0215
 11
-223.526
 21
-22.1963
  0
LINE
  8
0
 10
-223.526
 20
-22.1963
 11
-223.576
 21
-22.2812
  0
LINE
  8
0
 10
-223.576
 20
-22.2812
 11
-223.629
 21
-22.3652
  0
LINE
  8
0
 10
-223.629
 20
-22.3652
 11
-223.712
 21
-22.4873
  0
LINE
  8
0
 10
-223.712
 20
-22.4873
 11
-223.832
 21
-22.6445
  0
LINE
  8
0
 10
-223.832
 20
-22.6445
 11
-223.896
 21
-22.7197
  0
LINE
  8
0
 10
-223.896
 20
-22.7197
 11
-223.962
 21
-22.7939
  0
LINE
  8
0
 10
-223.962
 20
-22.7939
 11
-224.065
 21
-22.9004
  0
LINE
  8
0
 10
-224.065
 20
-22.9004
 11
-224.21
 21
-23.0342
  0
LINE
  8
0
 10
-224.21
 20
-23.0342
 11
-224.324
 21
-23.1289
  0
LINE
  8
0
 10
-224.324
 20
-23.1289
 11
-224.442
 21
-23.2178
  0
LINE
  8
0
 10
-224.442
 20
-23.2178
 11
-224.523
 21
-23.2744
  0
LINE
  8
0
 10
-224.523
 20
-23.2744
 11
-224.606
 21
-23.3281
  0
LINE
  8
0
 10
-224.606
 20
-23.3281
 11
-224.69
 21
-23.3789
  0
LINE
  8
0
 10
-224.69
 20
-23.3789
 11
-224.776
 21
-23.4277
  0
LINE
  8
0
 10
-224.776
 20
-23.4277
 11
-224.953
 21
-23.5166
  0
LINE
  8
0
 10
-224.953
 20
-23.5166
 11
-225.043
 21
-23.5566
  0
LINE
  8
0
 10
-225.043
 20
-23.5566
 11
-225.228
 21
-23.6289
  0
LINE
  8
0
 10
-225.228
 20
-23.6289
 11
-225.368
 21
-23.6748
  0
LINE
  8
0
 10
-225.368
 20
-23.6748
 11
-225.511
 21
-23.7148
  0
LINE
  8
0
 10
-225.511
 20
-23.7148
 11
-225.703
 21
-23.7578
  0
LINE
  8
0
 10
-225.703
 20
-23.7578
 11
-225.801
 21
-23.7744
  0
LINE
  8
0
 10
-225.801
 20
-23.7744
 11
-225.947
 21
-23.7939
  0
LINE
  8
0
 10
-225.947
 20
-23.7939
 11
-226.095
 21
-23.8066
  0
LINE
  8
0
 10
-226.095
 20
-23.8066
 11
-226.243
 21
-23.8125
  0
LINE
  8
0
 10
-226.243
 20
-23.8125
 11
-226.343
 21
-23.8125
  0
LINE
  8
0
 10
-79.4581
 20
-53.9288
 11
-86.4328
 21
-41.8483
  0
LINE
  8
0
 10
-86.4328
 20
-41.8483
 11
-79.4581
 21
-29.7677
  0
LINE
  8
0
 10
-79.4581
 20
-29.7677
 11
-65.5086
 21
-29.7677
  0
LINE
  8
0
 10
-65.5086
 20
-29.7677
 11
-58.5339
 21
-41.8483
  0
LINE
  8
0
 10
-58.5339
 20
-41.8483
 11
-65.5086
 21
-53.9288
  0
LINE
  8
0
 10
-65.5086
 20
-53.9288
 11
-79.4581
 21
-53.9288
  0
LINE
  8
0
 10
258.798
 20
-57.6666
 11
270.161
 21
-57.6666
  0
LINE
  8
0
 10
270.161
 20
-57.6666
 11
276.426
 21
-55.0327
  0
LINE
  8
0
 10
276.426
 20
-55.0327
 11
282.959
 21
-43.7171
  0
LINE
  8
0
 10
282.959
 20
-43.7171
 11
296.908
 21
-43.7171
  0
LINE
  8
0
 10
296.908
 20
-43.7171
 11
297.611
 21
-44.9341
  0
LINE
  8
0
 10
297.611
 20
-44.9341
 11
300.695
 21
-43.3477
  0
LINE
  8
0
 10
300.695
 20
-43.3477
 11
300.924
 21
-43.1979
  0
LINE
  8
0
 10
300.924
 20
-43.1979
 11
300.145
 21
-41.8483
  0
LINE
  8
0
 10
300.145
 20
-41.8483
 11
307.12
 21
-29.7677
  0
LINE
  8
0
 10
307.12
 20
-29.7677
 11
319.215
 21
-29.7677
  0
LINE
  8
0
 10
319.215
 20
-29.7677
 11
312.906
 21
-35.3594
  0
LINE
  8
0
 10
312.906
 20
-35.3594
 11
300.695
 21
-43.3477
  0
LINE
  8
0
 10
300.695
 20
-43.3477
 11
284.912
 21
-51.4648
  0
LINE
  8
0
 10
284.912
 20
-51.4648
 11
266.334
 21
-59.2754
  0
LINE
  8
0
 10
266.334
 20
-59.2754
 11
255.752
 21
-62.9418
  0
LINE
  8
0
 10
255.752
 20
-62.9418
 11
258.798
 21
-57.6666
  0
LINE
  8
0
 10
-127.78
 20
-53.9288
 11
-134.755
 21
-41.8483
  0
LINE
  8
0
 10
-134.755
 20
-41.8483
 11
-127.78
 21
-29.7677
  0
LINE
  8
0
 10
-127.78
 20
-29.7677
 11
-113.831
 21
-29.7677
  0
LINE
  8
0
 10
-113.831
 20
-29.7677
 11
-106.856
 21
-41.8483
  0
LINE
  8
0
 10
-106.856
 20
-41.8483
 11
-113.831
 21
-53.9288
  0
LINE
  8
0
 10
-113.831
 20
-53.9288
 11
-127.78
 21
-53.9288
  0
LINE
  8
0
 10
-31.1358
 20
-53.9288
 11
-38.1105
 21
-41.8483
  0
LINE
  8
0
 10
-38.1105
 20
-41.8483
 11
-31.1358
 21
-29.7677
  0
LINE
  8
0
 10
-31.1358
 20
-29.7677
 11
-17.1864
 21
-29.7677
  0
LINE
  8
0
 10
-17.1864
 20
-29.7677
 11
-10.2117
 21
-41.8483
  0
LINE
  8
0
 10
-10.2117
 20
-41.8483
 11
-17.1864
 21
-53.9288
  0
LINE
  8
0
 10
-17.1864
 20
-53.9288
 11
-31.1358
 21
-53.9288
  0
LINE
  8
0
 10
113.831
 20
-53.9288
 11
106.856
 21
-41.8483
  0
LINE
  8
0
 10
106.856
 20
-41.8483
 11
113.831
 21
-29.7677
  0
LINE
  8
0
 10
113.831
 20
-29.7677
 11
127.78
 21
-29.7677
  0
LINE
  8
0
 10
127.78
 20
-29.7677
 11
134.755
 21
-41.8483
  0
LINE
  8
0
 10
134.755
 20
-41.8483
 11
127.78
 21
-53.9288
  0
LINE
  8
0
 10
127.78
 20
-53.9288
 11
113.831
 21
-53.9288
  0
LINE
  8
0
 10
65.5086
 20
-53.9288
 11
58.5339
 21
-41.8483
  0
LINE
  8
0
 10
58.5339
 20
-41.8483
 11
65.5086
 21
-29.7677
  0
LINE
  8
0
 10
65.5086
 20
-29.7677
 11
79.4581
 21
-29.7677
  0
LINE
  8
0
 10
79.4581
 20
-29.7677
 11
86.4328
 21
-41.8483
  0
LINE
  8
0
 10
86.4328
 20
-41.8483
 11
79.4581
 21
-53.9288
  0
LINE
  8
0
 10
79.4581
 20
-53.9288
 11
65.5086
 21
-53.9288
  0
LINE
  8
0
 10
162.153
 20
-53.9288
 11
155.178
 21
-41.8483
  0
LINE
  8
0
 10
155.178
 20
-41.8483
 11
162.153
 21
-29.7677
  0
LINE
  8
0
 10
162.153
 20
-29.7677
 11
176.103
 21
-29.7677
  0
LINE
  8
0
 10
176.103
 20
-29.7677
 11
183.077
 21
-41.8483
  0
LINE
  8
0
 10
183.077
 20
-41.8483
 11
176.103
 21
-53.9288
  0
LINE
  8
0
 10
176.103
 20
-53.9288
 11
162.153
 21
-53.9288
  0
LINE
  8
0
 10
17.1864
 20
-53.9288
 11
10.2117
 21
-41.8483
  0
LINE
  8
0
 10
10.2117
 20
-41.8483
 11
17.1864
 21
-29.7677
  0
LINE
  8
0
 10
17.1864
 20
-29.7677
 11
31.1358
 21
-29.7677
  0
LINE
  8
0
 10
31.1358
 20
-29.7677
 11
38.1105
 21
-41.8483
  0
LINE
  8
0
 10
38.1105
 20
-41.8483
 11
31.1358
 21
-53.9288
  0
LINE
  8
0
 10
31.1358
 20
-53.9288
 11
17.1864
 21
-53.9288
  0
LINE
  8
0
 10
-208.346
 20
-33.4564
 11
-203.501
 21
-41.8483
  0
LINE
  8
0
 10
-203.501
 20
-41.8483
 11
-208.346
 21
-50.2402
  0
LINE
  8
0
 10
-208.346
 20
-50.2402
 11
-208.346
 21
-33.4564
  0
LINE
  8
0
 10
137.992
 20
-67.8783
 11
131.017
 21
-55.7977
  0
LINE
  8
0
 10
131.017
 20
-55.7977
 11
137.992
 21
-43.7171
  0
LINE
  8
0
 10
137.992
 20
-43.7171
 11
151.941
 21
-43.7171
  0
LINE
  8
0
 10
151.941
 20
-43.7171
 11
158.916
 21
-55.7977
  0
LINE
  8
0
 10
158.916
 20
-55.7977
 11
151.941
 21
-67.8783
  0
LINE
  8
0
 10
151.941
 20
-67.8783
 11
137.992
 21
-67.8783
  0
LINE
  8
0
 10
-6.9747
 20
-67.8783
 11
-13.9494
 21
-55.7977
  0
LINE
  8
0
 10
-13.9494
 20
-55.7977
 11
-6.9747
 21
-43.7171
  0
LINE
  8
0
 10
-6.9747
 20
-43.7171
 11
6.9747
 21
-43.7171
  0
LINE
  8
0
 10
6.9747
 20
-43.7171
 11
13.9494
 21
-55.7977
  0
LINE
  8
0
 10
13.9494
 20
-55.7977
 11
6.9747
 21
-67.8783
  0
LINE
  8
0
 10
6.9747
 20
-67.8783
 11
-6.9747
 21
-67.8783
  0
LINE
  8
0
 10
186.314
 20
-67.8783
 11
179.34
 21
-55.7977
  0
LINE
  8
0
 10
179.34
 20
-55.7977
 11
186.314
 21
-43.7171
  0
LINE
  8
0
 10
186.314
 20
-43.7171
 11
200.264
 21
-43.7171
  0
LINE
  8
0
 10
200.264
 20
-43.7171
 11
207.238
 21
-55.7977
  0
LINE
  8
0
 10
207.238
 20
-55.7977
 11
200.264
 21
-67.8783
  0
LINE
  8
0
 10
200.264
 20
-67.8783
 11
186.314
 21
-67.8783
  0
LINE
  8
0
 10
41.3475
 20
-67.8783
 11
34.3728
 21
-55.7977
  0
LINE
  8
0
 10
34.3728
 20
-55.7977
 11
41.3475
 21
-43.7171
  0
LINE
  8
0
 10
41.3475
 20
-43.7171
 11
55.2969
 21
-43.7171
  0
LINE
  8
0
 10
55.2969
 20
-43.7171
 11
62.2717
 21
-55.7977
  0
LINE
  8
0
 10
62.2717
 20
-55.7977
 11
55.2969
 21
-67.8783
  0
LINE
  8
0
 10
55.2969
 20
-67.8783
 11
41.3475
 21
-67.8783
  0
LINE
  8
0
 10
-151.941
 20
-67.8783
 11
-158.916
 21
-55.7977
  0
LINE
  8
0
 10
-158.916
 20
-55.7977
 11
-151.941
 21
-43.7171
  0
LINE
  8
0
 10
-151.941
 20
-43.7171
 11
-137.992
 21
-43.7171
  0
LINE
  8
0
 10
-137.992
 20
-43.7171
 11
-131.017
 21
-55.7977
  0
LINE
  8
0
 10
-131.017
 20
-55.7977
 11
-137.992
 21
-67.8783
  0
LINE
  8
0
 10
-137.992
 20
-67.8783
 11
-151.941
 21
-67.8783
  0
LINE
  8
0
 10
89.6698
 20
-67.8783
 11
82.695
 21
-55.7977
  0
LINE
  8
0
 10
82.695
 20
-55.7977
 11
89.6698
 21
-43.7171
  0
LINE
  8
0
 10
89.6698
 20
-43.7171
 11
103.619
 21
-43.7171
  0
LINE
  8
0
 10
103.619
 20
-43.7171
 11
110.594
 21
-55.7977
  0
LINE
  8
0
 10
110.594
 20
-55.7977
 11
103.619
 21
-67.8783
  0
LINE
  8
0
 10
103.619
 20
-67.8783
 11
89.6698
 21
-67.8783
  0
LINE
  8
0
 10
-55.2969
 20
-67.8783
 11
-62.2717
 21
-55.7977
  0
LINE
  8
0
 10
-62.2717
 20
-55.7977
 11
-55.2969
 21
-43.7171
  0
LINE
  8
0
 10
-55.2969
 20
-43.7171
 11
-41.3475
 21
-43.7171
  0
LINE
  8
0
 10
-41.3475
 20
-43.7171
 11
-34.3728
 21
-55.7977
  0
LINE
  8
0
 10
-34.3728
 20
-55.7977
 11
-41.3475
 21
-67.8783
  0
LINE
  8
0
 10
-41.3475
 20
-67.8783
 11
-55.2969
 21
-67.8783
  0
LINE
  8
0
 10
203.501
 20
-69.7471
 11
210.475
 21
-57.6666
  0
LINE
  8
0
 10
210.475
 20
-57.6666
 11
224.425
 21
-57.6666
  0
LINE
  8
0
 10
224.425
 20
-57.6666
 11
231.399
 21
-69.7471
  0
LINE
  8
0
 10
231.399
 20
-69.7471
 11
230.921
 21
-70.5757
  0
LINE
  8
0
 10
230.921
 20
-70.5757
 11
240.525
 21
-67.8783
  0
LINE
  8
0
 10
240.525
 20
-67.8783
 11
234.636
 21
-67.8783
  0
LINE
  8
0
 10
234.636
 20
-67.8783
 11
227.662
 21
-55.7977
  0
LINE
  8
0
 10
227.662
 20
-55.7977
 11
234.636
 21
-43.7171
  0
LINE
  8
0
 10
234.636
 20
-43.7171
 11
248.586
 21
-43.7171
  0
LINE
  8
0
 10
248.586
 20
-43.7171
 11
255.561
 21
-55.7977
  0
LINE
  8
0
 10
255.561
 20
-55.7977
 11
250.357
 21
-64.811
  0
LINE
  8
0
 10
250.357
 20
-64.811
 11
245.693
 21
-66.4268
  0
LINE
  8
0
 10
245.693
 20
-66.4268
 11
223.701
 21
-72.6035
  0
LINE
  8
0
 10
223.701
 20
-72.6035
 11
207.035
 21
-75.8686
  0
LINE
  8
0
 10
207.035
 20
-75.8686
 11
203.501
 21
-69.7471
  0
LINE
  8
0
 10
-166.432
 20
-68.6182
 11
-201.804
 21
-65.2103
  0
LINE
  8
0
 10
-201.804
 20
-65.2103
 11
-207.238
 21
-55.7977
  0
LINE
  8
0
 10
-207.238
 20
-55.7977
 11
-200.264
 21
-43.7171
  0
LINE
  8
0
 10
-200.264
 20
-43.7171
 11
-186.314
 21
-43.7171
  0
LINE
  8
0
 10
-186.314
 20
-43.7171
 11
-179.34
 21
-55.7977
  0
LINE
  8
0
 10
-179.34
 20
-55.7977
 11
-185.671
 21
-66.7646
  0
LINE
  8
0
 10
-185.671
 20
-66.7646
 11
-181.583
 21
-67.1585
  0
LINE
  8
0
 10
-181.583
 20
-67.1585
 11
-176.103
 21
-57.6666
  0
LINE
  8
0
 10
-176.103
 20
-57.6666
 11
-162.153
 21
-57.6666
  0
LINE
  8
0
 10
-162.153
 20
-57.6666
 11
-155.178
 21
-69.7471
  0
LINE
  8
0
 10
-155.178
 20
-69.7471
 11
-155.187
 21
-69.7621
  0
LINE
  8
0
 10
-155.187
 20
-69.7621
 11
-166.432
 21
-68.6182
  0
LINE
  8
0
 10
-103.619
 20
-67.8783
 11
-110.594
 21
-55.7977
  0
LINE
  8
0
 10
-110.594
 20
-55.7977
 11
-103.619
 21
-43.7171
  0
LINE
  8
0
 10
-103.619
 20
-43.7171
 11
-89.6698
 21
-43.7171
  0
LINE
  8
0
 10
-89.6698
 20
-43.7171
 11
-82.695
 21
-55.7977
  0
LINE
  8
0
 10
-82.695
 20
-55.7977
 11
-89.6698
 21
-67.8783
  0
LINE
  8
0
 10
-89.6698
 20
-67.8783
 11
-103.619
 21
-67.8783
  0
LINE
  8
0
 10
-79.5215
 20
-77.3232
 11
-122.785
 21
-73.0586
  0
LINE
  8
0
 10
-122.785
 20
-73.0586
 11
-133.471
 21
-71.9715
  0
LINE
  8
0
 10
-133.471
 20
-71.9715
 11
-134.755
 21
-69.7471
  0
LINE
  8
0
 10
-134.755
 20
-69.7471
 11
-127.78
 21
-57.6666
  0
LINE
  8
0
 10
-127.78
 20
-57.6666
 11
-113.831
 21
-57.6666
  0
LINE
  8
0
 10
-113.831
 20
-57.6666
 11
-106.856
 21
-69.7471
  0
LINE
  8
0
 10
-106.856
 20
-69.7471
 11
-109.523
 21
-74.3659
  0
LINE
  8
0
 10
-109.523
 20
-74.3659
 11
-105.439
 21
-74.7684
  0
LINE
  8
0
 10
-105.439
 20
-74.7684
 11
-103.619
 21
-71.616
  0
LINE
  8
0
 10
-103.619
 20
-71.616
 11
-89.6698
 21
-71.616
  0
LINE
  8
0
 10
-89.6698
 20
-71.616
 11
-86.7882
 21
-76.6069
  0
LINE
  8
0
 10
-86.7882
 20
-76.6069
 11
-82.2118
 21
-77.058
  0
LINE
  8
0
 10
-82.2118
 20
-77.058
 11
-86.4328
 21
-69.7471
  0
LINE
  8
0
 10
-86.4328
 20
-69.7471
 11
-79.4581
 21
-57.6666
  0
LINE
  8
0
 10
-79.4581
 20
-57.6666
 11
-65.5086
 21
-57.6666
  0
LINE
  8
0
 10
-65.5086
 20
-57.6666
 11
-58.5339
 21
-69.7471
  0
LINE
  8
0
 10
-58.5339
 20
-69.7471
 11
-63.6964
 21
-78.6887
  0
LINE
  8
0
 10
-63.6964
 20
-78.6887
 11
-79.5215
 21
-77.3232
  0
LINE
  8
0
 10
113.831
 20
-81.8277
 11
106.856
 21
-69.7471
  0
LINE
  8
0
 10
106.856
 20
-69.7471
 11
113.831
 21
-57.6666
  0
LINE
  8
0
 10
113.831
 20
-57.6666
 11
127.78
 21
-57.6666
  0
LINE
  8
0
 10
127.78
 20
-57.6666
 11
134.755
 21
-69.7471
  0
LINE
  8
0
 10
134.755
 20
-69.7471
 11
127.78
 21
-81.8277
  0
LINE
  8
0
 10
127.78
 20
-81.8277
 11
113.831
 21
-81.8277
  0
LINE
  8
0
 10
65.5086
 20
-81.8277
 11
58.5339
 21
-69.7471
  0
LINE
  8
0
 10
58.5339
 20
-69.7471
 11
65.5086
 21
-57.6666
  0
LINE
  8
0
 10
65.5086
 20
-57.6666
 11
79.4581
 21
-57.6666
  0
LINE
  8
0
 10
79.4581
 20
-57.6666
 11
86.4328
 21
-69.7471
  0
LINE
  8
0
 10
86.4328
 20
-69.7471
 11
79.4581
 21
-81.8277
  0
LINE
  8
0
 10
79.4581
 20
-81.8277
 11
65.5086
 21
-81.8277
  0
LINE
  8
0
 10
17.1864
 20
-81.8277
 11
10.2117
 21
-69.7471
  0
LINE
  8
0
 10
10.2117
 20
-69.7471
 11
17.1864
 21
-57.6666
  0
LINE
  8
0
 10
17.1864
 20
-57.6666
 11
31.1358
 21
-57.6666
  0
LINE
  8
0
 10
31.1358
 20
-57.6666
 11
38.1105
 21
-69.7471
  0
LINE
  8
0
 10
38.1105
 20
-69.7471
 11
31.1358
 21
-81.8277
  0
LINE
  8
0
 10
31.1358
 20
-81.8277
 11
17.1864
 21
-81.8277
  0
LINE
  8
0
 10
-23.8297
 20
-81.8277
 11
-31.4257
 21
-81.3257
  0
LINE
  8
0
 10
-31.4257
 20
-81.3257
 11
-38.1105
 21
-69.7471
  0
LINE
  8
0
 10
-38.1105
 20
-69.7471
 11
-31.1358
 21
-57.6666
  0
LINE
  8
0
 10
-31.1358
 20
-57.6666
 11
-17.1864
 21
-57.6666
  0
LINE
  8
0
 10
-17.1864
 20
-57.6666
 11
-10.2117
 21
-69.7471
  0
LINE
  8
0
 10
-10.2117
 20
-69.7471
 11
-17.1864
 21
-81.8277
  0
LINE
  8
0
 10
-17.1864
 20
-81.8277
 11
-23.8297
 21
-81.8277
  0
LINE
  8
0
 10
131.017
 20
-83.6966
 11
137.992
 21
-71.616
  0
LINE
  8
0
 10
137.992
 20
-71.616
 11
151.941
 21
-71.616
  0
LINE
  8
0
 10
151.941
 20
-71.616
 11
158.466
 21
-82.9176
  0
LINE
  8
0
 10
158.466
 20
-82.9176
 11
168.794
 21
-81.8277
  0
LINE
  8
0
 10
168.794
 20
-81.8277
 11
162.153
 21
-81.8277
  0
LINE
  8
0
 10
162.153
 20
-81.8277
 11
155.178
 21
-69.7471
  0
LINE
  8
0
 10
155.178
 20
-69.7471
 11
162.153
 21
-57.6666
  0
LINE
  8
0
 10
162.153
 20
-57.6666
 11
176.103
 21
-57.6666
  0
LINE
  8
0
 10
176.103
 20
-57.6666
 11
183.077
 21
-69.7471
  0
LINE
  8
0
 10
183.077
 20
-69.7471
 11
176.577
 21
-81.0064
  0
LINE
  8
0
 10
176.577
 20
-81.0064
 11
147.229
 21
-84.1035
  0
LINE
  8
0
 10
147.229
 20
-84.1035
 11
131.624
 21
-84.7476
  0
LINE
  8
0
 10
131.624
 20
-84.7476
 11
131.017
 21
-83.6966
  0
LINE
  8
0
 10
-208.346
 20
-64.5801
 11
-208.346
 21
-61.3552
  0
LINE
  8
0
 10
-208.346
 20
-61.3552
 11
-206.374
 21
-64.77
  0
LINE
  8
0
 10
-206.374
 20
-64.77
 11
-208.346
 21
-64.5801
  0
LINE
  8
0
 10
186.314
 20
-71.616
 11
200.264
 21
-71.616
  0
LINE
  8
0
 10
200.264
 20
-71.616
 11
203.157
 21
-76.6282
  0
LINE
  8
0
 10
203.157
 20
-76.6282
 11
185.752
 21
-80.0381
  0
LINE
  8
0
 10
185.752
 20
-80.0381
 11
181.173
 21
-80.5213
  0
LINE
  8
0
 10
181.173
 20
-80.5213
 11
186.314
 21
-71.616
  0
LINE
  8
0
 10
35.1279
 20
-84.915
 11
35.075
 21
-84.9127
  0
LINE
  8
0
 10
35.075
 20
-84.9127
 11
34.3728
 21
-83.6966
  0
LINE
  8
0
 10
34.3728
 20
-83.6966
 11
41.3475
 21
-71.616
  0
LINE
  8
0
 10
41.3475
 20
-71.616
 11
55.2969
 21
-71.616
  0
LINE
  8
0
 10
55.2969
 20
-71.616
 11
62.2717
 21
-83.6966
  0
LINE
  8
0
 10
62.2717
 20
-83.6966
 11
61.2369
 21
-85.4889
  0
LINE
  8
0
 10
61.2369
 20
-85.4889
 11
65.4987
 21
-85.5826
  0
LINE
  8
0
 10
65.4987
 20
-85.5826
 11
65.5086
 21
-85.5654
  0
LINE
  8
0
 10
65.5086
 20
-85.5654
 11
79.4581
 21
-85.5654
  0
LINE
  8
0
 10
79.4581
 20
-85.5654
 11
79.5391
 21
-85.7058
  0
LINE
  8
0
 10
79.5391
 20
-85.7058
 11
83.8535
 21
-85.7031
  0
LINE
  8
0
 10
83.8535
 20
-85.7031
 11
82.695
 21
-83.6966
  0
LINE
  8
0
 10
82.695
 20
-83.6966
 11
89.6698
 21
-71.616
  0
LINE
  8
0
 10
89.6698
 20
-71.616
 11
103.619
 21
-71.616
  0
LINE
  8
0
 10
103.619
 20
-71.616
 11
110.594
 21
-83.6966
  0
LINE
  8
0
 10
110.594
 20
-83.6966
 11
109.459
 21
-85.6624
  0
LINE
  8
0
 10
109.459
 20
-85.6624
 11
108.851
 21
-85.6875
  0
LINE
  8
0
 10
108.851
 20
-85.6875
 11
71.3398
 21
-85.7109
  0
LINE
  8
0
 10
71.3398
 20
-85.7109
 11
35.1279
 21
-84.915
  0
LINE
  8
0
 10
-0.905273
 20
-83.3428
 11
-13.2732
 21
-82.5254
  0
LINE
  8
0
 10
-13.2732
 20
-82.5254
 11
-6.9747
 21
-71.616
  0
LINE
  8
0
 10
-6.9747
 20
-71.616
 11
6.9747
 21
-71.616
  0
LINE
  8
0
 10
6.9747
 20
-71.616
 11
13.9494
 21
-83.6966
  0
LINE
  8
0
 10
13.9494
 20
-83.6966
 11
13.7836
 21
-83.9837
  0
LINE
  8
0
 10
13.7836
 20
-83.9837
 11
-0.905273
 21
-83.3428
  0
LINE
  8
0
 10
-38.7324
 20
-80.8428
 11
-59.5852
 21
-79.0435
  0
LINE
  8
0
 10
-59.5852
 20
-79.0435
 11
-55.2969
 21
-71.616
  0
LINE
  8
0
 10
-55.2969
 20
-71.616
 11
-41.3475
 21
-71.616
  0
LINE
  8
0
 10
-41.3475
 20
-71.616
 11
-35.9129
 21
-81.0291
  0
LINE
  8
0
 10
-35.9129
 20
-81.0291
 11
-38.7324
 21
-80.8428
  0
LINE
  8
0
 10
203.501
 20
13.9494
 11
207.284
 21
20.5027
  0
LINE
  8
0
 10
207.284
 20
20.5027
 11
207.284
 21
7.39612
  0
LINE
  8
0
 10
207.284
 20
7.39612
 11
203.501
 21
13.9494
  0
LINE
  8
0
 10
203.501
 20
41.8483
 11
210.475
 21
53.9288
  0
LINE
  8
0
 10
210.475
 20
53.9288
 11
224.425
 21
53.9288
  0
LINE
  8
0
 10
224.425
 20
53.9288
 11
231.399
 21
41.8483
  0
LINE
  8
0
 10
231.399
 20
41.8483
 11
224.652
 21
30.1621
  0
LINE
  8
0
 10
224.652
 20
30.1621
 11
228.968
 21
30.1621
  0
LINE
  8
0
 10
228.968
 20
30.1621
 11
234.636
 21
39.9794
  0
LINE
  8
0
 10
234.636
 20
39.9794
 11
248.586
 21
39.9794
  0
LINE
  8
0
 10
248.586
 20
39.9794
 11
254.254
 21
30.1621
  0
LINE
  8
0
 10
254.254
 20
30.1621
 11
258.57
 21
30.1621
  0
LINE
  8
0
 10
258.57
 20
30.1621
 11
251.823
 21
41.8483
  0
LINE
  8
0
 10
251.823
 20
41.8483
 11
258.798
 21
53.9288
  0
LINE
  8
0
 10
258.798
 20
53.9288
 11
272.747
 21
53.9288
  0
LINE
  8
0
 10
272.747
 20
53.9288
 11
279.722
 21
41.8483
  0
LINE
  8
0
 10
279.722
 20
41.8483
 11
272.975
 21
30.1621
  0
LINE
  8
0
 10
272.975
 20
30.1621
 11
210.248
 21
30.1621
  0
LINE
  8
0
 10
210.248
 20
30.1621
 11
203.501
 21
41.8483
  0
LINE
  8
0
 10
-151.941
 20
12.0806
 11
-137.992
 21
12.0806
  0
LINE
  8
0
 10
-137.992
 20
12.0806
 11
-131.017
 21
0
  0
LINE
  8
0
 10
-131.017
 20
0
 11
-137.992
 21
-12.0806
  0
LINE
  8
0
 10
-137.992
 20
-12.0806
 11
-151.941
 21
-12.0806
  0
LINE
  8
0
 10
-151.941
 20
-12.0806
 11
-153.268
 21
-9.78355
  0
LINE
  8
0
 10
-153.268
 20
-9.78355
 11
-153.268
 21
9.78355
  0
LINE
  8
0
 10
-153.268
 20
9.78355
 11
-151.941
 21
12.0806
  0
LINE
  8
0
 10
203.501
 20
-13.9494
 11
207.284
 21
-7.39612
  0
LINE
  8
0
 10
207.284
 20
-7.39612
 11
207.284
 21
-20.5027
  0
LINE
  8
0
 10
207.284
 20
-20.5027
 11
203.501
 21
-13.9494
  0
LINE
  8
0
 10
-151.941
 20
-15.8183
 11
-137.992
 21
-15.8183
  0
LINE
  8
0
 10
-137.992
 20
-15.8183
 11
-131.017
 21
-27.8988
  0
LINE
  8
0
 10
-131.017
 20
-27.8988
 11
-137.992
 21
-39.9794
  0
LINE
  8
0
 10
-137.992
 20
-39.9794
 11
-151.941
 21
-39.9794
  0
LINE
  8
0
 10
-151.941
 20
-39.9794
 11
-157.609
 21
-30.1621
  0
LINE
  8
0
 10
-157.609
 20
-30.1621
 11
-153.268
 21
-30.1621
  0
LINE
  8
0
 10
-153.268
 20
-30.1621
 11
-153.268
 21
-18.1153
  0
LINE
  8
0
 10
-153.268
 20
-18.1153
 11
-151.941
 21
-15.8183
  0
LINE
  8
0
 10
289.834
 20
-15.8183
 11
296.908
 21
-15.8183
  0
LINE
  8
0
 10
296.908
 20
-15.8183
 11
303.883
 21
-27.8988
  0
LINE
  8
0
 10
303.883
 20
-27.8988
 11
296.908
 21
-39.9794
  0
LINE
  8
0
 10
296.908
 20
-39.9794
 11
282.959
 21
-39.9794
  0
LINE
  8
0
 10
282.959
 20
-39.9794
 11
277.291
 21
-30.1621
  0
LINE
  8
0
 10
277.291
 20
-30.1621
 11
289.834
 21
-30.1621
  0
LINE
  8
0
 10
289.834
 20
-30.1621
 11
289.834
 21
-15.8183
  0
LINE
  8
0
 10
279.722
 20
-41.8483
 11
272.747
 21
-53.9288
  0
LINE
  8
0
 10
272.747
 20
-53.9288
 11
258.798
 21
-53.9288
  0
LINE
  8
0
 10
258.798
 20
-53.9288
 11
251.823
 21
-41.8483
  0
LINE
  8
0
 10
251.823
 20
-41.8483
 11
258.57
 21
-30.1621
  0
LINE
  8
0
 10
258.57
 20
-30.1621
 11
254.254
 21
-30.1621
  0
LINE
  8
0
 10
254.254
 20
-30.1621
 11
248.586
 21
-39.9794
  0
LINE
  8
0
 10
248.586
 20
-39.9794
 11
234.636
 21
-39.9794
  0
LINE
  8
0
 10
234.636
 20
-39.9794
 11
228.968
 21
-30.1621
  0
LINE
  8
0
 10
228.968
 20
-30.1621
 11
224.652
 21
-30.1621
  0
LINE
  8
0
 10
224.652
 20
-30.1621
 11
231.399
 21
-41.8483
  0
LINE
  8
0
 10
231.399
 20
-41.8483
 11
224.425
 21
-53.9288
  0
LINE
  8
0
 10
224.425
 20
-53.9288
 11
210.475
 21
-53.9288
  0
LINE
  8
0
 10
210.475
 20
-53.9288
 11
203.501
 21
-41.8483
  0
LINE
  8
0
 10
203.501
 20
-41.8483
 11
210.248
 21
-30.1621
  0
LINE
  8
0
 10
210.248
 20
-30.1621
 11
272.975
 21
-30.1621
  0
LINE
  8
0
 10
272.975
 20
-30.1621
 11
279.722
 21
-41.8483
  0
LINE
  8
0
 10
-200.264
 20
-39.9794
 11
-205.932
 21
-30.1621
  0
LINE
  8
0
 10
-205.932
 20
-30.1621
 11
-180.646
 21
-30.1621
  0
LINE
  8
0
 10
-180.646
 20
-30.1621
 11
-186.314
 21
-39.9794
  0
LINE
  8
0
 10
-186.314
 20
-39.9794
 11
-200.264
 21
-39.9794
  0
LINE
  8
0
 10
-155.178
 20
-41.8483
 11
-162.153
 21
-53.9288
  0
LINE
  8
0
 10
-162.153
 20
-53.9288
 11
-176.103
 21
-53.9288
  0
LINE
  8
0
 10
-176.103
 20
-53.9288
 11
-183.077
 21
-41.8483
  0
LINE
  8
0
 10
-183.077
 20
-41.8483
 11
-176.33
 21
-30.1621
  0
LINE
  8
0
 10
-176.33
 20
-30.1621
 11
-161.925
 21
-30.1621
  0
LINE
  8
0
 10
-161.925
 20
-30.1621
 11
-155.178
 21
-41.8483
  0
ENDSEC
  0
SECTION
  2
OBJECTS
  0
DICTIONARY
  0
ENDSEC
  0
EOF
