  0
SECTION
  2
HEADER
  9
$ACADVER
  1
AC1009
  9
$LUNITS
 70
2
  9
$LUPREC
 70
4
  9
$LTSCALE
 40
1.0
  9
$EXTMIN
 10
-208.3459
 20
-85.7112
 30
0
  9
$EXTMAX
 10
333.3753
 20
85.7112
 30
0
  0
ENDSEC
  0
SECTION
  2
TABLES
  0
TABLE
  2
LTYPE
 70
256
  0
ENDTAB
  0
TABLE
  2
LAYER
 70
1
  0
LAYER
  2
LAYER_1
 70
64
 62
7
  6
CONTINUOUS
  0
ENDTAB
  0
TABLE
  2
STYLE
 70
6
  0
STYLE
  2
STANDARD
 70
0
 40
0
 50
0
 71
0
 41
0
 42
0
  3
TXT
  4
BIGFONT
  0
ENDTAB
  0
ENDSEC
  0
SECTION
  2
BLOCKS
  0
BLOCK
  8
LAYER_1
  2
AIGNBL01010002
 70
64
 10
0
 20
0
 30
0
  3
AIGNBL01010002
  0
LINE
  8
LAYER_1
 10
333.3753
 20
0
 11
332.7115
 21
7.4969
  0
LINE
  8
LAYER_1
 10
332.7115
 20
7.4969
 11
330.7171
 21
13.9371
  0
LINE
  8
LAYER_1
 10
330.7171
 20
13.9371
 11
327.0898
 21
20.6964
  0
LINE
  8
LAYER_1
 10
327.0898
 20
20.6964
 11
321.4333
 21
27.8009
  0
LINE
  8
LAYER_1
 10
321.4333
 20
27.8009
 11
312.9063
 21
35.3594
  0
LINE
  8
LAYER_1
 10
312.9063
 20
35.3594
 11
300.6952
 21
43.3472
  0
LINE
  8
LAYER_1
 10
300.6952
 20
43.3472
 11
284.9125
 21
51.4652
  0
LINE
  8
LAYER_1
 10
284.9125
 20
51.4652
 11
266.3338
 21
59.2753
  0
LINE
  8
LAYER_1
 10
266.3338
 20
59.2753
 11
245.6935
 21
66.4266
  0
LINE
  8
LAYER_1
 10
245.6935
 20
66.4266
 11
223.7007
 21
72.6037
  0
LINE
  8
LAYER_1
 10
223.7007
 20
72.6037
 11
185.7523
 21
80.0384
  0
LINE
  8
LAYER_1
 10
185.7523
 20
80.0384
 11
147.2296
 21
84.1037
  0
LINE
  8
LAYER_1
 10
147.2296
 20
84.1037
 11
108.8509
 21
85.688
  0
LINE
  8
LAYER_1
 10
108.8509
 20
85.688
 11
71.3402
 21
85.7112
  0
LINE
  8
LAYER_1
 10
71.3402
 20
85.7112
 11
35.1281
 21
84.9156
  0
LINE
  8
LAYER_1
 10
35.1281
 20
84.9156
 11
-0.9055
 21
83.3425
  0
LINE
  8
LAYER_1
 10
-0.9055
 20
83.3425
 11
-38.7325
 21
80.8421
  0
LINE
  8
LAYER_1
 10
-38.7325
 20
80.8421
 11
-79.5214
 21
77.3229
  0
LINE
  8
LAYER_1
 10
-79.5214
 20
77.3229
 11
-122.7851
 21
73.0584
  0
LINE
  8
LAYER_1
 10
-122.7851
 20
73.0584
 11
-166.4312
 21
68.618
  0
LINE
  8
LAYER_1
 10
-166.4312
 20
68.618
 11
-208.3459
 21
64.58
  0
ENDBLK
  0
BLOCK
  8
LAYER_1
  2
AIGNBL01010003
 70
64
 10
0
 20
0
 30
0
  3
AIGNBL01010003
  0
LINE
  8
LAYER_1
 10
333.3753
 20
0
 11
332.7115
 21
-7.4969
  0
LINE
  8
LAYER_1
 10
332.7115
 20
-7.4969
 11
330.7171
 21
-13.9371
  0
LINE
  8
LAYER_1
 10
330.7171
 20
-13.9371
 11
327.0898
 21
-20.6964
  0
LINE
  8
LAYER_1
 10
327.0898
 20
-20.6964
 11
321.4333
 21
-27.8009
  0
LINE
  8
LAYER_1
 10
321.4333
 20
-27.8009
 11
312.9063
 21
-35.3594
  0
LINE
  8
LAYER_1
 10
312.9063
 20
-35.3594
 11
300.6952
 21
-43.3472
  0
LINE
  8
LAYER_1
 10
300.6952
 20
-43.3472
 11
284.9125
 21
-51.4652
  0
LINE
  8
LAYER_1
 10
284.9125
 20
-51.4652
 11
266.3338
 21
-59.2753
  0
LINE
  8
LAYER_1
 10
266.3338
 20
-59.2753
 11
245.6935
 21
-66.4266
  0
LINE
  8
LAYER_1
 10
245.6935
 20
-66.4266
 11
223.7007
 21
-72.6037
  0
LINE
  8
LAYER_1
 10
223.7007
 20
-72.6037
 11
185.7523
 21
-80.0385
  0
LINE
  8
LAYER_1
 10
185.7523
 20
-80.0385
 11
147.2296
 21
-84.1037
  0
LINE
  8
LAYER_1
 10
147.2296
 20
-84.1037
 11
108.8509
 21
-85.6878
  0
LINE
  8
LAYER_1
 10
108.8509
 20
-85.6878
 11
71.3402
 21
-85.7112
  0
LINE
  8
LAYER_1
 10
71.3402
 20
-85.7112
 11
35.1281
 21
-84.9154
  0
LINE
  8
LAYER_1
 10
35.1281
 20
-84.9154
 11
-0.9055
 21
-83.3424
  0
LINE
  8
LAYER_1
 10
-0.9055
 20
-83.3424
 11
-38.7325
 21
-80.8423
  0
LINE
  8
LAYER_1
 10
-38.7325
 20
-80.8423
 11
-79.5214
 21
-77.3231
  0
LINE
  8
LAYER_1
 10
-79.5214
 20
-77.3231
 11
-122.7851
 21
-73.0584
  0
LINE
  8
LAYER_1
 10
-122.7851
 20
-73.0584
 11
-166.4312
 21
-68.618
  0
LINE
  8
LAYER_1
 10
-166.4312
 20
-68.618
 11
-208.3459
 21
-64.58
  0
ENDBLK
  0
BLOCK
  8
LAYER_1
  2
AIGNBL01010004
 70
64
 10
0
 20
0
 30
0
  3
AIGNBL01010004
  0
LINE
  8
LAYER_1
 10
-208.3459
 20
30.1625
 11
-153.2675
 21
30.1625
  0
ENDBLK
  0
BLOCK
  8
LAYER_1
  2
AIGNBL01010005
 70
64
 10
0
 20
0
 30
0
  3
AIGNBL01010005
  0
LINE
  8
LAYER_1
 10
-208.3459
 20
-30.1625
 11
-153.2675
 21
-30.1625
  0
ENDBLK
  0
BLOCK
  8
LAYER_1
  2
AIGNBL01010006
 70
64
 10
0
 20
0
 30
0
  3
AIGNBL01010006
  0
LINE
  8
LAYER_1
 10
-153.2675
 20
30.1625
 11
-153.2675
 21
-30.1625
  0
ENDBLK
  0
BLOCK
  8
LAYER_1
  2
AIGNBL01010007
 70
64
 10
0
 20
0
 30
0
  3
AIGNBL01010007
  0
LINE
  8
LAYER_1
 10
289.8338
 20
30.1625
 11
207.2838
 21
30.1625
  0
ENDBLK
  0
BLOCK
  8
LAYER_1
  2
AIGNBL01010008
 70
64
 10
0
 20
0
 30
0
  3
AIGNBL01010008
  0
LINE
  8
LAYER_1
 10
289.8338
 20
-30.1625
 11
207.2838
 21
-30.1625
  0
ENDBLK
  0
BLOCK
  8
LAYER_1
  2
AIGNBL01010009
 70
64
 10
0
 20
0
 30
0
  3
AIGNBL01010009
  0
LINE
  8
LAYER_1
 10
-208.3459
 20
64.58
 11
-208.3459
 21
30.1625
  0
ENDBLK
  0
BLOCK
  8
LAYER_1
  2
AIGNBL0101000A
 70
64
 10
0
 20
0
 30
0
  3
AIGNBL0101000A
  0
LINE
  8
LAYER_1
 10
289.8338
 20
30.1625
 11
289.8338
 21
-30.1625
  0
ENDBLK
  0
BLOCK
  8
LAYER_1
  2
AIGNBL0101000B
 70
64
 10
0
 20
0
 30
0
  3
AIGNBL0101000B
  0
LINE
  8
LAYER_1
 10
207.2838
 20
30.1625
 11
207.2838
 21
-30.1625
  0
ENDBLK
  0
BLOCK
  8
LAYER_1
  2
AIGNBL0101000C
 70
64
 10
0
 20
0
 30
0
  3
AIGNBL0101000C
  0
LINE
  8
LAYER_1
 10
-208.3459
 20
-64.58
 11
-208.3459
 21
-30.1625
  0
ENDBLK
  0
ENDSEC
  0
SECTION
  2
ENTITIES
  0
INSERT
  8
LAYER_1
  2
AIGNBL01010002
 10
0
 20
0
 30
0
  0
INSERT
  8
LAYER_1
  2
AIGNBL01010003
 10
0
 20
0
 30
0
  0
INSERT
  8
LAYER_1
  2
AIGNBL01010004
 10
0
 20
0
 30
0
  0
INSERT
  8
LAYER_1
  2
AIGNBL01010005
 10
0
 20
0
 30
0
  0
INSERT
  8
LAYER_1
  2
AIGNBL01010006
 10
0
 20
0
 30
0
  0
INSERT
  8
LAYER_1
  2
AIGNBL01010007
 10
0
 20
0
 30
0
  0
INSERT
  8
LAYER_1
  2
AIGNBL01010008
 10
0
 20
0
 30
0
  0
INSERT
  8
LAYER_1
  2
AIGNBL01010009
 10
0
 20
0
 30
0
  0
INSERT
  8
LAYER_1
  2
AIGNBL0101000A
 10
0
 20
0
 30
0
  0
INSERT
  8
LAYER_1
  2
AIGNBL0101000B
 10
0
 20
0
 30
0
  0
INSERT
  8
LAYER_1
  2
AIGNBL0101000C
 10
0
 20
0
 30
0
  0
ENDSEC
  0
EOF
