  0
SECTION
  2
HEADER
  9
$ACADVER
  1
AC1009
  9
$LUNITS
 70
2
  9
$LUPREC
 70
4
  9
$LTSCALE
 40
1.0
  9
$EXTMIN
 10
-342.9003
 20
-95.2355
 30
0
  9
$EXTMAX
 10
342.9003
 20
95.2355
 30
0
  0
ENDSEC
  0
SECTION
  2
TABLES
  0
TABLE
  2
LTYPE
 70
256
  0
ENDTAB
  0
TABLE
  2
LAYER
 70
1
  0
LAYER
  2
LAYER_1
 70
64
 62
7
  6
CONTINUOUS
  0
ENDTAB
  0
TABLE
  2
STYLE
 70
6
  0
STYLE
  2
STANDARD
 70
0
 40
0
 50
0
 71
0
 41
0
 42
0
  3
TXT
  4
BIGFONT
  0
ENDTAB
  0
ENDSEC
  0
SECTION
  2
BLOCKS
  0
BLOCK
  8
LAYER_1
  2
AIGNBL01010002
 70
64
 10
0
 20
0
 30
0
  3
AIGNBL01010002
  0
LINE
  8
LAYER_1
 10
-209.2027
 20
74.0665
 11
-238.8628
 21
71.5667
  0
LINE
  8
LAYER_1
 10
-238.8628
 20
71.5667
 11
-268.0488
 21
69.06
  0
LINE
  8
LAYER_1
 10
-268.0488
 20
69.06
 11
-296.354
 21
65.3604
  0
LINE
  8
LAYER_1
 10
-296.354
 20
65.3604
 11
-306.7756
 21
63.1458
  0
LINE
  8
LAYER_1
 10
-306.7756
 20
63.1458
 11
-316.918
 21
60.0511
  0
LINE
  8
LAYER_1
 10
-316.918
 20
60.0511
 11
-326.5089
 21
55.4064
  0
LINE
  8
LAYER_1
 10
-326.5089
 20
55.4064
 11
-334.5908
 21
48.2658
  0
LINE
  8
LAYER_1
 10
-334.5908
 20
48.2658
 11
-339.663
 21
38.4865
  0
LINE
  8
LAYER_1
 10
-339.663
 20
38.4865
 11
-341.9462
 21
27.5036
  0
LINE
  8
LAYER_1
 10
-341.9462
 20
27.5036
 11
-342.7489
 21
16.223
  0
LINE
  8
LAYER_1
 10
-342.7489
 20
16.223
 11
-342.8997
 21
4.9162
  0
ENDBLK
  0
BLOCK
  8
LAYER_1
  2
AIGNBL01010003
 70
64
 10
0
 20
0
 30
0
  3
AIGNBL01010003
  0
LINE
  8
LAYER_1
 10
342.9003
 20
0
 11
341.5805
 21
11.4649
  0
LINE
  8
LAYER_1
 10
341.5805
 20
11.4649
 11
337.5198
 21
21.7578
  0
LINE
  8
LAYER_1
 10
337.5198
 20
21.7578
 11
330.2765
 21
32.2265
  0
LINE
  8
LAYER_1
 10
330.2765
 20
32.2265
 11
318.6662
 21
42.9455
  0
LINE
  8
LAYER_1
 10
318.6662
 20
42.9455
 11
305.4491
 21
51.6013
  0
LINE
  8
LAYER_1
 10
305.4491
 20
51.6013
 11
288.9202
 21
60.1062
  0
LINE
  8
LAYER_1
 10
288.9202
 20
60.1062
 11
269.7324
 21
68.1736
  0
LINE
  8
LAYER_1
 10
269.7324
 20
68.1736
 11
248.5412
 21
75.5161
  0
LINE
  8
LAYER_1
 10
248.5412
 20
75.5161
 11
226.0031
 21
81.8462
  0
LINE
  8
LAYER_1
 10
226.0031
 20
81.8462
 11
187.1304
 21
89.4631
  0
LINE
  8
LAYER_1
 10
187.1304
 20
89.4631
 11
147.888
 21
93.606
  0
LINE
  8
LAYER_1
 10
147.888
 20
93.606
 11
109.0132
 21
95.2116
  0
LINE
  8
LAYER_1
 10
109.0132
 20
95.2116
 11
71.2242
 21
95.2355
  0
LINE
  8
LAYER_1
 10
71.2242
 20
95.2355
 11
34.8191
 21
94.4356
  0
LINE
  8
LAYER_1
 10
34.8191
 20
94.4356
 11
-1.4275
 21
92.8532
  0
LINE
  8
LAYER_1
 10
-1.4275
 20
92.8532
 11
-39.4613
 21
90.3392
  0
LINE
  8
LAYER_1
 10
-39.4613
 20
90.3392
 11
-80.4132
 21
86.8061
  0
LINE
  8
LAYER_1
 10
-80.4132
 20
86.8061
 11
-123.7475
 21
82.5345
  0
LINE
  8
LAYER_1
 10
-123.7475
 20
82.5345
 11
-167.3838
 21
78.0953
  0
LINE
  8
LAYER_1
 10
-167.3838
 20
78.0953
 11
-209.2027
 21
74.0665
  0
ENDBLK
  0
BLOCK
  8
LAYER_1
  2
AIGNBL01010004
 70
64
 10
0
 20
0
 30
0
  3
AIGNBL01010004
  0
LINE
  8
LAYER_1
 10
-209.2027
 20
-74.0665
 11
-238.8628
 21
-71.5667
  0
LINE
  8
LAYER_1
 10
-238.8628
 20
-71.5667
 11
-268.0488
 21
-69.06
  0
LINE
  8
LAYER_1
 10
-268.0488
 20
-69.06
 11
-296.354
 21
-65.3604
  0
LINE
  8
LAYER_1
 10
-296.354
 20
-65.3604
 11
-306.7756
 21
-63.1458
  0
LINE
  8
LAYER_1
 10
-306.7756
 20
-63.1458
 11
-316.918
 21
-60.0511
  0
LINE
  8
LAYER_1
 10
-316.918
 20
-60.0511
 11
-326.5089
 21
-55.4064
  0
LINE
  8
LAYER_1
 10
-326.5089
 20
-55.4064
 11
-334.5908
 21
-48.2658
  0
LINE
  8
LAYER_1
 10
-334.5908
 20
-48.2658
 11
-339.663
 21
-38.4865
  0
LINE
  8
LAYER_1
 10
-339.663
 20
-38.4865
 11
-341.9462
 21
-27.5036
  0
LINE
  8
LAYER_1
 10
-341.9462
 20
-27.5036
 11
-342.7489
 21
-16.223
  0
LINE
  8
LAYER_1
 10
-342.7489
 20
-16.223
 11
-342.8997
 21
-4.9162
  0
ENDBLK
  0
BLOCK
  8
LAYER_1
  2
AIGNBL01010005
 70
64
 10
0
 20
0
 30
0
  3
AIGNBL01010005
  0
LINE
  8
LAYER_1
 10
333.3753
 20
0
 11
332.7115
 21
7.4969
  0
LINE
  8
LAYER_1
 10
332.7115
 20
7.4969
 11
330.7171
 21
13.9371
  0
LINE
  8
LAYER_1
 10
330.7171
 20
13.9371
 11
327.0898
 21
20.6964
  0
LINE
  8
LAYER_1
 10
327.0898
 20
20.6964
 11
321.4333
 21
27.8009
  0
LINE
  8
LAYER_1
 10
321.4333
 20
27.8009
 11
312.9063
 21
35.3594
  0
LINE
  8
LAYER_1
 10
312.9063
 20
35.3594
 11
300.6952
 21
43.3472
  0
LINE
  8
LAYER_1
 10
300.6952
 20
43.3472
 11
284.9125
 21
51.4652
  0
LINE
  8
LAYER_1
 10
284.9125
 20
51.4652
 11
266.3338
 21
59.2753
  0
LINE
  8
LAYER_1
 10
266.3338
 20
59.2753
 11
245.6935
 21
66.4266
  0
LINE
  8
LAYER_1
 10
245.6935
 20
66.4266
 11
223.7007
 21
72.6037
  0
LINE
  8
LAYER_1
 10
223.7007
 20
72.6037
 11
185.7523
 21
80.0384
  0
LINE
  8
LAYER_1
 10
185.7523
 20
80.0384
 11
147.2296
 21
84.1037
  0
LINE
  8
LAYER_1
 10
147.2296
 20
84.1037
 11
108.8509
 21
85.688
  0
LINE
  8
LAYER_1
 10
108.8509
 20
85.688
 11
71.3402
 21
85.7112
  0
LINE
  8
LAYER_1
 10
71.3402
 20
85.7112
 11
35.1281
 21
84.9156
  0
LINE
  8
LAYER_1
 10
35.1281
 20
84.9156
 11
-0.9055
 21
83.3425
  0
LINE
  8
LAYER_1
 10
-0.9055
 20
83.3425
 11
-38.7325
 21
80.8421
  0
LINE
  8
LAYER_1
 10
-38.7325
 20
80.8421
 11
-79.5214
 21
77.3229
  0
LINE
  8
LAYER_1
 10
-79.5214
 20
77.3229
 11
-122.7851
 21
73.0584
  0
LINE
  8
LAYER_1
 10
-122.7851
 20
73.0584
 11
-166.4312
 21
68.618
  0
LINE
  8
LAYER_1
 10
-166.4312
 20
68.618
 11
-208.3459
 21
64.58
  0
ENDBLK
  0
BLOCK
  8
LAYER_1
  2
AIGNBL01010006
 70
64
 10
0
 20
0
 30
0
  3
AIGNBL01010006
  0
LINE
  8
LAYER_1
 10
333.3753
 20
0
 11
332.7115
 21
-7.4969
  0
LINE
  8
LAYER_1
 10
332.7115
 20
-7.4969
 11
330.7171
 21
-13.9371
  0
LINE
  8
LAYER_1
 10
330.7171
 20
-13.9371
 11
327.0898
 21
-20.6964
  0
LINE
  8
LAYER_1
 10
327.0898
 20
-20.6964
 11
321.4333
 21
-27.8009
  0
LINE
  8
LAYER_1
 10
321.4333
 20
-27.8009
 11
312.9063
 21
-35.3594
  0
LINE
  8
LAYER_1
 10
312.9063
 20
-35.3594
 11
300.6952
 21
-43.3472
  0
LINE
  8
LAYER_1
 10
300.6952
 20
-43.3472
 11
284.9125
 21
-51.4652
  0
LINE
  8
LAYER_1
 10
284.9125
 20
-51.4652
 11
266.3338
 21
-59.2753
  0
LINE
  8
LAYER_1
 10
266.3338
 20
-59.2753
 11
245.6935
 21
-66.4266
  0
LINE
  8
LAYER_1
 10
245.6935
 20
-66.4266
 11
223.7007
 21
-72.6037
  0
LINE
  8
LAYER_1
 10
223.7007
 20
-72.6037
 11
185.7523
 21
-80.0385
  0
LINE
  8
LAYER_1
 10
185.7523
 20
-80.0385
 11
147.2296
 21
-84.1037
  0
LINE
  8
LAYER_1
 10
147.2296
 20
-84.1037
 11
108.8509
 21
-85.6878
  0
LINE
  8
LAYER_1
 10
108.8509
 20
-85.6878
 11
71.3402
 21
-85.7112
  0
LINE
  8
LAYER_1
 10
71.3402
 20
-85.7112
 11
35.1281
 21
-84.9154
  0
LINE
  8
LAYER_1
 10
35.1281
 20
-84.9154
 11
-0.9055
 21
-83.3424
  0
LINE
  8
LAYER_1
 10
-0.9055
 20
-83.3424
 11
-38.7325
 21
-80.8423
  0
LINE
  8
LAYER_1
 10
-38.7325
 20
-80.8423
 11
-79.5214
 21
-77.3231
  0
LINE
  8
LAYER_1
 10
-79.5214
 20
-77.3231
 11
-122.7851
 21
-73.0584
  0
LINE
  8
LAYER_1
 10
-122.7851
 20
-73.0584
 11
-166.4312
 21
-68.618
  0
LINE
  8
LAYER_1
 10
-166.4312
 20
-68.618
 11
-208.3459
 21
-64.58
  0
ENDBLK
  0
BLOCK
  8
LAYER_1
  2
AIGNBL01010007
 70
64
 10
0
 20
0
 30
0
  3
AIGNBL01010007
  0
LINE
  8
LAYER_1
 10
342.9003
 20
0
 11
341.5805
 21
-11.4649
  0
LINE
  8
LAYER_1
 10
341.5805
 20
-11.4649
 11
337.5198
 21
-21.7578
  0
LINE
  8
LAYER_1
 10
337.5198
 20
-21.7578
 11
330.2765
 21
-32.2265
  0
LINE
  8
LAYER_1
 10
330.2765
 20
-32.2265
 11
318.6662
 21
-42.9455
  0
LINE
  8
LAYER_1
 10
318.6662
 20
-42.9455
 11
305.4491
 21
-51.6013
  0
LINE
  8
LAYER_1
 10
305.4491
 20
-51.6013
 11
288.9202
 21
-60.1062
  0
LINE
  8
LAYER_1
 10
288.9202
 20
-60.1062
 11
269.7324
 21
-68.1736
  0
LINE
  8
LAYER_1
 10
269.7324
 20
-68.1736
 11
248.5412
 21
-75.5161
  0
LINE
  8
LAYER_1
 10
248.5412
 20
-75.5161
 11
226.0031
 21
-81.8462
  0
LINE
  8
LAYER_1
 10
226.0031
 20
-81.8462
 11
187.1304
 21
-89.4633
  0
LINE
  8
LAYER_1
 10
187.1304
 20
-89.4633
 11
147.888
 21
-93.606
  0
LINE
  8
LAYER_1
 10
147.888
 20
-93.606
 11
109.0132
 21
-95.2114
  0
LINE
  8
LAYER_1
 10
109.0132
 20
-95.2114
 11
71.2242
 21
-95.2355
  0
LINE
  8
LAYER_1
 10
71.2242
 20
-95.2355
 11
34.8191
 21
-94.4356
  0
LINE
  8
LAYER_1
 10
34.8191
 20
-94.4356
 11
-1.4275
 21
-92.8532
  0
LINE
  8
LAYER_1
 10
-1.4275
 20
-92.8532
 11
-39.4613
 21
-90.339
  0
LINE
  8
LAYER_1
 10
-39.4613
 20
-90.339
 11
-80.4132
 21
-86.8061
  0
LINE
  8
LAYER_1
 10
-80.4132
 20
-86.8061
 11
-123.7475
 21
-82.5345
  0
LINE
  8
LAYER_1
 10
-123.7475
 20
-82.5345
 11
-167.3838
 21
-78.0951
  0
LINE
  8
LAYER_1
 10
-167.3838
 20
-78.0951
 11
-209.2027
 21
-74.0665
  0
ENDBLK
  0
BLOCK
  8
LAYER_1
  2
AIGNBL01010008
 70
64
 10
0
 20
0
 30
0
  3
AIGNBL01010008
  0
LINE
  8
LAYER_1
 10
-342.8997
 20
0
 11
-342.9003
 21
2.7592
  0
LINE
  8
LAYER_1
 10
-342.9003
 20
2.7592
 11
-342.8997
 21
4.9162
  0
ENDBLK
  0
BLOCK
  8
LAYER_1
  2
AIGNBL01010009
 70
64
 10
0
 20
0
 30
0
  3
AIGNBL01010009
  0
LINE
  8
LAYER_1
 10
-342.8997
 20
-4.9162
 11
-342.9002
 21
-2.1694
  0
LINE
  8
LAYER_1
 10
-342.9002
 20
-2.1694
 11
-342.8997
 21
0
  0
ENDBLK
  0
BLOCK
  8
LAYER_1
  2
AIGNBL0101000A
 70
64
 10
0
 20
0
 30
0
  3
AIGNBL0101000A
  0
LINE
  8
LAYER_1
 10
-208.3459
 20
-64.58
 11
-208.3459
 21
64.58
  0
ENDBLK
  0
BLOCK
  8
LAYER_1
  2
AIGNBL0101000B
 70
64
 10
0
 20
0
 30
0
  3
AIGNBL0101000B
  0
ARC
  8
LAYER_1
 10
-226.2925
 20
20.6375
 40
3.175
 50
359.9997748
 51
90.00022516
  0
ARC
  8
LAYER_1
 10
-226.2925
 20
20.6375
 40
3.175
 50
90.00022518
 51
179.9997748
  0
ARC
  8
LAYER_1
 10
-226.2925
 20
20.6375
 40
3.175
 50
180.0002252
 51
269.9997748
  0
ARC
  8
LAYER_1
 10
-226.2925
 20
20.6375
 40
3.175
 50
269.9997748
 51
0.0002251705624
  0
ENDBLK
  0
BLOCK
  8
LAYER_1
  2
AIGNBL0101000C
 70
64
 10
0
 20
0
 30
0
  3
AIGNBL0101000C
  0
ARC
  8
LAYER_1
 10
-226.2925
 20
-20.6375
 40
3.175
 50
359.9997748
 51
90.00022516
  0
ARC
  8
LAYER_1
 10
-226.2925
 20
-20.6375
 40
3.175
 50
90.00022516
 51
179.9997748
  0
ARC
  8
LAYER_1
 10
-226.2925
 20
-20.6375
 40
3.175
 50
180.0002252
 51
269.9997748
  0
ARC
  8
LAYER_1
 10
-226.2925
 20
-20.6375
 40
3.175
 50
269.9997748
 51
0.0002251705623
  0
ENDBLK
  0
ENDSEC
  0
SECTION
  2
ENTITIES
  0
INSERT
  8
LAYER_1
  2
AIGNBL01010002
 10
0
 20
0
 30
0
  0
INSERT
  8
LAYER_1
  2
AIGNBL01010003
 10
0
 20
0
 30
0
  0
INSERT
  8
LAYER_1
  2
AIGNBL01010004
 10
0
 20
0
 30
0
  0
INSERT
  8
LAYER_1
  2
AIGNBL01010005
 10
0
 20
0
 30
0
  0
INSERT
  8
LAYER_1
  2
AIGNBL01010006
 10
0
 20
0
 30
0
  0
INSERT
  8
LAYER_1
  2
AIGNBL01010007
 10
0
 20
0
 30
0
  0
INSERT
  8
LAYER_1
  2
AIGNBL01010008
 10
0
 20
0
 30
0
  0
INSERT
  8
LAYER_1
  2
AIGNBL01010009
 10
0
 20
0
 30
0
  0
INSERT
  8
LAYER_1
  2
AIGNBL0101000A
 10
0
 20
0
 30
0
  0
INSERT
  8
LAYER_1
  2
AIGNBL0101000B
 10
0
 20
0
 30
0
  0
INSERT
  8
LAYER_1
  2
AIGNBL0101000C
 10
0
 20
0
 30
0
  0
ENDSEC
  0
EOF
