  0
SECTION
  2
HEADER
  9
$ACADVER
  1
AC1009
  9
$DWGCODEPAGE
  3
ansi_1252
  9
$INSBASE
 10
0.0
 20
0.0
 30
0.0
  9
$EXTMIN
 10
1.000000000000000E+20
 20
1.000000000000000E+20
 30
1.000000000000000E+20
  9
$EXTMAX
 10
-1.000000000000000E+20
 20
-1.000000000000000E+20
 30
-1.000000000000000E+20
  9
$LIMMIN
 10
0.0
 20
0.0
  9
$LIMMAX
 10
12.0
 20
9.0
  9
$ORTHOMODE
 70
     0
  9
$REGENMODE
 70
     1
  9
$FILLMODE
 70
     1
  9
$QTEXTMODE
 70
     0
  9
$MIRRTEXT
 70
     1
  9
$DRAGMODE
 70
     2
  9
$LTSCALE
 40
1.0
  9
$OSMODE
 70
    37
  9
$ATTMODE
 70
     1
  9
$TEXTSIZE
 40
0.2
  9
$TRACEWID
 40
0.05
  9
$TEXTSTYLE
  7
STANDARD
  9
$CLAYER
  8
0
  9
$CELTYPE
  6
BYLAYER
  9
$CECOLOR
 62
   256
  9
$DIMSCALE
 40
1.0
  9
$DIMASZ
 40
0.18
  9
$DIMEXO
 40
0.0625
  9
$DIMDLI
 40
0.38
  9
$DIMRND
 40
0.0
  9
$DIMDLE
 40
0.0
  9
$DIMEXE
 40
0.18
  9
$DIMTP
 40
0.0
  9
$DIMTM
 40
0.0
  9
$DIMTXT
 40
0.18
  9
$DIMCEN
 40
0.09
  9
$DIMTSZ
 40
0.0
  9
$DIMTOL
 70
     0
  9
$DIMLIM
 70
     0
  9
$DIMTIH
 70
     1
  9
$DIMTOH
 70
     1
  9
$DIMSE1
 70
     0
  9
$DIMSE2
 70
     0
  9
$DIMTAD
 70
     0
  9
$DIMZIN
 70
     0
  9
$DIMBLK
  1

  9
$DIMASO
 70
     1
  9
$DIMSHO
 70
     1
  9
$DIMPOST
  1

  9
$DIMAPOST
  1

  9
$DIMALT
 70
     0
  9
$DIMALTD
 70
     2
  9
$DIMALTF
 40
25.4
  9
$DIMLFAC
 40
1.0
  9
$DIMTOFL
 70
     0
  9
$DIMTVP
 40
0.0
  9
$DIMTIX
 70
     0
  9
$DIMSOXD
 70
     0
  9
$DIMSAH
 70
     0
  9
$DIMBLK1
  1

  9
$DIMBLK2
  1

  9
$DIMSTYLE
  2
STANDARD
  9
$DIMCLRD
 70
     0
  9
$DIMCLRE
 70
     0
  9
$DIMCLRT
 70
     0
  9
$DIMTFAC
 40
1.0
  9
$DIMGAP
 40
0.09
  9
$LUNITS
 70
     2
  9
$LUPREC
 70
     4
  9
$SKETCHINC
 40
0.1
  9
$FILLETRAD
 40
0.5
  9
$AUNITS
 70
     0
  9
$AUPREC
 70
     0
  9
$MENU
  1
.
  9
$ELEVATION
 40
0.0
  9
$PELEVATION
 40
0.0
  9
$THICKNESS
 40
0.0
  9
$LIMCHECK
 70
     0
  9
$CHAMFERA
 40
0.0
  9
$CHAMFERB
 40
0.0
  9
$SKPOLY
 70
     0
  9
$TDCREATE
 40
2457739.032824074
  9
$TDUPDATE
 40
2457739.032824074
  9
$TDINDWG
 40
0.0000000116
  9
$TDUSRTIMER
 40
0.0000000116
  9
$USRTIMER
 70
     1
  9
$ANGBASE
 50
0.0
  9
$ANGDIR
 70
     0
  9
$PDMODE
 70
     0
  9
$PDSIZE
 40
0.0
  9
$PLINEWID
 40
0.0
  9
$COORDS
 70
     1
  9
$SPLFRAME
 70
     0
  9
$SPLINETYPE
 70
     6
  9
$SPLINESEGS
 70
     8
  9
$ATTDIA
 70
     0
  9
$ATTREQ
 70
     1
  9
$HANDLING
 70
     1
  9
$HANDSEED
  5
10000092
  9
$SURFTAB1
 70
     6
  9
$SURFTAB2
 70
     6
  9
$SURFTYPE
 70
     6
  9
$SURFU
 70
     6
  9
$SURFV
 70
     6
  9
$UCSNAME
  2

  9
$UCSORG
 10
0.0
 20
0.0
 30
0.0
  9
$UCSXDIR
 10
1.0
 20
0.0
 30
0.0
  9
$UCSYDIR
 10
0.0
 20
1.0
 30
0.0
  9
$PUCSNAME
  2

  9
$PUCSORG
 10
0.0
 20
0.0
 30
0.0
  9
$PUCSXDIR
 10
1.0
 20
0.0
 30
0.0
  9
$PUCSYDIR
 10
0.0
 20
1.0
 30
0.0
  9
$USERI1
 70
     0
  9
$USERI2
 70
     0
  9
$USERI3
 70
     0
  9
$USERI4
 70
     0
  9
$USERI5
 70
     0
  9
$USERR1
 40
0.0
  9
$USERR2
 40
0.0
  9
$USERR3
 40
0.0
  9
$USERR4
 40
0.0
  9
$USERR5
 40
0.0
  9
$WORLDVIEW
 70
     1
  9
$SHADEDGE
 70
     3
  9
$SHADEDIF
 70
    70
  9
$TILEMODE
 70
     1
  9
$MAXACTVP
 70
    64
  9
$PLIMCHECK
 70
     0
  9
$PEXTMIN
 10
1.000000000000000E+20
 20
1.000000000000000E+20
 30
1.000000000000000E+20
  9
$PEXTMAX
 10
-1.000000000000000E+20
 20
-1.000000000000000E+20
 30
-1.000000000000000E+20
  9
$PLIMMIN
 10
0.0
 20
0.0
  9
$PLIMMAX
 10
12.0
 20
9.0
  9
$UNITMODE
 70
     0
  9
$VISRETAIN
 70
     1
  9
$PLINEGEN
 70
     0
  9
$PSLTSCALE
 70
     1
  0
ENDSEC
  0
SECTION
  2
TABLES
  0
TABLE
  2
VPORT
 70
     1
  0
VPORT
  2
*ACTIVE
 70
     0
 10
0.0
 20
0.0
 11
1.0
 21
1.0
 12
10.42990654205607
 22
4.5
 13
0.0
 23
0.0
 14
0.5
 24
0.5
 15
0.5
 25
0.5
 16
0.0
 26
0.0
 36
1.0
 17
0.0
 27
0.0
 37
0.0
 40
9.0
 41
1.972972972850329
 42
50.0
 43
0.0
 44
0.0
 50
0.0
 51
0.0
 71
     0
 72
   100
 73
     1
 74
     3
 75
     0
 76
     0
 77
     0
 78
     0
  0
ENDTAB
  0
TABLE
  2
LTYPE
 70
     6
  0
LTYPE
  2
CONTINUOUS
 70
     0
  3
Solid line
 72
    65
 73
     0
 40
0.0
  0
LTYPE
  2
ONS_PHANTOM
 70
     0
  3
Onshape Phantom line ______ __ __ ______
 72
    65
 73
     6
 40
1.275
 49
0.75
 49
-0.075
 49
0.15
 49
-0.075
 49
0.15
 49
-0.075
  0
LTYPE
  2
CENTER
 70
     0
  3
Center line ____ _ ____ _ ____ _
 72
    65
 73
     4
 40
0.7199999999999999
 49
0.45
 49
-0.09
 49
0.09
 49
-0.09
  0
LTYPE
  2
DASHED
 70
     0
  3
Dashed line __ __ __ __ __
 72
    65
 73
     2
 40
0.75
 49
0.5
 49
-0.25
  0
LTYPE
  2
ONS_DASHDOT
 70
     0
  3
Onshape Dashed with Dot _ . ____ . ____
 72
    65
 73
     4
 40
0.71
 49
0.5
 49
-0.1
 49
0.01
 49
-0.1
  0
LTYPE
  2
HIDDEN
 70
     0
  3
Hidden line ____ ____ ____ ____ 
 72
    65
 73
     2
 40
0.375
 49
0.25
 49
-0.125
  0
ENDTAB
  0
TABLE
  2
LAYER
 70
    25
  0
LAYER
  2
0
 70
     0
 62
     7
  6
CONTINUOUS
  0
LAYER
  2
SECTION_CUTTING_LINE
 70
     0
 62
     7
  6
ONS_PHANTOM
  0
LAYER
  2
DETAIL_VIEW_BORDER
 70
     0
 62
     7
  6
CONTINUOUS
  0
LAYER
  2
DETAIL_VIEW_PARENT_BORDER
 70
     0
 62
     7
  6
ONS_PHANTOM
  0
LAYER
  2
TEXT
 70
     0
 62
     7
  6
CONTINUOUS
  0
LAYER
  2
SKETCHED_GEOMETRY
 70
     0
 62
     7
  6
CONTINUOUS
  0
LAYER
  2
CENTERLINES
 70
     0
 62
     7
  6
CENTER
  0
LAYER
  2
CENTERMARKS
 70
     0
 62
     7
  6
CONTINUOUS
  0
LAYER
  2
TABLES
 70
     0
 62
     7
  6
CONTINUOUS
  0
LAYER
  2
IMAGES
 70
     0
 62
     7
  6
CONTINUOUS
  0
LAYER
  2
ANNOTATIONS
 70
     0
 62
     7
  6
CONTINUOUS
  0
LAYER
  2
SIDE_THREAD_SYMBOLS_SOLID
 70
     0
 62
     7
  6
CONTINUOUS
  0
LAYER
  2
SIDE_THREAD_SYMBOLS_DASHED
 70
     0
 62
     7
  6
CONTINUOUS
  0
LAYER
  2
TOP_THREAD_SYMBOLS
 70
     0
 62
     7
  6
CONTINUOUS
  0
LAYER
  2
EXPLODE_LINES
 70
     0
 62
     7
  6
CONTINUOUS
  0
LAYER
  2
BREAK_LINES
 70
     0
 62
     7
  6
CONTINUOUS
  0
LAYER
  2
SHEETMETAL_BEND_LINES
 70
     0
 62
     7
  6
CONTINUOUS
  0
LAYER
  2
SHEETMETAL_CUT_LINES
 70
     0
 62
     7
  6
CONTINUOUS
  0
LAYER
  2
HIDDEN
 70
     0
 62
    -7
  6
HIDDEN
  0
LAYER
  2
VISIBLE
 70
     0
 62
     7
  6
CONTINUOUS
  0
LAYER
  2
TANGENT_LINES
 70
     0
 62
     7
  6
CONTINUOUS
  0
LAYER
  2
TANGENT_HIDDEN
 70
     0
 62
    -7
  6
HIDDEN
  0
LAYER
  2
INVISIBLE_LINES
 70
     0
 62
    -7
  6
CONTINUOUS
  0
LAYER
  2
VIEW_HATCHES
 70
     0
 62
     7
  6
CONTINUOUS
  0
LAYER
  2
SECTION_JOG_LINES
 70
     0
 62
    -7
  6
CONTINUOUS
  0
ENDTAB
  0
TABLE
  2
STYLE
 70
     2
  0
STYLE
  2
STANDARD
 70
     0
 40
0.0
 41
1.0
 50
0.0
 71
     0
 42
0.2
  3
txt
  4

  0
STYLE
  2
TTFSTYLE
 70
     0
 40
0.0
 41
1.0
 50
0.0
 71
     0
 42
0.2
  3
Verdana.ttf
  4

  0
ENDTAB
  0
TABLE
  2
VIEW
 70
     0
  0
ENDTAB
  0
TABLE
  2
UCS
 70
     0
  0
ENDTAB
  0
TABLE
  2
APPID
 70
     1
  0
APPID
  2
ACAD
 70
     0
  0
ENDTAB
  0
TABLE
  2
DIMSTYLE
 70
     1
  0
DIMSTYLE
  2
STANDARD
 70
     0
  3

  4

  5

  6

  7

 40
1.0
 41
0.18
 42
0.0625
 43
0.38
 44
0.18
 45
0.0
 46
0.0
 47
0.0
 48
0.0
140
0.18
141
0.09
142
0.0
143
25.4
144
1.0
145
0.0
146
1.0
147
0.09
 71
     0
 72
     0
 73
     1
 74
     1
 75
     0
 76
     0
 77
     0
 78
     0
170
     0
171
     2
172
     0
173
     0
174
     0
175
     0
176
     0
177
     0
178
     0
  0
ENDTAB
  0
ENDSEC
  0
SECTION
  2
BLOCKS
  0
BLOCK
  8
0
  2
$MODEL_SPACE
 70
     0
 10
0.0
 20
0.0
 30
0.0
  3
$MODEL_SPACE
  1

  0
ENDBLK
  5
21
  8
0
  0
BLOCK
 67
     1
  8
0
  2
$PAPER_SPACE
 70
     0
 10
0.0
 20
0.0
 30
0.0
  3
$PAPER_SPACE
  1

  0
ENDBLK
  5
1D
 67
     1
  8
0
  0
ENDSEC
  0
SECTION
  2
ENTITIES
  0
LINE
  5
F4417
  8
VISIBLE
 10
-8.35936517191845
 20
2.904974827666496
 30
0.0
 11
-8.35936517191845
 21
-2.904974827666497
 31
0.0
  0
POLYLINE
  5
F4418
  8
VISIBLE
 10
0.0
 20
0.0
 30
0.0
 66
     1
 70
     8
  0
VERTEX
  5
10000043
  8
VISIBLE
 10
-8.35936517191848
 20
2.904974827666842
 30
0.0
 70
    32
  0
VERTEX
  5
10000044
  8
VISIBLE
 10
-9.036160962901196
 20
2.847326470178287
 30
0.0
 70
    32
  0
VERTEX
  5
10000045
  8
VISIBLE
 10
-9.709051123816375
 20
2.792965194533457
 30
0.0
 70
    32
  0
VERTEX
  5
10000046
  8
VISIBLE
 10
-10.37377946042851
 20
2.735963627008646
 30
0.0
 70
    32
  0
VERTEX
  5
10000047
  8
VISIBLE
 10
-11.02639380305101
 20
2.667573375291098
 30
0.0
 70
    32
  0
VERTEX
  5
10000048
  8
VISIBLE
 10
-11.66749712064619
 20
2.57324803374243
 30
0.0
 70
    32
  0
VERTEX
  5
10000049
  8
VISIBLE
 10
-11.90257288435103
 20
2.526834365482227
 30
0.0
 70
    32
  0
VERTEX
  5
1000004A
  8
VISIBLE
 10
-12.13575311918164
 20
2.471163846549826
 30
0.0
 70
    32
  0
VERTEX
  5
1000004B
  8
VISIBLE
 10
-12.36467319704757
 20
2.403690863781295
 30
0.0
 70
    32
  0
VERTEX
  5
1000004C
  8
VISIBLE
 10
-12.58785246140314
 20
2.319904148174275
 30
0.0
 70
    32
  0
VERTEX
  5
1000004D
  8
VISIBLE
 10
-12.80301685790639
 20
2.212698714362343
 30
0.0
 70
    32
  0
VERTEX
  5
1000004E
  8
VISIBLE
 10
-13.0014267915066
 20
2.07515455798297
 30
0.0
 70
    32
  0
VERTEX
  5
1000004F
  8
VISIBLE
 10
-13.17287699668095
 20
1.900221534164008
 30
0.0
 70
    32
  0
VERTEX
  5
10000050
  8
VISIBLE
 10
-13.30300209563184
 20
1.691112451045931
 30
0.0
 70
    32
  0
VERTEX
  5
10000051
  8
VISIBLE
 10
-13.39082440810326
 20
1.45487864655093
 30
0.0
 70
    32
  0
VERTEX
  5
10000052
  8
VISIBLE
 10
-13.44463840957683
 20
1.208433565919321
 30
0.0
 70
    32
  0
VERTEX
  5
10000053
  8
VISIBLE
 10
-13.47570811123864
 20
0.9561359010345738
 30
0.0
 70
    32
  0
VERTEX
  5
10000054
  8
VISIBLE
 10
-13.49171428688713
 20
0.7022316302547548
 30
0.0
 70
    32
  0
VERTEX
  5
10000055
  8
VISIBLE
 10
-13.49837898741393
 20
0.4479828821796386
 30
0.0
 70
    32
  0
VERTEX
  5
10000056
  8
VISIBLE
 10
-13.5
 20
0.1935529439267769
 30
0.0
 70
    32
  0
SEQEND
  5
10000059
  8
VISIBLE
  0
POLYLINE
  5
F4419
  8
VISIBLE
 10
0.0
 20
0.0
 30
0.0
 66
     1
 70
     8
  0
VERTEX
  5
1000005A
  8
VISIBLE
 10
-8.359365171918475
 20
-2.904974827666843
 30
0.0
 70
    32
  0
VERTEX
  5
1000005B
  8
VISIBLE
 10
-9.0361609629012
 20
-2.847326470178291
 30
0.0
 70
    32
  0
VERTEX
  5
1000005C
  8
VISIBLE
 10
-9.709051123816382
 20
-2.792965194533457
 30
0.0
 70
    32
  0
VERTEX
  5
1000005D
  8
VISIBLE
 10
-10.37377946042852
 20
-2.735963627008649
 30
0.0
 70
    32
  0
VERTEX
  5
1000005E
  8
VISIBLE
 10
-11.02639380305103
 20
-2.667573375291092
 30
0.0
 70
    32
  0
VERTEX
  5
1000005F
  8
VISIBLE
 10
-11.66749712064621
 20
-2.573248033742433
 30
0.0
 70
    32
  0
VERTEX
  5
10000060
  8
VISIBLE
 10
-11.90257288435105
 20
-2.526834365482219
 30
0.0
 70
    32
  0
VERTEX
  5
10000061
  8
VISIBLE
 10
-12.13575311918166
 20
-2.471163846549818
 30
0.0
 70
    32
  0
VERTEX
  5
10000062
  8
VISIBLE
 10
-12.36467319704759
 20
-2.403690863781287
 30
0.0
 70
    32
  0
VERTEX
  5
10000063
  8
VISIBLE
 10
-12.58785246140316
 20
-2.31990414817426
 30
0.0
 70
    32
  0
VERTEX
  5
10000064
  8
VISIBLE
 10
-12.8030168579064
 20
-2.212698714362331
 30
0.0
 70
    32
  0
VERTEX
  5
10000065
  8
VISIBLE
 10
-13.00142679150662
 20
-2.075154557982958
 30
0.0
 70
    32
  0
VERTEX
  5
10000066
  8
VISIBLE
 10
-13.17287699668096
 20
-1.900221534163989
 30
0.0
 70
    32
  0
VERTEX
  5
10000067
  8
VISIBLE
 10
-13.30300209563186
 20
-1.691112451045909
 30
0.0
 70
    32
  0
VERTEX
  5
10000068
  8
VISIBLE
 10
-13.39082440810327
 20
-1.454878646550906
 30
0.0
 70
    32
  0
VERTEX
  5
10000069
  8
VISIBLE
 10
-13.44463840957684
 20
-1.208433565919295
 30
0.0
 70
    32
  0
VERTEX
  5
1000006A
  8
VISIBLE
 10
-13.47570811123864
 20
-0.9561359010345516
 30
0.0
 70
    32
  0
VERTEX
  5
1000006B
  8
VISIBLE
 10
-13.49171428688713
 20
-0.7022316302547342
 30
0.0
 70
    32
  0
VERTEX
  5
1000006C
  8
VISIBLE
 10
-13.49837898741392
 20
-0.4479828821796178
 30
0.0
 70
    32
  0
VERTEX
  5
1000006D
  8
VISIBLE
 10
-13.5
 20
-0.1935529439267678
 30
0.0
 70
    32
  0
SEQEND
  5
10000070
  8
VISIBLE
  0
POLYLINE
  5
F441A
  8
VISIBLE
 10
0.0
 20
0.0
 30
0.0
 66
     1
 70
     8
  0
VERTEX
  5
10000071
  8
VISIBLE
 10
-13.5
 20
-0.1935529439267644
 30
0.0
 70
    32
  0
VERTEX
  5
10000072
  8
VISIBLE
 10
-13.50002413043537
 20
-0.0854029729656706
 30
0.0
 70
    32
  0
VERTEX
  5
10000073
  8
VISIBLE
 10
-13.5
 20
0.0
 30
0.0
 70
    32
  0
SEQEND
  5
10000076
  8
VISIBLE
  0
POLYLINE
  5
F441B
  8
VISIBLE
 10
0.0
 20
0.0
 30
0.0
 66
     1
 70
     8
  0
VERTEX
  5
10000077
  8
VISIBLE
 10
-13.5
 20
0.0
 30
0.0
 70
    32
  0
VERTEX
  5
10000078
  8
VISIBLE
 10
-13.5000307114632
 20
0.1086344817897261
 30
0.0
 70
    32
  0
VERTEX
  5
10000079
  8
VISIBLE
 10
-13.5
 20
0.1935529439267863
 30
0.0
 70
    32
  0
SEQEND
  5
1000007C
  8
VISIBLE
  0
CIRCLE
  5
F441C
  8
VISIBLE
 10
-8.909168388568464
 20
0.8125
 30
0.0
 40
0.125
  0
CIRCLE
  5
F441D
  8
VISIBLE
 10
-8.909168388568464
 20
-0.8125
 30
0.0
 40
0.125
  0
ENDSEC
  0
EOF
