  0
SECTION
  2
HEADER
  9
$ACADVER
  1
AC1009
  9
$LUNITS
 70
2
  9
$LUPREC
 70
4
  9
$LTSCALE
 40
1.0
  9
$EXTMIN
 10
-235.8175
 20
-30.1625
 30
0
  9
$EXTMAX
 10
289.8338
 20
30.1625
 30
0
  0
ENDSEC
  0
SECTION
  2
TABLES
  0
TABLE
  2
LTYPE
 70
256
  0
ENDTAB
  0
TABLE
  2
LAYER
 70
1
  0
LAYER
  2
LAYER_1
 70
64
 62
7
  6
CONTINUOUS
  0
ENDTAB
  0
TABLE
  2
STYLE
 70
6
  0
STYLE
  2
STANDARD
 70
0
 40
0
 50
0
 71
0
 41
0
 42
0
  3
TXT
  4
BIGFONT
  0
ENDTAB
  0
ENDSEC
  0
SECTION
  2
BLOCKS
  0
BLOCK
  8
LAYER_1
  2
AIGNBL01010002
 70
64
 10
0
 20
0
 30
0
  3
AIGNBL01010002
  0
LINE
  8
LAYER_1
 10
289.8338
 20
30.1625
 11
207.2838
 21
30.1625
  0
ENDBLK
  0
BLOCK
  8
LAYER_1
  2
AIGNBL01010003
 70
64
 10
0
 20
0
 30
0
  3
AIGNBL01010003
  0
LINE
  8
LAYER_1
 10
207.2838
 20
30.1625
 11
207.2838
 21
-30.1625
  0
ENDBLK
  0
BLOCK
  8
LAYER_1
  2
AIGNBL01010004
 70
64
 10
0
 20
0
 30
0
  3
AIGNBL01010004
  0
LINE
  8
LAYER_1
 10
289.8338
 20
-30.1625
 11
207.2838
 21
-30.1625
  0
ENDBLK
  0
BLOCK
  8
LAYER_1
  2
AIGNBL01010005
 70
64
 10
0
 20
0
 30
0
  3
AIGNBL01010005
  0
LINE
  8
LAYER_1
 10
289.8338
 20
30.1625
 11
289.8338
 21
-30.1625
  0
ENDBLK
  0
BLOCK
  8
LAYER_1
  2
AIGNBL01010006
 70
64
 10
0
 20
0
 30
0
  3
AIGNBL01010006
  0
LINE
  8
LAYER_1
 10
-153.2675
 20
30.1625
 11
-153.2675
 21
-30.1625
  0
ENDBLK
  0
BLOCK
  8
LAYER_1
  2
AIGNBL01010007
 70
64
 10
0
 20
0
 30
0
  3
AIGNBL01010007
  0
LINE
  8
LAYER_1
 10
-235.8175
 20
30.1625
 11
-153.2675
 21
30.1625
  0
ENDBLK
  0
BLOCK
  8
LAYER_1
  2
AIGNBL01010008
 70
64
 10
0
 20
0
 30
0
  3
AIGNBL01010008
  0
LINE
  8
LAYER_1
 10
-153.2675
 20
-30.1625
 11
-235.8175
 21
-30.1625
  0
ENDBLK
  0
BLOCK
  8
LAYER_1
  2
AIGNBL01010009
 70
64
 10
0
 20
0
 30
0
  3
AIGNBL01010009
  0
LINE
  8
LAYER_1
 10
-235.8175
 20
-30.1625
 11
-235.8175
 21
30.1625
  0
ENDBLK
  0
BLOCK
  8
LAYER_1
  2
AIGNBL0101000A
 70
64
 10
0
 20
0
 30
0
  3
AIGNBL0101000A
  0
ARC
  8
LAYER_1
 10
-226.2925
 20
20.6375
 40
3.175
 50
359.9997748
 51
90.00022516
  0
ARC
  8
LAYER_1
 10
-226.2925
 20
20.6375
 40
3.175
 50
90.00022518
 51
179.9997748
  0
ARC
  8
LAYER_1
 10
-226.2925
 20
20.6375
 40
3.175
 50
180.0002252
 51
269.9997748
  0
ARC
  8
LAYER_1
 10
-226.2925
 20
20.6375
 40
3.175
 50
269.9997748
 51
0.0002251705624
  0
ENDBLK
  0
BLOCK
  8
LAYER_1
  2
AIGNBL0101000B
 70
64
 10
0
 20
0
 30
0
  3
AIGNBL0101000B
  0
ARC
  8
LAYER_1
 10
-226.2925
 20
-20.6375
 40
3.175
 50
359.9997748
 51
90.00022516
  0
ARC
  8
LAYER_1
 10
-226.2925
 20
-20.6375
 40
3.175
 50
90.00022516
 51
179.9997748
  0
ARC
  8
LAYER_1
 10
-226.2925
 20
-20.6375
 40
3.175
 50
180.0002252
 51
269.9997748
  0
ARC
  8
LAYER_1
 10
-226.2925
 20
-20.6375
 40
3.175
 50
269.9997748
 51
0.0002251705623
  0
ENDBLK
  0
BLOCK
  8
LAYER_1
  2
AIGNBL0101000C
 70
64
 10
0
 20
0
 30
0
  3
AIGNBL0101000C
  0
ARC
  8
LAYER_1
 10
-162.7925
 20
-20.6375
 40
3.175
 50
269.9997748
 51
0.0002251705623
  0
ENDBLK
  0
BLOCK
  8
LAYER_1
  2
AIGNBL0101000D
 70
64
 10
0
 20
0
 30
0
  3
AIGNBL0101000D
  0
ARC
  8
LAYER_1
 10
-162.7925
 20
-20.6375
 40
3.175
 50
359.9997748
 51
90.00022516
  0
ARC
  8
LAYER_1
 10
-162.7925
 20
-20.6375
 40
3.175
 50
90.00022516
 51
179.9997748
  0
ARC
  8
LAYER_1
 10
-162.7925
 20
-20.6375
 40
3.175
 50
180.0002252
 51
269.9997748
  0
ENDBLK
  0
BLOCK
  8
LAYER_1
  2
AIGNBL0101000E
 70
64
 10
0
 20
0
 30
0
  3
AIGNBL0101000E
  0
ARC
  8
LAYER_1
 10
-162.7925
 20
20.6375
 40
3.175
 50
359.9997748
 51
90.00022516
  0
ARC
  8
LAYER_1
 10
-162.7925
 20
20.6375
 40
3.175
 50
90.00022518
 51
179.9997748
  0
ARC
  8
LAYER_1
 10
-162.7925
 20
20.6375
 40
3.175
 50
180.0002252
 51
269.9997748
  0
ARC
  8
LAYER_1
 10
-162.7925
 20
20.6375
 40
3.175
 50
269.9997748
 51
0.0002251705624
  0
ENDBLK
  0
BLOCK
  8
LAYER_1
  2
AIGNBL0101000F
 70
64
 10
0
 20
0
 30
0
  3
AIGNBL0101000F
  0
ARC
  8
LAYER_1
 10
216.8088
 20
20.6375
 40
3.175
 50
359.9998539
 51
90.00014605
  0
ARC
  8
LAYER_1
 10
216.8088
 20
20.6375
 40
3.175
 50
90.00014607
 51
179.9998539
  0
ARC
  8
LAYER_1
 10
216.8088
 20
20.6375
 40
3.175
 50
180.0001461
 51
269.9998539
  0
ARC
  8
LAYER_1
 10
216.8088
 20
20.6375
 40
3.175
 50
269.9998539
 51
0.0001460630361
  0
ENDBLK
  0
BLOCK
  8
LAYER_1
  2
AIGNBL01010010
 70
64
 10
0
 20
0
 30
0
  3
AIGNBL01010010
  0
ARC
  8
LAYER_1
 10
216.8088
 20
-20.6375
 40
3.175
 50
359.9998539
 51
90.00014605
  0
ARC
  8
LAYER_1
 10
216.8088
 20
-20.6375
 40
3.175
 50
90.00014605
 51
179.9998539
  0
ARC
  8
LAYER_1
 10
216.8088
 20
-20.6375
 40
3.175
 50
180.0001461
 51
269.9998539
  0
ARC
  8
LAYER_1
 10
216.8088
 20
-20.6375
 40
3.175
 50
269.9998539
 51
0.000146063036
  0
ENDBLK
  0
BLOCK
  8
LAYER_1
  2
AIGNBL01010011
 70
64
 10
0
 20
0
 30
0
  3
AIGNBL01010011
  0
ARC
  8
LAYER_1
 10
280.3088
 20
-20.6375
 40
3.175
 50
359.9998539
 51
90.00014605
  0
ARC
  8
LAYER_1
 10
280.3088
 20
-20.6375
 40
3.175
 50
90.00014605
 51
179.9998539
  0
ARC
  8
LAYER_1
 10
280.3088
 20
-20.6375
 40
3.175
 50
180.0001461
 51
269.9998539
  0
ARC
  8
LAYER_1
 10
280.3088
 20
-20.6375
 40
3.175
 50
269.9998539
 51
0.000146063036
  0
ENDBLK
  0
BLOCK
  8
LAYER_1
  2
AIGNBL01010012
 70
64
 10
0
 20
0
 30
0
  3
AIGNBL01010012
  0
ARC
  8
LAYER_1
 10
280.3088
 20
20.6375
 40
3.175
 50
359.9998539
 51
90.00014605
  0
ARC
  8
LAYER_1
 10
280.3088
 20
20.6375
 40
3.175
 50
90.00014607
 51
179.9998539
  0
ARC
  8
LAYER_1
 10
280.3088
 20
20.6375
 40
3.175
 50
180.0001461
 51
269.9998539
  0
ARC
  8
LAYER_1
 10
280.3088
 20
20.6375
 40
3.175
 50
269.9998539
 51
0.0001460630361
  0
ENDBLK
  0
ENDSEC
  0
SECTION
  2
ENTITIES
  0
INSERT
  8
LAYER_1
  2
AIGNBL01010002
 10
0
 20
0
 30
0
  0
INSERT
  8
LAYER_1
  2
AIGNBL01010003
 10
0
 20
0
 30
0
  0
INSERT
  8
LAYER_1
  2
AIGNBL01010004
 10
0
 20
0
 30
0
  0
INSERT
  8
LAYER_1
  2
AIGNBL01010005
 10
0
 20
0
 30
0
  0
INSERT
  8
LAYER_1
  2
AIGNBL01010006
 10
0
 20
0
 30
0
  0
INSERT
  8
LAYER_1
  2
AIGNBL01010007
 10
0
 20
0
 30
0
  0
INSERT
  8
LAYER_1
  2
AIGNBL01010008
 10
0
 20
0
 30
0
  0
INSERT
  8
LAYER_1
  2
AIGNBL01010009
 10
0
 20
0
 30
0
  0
INSERT
  8
LAYER_1
  2
AIGNBL0101000A
 10
0
 20
0
 30
0
  0
INSERT
  8
LAYER_1
  2
AIGNBL0101000B
 10
0
 20
0
 30
0
  0
INSERT
  8
LAYER_1
  2
AIGNBL0101000C
 10
0
 20
0
 30
0
  0
INSERT
  8
LAYER_1
  2
AIGNBL0101000D
 10
0
 20
0
 30
0
  0
INSERT
  8
LAYER_1
  2
AIGNBL0101000E
 10
0
 20
0
 30
0
  0
INSERT
  8
LAYER_1
  2
AIGNBL0101000F
 10
0
 20
0
 30
0
  0
INSERT
  8
LAYER_1
  2
AIGNBL01010010
 10
0
 20
0
 30
0
  0
INSERT
  8
LAYER_1
  2
AIGNBL01010011
 10
0
 20
0
 30
0
  0
INSERT
  8
LAYER_1
  2
AIGNBL01010012
 10
0
 20
0
 30
0
  0
ENDSEC
  0
EOF
